# Created by Kenney (www.kenney.nl)

mtllib battlement.mtl

g battlement

v 0.5 0.4 -0.6 1 1 1
v 0.5 0.2 -0.6 1 1 1
v 0.5 0.4 -0.45 1 1 1
v 0.5 -1.602965E-31 -0.5 1 1 1
v 0.5 0.2 -0.45 1 1 1
v 0.5 -1.602965E-31 -0.3 1 1 1
v 0.5 0.2 -0.3 1 1 1
v -0.5 -1.602965E-31 -0.3 1 1 1
v -0.5 0.2 -0.3 1 1 1
v -0.4 0.4 -0.6 1 1 1
v -0.5 0.4 -0.6 1 1 1
v -0.4 0.3 -0.6 1 1 1
v -0.5 0.2 -0.6 1 1 1
v 0.4 0.3 -0.6 1 1 1
v 0.4 0.4 -0.6 1 1 1
v -0.1 0.3 -0.6 1 1 1
v 0.1 0.3 -0.6 1 1 1
v -0.1 0.4 -0.6 1 1 1
v 0.1 0.4 -0.6 1 1 1
v 0.4 0.4 -0.45 1 1 1
v 0.4 0.3 -0.45 1 1 1
v -0.5 0.2 -0.45 1 1 1
v -0.4 0.3 -0.45 1 1 1
v -0.5 0.4 -0.45 1 1 1
v -0.4 0.4 -0.45 1 1 1
v 0.1 0.3 -0.45 1 1 1
v -0.1 0.3 -0.45 1 1 1
v 0.1 0.4 -0.45 1 1 1
v -0.1 0.4 -0.45 1 1 1
v -0.5 -1.602965E-31 -0.5 1 1 1

vn 1 0 0
vn -1 0 0
vn 0 0 1
vn 0 0 -1
vn 0 -0.4472136 -0.8944272
vn 0 0.4472136 0.8944272
vn 0 1 0
vn 0 -1 0

vt -0.9 0.4
vt -0.9 0.2
vt -1.05 0.4
vt -1 0
vt -1.05 0.2
vt -1.2 0
vt -1.2 0.2
vt 1.110223E-16 0
vt 1.110223E-16 0.2
vt -1 0.2
vt -0.1 0.4
vt 0 0.4
vt -0.1 0.3
vt 0 0.2
vt -0.9 0.3
vt -1 0.4
vt -0.4 0.3
vt -0.6 0.3
vt -0.4 0.4
vt -0.6 0.4
vt -1.15 0.4
vt -1.15 0.3
vt -2.05 0.2
vt -1.95 0.3
vt -2.05 0.4
vt -1.95 0.4
vt -1.45 0.3
vt -1.65 0.3
vt -1.45 0.4
vt -1.65 0.4
vt -1.1 0.3
vt -1.1 0.4
vt -0.95 0.3
vt -0.95 0.4
vt -1.05 0.3
vt 0.2 0.2
vt 0.2 0
vt 0.05 0.2
vt -1.387779E-17 0
vt 0.05 0.4
vt -0.1 0.2
vt -0.005603047 -0.06097665
vt -1.005603 -0.06097665
vt -0.005603047 0.1626301
vt -1.005603 0.1626301
vt 0.4 -1.1
vt 0.4 -0.95
vt 0.6 -1.1
vt 0.6 -0.95
vt 0.9 -1.1
vt 0.9 -0.95
vt 1 -1.1
vt 1 -0.95
vt 0 -0.95
vt 0 -0.8
vt 1 -0.8
vt 0.1 -1.1
vt 0.1 -0.95
vt 0 -1
vt -1 -0.8
vt -1 -1
vt 0 -1.1

usemtl stones

f 3/3/1 2/2/1 1/1/1
f 2/2/1 3/3/1 4/4/1
f 4/4/1 3/3/1 5/5/1
f 4/4/1 5/5/1 6/6/1
f 6/6/1 5/5/1 7/7/1
f 1/1/2 2/2/2 3/3/2
f 4/4/2 3/3/2 2/2/2
f 5/5/2 3/3/2 4/4/2
f 6/6/2 5/5/2 4/4/2
f 7/7/2 5/5/2 6/6/2
f 7/9/3 8/4/3 6/8/3
f 8/4/3 7/9/3 9/10/3
f 6/8/4 8/4/4 7/9/4
f 9/10/4 7/9/4 8/4/4
f 12/13/4 11/12/4 10/11/4
f 12/13/4 13/14/4 11/12/4
f 13/14/4 12/13/4 2/10/4
f 14/15/4 2/10/4 12/13/4
f 2/10/4 14/15/4 1/16/4
f 1/16/4 14/15/4 15/1/4
f 14/15/4 12/13/4 16/17/4
f 14/15/4 16/17/4 17/18/4
f 18/19/4 17/18/4 16/17/4
f 17/18/4 18/19/4 19/20/4
f 10/11/3 11/12/3 12/13/3
f 11/12/3 13/14/3 12/13/3
f 2/10/3 12/13/3 13/14/3
f 12/13/3 2/10/3 14/15/3
f 1/16/3 14/15/3 2/10/3
f 15/1/3 14/15/3 1/16/3
f 16/17/3 12/13/3 14/15/3
f 17/18/3 16/17/3 14/15/3
f 16/17/3 17/18/3 18/19/3
f 19/20/3 18/19/3 17/18/3
f 21/22/3 3/3/3 20/21/3
f 21/22/3 5/5/3 3/3/3
f 5/5/3 21/22/3 22/23/3
f 23/24/3 22/23/3 21/22/3
f 22/23/3 23/24/3 24/25/3
f 24/25/3 23/24/3 25/26/3
f 23/24/3 21/22/3 26/27/3
f 23/24/3 26/27/3 27/28/3
f 28/29/3 27/28/3 26/27/3
f 27/28/3 28/29/3 29/30/3
f 20/21/4 3/3/4 21/22/4
f 3/3/4 5/5/4 21/22/4
f 22/23/4 21/22/4 5/5/4
f 21/22/4 22/23/4 23/24/4
f 24/25/4 23/24/4 22/23/4
f 25/26/4 23/24/4 24/25/4
f 26/27/4 21/22/4 23/24/4
f 27/28/4 26/27/4 23/24/4
f 26/27/4 27/28/4 28/29/4
f 29/30/4 28/29/4 27/28/4
f 21/33/2 15/32/2 14/31/2
f 15/32/2 21/33/2 20/34/2
f 14/31/1 15/32/1 21/33/1
f 20/34/1 21/33/1 15/32/1
f 25/3/1 12/15/1 10/1/1
f 12/15/1 25/3/1 23/35/1
f 10/1/2 12/15/2 25/3/2
f 23/35/2 25/3/2 12/15/2
f 22/38/2 8/37/2 9/36/2
f 8/37/2 22/38/2 30/39/2
f 24/40/2 30/39/2 22/38/2
f 11/11/2 30/39/2 24/40/2
f 30/39/2 11/11/2 13/41/2
f 9/36/1 8/37/1 22/38/1
f 30/39/1 22/38/1 8/37/1
f 22/38/1 30/39/1 24/40/1
f 24/40/1 30/39/1 11/11/1
f 13/41/1 11/11/1 30/39/1
f 13/44/5 4/43/5 30/42/5
f 4/43/5 13/44/5 2/45/5
f 30/42/6 4/43/6 13/44/6
f 2/45/6 13/44/6 4/43/6
f 28/3/1 17/15/1 19/1/1
f 17/15/1 28/3/1 26/35/1
f 19/1/2 17/15/2 28/3/2
f 26/35/2 28/3/2 17/15/2
f 27/33/2 18/32/2 16/31/2
f 18/32/2 27/33/2 29/34/2
f 16/31/1 18/32/1 27/33/1
f 29/34/1 27/33/1 18/32/1

usemtl bricks

f 18/48/7 28/47/7 19/46/7
f 28/47/7 18/48/7 29/49/7
f 19/46/8 28/47/8 18/48/8
f 29/49/8 18/48/8 28/47/8
f 12/50/7 27/49/7 16/48/7
f 27/49/7 12/50/7 23/51/7
f 16/48/8 27/49/8 12/50/8
f 23/51/8 12/50/8 27/49/8
f 11/52/7 25/51/7 10/50/7
f 25/51/7 11/52/7 24/53/7
f 10/50/8 25/51/8 11/52/8
f 24/53/8 11/52/8 25/51/8
f 22/53/7 7/55/7 5/54/7
f 7/55/7 22/53/7 9/56/7
f 5/54/8 7/55/8 22/53/8
f 9/56/8 22/53/8 7/55/8
f 17/46/7 21/58/7 14/57/7
f 21/58/7 17/46/7 26/47/7
f 14/57/8 21/58/8 17/46/8
f 26/47/8 17/46/8 21/58/8
f 8/60/8 4/59/8 6/55/8
f 4/59/8 8/60/8 30/61/8
f 6/55/7 4/59/7 8/60/7
f 30/61/7 8/60/7 4/59/7
f 15/57/7 3/54/7 1/62/7
f 3/54/7 15/57/7 20/58/7
f 1/62/8 3/54/8 15/57/8
f 20/58/8 15/57/8 3/54/8

g battlement




usemtl stones

f 3/3/1 2/2/1 1/1/1
f 2/2/1 3/3/1 4/4/1
f 4/4/1 3/3/1 5/5/1
f 4/4/1 5/5/1 6/6/1
f 6/6/1 5/5/1 7/7/1
f 1/1/2 2/2/2 3/3/2
f 4/4/2 3/3/2 2/2/2
f 5/5/2 3/3/2 4/4/2
f 6/6/2 5/5/2 4/4/2
f 7/7/2 5/5/2 6/6/2
f 7/9/3 8/4/3 6/8/3
f 8/4/3 7/9/3 9/10/3
f 6/8/4 8/4/4 7/9/4
f 9/10/4 7/9/4 8/4/4
f 12/13/4 11/12/4 10/11/4
f 12/13/4 13/14/4 11/12/4
f 13/14/4 12/13/4 2/10/4
f 14/15/4 2/10/4 12/13/4
f 2/10/4 14/15/4 1/16/4
f 1/16/4 14/15/4 15/1/4
f 14/15/4 12/13/4 16/17/4
f 14/15/4 16/17/4 17/18/4
f 18/19/4 17/18/4 16/17/4
f 17/18/4 18/19/4 19/20/4
f 10/11/3 11/12/3 12/13/3
f 11/12/3 13/14/3 12/13/3
f 2/10/3 12/13/3 13/14/3
f 12/13/3 2/10/3 14/15/3
f 1/16/3 14/15/3 2/10/3
f 15/1/3 14/15/3 1/16/3
f 16/17/3 12/13/3 14/15/3
f 17/18/3 16/17/3 14/15/3
f 16/17/3 17/18/3 18/19/3
f 19/20/3 18/19/3 17/18/3
f 21/22/3 3/3/3 20/21/3
f 21/22/3 5/5/3 3/3/3
f 5/5/3 21/22/3 22/23/3
f 23/24/3 22/23/3 21/22/3
f 22/23/3 23/24/3 24/25/3
f 24/25/3 23/24/3 25/26/3
f 23/24/3 21/22/3 26/27/3
f 23/24/3 26/27/3 27/28/3
f 28/29/3 27/28/3 26/27/3
f 27/28/3 28/29/3 29/30/3
f 20/21/4 3/3/4 21/22/4
f 3/3/4 5/5/4 21/22/4
f 22/23/4 21/22/4 5/5/4
f 21/22/4 22/23/4 23/24/4
f 24/25/4 23/24/4 22/23/4
f 25/26/4 23/24/4 24/25/4
f 26/27/4 21/22/4 23/24/4
f 27/28/4 26/27/4 23/24/4
f 26/27/4 27/28/4 28/29/4
f 29/30/4 28/29/4 27/28/4
f 21/33/2 15/32/2 14/31/2
f 15/32/2 21/33/2 20/34/2
f 14/31/1 15/32/1 21/33/1
f 20/34/1 21/33/1 15/32/1
f 25/3/1 12/15/1 10/1/1
f 12/15/1 25/3/1 23/35/1
f 10/1/2 12/15/2 25/3/2
f 23/35/2 25/3/2 12/15/2
f 22/38/2 8/37/2 9/36/2
f 8/37/2 22/38/2 30/39/2
f 24/40/2 30/39/2 22/38/2
f 11/11/2 30/39/2 24/40/2
f 30/39/2 11/11/2 13/41/2
f 9/36/1 8/37/1 22/38/1
f 30/39/1 22/38/1 8/37/1
f 22/38/1 30/39/1 24/40/1
f 24/40/1 30/39/1 11/11/1
f 13/41/1 11/11/1 30/39/1
f 13/44/5 4/43/5 30/42/5
f 4/43/5 13/44/5 2/45/5
f 30/42/6 4/43/6 13/44/6
f 2/45/6 13/44/6 4/43/6
f 28/3/1 17/15/1 19/1/1
f 17/15/1 28/3/1 26/35/1
f 19/1/2 17/15/2 28/3/2
f 26/35/2 28/3/2 17/15/2
f 27/33/2 18/32/2 16/31/2
f 18/32/2 27/33/2 29/34/2
f 16/31/1 18/32/1 27/33/1
f 29/34/1 27/33/1 18/32/1

usemtl bricks

f 18/48/7 28/47/7 19/46/7
f 28/47/7 18/48/7 29/49/7
f 19/46/8 28/47/8 18/48/8
f 29/49/8 18/48/8 28/47/8
f 12/50/7 27/49/7 16/48/7
f 27/49/7 12/50/7 23/51/7
f 16/48/8 27/49/8 12/50/8
f 23/51/8 12/50/8 27/49/8
f 11/52/7 25/51/7 10/50/7
f 25/51/7 11/52/7 24/53/7
f 10/50/8 25/51/8 11/52/8
f 24/53/8 11/52/8 25/51/8
f 22/53/7 7/55/7 5/54/7
f 7/55/7 22/53/7 9/56/7
f 5/54/8 7/55/8 22/53/8
f 9/56/8 22/53/8 7/55/8
f 17/46/7 21/58/7 14/57/7
f 21/58/7 17/46/7 26/47/7
f 14/57/8 21/58/8 17/46/8
f 26/47/8 17/46/8 21/58/8
f 8/60/8 4/59/8 6/55/8
f 4/59/8 8/60/8 30/61/8
f 6/55/7 4/59/7 8/60/7
f 30/61/7 8/60/7 4/59/7
f 15/57/7 3/54/7 1/62/7
f 3/54/7 15/57/7 20/58/7
f 1/62/8 3/54/8 15/57/8
f 20/58/8 15/57/8 3/54/8

