# Created by Kenney (www.kenney.nl)

mtllib column-damaged.mtl

g column-damaged

v 0.1 0.9 -1.490115E-09 1 1 1
v 0 0.9 0 1 1 1
v 0.1 1 -1.490115E-09 1 1 1
v -0.1 0.7 1.490115E-09 1 1 1
v 0 0.7 0 1 1 1
v 0 0.8 0 1 1 1
v -1.490115E-09 0.6 -0.1 1 1 1
v -0.1 0.6 -0.1 1 1 1
v 0.1 0.8 0.1 1 1 1
v 1.490115E-09 0.8 0.1 1 1 1
v -0.1 0.7 0.1 1 1 1
v 0.1 1 -0.1 1 1 1
v -1.490115E-09 0.9 -0.1 1 1 1
v 0.1 0 0.1 1 1 1
v 0.1 0 -0.1 1 1 1
v -0.1 0 0.1 1 1 1
v -0.1 0 -0.1 1 1 1

vn 0 0 1
vn 0 0 -1
vn 0 0.7071068 -0.7071068
vn 0 -0.7071068 0.7071068
vn 0 0.7071068 0.7071068
vn 0 -0.7071068 -0.7071068
vn -0.7071068 0.7071068 0
vn 0.7071068 -0.7071068 0
vn -1 0 0
vn 1 0 0
vn 0 -1 0
vn 0 1 0

vt 1 1.9
vt 0.9 1.9
vt 1 2
vt 3.2 1.7
vt 3.1 1.7
vt 3.1 1.8
vt 3.1 0.7171573
vt 3.2 0.7171573
vt 3.1 0.5757359
vt 3.2 0.5757359
vt 1 2.272792
vt 0.9 2.272792
vt 1 2.414214
vt 0.9 2.414214
vt 1 0.787868
vt 1 0.6464466
vt 0.9 0.787868
vt 0.9 0.6464466
vt 0.9 1
vt 0.9 0.8585786
vt 0.8 1
vt 0.8 0.8585786
vt 0.8 1.6
vt 0.8 1.9
vt 0.9 1.7
vt 0.9 1.8
vt 1 1.8
vt -1 1.387779E-16
vt -0.8 1.110223E-16
vt -1 -0.2
vt -0.8 -0.2
vt -1.5 0
vt -1.7 0
vt -1.5 0.8
vt -1.7 0.7
vt -1.6 0.8
vt -2.2 0
vt -2.2 0.6
vt -2 0
vt -2.1 0.7
vt -2 0.7
vt -1.3 1
vt -1.3 0
vt -1.4 1
vt -1.4 0.9
vt -2.4 0
vt -2.3 0.6
vt -2.4 1
vt -2.3 0.9

usemtl bricks

f 3/3/1 2/2/1 1/1/1
f 1/1/2 2/2/2 3/3/2
f 6/6/2 5/5/2 4/4/2
f 4/4/1 5/5/1 6/6/1
f 7/9/3 4/8/3 5/7/3
f 4/8/3 7/9/3 8/10/3
f 5/7/4 4/8/4 7/9/4
f 8/10/4 7/9/4 4/8/4
f 1/13/5 10/12/5 9/11/5
f 10/12/5 1/13/5 2/14/5
f 9/11/6 10/12/6 1/13/6
f 2/14/6 1/13/6 10/12/6
f 6/17/7 11/16/7 10/15/7
f 11/16/7 6/17/7 4/18/7
f 10/15/8 11/16/8 6/17/8
f 4/18/8 6/17/8 11/16/8
f 12/21/7 2/20/7 3/19/7
f 2/20/7 12/21/7 13/22/7
f 3/19/8 2/20/8 12/21/8
f 13/22/8 12/21/8 2/20/8
f 5/25/9 13/24/9 7/23/9
f 13/24/9 5/25/9 2/2/9
f 2/2/9 5/25/9 6/26/9
f 2/2/9 6/26/9 10/27/9
f 7/23/10 13/24/10 5/25/10
f 2/2/10 5/25/10 13/24/10
f 6/26/10 5/25/10 2/2/10
f 10/27/10 6/26/10 2/2/10
f 16/30/11 15/29/11 14/28/11
f 15/29/11 16/30/11 17/31/11
f 14/28/12 15/29/12 16/30/12
f 17/31/12 16/30/12 15/29/12

usemtl stones

f 9/34/1 16/33/1 14/32/1
f 16/33/1 9/34/1 11/35/1
f 11/35/1 9/34/1 10/36/1
f 14/32/2 16/33/2 9/34/2
f 11/35/2 9/34/2 16/33/2
f 10/36/2 9/34/2 11/35/2
f 16/39/9 8/38/9 17/37/9
f 8/38/9 16/39/9 4/40/9
f 4/40/9 16/39/9 11/41/9
f 17/37/10 8/38/10 16/39/10
f 4/40/10 16/39/10 8/38/10
f 11/41/10 16/39/10 4/40/10
f 3/44/10 15/43/10 12/42/10
f 15/43/10 3/44/10 1/45/10
f 15/43/10 1/45/10 14/32/10
f 14/32/10 1/45/10 9/34/10
f 12/42/9 15/43/9 3/44/9
f 1/45/9 3/44/9 15/43/9
f 14/32/9 1/45/9 15/43/9
f 9/34/9 1/45/9 14/32/9
f 8/38/2 15/46/2 17/37/2
f 15/46/2 8/38/2 7/47/2
f 15/46/2 7/47/2 12/48/2
f 12/48/2 7/47/2 13/49/2
f 17/37/1 15/46/1 8/38/1
f 7/47/1 8/38/1 15/46/1
f 12/48/1 7/47/1 15/46/1
f 13/49/1 7/47/1 12/48/1

g column-damaged




usemtl bricks

f 3/3/1 2/2/1 1/1/1
f 1/1/2 2/2/2 3/3/2
f 6/6/2 5/5/2 4/4/2
f 4/4/1 5/5/1 6/6/1
f 7/9/3 4/8/3 5/7/3
f 4/8/3 7/9/3 8/10/3
f 5/7/4 4/8/4 7/9/4
f 8/10/4 7/9/4 4/8/4
f 1/13/5 10/12/5 9/11/5
f 10/12/5 1/13/5 2/14/5
f 9/11/6 10/12/6 1/13/6
f 2/14/6 1/13/6 10/12/6
f 6/17/7 11/16/7 10/15/7
f 11/16/7 6/17/7 4/18/7
f 10/15/8 11/16/8 6/17/8
f 4/18/8 6/17/8 11/16/8
f 12/21/7 2/20/7 3/19/7
f 2/20/7 12/21/7 13/22/7
f 3/19/8 2/20/8 12/21/8
f 13/22/8 12/21/8 2/20/8
f 5/25/9 13/24/9 7/23/9
f 13/24/9 5/25/9 2/2/9
f 2/2/9 5/25/9 6/26/9
f 2/2/9 6/26/9 10/27/9
f 7/23/10 13/24/10 5/25/10
f 2/2/10 5/25/10 13/24/10
f 6/26/10 5/25/10 2/2/10
f 10/27/10 6/26/10 2/2/10
f 16/30/11 15/29/11 14/28/11
f 15/29/11 16/30/11 17/31/11
f 14/28/12 15/29/12 16/30/12
f 17/31/12 16/30/12 15/29/12

usemtl stones

f 9/34/1 16/33/1 14/32/1
f 16/33/1 9/34/1 11/35/1
f 11/35/1 9/34/1 10/36/1
f 14/32/2 16/33/2 9/34/2
f 11/35/2 9/34/2 16/33/2
f 10/36/2 9/34/2 11/35/2
f 16/39/9 8/38/9 17/37/9
f 8/38/9 16/39/9 4/40/9
f 4/40/9 16/39/9 11/41/9
f 17/37/10 8/38/10 16/39/10
f 4/40/10 16/39/10 8/38/10
f 11/41/10 16/39/10 4/40/10
f 3/44/10 15/43/10 12/42/10
f 15/43/10 3/44/10 1/45/10
f 15/43/10 1/45/10 14/32/10
f 14/32/10 1/45/10 9/34/10
f 12/42/9 15/43/9 3/44/9
f 1/45/9 3/44/9 15/43/9
f 14/32/9 1/45/9 15/43/9
f 9/34/9 1/45/9 14/32/9
f 8/38/2 15/46/2 17/37/2
f 15/46/2 8/38/2 7/47/2
f 15/46/2 7/47/2 12/48/2
f 12/48/2 7/47/2 13/49/2
f 17/37/1 15/46/1 8/38/1
f 7/47/1 8/38/1 15/46/1
f 12/48/1 7/47/1 15/46/1
f 13/49/1 7/47/1 12/48/1

