# Created by Kenney (www.kenney.nl)

mtllib column-paint-damaged.mtl

g column-paint-damaged

v 0.1 0.8 -0.1 1 1 1
v 0.1 0 -0.1 1 1 1
v 0.1 0.8 -6.172249E-10 1 1 1
v 0.1 0.7 -6.172249E-10 1 1 1
v 0.1 0 0.1 1 1 1
v 0.1 0.6 0.1 1 1 1
v -0.1 0 0.1 1 1 1
v -0.1 0.5 0.1 1 1 1
v 6.17225E-10 0.6 0.1 1 1 1
v -0.1 0 -0.1 1 1 1
v -0.1 0.4 -0.1 1 1 1
v -6.17225E-10 0.4 -0.1 1 1 1
v -6.17225E-10 0.7 -0.1 1 1 1
v -0.1 0.5 6.172249E-10 1 1 1
v 0 0.7 0 1 1 1
v 0 0.5 0 1 1 1
v 0 0.6 0 1 1 1

vn 1 0 0
vn -1 0 0
vn 0 0 1
vn 0 0 -1
vn -0.7071068 0.7071068 0
vn 0.7071068 -0.7071068 0
vn 0 -1 0
vn 0 1 0
vn 0 0.7071068 0.7071068
vn 0 -0.7071068 -0.7071068
vn 0 0.7071068 -0.7071068
vn 0 -0.7071068 0.7071068

vt 0.7 0.8
vt 0.7 0
vt 0.6 0.8
vt 0.6 0.7
vt 0.5 0
vt 0.5 0.6
vt -1 0
vt -1.2 0
vt -1 0.6
vt -1.2 0.5
vt -1.1 0.6
vt 1.2 0
vt 1 0
vt 1.2 0.4
vt 1.1 0.4
vt 1 0.8
vt 1.1 0.7
vt -0.7 0
vt -0.7 0.4
vt -0.5 0
vt -0.6 0.5
vt -0.5 0.5
vt 0.5 1.7
vt 0.4 1.7
vt 0.5 1.8
vt 2.7 1.5
vt 2.6 1.5
vt 2.6 1.6
vt 0.9 0.6464466
vt 1 0.6464466
vt 0.9 0.5050253
vt 1 0.5050253
vt -1 5.551115E-17
vt -0.8 -5.551115E-17
vt -1 -0.2
vt -0.8 -0.2
vt 0.9 0.9292893
vt 0.9 0.787868
vt 0.8 0.9292893
vt 0.8 0.787868
vt 0.5 1.777817
vt 0.4 1.777817
vt 0.5 1.919239
vt 0.4 1.919239
vt 0.8 1.4
vt 0.8 1.7
vt 0.9 1.5
vt 0.9 1.7
vt 0.9 1.6
vt 1 1.6
vt 2.6 0.9292893
vt 2.7 0.9292893
vt 2.6 0.787868
vt 2.7 0.787868

usemtl stonesPainted

f 3/3/1 2/2/1 1/1/1
f 2/2/1 3/3/1 4/4/1
f 2/2/1 4/4/1 5/5/1
f 5/5/1 4/4/1 6/6/1
f 1/1/2 2/2/2 3/3/2
f 4/4/2 3/3/2 2/2/2
f 5/5/2 4/4/2 2/2/2
f 6/6/2 4/4/2 5/5/2
f 6/9/3 7/8/3 5/7/3
f 7/8/3 6/9/3 8/10/3
f 8/10/3 6/9/3 9/11/3
f 5/7/4 7/8/4 6/9/4
f 8/10/4 6/9/4 7/8/4
f 9/11/4 6/9/4 8/10/4
f 11/14/4 2/13/4 10/12/4
f 2/13/4 11/14/4 12/15/4
f 2/13/4 12/15/4 1/16/4
f 1/16/4 12/15/4 13/17/4
f 10/12/3 2/13/3 11/14/3
f 12/15/3 11/14/3 2/13/3
f 1/16/3 12/15/3 2/13/3
f 13/17/3 12/15/3 1/16/3
f 7/20/2 11/19/2 10/18/2
f 11/19/2 7/20/2 14/21/2
f 14/21/2 7/20/2 8/22/2
f 10/18/1 11/19/1 7/20/1
f 14/21/1 7/20/1 11/19/1
f 8/22/1 7/20/1 14/21/1

usemtl bricks

f 3/25/3 15/24/3 4/23/3
f 4/23/4 15/24/4 3/25/4
f 17/28/4 16/27/4 14/26/4
f 14/26/3 16/27/3 17/28/3
f 14/31/5 9/30/5 17/29/5
f 9/30/5 14/31/5 8/32/5
f 17/29/6 9/30/6 14/31/6
f 8/32/6 14/31/6 9/30/6
f 7/35/7 2/34/7 5/33/7
f 2/34/7 7/35/7 10/36/7
f 5/33/8 2/34/8 7/35/8
f 10/36/8 7/35/8 2/34/8
f 1/39/5 15/38/5 3/37/5
f 15/38/5 1/39/5 13/40/5
f 3/37/6 15/38/6 1/39/6
f 13/40/6 1/39/6 15/38/6
f 4/43/9 9/42/9 6/41/9
f 9/42/9 4/43/9 15/44/9
f 6/41/10 9/42/10 4/43/10
f 15/44/10 4/43/10 9/42/10
f 16/47/2 13/46/2 12/45/2
f 13/46/2 16/47/2 15/48/2
f 15/48/2 16/47/2 17/49/2
f 15/48/2 17/49/2 9/50/2
f 12/45/1 13/46/1 16/47/1
f 15/48/1 16/47/1 13/46/1
f 17/49/1 16/47/1 15/48/1
f 9/50/1 17/49/1 15/48/1
f 12/53/11 14/52/11 16/51/11
f 14/52/11 12/53/11 11/54/11
f 16/51/12 14/52/12 12/53/12
f 11/54/12 12/53/12 14/52/12

g column-paint-damaged




usemtl stonesPainted

f 3/3/1 2/2/1 1/1/1
f 2/2/1 3/3/1 4/4/1
f 2/2/1 4/4/1 5/5/1
f 5/5/1 4/4/1 6/6/1
f 1/1/2 2/2/2 3/3/2
f 4/4/2 3/3/2 2/2/2
f 5/5/2 4/4/2 2/2/2
f 6/6/2 4/4/2 5/5/2
f 6/9/3 7/8/3 5/7/3
f 7/8/3 6/9/3 8/10/3
f 8/10/3 6/9/3 9/11/3
f 5/7/4 7/8/4 6/9/4
f 8/10/4 6/9/4 7/8/4
f 9/11/4 6/9/4 8/10/4
f 11/14/4 2/13/4 10/12/4
f 2/13/4 11/14/4 12/15/4
f 2/13/4 12/15/4 1/16/4
f 1/16/4 12/15/4 13/17/4
f 10/12/3 2/13/3 11/14/3
f 12/15/3 11/14/3 2/13/3
f 1/16/3 12/15/3 2/13/3
f 13/17/3 12/15/3 1/16/3
f 7/20/2 11/19/2 10/18/2
f 11/19/2 7/20/2 14/21/2
f 14/21/2 7/20/2 8/22/2
f 10/18/1 11/19/1 7/20/1
f 14/21/1 7/20/1 11/19/1
f 8/22/1 7/20/1 14/21/1

usemtl bricks

f 3/25/3 15/24/3 4/23/3
f 4/23/4 15/24/4 3/25/4
f 17/28/4 16/27/4 14/26/4
f 14/26/3 16/27/3 17/28/3
f 14/31/5 9/30/5 17/29/5
f 9/30/5 14/31/5 8/32/5
f 17/29/6 9/30/6 14/31/6
f 8/32/6 14/31/6 9/30/6
f 7/35/7 2/34/7 5/33/7
f 2/34/7 7/35/7 10/36/7
f 5/33/8 2/34/8 7/35/8
f 10/36/8 7/35/8 2/34/8
f 1/39/5 15/38/5 3/37/5
f 15/38/5 1/39/5 13/40/5
f 3/37/6 15/38/6 1/39/6
f 13/40/6 1/39/6 15/38/6
f 4/43/9 9/42/9 6/41/9
f 9/42/9 4/43/9 15/44/9
f 6/41/10 9/42/10 4/43/10
f 15/44/10 4/43/10 9/42/10
f 16/47/2 13/46/2 12/45/2
f 13/46/2 16/47/2 15/48/2
f 15/48/2 16/47/2 17/49/2
f 15/48/2 17/49/2 9/50/2
f 12/45/1 13/46/1 16/47/1
f 15/48/1 16/47/1 13/46/1
f 17/49/1 16/47/1 15/48/1
f 9/50/1 17/49/1 15/48/1
f 12/53/11 14/52/11 16/51/11
f 14/52/11 12/53/11 11/54/11
f 16/51/12 14/52/12 12/53/12
f 11/54/12 12/53/12 14/52/12

