# Created by Kenney (www.kenney.nl)

mtllib detail-crate-small.mtl

g detail-crate-small

v 0.1 0 0.1 1 1 1
v -0.1 0 0.1 1 1 1
v 0.1 0.2 0.1 1 1 1
v -0.1 0.2 0.1 1 1 1
v -0.1 0 -0.1 1 1 1
v 0.1 0 -0.1 1 1 1
v -0.1 0.2 -0.1 1 1 1
v 0.1 0.2 -0.1 1 1 1

vn 0 0 1
vn 0 0 -1
vn -1 0 0
vn 1 0 0
vn 0 1 0
vn 0 -1 0

vt 3.497737 0.004930351
vt 3.00859 0.004930351
vt 3.497738 0.4940741
vt 3.008591 0.4940741
vt 3.007451 0.5031628
vt 3.007452 0.9923037
vt 3.496592 0.503162
vt 3.496593 0.992303
vt 0.1042656 -0.4318054
vt 0.1042659 -0.0581086
vt 0.4779627 -0.4318054
vt 0.4779629 -0.0581086
vt 3.496592 0.503162
vt 3.007451 0.5031628
vt -16.52525 -0.0581086
vt -16.52525 -0.4318054
vt -16.89895 -0.0581086
vt -16.89895 -0.4318054

usemtl barrel

f 3/3/1 2/2/1 1/1/1
f 2/2/1 3/3/1 4/4/1
f 1/1/2 2/2/2 3/3/2
f 4/4/2 3/3/2 2/2/2
f 7/3/2 6/2/2 5/1/2
f 6/2/2 7/3/2 8/4/2
f 5/1/1 6/2/1 7/3/1
f 8/4/1 7/3/1 6/2/1
f 2/7/3 7/6/3 5/5/3
f 7/6/3 2/7/3 4/8/3
f 5/5/4 7/6/4 2/7/4
f 4/8/4 2/7/4 7/6/4
f 7/11/5 3/10/5 8/9/5
f 3/10/5 7/11/5 4/12/5
f 8/9/6 3/10/6 7/11/6
f 4/12/6 7/11/6 3/10/6
f 3/6/4 6/13/4 8/8/4
f 6/13/4 3/6/4 1/14/4
f 8/8/3 6/13/3 3/6/3
f 1/14/3 3/6/3 6/13/3
f 2/17/6 6/16/6 1/15/6
f 6/16/6 2/17/6 5/18/6
f 1/15/5 6/16/5 2/17/5
f 5/18/5 2/17/5 6/16/5

g detail-crate-small




usemtl barrel

f 3/3/1 2/2/1 1/1/1
f 2/2/1 3/3/1 4/4/1
f 1/1/2 2/2/2 3/3/2
f 4/4/2 3/3/2 2/2/2
f 7/3/2 6/2/2 5/1/2
f 6/2/2 7/3/2 8/4/2
f 5/1/1 6/2/1 7/3/1
f 8/4/1 7/3/1 6/2/1
f 2/7/3 7/6/3 5/5/3
f 7/6/3 2/7/3 4/8/3
f 5/5/4 7/6/4 2/7/4
f 4/8/4 2/7/4 7/6/4
f 7/11/5 3/10/5 8/9/5
f 3/10/5 7/11/5 4/12/5
f 8/9/6 3/10/6 7/11/6
f 4/12/6 7/11/6 3/10/6
f 3/6/4 6/13/4 8/8/4
f 6/13/4 3/6/4 1/14/4
f 8/8/3 6/13/3 3/6/3
f 1/14/3 3/6/3 6/13/3
f 2/17/6 6/16/6 1/15/6
f 6/16/6 2/17/6 5/18/6
f 1/15/5 6/16/5 2/17/5
f 5/18/5 2/17/5 6/16/5

