# Created by Kenney (www.kenney.nl)

mtllib detail-crate-ropes.mtl

g detail-crate-ropes

v 0.15 0 0.15 1 1 1
v -0.15 0 0.15 1 1 1
v 0.15 0.3 0.15 1 1 1
v -0.15 0.3 0.15 1 1 1
v -0.15 0 -0.15 1 1 1
v 0.15 0 -0.15 1 1 1
v -0.15 0.3 -0.15 1 1 1
v 0.15 0.3 -0.15 1 1 1
v 0.15 0.3 0.07538619 1 1 1
v 0.15 4.470462E-09 0.07538619 1 1 1
v 0.15 4.470462E-09 -0.075 1 1 1
v -0.15 0 -0.075 1 1 1
v -0.15 0.3 -0.075 1 1 1
v 0.15 0.3 0.02538618 1 1 1
v -0.15 0.3 0.02538618 1 1 1
v 0.15 0.3 -0.025 1 1 1
v -0.15 0.3 -0.025 1 1 1
v 0.15 0.3 -0.075 1 1 1
v -0.15 0.3 0.07538619 1 1 1
v -0.15 0 0.07538619 1 1 1
v 0.15 4.470462E-09 -0.025 1 1 1
v 0.15 4.470462E-09 0.02538618 1 1 1
v -0.15 0 -0.025 1 1 1
v -0.15 0 0.02538618 1 1 1

vn 0 0 1
vn 0 0 -1
vn 1 0 0
vn -1 0 0
vn 0 -1 0
vn 0 1 0
vn 0 1 2.626711E-07
vn 0 -1 -2.626711E-07
vn 1 0 -2.626711E-07
vn -1 0 2.626711E-07
vn 0 1 -2.646999E-07
vn 0 -1 2.646999E-07

vt 3.497737 0.004930351
vt 3.00859 0.004930351
vt 3.497738 0.4940741
vt 3.008591 0.4940741
vt 3.129107 0.9923036
vt 3.129107 0.5031626
vt 3.007452 0.9923037
vt 3.007451 0.5031628
vt 3.007451 0.5031628
vt 3.129737 0.9923036
vt 3.129736 0.5031626
vt 3.007448 0.5031628
vt 3.007449 0.9923037
vt 3.129733 0.5031626
vt 3.129734 0.9923036
vt 3.316745 0.9335018
vt 3.316745 0.5694659
vt 3.255604 0.9335019
vt 3.255603 0.5694661
vt 3.103922 0.9335021
vt 3.194931 0.933502
vt 3.103921 0.5694663
vt 3.194931 0.5694661
vt 3.377418 0.9335017
vt 3.467959 0.9335016
vt 3.377418 0.5694659
vt 3.467958 0.5694657
vt 3.374936 0.5031622
vt 3.374937 0.9923031
vt 3.496592 0.503162
vt 3.496593 0.992303
vt 3.292779 0.9923033
vt 3.292779 0.5031623
vt 3.210626 0.9923034
vt 3.210625 0.5031625
vt 3.211264 0.5031624
vt 3.211265 0.9923034
vt 3.293417 0.5031623
vt 3.293418 0.9923033
vt 3.293414 0.9923033
vt 3.211261 0.9923034
vt 3.293413 0.5031623
vt 3.21126 0.5031624
vt 3.496596 0.992303
vt 3.496595 0.503162
vt 3.374311 0.9923032
vt 3.37431 0.5031622
vt -9.989883 0.7269021
vt -9.887712 0.7269021
vt -9.989883 0.1138767
vt -9.887713 0.1138767
vt -9.989878 0.1138776
vt -9.989878 0.726903
vt -9.887708 0.1138776
vt -9.887707 0.726903
vt -9.989889 0.1138757
vt -9.989889 0.7269011
vt -9.887719 0.1138756
vt -9.887718 0.7269011

usemtl barrel

f 3/3/1 2/2/1 1/1/1
f 2/2/1 3/3/1 4/4/1
f 1/1/2 2/2/2 3/3/2
f 4/4/2 3/3/2 2/2/2
f 7/3/2 6/2/2 5/1/2
f 6/2/2 7/3/2 8/4/2
f 5/1/1 6/2/1 7/3/1
f 8/4/1 7/3/1 6/2/1
f 3/7/3 10/6/3 9/5/3
f 10/6/3 3/7/3 1/8/3
f 9/5/4 10/6/4 3/7/4
f 1/8/4 3/7/4 10/6/4
f 11/10/5 5/9/5 6/7/5
f 5/9/5 11/10/5 12/11/5
f 6/7/6 5/9/6 11/10/6
f 12/11/6 11/10/6 5/9/6
f 12/14/4 7/13/4 5/12/4
f 7/13/4 12/14/4 13/15/4
f 5/12/3 7/13/3 12/14/3
f 13/15/3 12/14/3 7/13/3
f 16/18/7 15/17/7 14/16/7
f 15/17/7 16/18/7 17/19/7
f 14/16/8 15/17/8 16/18/8
f 17/19/8 16/18/8 15/17/8
f 7/22/6 18/21/6 8/20/6
f 18/21/6 7/22/6 13/23/6
f 8/20/5 18/21/5 7/22/5
f 13/23/5 7/22/5 18/21/5
f 19/26/6 3/25/6 9/24/6
f 3/25/6 19/26/6 4/27/6
f 9/24/5 3/25/5 19/26/5
f 4/27/5 19/26/5 3/25/5
f 2/30/4 19/29/4 20/28/4
f 19/29/4 2/30/4 4/31/4
f 20/28/3 19/29/3 2/30/3
f 4/31/3 2/30/3 19/29/3
f 14/34/9 21/33/9 16/32/9
f 21/33/9 14/34/9 22/35/9
f 16/32/10 21/33/10 14/34/10
f 22/35/10 14/34/10 21/33/10
f 24/38/10 17/37/10 23/36/10
f 17/37/10 24/38/10 15/39/10
f 23/36/9 17/37/9 24/38/9
f 15/39/9 24/38/9 17/37/9
f 1/31/5 20/28/5 10/29/5
f 20/28/5 1/31/5 2/30/5
f 10/29/6 20/28/6 1/31/6
f 2/30/6 1/31/6 20/28/6
f 24/42/5 21/41/5 22/40/5
f 21/41/5 24/42/5 23/43/5
f 22/40/6 21/41/6 24/42/6
f 23/43/6 24/42/6 21/41/6
f 18/46/3 6/45/3 8/44/3
f 6/45/3 18/46/3 11/47/3
f 8/44/4 6/45/4 18/46/4
f 11/47/4 18/46/4 6/45/4

usemtl details

f 13/50/11 16/49/11 18/48/11
f 16/49/11 13/50/11 17/51/11
f 18/48/12 16/49/12 13/50/12
f 17/51/12 13/50/12 16/49/12
f 23/54/4 13/53/4 12/52/4
f 13/53/4 23/54/4 17/55/4
f 12/52/3 13/53/3 23/54/3
f 17/55/3 23/54/3 13/53/3
f 23/49/5 11/50/5 21/51/5
f 11/50/5 23/49/5 12/48/5
f 21/51/6 11/50/6 23/49/6
f 12/48/6 23/49/6 11/50/6
f 16/58/3 11/57/3 18/56/3
f 11/57/3 16/58/3 21/59/3
f 18/56/4 11/57/4 16/58/4
f 21/59/4 16/58/4 11/57/4
f 9/58/3 22/57/3 14/56/3
f 22/57/3 9/58/3 10/59/3
f 14/56/4 22/57/4 9/58/4
f 10/59/4 9/58/4 22/57/4
f 15/50/11 9/49/11 14/48/11
f 9/49/11 15/50/11 19/51/11
f 14/48/12 9/49/12 15/50/12
f 19/51/12 15/50/12 9/49/12
f 20/54/4 15/53/4 24/52/4
f 15/53/4 20/54/4 19/55/4
f 24/52/3 15/53/3 20/54/3
f 19/55/3 20/54/3 15/53/3
f 20/49/5 22/50/5 10/51/5
f 22/50/5 20/49/5 24/48/5
f 10/51/6 22/50/6 20/49/6
f 24/48/6 20/49/6 22/50/6

g detail-crate-ropes




usemtl barrel

f 3/3/1 2/2/1 1/1/1
f 2/2/1 3/3/1 4/4/1
f 1/1/2 2/2/2 3/3/2
f 4/4/2 3/3/2 2/2/2
f 7/3/2 6/2/2 5/1/2
f 6/2/2 7/3/2 8/4/2
f 5/1/1 6/2/1 7/3/1
f 8/4/1 7/3/1 6/2/1
f 3/7/3 10/6/3 9/5/3
f 10/6/3 3/7/3 1/8/3
f 9/5/4 10/6/4 3/7/4
f 1/8/4 3/7/4 10/6/4
f 11/10/5 5/9/5 6/7/5
f 5/9/5 11/10/5 12/11/5
f 6/7/6 5/9/6 11/10/6
f 12/11/6 11/10/6 5/9/6
f 12/14/4 7/13/4 5/12/4
f 7/13/4 12/14/4 13/15/4
f 5/12/3 7/13/3 12/14/3
f 13/15/3 12/14/3 7/13/3
f 16/18/7 15/17/7 14/16/7
f 15/17/7 16/18/7 17/19/7
f 14/16/8 15/17/8 16/18/8
f 17/19/8 16/18/8 15/17/8
f 7/22/6 18/21/6 8/20/6
f 18/21/6 7/22/6 13/23/6
f 8/20/5 18/21/5 7/22/5
f 13/23/5 7/22/5 18/21/5
f 19/26/6 3/25/6 9/24/6
f 3/25/6 19/26/6 4/27/6
f 9/24/5 3/25/5 19/26/5
f 4/27/5 19/26/5 3/25/5
f 2/30/4 19/29/4 20/28/4
f 19/29/4 2/30/4 4/31/4
f 20/28/3 19/29/3 2/30/3
f 4/31/3 2/30/3 19/29/3
f 14/34/9 21/33/9 16/32/9
f 21/33/9 14/34/9 22/35/9
f 16/32/10 21/33/10 14/34/10
f 22/35/10 14/34/10 21/33/10
f 24/38/10 17/37/10 23/36/10
f 17/37/10 24/38/10 15/39/10
f 23/36/9 17/37/9 24/38/9
f 15/39/9 24/38/9 17/37/9
f 1/31/5 20/28/5 10/29/5
f 20/28/5 1/31/5 2/30/5
f 10/29/6 20/28/6 1/31/6
f 2/30/6 1/31/6 20/28/6
f 24/42/5 21/41/5 22/40/5
f 21/41/5 24/42/5 23/43/5
f 22/40/6 21/41/6 24/42/6
f 23/43/6 24/42/6 21/41/6
f 18/46/3 6/45/3 8/44/3
f 6/45/3 18/46/3 11/47/3
f 8/44/4 6/45/4 18/46/4
f 11/47/4 18/46/4 6/45/4

usemtl details

f 13/50/11 16/49/11 18/48/11
f 16/49/11 13/50/11 17/51/11
f 18/48/12 16/49/12 13/50/12
f 17/51/12 13/50/12 16/49/12
f 23/54/4 13/53/4 12/52/4
f 13/53/4 23/54/4 17/55/4
f 12/52/3 13/53/3 23/54/3
f 17/55/3 23/54/3 13/53/3
f 23/49/5 11/50/5 21/51/5
f 11/50/5 23/49/5 12/48/5
f 21/51/6 11/50/6 23/49/6
f 12/48/6 23/49/6 11/50/6
f 16/58/3 11/57/3 18/56/3
f 11/57/3 16/58/3 21/59/3
f 18/56/4 11/57/4 16/58/4
f 21/59/4 16/58/4 11/57/4
f 9/58/3 22/57/3 14/56/3
f 22/57/3 9/58/3 10/59/3
f 14/56/4 22/57/4 9/58/4
f 10/59/4 9/58/4 22/57/4
f 15/50/11 9/49/11 14/48/11
f 9/49/11 15/50/11 19/51/11
f 14/48/12 9/49/12 15/50/12
f 19/51/12 15/50/12 9/49/12
f 20/54/4 15/53/4 24/52/4
f 15/53/4 20/54/4 19/55/4
f 24/52/3 15/53/3 20/54/3
f 19/55/3 20/54/3 15/53/3
f 20/49/5 22/50/5 10/51/5
f 22/50/5 20/49/5 24/48/5
f 10/51/6 22/50/6 20/49/6
f 24/48/6 20/49/6 22/50/6

