# Created by Kenney (www.kenney.nl)

mtllib fence-wood.mtl

g fence-wood

v 0.5 0 0.05 1 1 1
v 0.5 0 -0.05 1 1 1
v 0.4 0 0.05 1 1 1
v 0.4 0 -0.05 1 1 1
v 0.5 0.2 0.05 1 1 1
v 0.4 0.3 0.05 1 1 1
v 0.5 0.3 0.05 1 1 1
v 0.4 0.2 -0.05 1 1 1
v 0.4 0.3 -0.05 1 1 1
v 0.5 0.3 -0.05 1 1 1
v -0.4 0 0.05 1 1 1
v -0.5 0 0.05 1 1 1
v -0.4 0.3 0.05 1 1 1
v -0.5 0.2 0.05 1 1 1
v -0.5 0.3 0.05 1 1 1
v -0.4 0.3 -0.05 1 1 1
v -0.4 0.2 -0.05 1 1 1
v -0.4 0 -0.05 1 1 1
v -0.5 0.3 -0.05 1 1 1
v -0.5 0 -0.05 1 1 1
v 0.4 0.15 0 1 1 1
v 0.4 0.25 0 1 1 1
v -0.4 0.15 0 1 1 1
v -0.4 0.25 0 1 1 1

vn 0 -1 0
vn 0 1 0
vn 0 0 1
vn 0 0 -1
vn -1 0 0
vn 1 0 0

vt 2 -0.8881186
vt 2 -1
vt 1.888119 -0.8881186
vt 1.888119 -1
vt 2.111881 -1
vt 2 -1.223762
vt 2.11188 -1.335643
vt 1.999999 -1.335643
vt 1.888119 -1
vt 1.888119 -1.223762
vt 1.776238 -0.9999998
vt 1.888118 -1.335643
vt 1.776237 -1.335643
vt 1.999998 -2.230691
vt 1.888117 -2.230691
vt 1.999998 -2.11881
vt 1.888117 -2.118809
vt 1.888112 -1.335639
vt 1.888113 -0.9999969
vt 1.999993 -1.335638
vt 1.999993 -1.223758
vt 1.999994 -0.9999967
vt 1.888113 -0.9999968
vt 1.999993 -0.9999967
vt 1.888112 -1.223758
vt 1.999993 -1.335638
vt 1.888112 -1.335639
vt 1.888119 -1
vt 1.776237 -1.335643
vt 1.888112 -1.335639
vt 1.888112 -1.223758
vt 1.999992 -1.335638
vt 1.888112 -0.9999969
vt 1.999993 -0.9999967
vt 1.888116 -2.230691
vt 1.999993 -1.223758
vt 1.999992 -0.9999967
vt 1.999991 -1.335639
vt 1.888111 -0.9999969
vt 1.888111 -1.223758
vt 1.888111 -1.335639
vt 1.888111 -1.895042
vt 1.999992 -1.895041

usemtl planks

f 3/3/1 2/2/1 1/1/1
f 2/2/1 3/3/1 4/4/1
f 1/1/2 2/2/2 3/3/2
f 4/4/2 3/3/2 2/2/2
f 5/6/3 3/5/3 1/2/3
f 3/5/3 5/6/3 6/7/3
f 6/7/3 5/6/3 7/8/3
f 1/2/4 3/5/4 5/6/4
f 6/7/4 5/6/4 3/5/4
f 7/8/4 5/6/4 6/7/4
f 3/11/5 8/10/5 4/9/5
f 8/10/5 3/11/5 9/12/5
f 9/12/5 3/11/5 6/13/5
f 4/9/6 8/10/6 3/11/6
f 9/12/6 3/11/6 8/10/6
f 6/13/6 3/11/6 9/12/6
f 10/16/2 6/15/2 7/14/2
f 6/15/2 10/16/2 9/17/2
f 7/14/1 6/15/1 10/16/1
f 9/17/1 10/16/1 6/15/1
f 7/20/6 2/19/6 10/18/6
f 2/19/6 7/20/6 5/21/6
f 1/22/6 2/19/6 5/21/6
f 10/18/5 2/19/5 7/20/5
f 5/21/5 7/20/5 2/19/5
f 5/21/5 2/19/5 1/22/5
f 8/25/4 2/24/4 4/23/4
f 2/24/4 8/25/4 10/26/4
f 10/26/4 8/25/4 9/27/4
f 4/23/3 2/24/3 8/25/3
f 10/26/3 8/25/3 2/24/3
f 9/27/3 8/25/3 10/26/3
f 13/29/3 12/28/3 11/11/3
f 12/28/3 13/29/3 14/10/3
f 14/10/3 13/29/3 15/12/3
f 11/11/4 12/28/4 13/29/4
f 14/10/4 13/29/4 12/28/4
f 15/12/4 13/29/4 14/10/4
f 13/32/6 17/31/6 16/30/6
f 17/31/6 13/32/6 18/33/6
f 18/33/6 13/32/6 11/34/6
f 16/30/5 17/31/5 13/32/5
f 18/33/5 13/32/5 17/31/5
f 11/34/5 13/32/5 18/33/5
f 19/17/2 13/14/2 16/16/2
f 13/14/2 19/17/2 15/35/2
f 16/16/1 13/14/1 19/17/1
f 15/35/1 19/17/1 13/14/1
f 19/27/4 18/24/4 20/23/4
f 18/24/4 19/27/4 17/36/4
f 17/36/4 19/27/4 16/26/4
f 20/23/3 18/24/3 19/27/3
f 17/36/3 19/27/3 18/24/3
f 16/26/3 19/27/3 17/36/3
f 12/39/5 19/38/5 20/37/5
f 19/38/5 12/39/5 14/40/5
f 15/41/5 19/38/5 14/40/5
f 20/37/6 19/38/6 12/39/6
f 14/40/6 12/39/6 19/38/6
f 14/40/6 19/38/6 15/41/6
f 12/3/1 18/2/1 11/1/1
f 18/2/1 12/3/1 20/4/1
f 11/1/2 18/2/2 12/3/2
f 20/4/2 12/3/2 18/2/2
f 23/42/4 22/24/4 21/23/4
f 22/24/4 23/42/4 24/43/4
f 21/23/3 22/24/3 23/42/3
f 24/43/3 23/42/3 22/24/3

g fence-wood




usemtl planks

f 3/3/1 2/2/1 1/1/1
f 2/2/1 3/3/1 4/4/1
f 1/1/2 2/2/2 3/3/2
f 4/4/2 3/3/2 2/2/2
f 5/6/3 3/5/3 1/2/3
f 3/5/3 5/6/3 6/7/3
f 6/7/3 5/6/3 7/8/3
f 1/2/4 3/5/4 5/6/4
f 6/7/4 5/6/4 3/5/4
f 7/8/4 5/6/4 6/7/4
f 3/11/5 8/10/5 4/9/5
f 8/10/5 3/11/5 9/12/5
f 9/12/5 3/11/5 6/13/5
f 4/9/6 8/10/6 3/11/6
f 9/12/6 3/11/6 8/10/6
f 6/13/6 3/11/6 9/12/6
f 10/16/2 6/15/2 7/14/2
f 6/15/2 10/16/2 9/17/2
f 7/14/1 6/15/1 10/16/1
f 9/17/1 10/16/1 6/15/1
f 7/20/6 2/19/6 10/18/6
f 2/19/6 7/20/6 5/21/6
f 1/22/6 2/19/6 5/21/6
f 10/18/5 2/19/5 7/20/5
f 5/21/5 7/20/5 2/19/5
f 5/21/5 2/19/5 1/22/5
f 8/25/4 2/24/4 4/23/4
f 2/24/4 8/25/4 10/26/4
f 10/26/4 8/25/4 9/27/4
f 4/23/3 2/24/3 8/25/3
f 10/26/3 8/25/3 2/24/3
f 9/27/3 8/25/3 10/26/3
f 13/29/3 12/28/3 11/11/3
f 12/28/3 13/29/3 14/10/3
f 14/10/3 13/29/3 15/12/3
f 11/11/4 12/28/4 13/29/4
f 14/10/4 13/29/4 12/28/4
f 15/12/4 13/29/4 14/10/4
f 13/32/6 17/31/6 16/30/6
f 17/31/6 13/32/6 18/33/6
f 18/33/6 13/32/6 11/34/6
f 16/30/5 17/31/5 13/32/5
f 18/33/5 13/32/5 17/31/5
f 11/34/5 13/32/5 18/33/5
f 19/17/2 13/14/2 16/16/2
f 13/14/2 19/17/2 15/35/2
f 16/16/1 13/14/1 19/17/1
f 15/35/1 19/17/1 13/14/1
f 19/27/4 18/24/4 20/23/4
f 18/24/4 19/27/4 17/36/4
f 17/36/4 19/27/4 16/26/4
f 20/23/3 18/24/3 19/27/3
f 17/36/3 19/27/3 18/24/3
f 16/26/3 19/27/3 17/36/3
f 12/39/5 19/38/5 20/37/5
f 19/38/5 12/39/5 14/40/5
f 15/41/5 19/38/5 14/40/5
f 20/37/6 19/38/6 12/39/6
f 14/40/6 12/39/6 19/38/6
f 14/40/6 19/38/6 15/41/6
f 12/3/1 18/2/1 11/1/1
f 18/2/1 12/3/1 20/4/1
f 11/1/2 18/2/2 12/3/2
f 20/4/2 12/3/2 18/2/2
f 23/42/4 22/24/4 21/23/4
f 22/24/4 23/42/4 24/43/4
f 21/23/3 22/24/3 23/42/3
f 24/43/3 23/42/3 22/24/3

