# Created by Kenney (www.kenney.nl)

mtllib fence.mtl

g fence

v -0.5 0 1.443823E-15 1 1 1
v 0 0 7.219114E-16 1 1 1
v -0.5 0.5 7.219114E-16 1 1 1
v 0 0.5 0 1 1 1
v 0.5 0 7.219114E-16 1 1 1
v 0.5 0.5 0 1 1 1

vn 0 0 -1
vn 0 0 1

vt 3 5.176825E-15
vt 2 5.176825E-15
vt 3 1
vt 2 1
vt 4.000001 1
vt 4.000001 5.176825E-15

usemtl fence

f 3/3/1 2/2/1 1/1/1
f 2/2/1 3/3/1 4/4/1
f 1/6/2 2/1/2 3/5/2
f 4/3/2 3/5/2 2/1/2
f 2/1/2 5/2/2 4/3/2
f 6/4/2 4/3/2 5/2/2
f 4/3/1 5/2/1 2/1/1
f 5/2/1 4/3/1 6/4/1

g fence




usemtl fence

f 3/3/1 2/2/1 1/1/1
f 2/2/1 3/3/1 4/4/1
f 1/6/2 2/1/2 3/5/2
f 4/3/2 3/5/2 2/1/2
f 2/1/2 5/2/2 4/3/2
f 6/4/2 4/3/2 5/2/2
f 4/3/1 5/2/1 2/1/1
f 5/2/1 4/3/1 6/4/1

