# Created by Kenney (www.kenney.nl)

mtllib floor-stairs-corner-inner.mtl

g floor-stairs-corner-inner

v 0.5 0 0.5 1 1 1
v -0.5 0 0.5 1 1 1
v 0.5 0.35 0.5 1 1 1
v -0.5 0.35 0.5 1 1 1
v -0.5 0 -0.5 1 1 1
v -0.5 0.05 -0.5 1 1 1
v -0.5 0.05 -0.25 1 1 1
v -0.5 0.15 -0.25 1 1 1
v -0.5 0.15 1.263345E-14 1 1 1
v -0.5 0.25 1.263345E-14 1 1 1
v -0.5 0.25 0.25 1 1 1
v -0.5 0.35 0.25 1 1 1
v 0.5 0.35 -0.5 1 1 1
v 0.5 0 -0.5 1 1 1
v -0.25 0.05 -0.5 1 1 1
v -2.68912E-14 0.15 -0.5 1 1 1
v -0.25 0.15 -0.5 1 1 1
v 0.25 0.25 -0.5 1 1 1
v -2.68912E-14 0.25 -0.5 1 1 1
v 0.25 0.35 -0.5 1 1 1
v -2.68912E-14 0.15 1.263345E-14 1 1 1
v -2.68912E-14 0.25 1.263345E-14 1 1 1
v -0.25 0.05 -0.25 1 1 1
v -0.25 0.15 -0.25 1 1 1
v 0.25 0.25 0.25 1 1 1
v 0.25 0.35 0.25 1 1 1

vn 0 0 1
vn 0 0 -1
vn -1 0 0
vn 1 0 0
vn 0 1 0
vn 0 -1 0

vt 2.125 0
vt 1.125 0
vt 2.125 0.35
vt 1.125 0.35
vt 0.125 0
vt 0.125 0.05
vt 0.375 0.05
vt 0.375 0.15
vt 0.625 0.15
vt 0.625 0.25
vt 0.875 0.25
vt 0.875 0.35
vt 7.241755 0.35
vt 7.241755 0
vt 6.241755 0.35
vt 6.241755 0
vt 8.241755 -4.657435E-27
vt 7.241755 -6.68954E-28
vt 8.241755 0.05
vt 7.991755 0.05
vt 7.741755 0.15
vt 7.991755 0.15
vt 7.491755 0.25
vt 7.741755 0.25
vt 7.491755 0.35
vt -1 0.15
vt -1.5 0.15
vt -1 0.25
vt -1.5 0.25
vt -7.116755 0.25
vt -7.116755 0.35
vt -6.866755 0.25
vt -6.866755 0.35
vt -1.25 0.25
vt -1.25 0.35
vt -1 0.35
vt -7.116755 0.15
vt -6.616755 0.15
vt -6.616755 0.25
vt -1.75 0.25
vt -1.75 0.35
vt -6.366755 0.25
vt -6.366755 0.35
vt -1 -1
vt -1.25 -0.75
vt -1 -0.75
vt -2.775558E-16 -0.75
vt 0.25 -0.75
vt 9.586776E-14 -1
vt -1.5 -0.5
vt -1 -0.5
vt -1.75 -0.25
vt -1 -0.25
vt -6.106227E-16 -0.25
vt 0.75 -0.25
vt 2.775558E-16 -0.5
vt 0.5 -0.5
vt 5.551115E-17 4.440892E-16
vt 1 9.625634E-14
vt -2 5.551115E-16
vt -1 5.551115E-16

usemtl stones

f 3/3/1 2/2/1 1/1/1
f 2/2/1 3/3/1 4/4/1
f 1/1/2 2/2/2 3/3/2
f 4/4/2 3/3/2 2/2/2
f 2/2/3 6/6/3 5/5/3
f 6/6/3 2/2/3 7/7/3
f 7/7/3 2/2/3 8/8/3
f 8/8/3 2/2/3 9/9/3
f 9/9/3 2/2/3 10/10/3
f 10/10/3 2/2/3 11/11/3
f 11/11/3 2/2/3 12/12/3
f 12/12/3 2/2/3 4/4/3
f 5/5/4 6/6/4 2/2/4
f 7/7/4 2/2/4 6/6/4
f 8/8/4 2/2/4 7/7/4
f 9/9/4 2/2/4 8/8/4
f 10/10/4 2/2/4 9/9/4
f 11/11/4 2/2/4 10/10/4
f 12/12/4 2/2/4 11/11/4
f 4/4/4 2/2/4 12/12/4
f 3/15/4 14/14/4 13/13/4
f 14/14/4 3/15/4 1/16/4
f 13/13/3 14/14/3 3/15/3
f 1/16/3 3/15/3 14/14/3
f 6/19/2 14/18/2 5/17/2
f 14/18/2 6/19/2 15/20/2
f 15/20/2 13/13/2 14/18/2
f 13/13/2 15/20/2 16/21/2
f 16/21/2 15/20/2 17/22/2
f 13/13/2 16/21/2 18/23/2
f 19/24/2 18/23/2 16/21/2
f 13/13/2 18/23/2 20/25/2
f 5/17/1 14/18/1 6/19/1
f 15/20/1 6/19/1 14/18/1
f 14/18/1 13/13/1 15/20/1
f 16/21/1 15/20/1 13/13/1
f 17/22/1 15/20/1 16/21/1
f 18/23/1 16/21/1 13/13/1
f 20/25/1 18/23/1 13/13/1
f 16/21/1 18/23/1 19/24/1
f 10/28/2 21/27/2 9/26/2
f 21/27/2 10/28/2 22/29/2
f 9/26/1 21/27/1 10/28/1
f 22/29/1 10/28/1 21/27/1
f 23/32/3 17/31/3 15/30/3
f 17/31/3 23/32/3 24/33/3
f 15/30/4 17/31/4 23/32/4
f 24/33/4 23/32/4 17/31/4
f 7/28/2 24/35/2 23/34/2
f 24/35/2 7/28/2 8/36/2
f 23/34/1 24/35/1 7/28/1
f 8/36/1 7/28/1 24/35/1
f 21/38/3 19/30/3 16/37/3
f 19/30/3 21/38/3 22/39/3
f 16/37/4 19/30/4 21/38/4
f 22/39/4 21/38/4 19/30/4
f 12/36/2 25/40/2 11/28/2
f 25/40/2 12/36/2 26/41/2
f 11/28/1 25/40/1 12/36/1
f 26/41/1 12/36/1 25/40/1
f 25/42/3 20/31/3 18/30/3
f 20/31/3 25/42/3 26/43/3
f 18/30/4 20/31/4 25/42/4
f 26/43/4 25/42/4 20/31/4

usemtl bricks

f 7/46/5 23/45/5 6/44/5
f 6/44/6 23/45/6 7/46/6
f 6/49/5 23/48/5 15/47/5
f 15/47/6 23/48/6 6/49/6
f 24/45/5 9/51/5 21/50/5
f 9/51/5 24/45/5 8/46/5
f 21/50/6 9/51/6 24/45/6
f 8/46/6 24/45/6 9/51/6
f 22/50/5 11/53/5 25/52/5
f 11/53/5 22/50/5 10/51/5
f 25/52/6 11/53/6 22/50/6
f 10/51/6 22/50/6 11/53/6
f 19/56/5 25/55/5 18/54/5
f 25/55/5 19/56/5 22/57/5
f 18/54/6 25/55/6 19/56/6
f 22/57/6 19/56/6 25/55/6
f 20/54/5 3/59/5 13/58/5
f 3/59/5 20/54/5 26/55/5
f 13/58/6 3/59/6 20/54/6
f 26/55/6 20/54/6 3/59/6
f 17/47/5 21/57/5 16/56/5
f 21/57/5 17/47/5 24/48/5
f 16/56/6 21/57/6 17/47/6
f 24/48/6 17/47/6 21/57/6
f 26/52/5 4/61/5 3/60/5
f 4/61/5 26/52/5 12/53/5
f 3/60/6 4/61/6 26/52/6
f 12/53/6 26/52/6 4/61/6

g floor-stairs-corner-inner




usemtl stones

f 3/3/1 2/2/1 1/1/1
f 2/2/1 3/3/1 4/4/1
f 1/1/2 2/2/2 3/3/2
f 4/4/2 3/3/2 2/2/2
f 2/2/3 6/6/3 5/5/3
f 6/6/3 2/2/3 7/7/3
f 7/7/3 2/2/3 8/8/3
f 8/8/3 2/2/3 9/9/3
f 9/9/3 2/2/3 10/10/3
f 10/10/3 2/2/3 11/11/3
f 11/11/3 2/2/3 12/12/3
f 12/12/3 2/2/3 4/4/3
f 5/5/4 6/6/4 2/2/4
f 7/7/4 2/2/4 6/6/4
f 8/8/4 2/2/4 7/7/4
f 9/9/4 2/2/4 8/8/4
f 10/10/4 2/2/4 9/9/4
f 11/11/4 2/2/4 10/10/4
f 12/12/4 2/2/4 11/11/4
f 4/4/4 2/2/4 12/12/4
f 3/15/4 14/14/4 13/13/4
f 14/14/4 3/15/4 1/16/4
f 13/13/3 14/14/3 3/15/3
f 1/16/3 3/15/3 14/14/3
f 6/19/2 14/18/2 5/17/2
f 14/18/2 6/19/2 15/20/2
f 15/20/2 13/13/2 14/18/2
f 13/13/2 15/20/2 16/21/2
f 16/21/2 15/20/2 17/22/2
f 13/13/2 16/21/2 18/23/2
f 19/24/2 18/23/2 16/21/2
f 13/13/2 18/23/2 20/25/2
f 5/17/1 14/18/1 6/19/1
f 15/20/1 6/19/1 14/18/1
f 14/18/1 13/13/1 15/20/1
f 16/21/1 15/20/1 13/13/1
f 17/22/1 15/20/1 16/21/1
f 18/23/1 16/21/1 13/13/1
f 20/25/1 18/23/1 13/13/1
f 16/21/1 18/23/1 19/24/1
f 10/28/2 21/27/2 9/26/2
f 21/27/2 10/28/2 22/29/2
f 9/26/1 21/27/1 10/28/1
f 22/29/1 10/28/1 21/27/1
f 23/32/3 17/31/3 15/30/3
f 17/31/3 23/32/3 24/33/3
f 15/30/4 17/31/4 23/32/4
f 24/33/4 23/32/4 17/31/4
f 7/28/2 24/35/2 23/34/2
f 24/35/2 7/28/2 8/36/2
f 23/34/1 24/35/1 7/28/1
f 8/36/1 7/28/1 24/35/1
f 21/38/3 19/30/3 16/37/3
f 19/30/3 21/38/3 22/39/3
f 16/37/4 19/30/4 21/38/4
f 22/39/4 21/38/4 19/30/4
f 12/36/2 25/40/2 11/28/2
f 25/40/2 12/36/2 26/41/2
f 11/28/1 25/40/1 12/36/1
f 26/41/1 12/36/1 25/40/1
f 25/42/3 20/31/3 18/30/3
f 20/31/3 25/42/3 26/43/3
f 18/30/4 20/31/4 25/42/4
f 26/43/4 25/42/4 20/31/4

usemtl bricks

f 7/46/5 23/45/5 6/44/5
f 6/44/6 23/45/6 7/46/6
f 6/49/5 23/48/5 15/47/5
f 15/47/6 23/48/6 6/49/6
f 24/45/5 9/51/5 21/50/5
f 9/51/5 24/45/5 8/46/5
f 21/50/6 9/51/6 24/45/6
f 8/46/6 24/45/6 9/51/6
f 22/50/5 11/53/5 25/52/5
f 11/53/5 22/50/5 10/51/5
f 25/52/6 11/53/6 22/50/6
f 10/51/6 22/50/6 11/53/6
f 19/56/5 25/55/5 18/54/5
f 25/55/5 19/56/5 22/57/5
f 18/54/6 25/55/6 19/56/6
f 22/57/6 19/56/6 25/55/6
f 20/54/5 3/59/5 13/58/5
f 3/59/5 20/54/5 26/55/5
f 13/58/6 3/59/6 20/54/6
f 26/55/6 20/54/6 3/59/6
f 17/47/5 21/57/5 16/56/5
f 21/57/5 17/47/5 24/48/5
f 16/56/6 21/57/6 17/47/6
f 24/48/6 17/47/6 21/57/6
f 26/52/5 4/61/5 3/60/5
f 4/61/5 26/52/5 12/53/5
f 3/60/6 4/61/6 26/52/6
f 12/53/6 26/52/6 4/61/6

