# Created by Kenney (www.kenney.nl)

mtllib floor-steps.mtl

g floor-steps

v 0.5 0 -0.5 1 1 1
v 0.5 0 0 1 1 1
v -0.5 0 -0.5 1 1 1
v -0.5 0 0 1 1 1
v 0.5 0.2 0.375 1 1 1
v 0.5 0.2 0.5 1 1 1
v -0.5 0.2 0.375 1 1 1
v -0.5 0.2 0.5 1 1 1
v 0.5 0.15 0.25 1 1 1
v 0.5 0.15 0.375 1 1 1
v -0.5 0.15 0.25 1 1 1
v -0.5 0.15 0.375 1 1 1
v 0.5 0.1 0.125 1 1 1
v 0.5 0.1 0.25 1 1 1
v -0.5 0.1 0.125 1 1 1
v -0.5 0.1 0.25 1 1 1
v 0.5 0.05 0 1 1 1
v 0.5 0.05 0.125 1 1 1
v -0.5 0.05 0 1 1 1
v -0.5 0.05 0.125 1 1 1
v 0.5 0 0.5 1 1 1
v -0.5 0 0.5 1 1 1

vn 0 1 0
vn 0 -1 0
vn 0 0 1
vn 0 0 -1
vn -1 0 0
vn 1 0 0

vt 0 -1
vt 0 -0.5
vt 1 -1
vt 1 -0.5
vt 0 -0.125
vt 0 0
vt 1 -0.125
vt 1 0
vt 0 -0.25
vt 1 -0.25
vt 0 -0.375
vt 1 -0.375
vt -1.125 -2.313275E-15
vt -2.125 -2.313275E-15
vt -1.125 0.2
vt -2.125 0.2
vt -0.375 0
vt -0.375 0.05
vt 0.125 0
vt -0.25 0.05
vt -0.25 0.1
vt -0.125 0.1
vt -0.125 0.15
vt 0 0.15
vt 0 0.2
vt 0.125 0.2
vt -0.75 0.1
vt -0.75 0.05
vt -0.875 0.1
vt -0.625 -2.313275E-15
vt -0.625 0.05
vt -1 0.15
vt -0.875 0.15
vt -1 0.2
vt 0 0.25
vt -1 0.25
vt 0 0.3
vt -1 0.3

usemtl bricks

f 3/3/1 2/2/1 1/1/1
f 2/2/1 3/3/1 4/4/1
f 1/1/2 2/2/2 3/3/2
f 4/4/2 3/3/2 2/2/2
f 7/7/1 6/6/1 5/5/1
f 6/6/1 7/7/1 8/8/1
f 5/5/2 6/6/2 7/7/2
f 8/8/2 7/7/2 6/6/2
f 11/10/1 10/5/1 9/9/1
f 10/5/1 11/10/1 12/7/1
f 9/9/2 10/5/2 11/10/2
f 12/7/2 11/10/2 10/5/2
f 15/12/1 14/9/1 13/11/1
f 14/9/1 15/12/1 16/10/1
f 13/11/2 14/9/2 15/12/2
f 16/10/2 15/12/2 14/9/2
f 19/4/1 18/11/1 17/2/1
f 18/11/1 19/4/1 20/12/1
f 17/2/2 18/11/2 19/4/2
f 20/12/2 19/4/2 18/11/2

usemtl stones

f 6/15/3 22/14/3 21/13/3
f 22/14/3 6/15/3 8/16/3
f 21/13/4 22/14/4 6/15/4
f 8/16/4 6/15/4 22/14/4
f 22/19/5 19/18/5 4/17/5
f 19/18/5 22/19/5 20/20/5
f 20/20/5 22/19/5 15/21/5
f 15/21/5 22/19/5 16/22/5
f 16/22/5 22/19/5 11/23/5
f 11/23/5 22/19/5 12/24/5
f 12/24/5 22/19/5 7/25/5
f 7/25/5 22/19/5 8/26/5
f 4/17/6 19/18/6 22/19/6
f 20/20/6 22/19/6 19/18/6
f 15/21/6 22/19/6 20/20/6
f 16/22/6 22/19/6 15/21/6
f 11/23/6 22/19/6 16/22/6
f 12/24/6 22/19/6 11/23/6
f 7/25/6 22/19/6 12/24/6
f 8/26/6 22/19/6 7/25/6
f 14/29/6 18/28/6 13/27/6
f 21/13/6 18/28/6 14/29/6
f 2/30/6 18/28/6 21/13/6
f 18/28/6 2/30/6 17/31/6
f 21/13/6 14/29/6 10/32/6
f 10/32/6 14/29/6 9/33/6
f 21/13/6 10/32/6 6/15/6
f 6/15/6 10/32/6 5/34/6
f 13/27/5 18/28/5 14/29/5
f 14/29/5 18/28/5 21/13/5
f 21/13/5 18/28/5 2/30/5
f 17/31/5 2/30/5 18/28/5
f 10/32/5 14/29/5 21/13/5
f 9/33/5 14/29/5 10/32/5
f 6/15/5 10/32/5 21/13/5
f 5/34/5 10/32/5 6/15/5
f 15/37/4 18/36/4 20/35/4
f 18/36/4 15/37/4 13/38/4
f 20/35/3 18/36/3 15/37/3
f 13/38/3 15/37/3 18/36/3
f 19/35/4 2/34/4 4/25/4
f 2/34/4 19/35/4 17/36/4
f 4/25/3 2/34/3 19/35/3
f 17/36/3 19/35/3 2/34/3
f 7/37/4 10/36/4 12/35/4
f 10/36/4 7/37/4 5/38/4
f 12/35/3 10/36/3 7/37/3
f 5/38/3 7/37/3 10/36/3
f 11/35/4 14/34/4 16/25/4
f 14/34/4 11/35/4 9/36/4
f 16/25/3 14/34/3 11/35/3
f 9/36/3 11/35/3 14/34/3

g floor-steps




usemtl bricks

f 3/3/1 2/2/1 1/1/1
f 2/2/1 3/3/1 4/4/1
f 1/1/2 2/2/2 3/3/2
f 4/4/2 3/3/2 2/2/2
f 7/7/1 6/6/1 5/5/1
f 6/6/1 7/7/1 8/8/1
f 5/5/2 6/6/2 7/7/2
f 8/8/2 7/7/2 6/6/2
f 11/10/1 10/5/1 9/9/1
f 10/5/1 11/10/1 12/7/1
f 9/9/2 10/5/2 11/10/2
f 12/7/2 11/10/2 10/5/2
f 15/12/1 14/9/1 13/11/1
f 14/9/1 15/12/1 16/10/1
f 13/11/2 14/9/2 15/12/2
f 16/10/2 15/12/2 14/9/2
f 19/4/1 18/11/1 17/2/1
f 18/11/1 19/4/1 20/12/1
f 17/2/2 18/11/2 19/4/2
f 20/12/2 19/4/2 18/11/2

usemtl stones

f 6/15/3 22/14/3 21/13/3
f 22/14/3 6/15/3 8/16/3
f 21/13/4 22/14/4 6/15/4
f 8/16/4 6/15/4 22/14/4
f 22/19/5 19/18/5 4/17/5
f 19/18/5 22/19/5 20/20/5
f 20/20/5 22/19/5 15/21/5
f 15/21/5 22/19/5 16/22/5
f 16/22/5 22/19/5 11/23/5
f 11/23/5 22/19/5 12/24/5
f 12/24/5 22/19/5 7/25/5
f 7/25/5 22/19/5 8/26/5
f 4/17/6 19/18/6 22/19/6
f 20/20/6 22/19/6 19/18/6
f 15/21/6 22/19/6 20/20/6
f 16/22/6 22/19/6 15/21/6
f 11/23/6 22/19/6 16/22/6
f 12/24/6 22/19/6 11/23/6
f 7/25/6 22/19/6 12/24/6
f 8/26/6 22/19/6 7/25/6
f 14/29/6 18/28/6 13/27/6
f 21/13/6 18/28/6 14/29/6
f 2/30/6 18/28/6 21/13/6
f 18/28/6 2/30/6 17/31/6
f 21/13/6 14/29/6 10/32/6
f 10/32/6 14/29/6 9/33/6
f 21/13/6 10/32/6 6/15/6
f 6/15/6 10/32/6 5/34/6
f 13/27/5 18/28/5 14/29/5
f 14/29/5 18/28/5 21/13/5
f 21/13/5 18/28/5 2/30/5
f 17/31/5 2/30/5 18/28/5
f 10/32/5 14/29/5 21/13/5
f 9/33/5 14/29/5 10/32/5
f 6/15/5 10/32/5 21/13/5
f 5/34/5 10/32/5 6/15/5
f 15/37/4 18/36/4 20/35/4
f 18/36/4 15/37/4 13/38/4
f 20/35/3 18/36/3 15/37/3
f 13/38/3 15/37/3 18/36/3
f 19/35/4 2/34/4 4/25/4
f 2/34/4 19/35/4 17/36/4
f 4/25/3 2/34/3 19/35/3
f 17/36/3 19/35/3 2/34/3
f 7/37/4 10/36/4 12/35/4
f 10/36/4 7/37/4 5/38/4
f 12/35/3 10/36/3 7/37/3
f 5/38/3 7/37/3 10/36/3
f 11/35/4 14/34/4 16/25/4
f 14/34/4 11/35/4 9/36/4
f 16/25/3 14/34/3 11/35/3
f 9/36/3 11/35/3 14/34/3

