# Created by Kenney (www.kenney.nl)

mtllib ladder.mtl

g ladder

v 0.1 0.95 -4.74493E-08 1 1 1
v -0.09999999 0.95 -1.822366E-08 1 1 1
v 0.1 0.9 -7.391928E-08 1 1 1
v 0.06000001 0.9 -6.228848E-08 1 1 1
v 0.04000001 0.9 -5.936591E-08 1 1 1
v -0.03999999 0.9 -4.598975E-08 1 1 1
v -0.05999999 0.9 -4.306719E-08 1 1 1
v -0.09999999 0.9 -4.469364E-08 1 1 1
v 0.1 0.2 -0.025 1 1 1
v 0.1 0.7 -0.02499999 1 1 1
v 0.09999999 0.3 -0.025 1 1 1
v 0.15 8.350529E-12 -0.02499999 1 1 1
v 0.15 1 -0.02499999 1 1 1
v 0.09999999 1.662183E-11 -0.02500003 1 1 1
v 0.09999999 1 -0.02500003 1 1 1
v 0.09999999 0.8 -0.02499999 1 1 1
v 0.15 1.756024E-10 0.02500002 1 1 1
v 0.09999999 1.838739E-10 0.02500001 1 1 1
v 0.15 0.2 0.02500002 1 1 1
v 0.15 0.3 0.02500002 1 1 1
v 0.15 0.7 0.02500003 1 1 1
v 0.15 0.8 0.02500003 1 1 1
v 0.15 1 0.02500002 1 1 1
v 0.09999999 1 0.02500001 1 1 1
v -0.09999997 0.8 0.025 1 1 1
v -0.09999997 0.7 0.025 1 1 1
v -0.09999998 8.304347E-12 0.025 1 1 1
v -0.09999996 0.2 0.025 1 1 1
v -0.09999996 0.3 0.025 1 1 1
v -0.09999998 1 0.025 1 1 1
v -0.15 1 0.02499999 1 1 1
v -0.15 1.755564E-10 0.02499999 1 1 1
v -0.09999997 0 -0.02500001 1 1 1
v -0.15 1.672521E-10 -0.02500002 1 1 1
v -0.09999997 1 -0.02500001 1 1 1
v -0.15 1 -0.02500002 1 1 1
v -0.15 0.2 -0.02500002 1 1 1
v -0.15 0.3 -0.02500001 1 1 1
v -0.15 0.8 -0.02500001 1 1 1
v -0.15 0.7 -0.02500002 1 1 1
v 0.1 0.75 -4.744931E-08 1 1 1
v -0.09999999 0.75 -1.822366E-08 1 1 1
v 0.1 0.7 -7.391929E-08 1 1 1
v 0.06000001 0.7 -6.228848E-08 1 1 1
v 0.04000001 0.7 -5.936592E-08 1 1 1
v -0.03999999 0.7 -4.598976E-08 1 1 1
v -0.05999999 0.7 -4.306719E-08 1 1 1
v -0.09999999 0.7 -4.469365E-08 1 1 1
v 0.1 0.55 -4.744931E-08 1 1 1
v -0.09999999 0.55 -1.822366E-08 1 1 1
v 0.1 0.5 -7.391929E-08 1 1 1
v 0.06000001 0.5 -6.228848E-08 1 1 1
v 0.04000001 0.5 -5.936592E-08 1 1 1
v -0.03999999 0.5 -4.598976E-08 1 1 1
v -0.05999999 0.5 -4.306719E-08 1 1 1
v -0.09999999 0.5 -4.469365E-08 1 1 1
v 0.1 0.15 -4.744931E-08 1 1 1
v -0.09999999 0.15 -1.822366E-08 1 1 1
v 0.1 0.1 -7.391929E-08 1 1 1
v 0.06000001 0.1 -6.228848E-08 1 1 1
v 0.04000001 0.1 -5.936592E-08 1 1 1
v -0.03999999 0.1 -4.598976E-08 1 1 1
v -0.05999999 0.1 -4.306719E-08 1 1 1
v -0.09999999 0.1 -4.469365E-08 1 1 1
v 0.1 0.35 -4.74493E-08 1 1 1
v -0.09999999 0.35 -1.822366E-08 1 1 1
v 0.1 0.3 -7.391928E-08 1 1 1
v 0.06000001 0.3 -6.228848E-08 1 1 1
v 0.04000001 0.3 -5.936591E-08 1 1 1
v -0.03999999 0.3 -4.598975E-08 1 1 1
v -0.05999999 0.3 -4.306719E-08 1 1 1
v -0.09999999 0.3 -4.469364E-08 1 1 1

vn -1.494733E-07 4.410179E-07 -1
vn 1.494733E-07 -4.410179E-07 1
vn 1.192093E-07 0 -1
vn -1.192093E-07 0 1
vn 0 -1 0
vn 0 1 0
vn -1 0 -1.192093E-07
vn 1 0 1.192093E-07

vt 1.999995 -0.9999985
vt 1.999994 -1.22376
vt 1.944054 -0.9999986
vt 1.944054 -1.044751
vt 1.944054 -1.067127
vt 1.944054 -1.156631
vt 1.944054 -1.179008
vt 1.944054 -1.22376
vt 1.944051 -1.223758
vt 1.944051 -1.783161
vt 1.944051 -1.335639
vt 1.999992 -0.9999967
vt 1.99999 -2.118803
vt 1.944052 -0.9999968
vt 1.94405 -2.118803
vt 1.94405 -1.895041
vt 1.888112 -0.9999969
vt 1.944052 -0.9999968
vt 1.888111 -1.223758
vt 1.888111 -1.335639
vt 1.88811 -1.783161
vt 1.88811 -1.895042
vt 1.88811 -2.118803
vt 1.94405 -2.118803
vt 2 -0.9440593
vt 2 -1
vt 1.944059 -0.9440593
vt 1.944059 -1
vt 1.999998 -2.17475
vt 1.944057 -2.17475
vt 1.999998 -2.11881
vt 1.944057 -2.118809
vt 1.832178 -0.9999999
vt 1.832178 -1.223762
vt 1.776238 -0.9999998
vt 1.776236 -2.118809
vt 1.832178 -1.335643
vt 1.832177 -1.783167
vt 1.832177 -1.895047
vt 1.832176 -2.118809
vt 1.944053 -0.9999968
vt 1.999994 -0.9999967
vt 1.944052 -2.118803
vt 1.999993 -1.223758
vt 1.999993 -1.335638
vt 1.999992 -1.783161
vt 1.999992 -1.895041
vt 1.999992 -2.118803

usemtl planks

f 3/3/1 2/2/1 1/1/1
f 2/2/1 3/3/1 4/4/1
f 2/2/1 4/4/1 5/5/1
f 2/2/1 5/5/1 6/6/1
f 2/2/1 6/6/1 7/7/1
f 2/2/1 7/7/1 8/8/1
f 1/1/2 2/2/2 3/3/2
f 4/4/2 3/3/2 2/2/2
f 5/5/2 4/4/2 2/2/2
f 6/6/2 5/5/2 2/2/2
f 7/7/2 6/6/2 2/2/2
f 8/8/2 7/7/2 2/2/2
f 11/11/3 10/10/3 9/9/3
f 9/9/4 10/10/4 11/11/4
f 14/14/3 13/13/3 12/12/3
f 13/13/3 14/14/3 9/9/3
f 10/10/3 13/13/3 9/9/3
f 13/13/3 10/10/3 15/15/3
f 15/15/3 10/10/3 16/16/3
f 12/12/4 13/13/4 14/14/4
f 9/9/4 14/14/4 13/13/4
f 9/9/4 13/13/4 10/10/4
f 15/15/4 10/10/4 13/13/4
f 16/16/4 10/10/4 15/15/4
f 19/19/4 18/18/4 17/17/4
f 18/18/4 19/19/4 20/20/4
f 18/18/4 20/20/4 21/21/4
f 18/18/4 21/21/4 22/22/4
f 18/18/4 22/22/4 23/23/4
f 18/18/4 23/23/4 24/24/4
f 17/17/3 18/18/3 19/19/3
f 20/20/3 19/19/3 18/18/3
f 21/21/3 20/20/3 18/18/3
f 22/22/3 21/21/3 18/18/3
f 23/23/3 22/22/3 18/18/3
f 24/24/3 23/23/3 18/18/3
f 14/27/5 17/26/5 18/25/5
f 17/26/5 14/27/5 12/28/5
f 18/25/6 17/26/6 14/27/6
f 12/28/6 14/27/6 17/26/6
f 23/31/6 15/30/6 24/29/6
f 15/30/6 23/31/6 13/32/6
f 24/29/5 15/30/5 23/31/5
f 13/32/5 23/31/5 15/30/5
f 18/35/7 9/34/7 14/33/7
f 9/34/7 18/35/7 24/36/7
f 9/34/7 24/36/7 11/37/7
f 11/37/7 24/36/7 10/38/7
f 10/38/7 24/36/7 16/39/7
f 16/39/7 24/36/7 15/40/7
f 14/33/8 9/34/8 18/35/8
f 24/36/8 18/35/8 9/34/8
f 11/37/8 24/36/8 9/34/8
f 10/38/8 24/36/8 11/37/8
f 16/39/8 24/36/8 10/38/8
f 15/40/8 24/36/8 16/39/8
f 13/43/8 17/42/8 12/41/8
f 17/42/8 13/43/8 19/44/8
f 19/44/8 13/43/8 20/45/8
f 20/45/8 13/43/8 21/46/8
f 21/46/8 13/43/8 22/47/8
f 22/47/8 13/43/8 23/48/8
f 12/41/7 17/42/7 13/43/7
f 19/44/7 13/43/7 17/42/7
f 20/45/7 13/43/7 19/44/7
f 21/46/7 13/43/7 20/45/7
f 22/47/7 13/43/7 21/46/7
f 23/48/7 13/43/7 22/47/7
f 27/48/4 26/45/4 25/44/4
f 25/44/3 26/45/3 27/48/3
f 29/46/4 27/48/4 28/47/4
f 27/48/4 29/46/4 26/45/4
f 28/47/3 27/48/3 29/46/3
f 26/45/3 29/46/3 27/48/3
f 27/48/4 25/44/4 30/42/4
f 27/48/4 30/42/4 31/41/4
f 27/48/4 31/41/4 32/43/4
f 30/42/3 25/44/3 27/48/3
f 31/41/3 30/42/3 27/48/3
f 32/43/3 31/41/3 27/48/3
f 32/32/5 33/29/5 27/31/5
f 33/29/5 32/32/5 34/30/5
f 27/31/6 33/29/6 32/32/6
f 34/30/6 32/32/6 33/29/6
f 35/18/8 27/23/8 33/24/8
f 27/23/8 35/18/8 28/22/8
f 28/22/8 35/18/8 29/21/8
f 29/21/8 35/18/8 26/20/8
f 26/20/8 35/18/8 25/19/8
f 25/19/8 35/18/8 30/17/8
f 33/24/7 27/23/7 35/18/7
f 28/22/7 35/18/7 27/23/7
f 29/21/7 35/18/7 28/22/7
f 26/20/7 35/18/7 29/21/7
f 25/19/7 35/18/7 26/20/7
f 30/17/7 35/18/7 25/19/7
f 35/25/6 31/28/6 30/26/6
f 31/28/6 35/25/6 36/27/6
f 30/26/5 31/28/5 35/25/5
f 36/27/5 35/25/5 31/28/5
f 34/40/3 35/35/3 33/36/3
f 35/35/3 34/40/3 37/39/3
f 38/38/3 35/35/3 37/39/3
f 39/34/3 35/35/3 38/38/3
f 39/34/3 38/38/3 40/37/3
f 35/35/3 39/34/3 36/33/3
f 33/36/4 35/35/4 34/40/4
f 37/39/4 34/40/4 35/35/4
f 37/39/4 35/35/4 38/38/4
f 38/38/4 35/35/4 39/34/4
f 36/33/4 39/34/4 35/35/4
f 40/37/4 38/38/4 39/34/4
f 32/13/7 37/16/7 34/15/7
f 37/16/7 32/13/7 31/12/7
f 37/16/7 31/12/7 38/10/7
f 38/10/7 31/12/7 40/11/7
f 40/11/7 31/12/7 39/9/7
f 39/9/7 31/12/7 36/14/7
f 34/15/8 37/16/8 32/13/8
f 31/12/8 32/13/8 37/16/8
f 38/10/8 31/12/8 37/16/8
f 40/11/8 31/12/8 38/10/8
f 39/9/8 31/12/8 40/11/8
f 36/14/8 31/12/8 39/9/8
f 43/3/1 42/2/1 41/1/1
f 42/2/1 43/3/1 44/4/1
f 42/2/1 44/4/1 45/5/1
f 42/2/1 45/5/1 46/6/1
f 42/2/1 46/6/1 47/7/1
f 42/2/1 47/7/1 48/8/1
f 41/1/2 42/2/2 43/3/2
f 44/4/2 43/3/2 42/2/2
f 45/5/2 44/4/2 42/2/2
f 46/6/2 45/5/2 42/2/2
f 47/7/2 46/6/2 42/2/2
f 48/8/2 47/7/2 42/2/2
f 51/3/1 50/2/1 49/1/1
f 50/2/1 51/3/1 52/4/1
f 50/2/1 52/4/1 53/5/1
f 50/2/1 53/5/1 54/6/1
f 50/2/1 54/6/1 55/7/1
f 50/2/1 55/7/1 56/8/1
f 49/1/2 50/2/2 51/3/2
f 52/4/2 51/3/2 50/2/2
f 53/5/2 52/4/2 50/2/2
f 54/6/2 53/5/2 50/2/2
f 55/7/2 54/6/2 50/2/2
f 56/8/2 55/7/2 50/2/2
f 59/3/1 58/2/1 57/1/1
f 58/2/1 59/3/1 60/4/1
f 58/2/1 60/4/1 61/5/1
f 58/2/1 61/5/1 62/6/1
f 58/2/1 62/6/1 63/7/1
f 58/2/1 63/7/1 64/8/1
f 57/1/2 58/2/2 59/3/2
f 60/4/2 59/3/2 58/2/2
f 61/5/2 60/4/2 58/2/2
f 62/6/2 61/5/2 58/2/2
f 63/7/2 62/6/2 58/2/2
f 64/8/2 63/7/2 58/2/2
f 67/3/1 66/2/1 65/1/1
f 66/2/1 67/3/1 68/4/1
f 66/2/1 68/4/1 69/5/1
f 66/2/1 69/5/1 70/6/1
f 66/2/1 70/6/1 71/7/1
f 66/2/1 71/7/1 72/8/1
f 65/1/2 66/2/2 67/3/2
f 68/4/2 67/3/2 66/2/2
f 69/5/2 68/4/2 66/2/2
f 70/6/2 69/5/2 66/2/2
f 71/7/2 70/6/2 66/2/2
f 72/8/2 71/7/2 66/2/2

g ladder




usemtl planks

f 3/3/1 2/2/1 1/1/1
f 2/2/1 3/3/1 4/4/1
f 2/2/1 4/4/1 5/5/1
f 2/2/1 5/5/1 6/6/1
f 2/2/1 6/6/1 7/7/1
f 2/2/1 7/7/1 8/8/1
f 1/1/2 2/2/2 3/3/2
f 4/4/2 3/3/2 2/2/2
f 5/5/2 4/4/2 2/2/2
f 6/6/2 5/5/2 2/2/2
f 7/7/2 6/6/2 2/2/2
f 8/8/2 7/7/2 2/2/2
f 11/11/3 10/10/3 9/9/3
f 9/9/4 10/10/4 11/11/4
f 14/14/3 13/13/3 12/12/3
f 13/13/3 14/14/3 9/9/3
f 10/10/3 13/13/3 9/9/3
f 13/13/3 10/10/3 15/15/3
f 15/15/3 10/10/3 16/16/3
f 12/12/4 13/13/4 14/14/4
f 9/9/4 14/14/4 13/13/4
f 9/9/4 13/13/4 10/10/4
f 15/15/4 10/10/4 13/13/4
f 16/16/4 10/10/4 15/15/4
f 19/19/4 18/18/4 17/17/4
f 18/18/4 19/19/4 20/20/4
f 18/18/4 20/20/4 21/21/4
f 18/18/4 21/21/4 22/22/4
f 18/18/4 22/22/4 23/23/4
f 18/18/4 23/23/4 24/24/4
f 17/17/3 18/18/3 19/19/3
f 20/20/3 19/19/3 18/18/3
f 21/21/3 20/20/3 18/18/3
f 22/22/3 21/21/3 18/18/3
f 23/23/3 22/22/3 18/18/3
f 24/24/3 23/23/3 18/18/3
f 14/27/5 17/26/5 18/25/5
f 17/26/5 14/27/5 12/28/5
f 18/25/6 17/26/6 14/27/6
f 12/28/6 14/27/6 17/26/6
f 23/31/6 15/30/6 24/29/6
f 15/30/6 23/31/6 13/32/6
f 24/29/5 15/30/5 23/31/5
f 13/32/5 23/31/5 15/30/5
f 18/35/7 9/34/7 14/33/7
f 9/34/7 18/35/7 24/36/7
f 9/34/7 24/36/7 11/37/7
f 11/37/7 24/36/7 10/38/7
f 10/38/7 24/36/7 16/39/7
f 16/39/7 24/36/7 15/40/7
f 14/33/8 9/34/8 18/35/8
f 24/36/8 18/35/8 9/34/8
f 11/37/8 24/36/8 9/34/8
f 10/38/8 24/36/8 11/37/8
f 16/39/8 24/36/8 10/38/8
f 15/40/8 24/36/8 16/39/8
f 13/43/8 17/42/8 12/41/8
f 17/42/8 13/43/8 19/44/8
f 19/44/8 13/43/8 20/45/8
f 20/45/8 13/43/8 21/46/8
f 21/46/8 13/43/8 22/47/8
f 22/47/8 13/43/8 23/48/8
f 12/41/7 17/42/7 13/43/7
f 19/44/7 13/43/7 17/42/7
f 20/45/7 13/43/7 19/44/7
f 21/46/7 13/43/7 20/45/7
f 22/47/7 13/43/7 21/46/7
f 23/48/7 13/43/7 22/47/7
f 27/48/4 26/45/4 25/44/4
f 25/44/3 26/45/3 27/48/3
f 29/46/4 27/48/4 28/47/4
f 27/48/4 29/46/4 26/45/4
f 28/47/3 27/48/3 29/46/3
f 26/45/3 29/46/3 27/48/3
f 27/48/4 25/44/4 30/42/4
f 27/48/4 30/42/4 31/41/4
f 27/48/4 31/41/4 32/43/4
f 30/42/3 25/44/3 27/48/3
f 31/41/3 30/42/3 27/48/3
f 32/43/3 31/41/3 27/48/3
f 32/32/5 33/29/5 27/31/5
f 33/29/5 32/32/5 34/30/5
f 27/31/6 33/29/6 32/32/6
f 34/30/6 32/32/6 33/29/6
f 35/18/8 27/23/8 33/24/8
f 27/23/8 35/18/8 28/22/8
f 28/22/8 35/18/8 29/21/8
f 29/21/8 35/18/8 26/20/8
f 26/20/8 35/18/8 25/19/8
f 25/19/8 35/18/8 30/17/8
f 33/24/7 27/23/7 35/18/7
f 28/22/7 35/18/7 27/23/7
f 29/21/7 35/18/7 28/22/7
f 26/20/7 35/18/7 29/21/7
f 25/19/7 35/18/7 26/20/7
f 30/17/7 35/18/7 25/19/7
f 35/25/6 31/28/6 30/26/6
f 31/28/6 35/25/6 36/27/6
f 30/26/5 31/28/5 35/25/5
f 36/27/5 35/25/5 31/28/5
f 34/40/3 35/35/3 33/36/3
f 35/35/3 34/40/3 37/39/3
f 38/38/3 35/35/3 37/39/3
f 39/34/3 35/35/3 38/38/3
f 39/34/3 38/38/3 40/37/3
f 35/35/3 39/34/3 36/33/3
f 33/36/4 35/35/4 34/40/4
f 37/39/4 34/40/4 35/35/4
f 37/39/4 35/35/4 38/38/4
f 38/38/4 35/35/4 39/34/4
f 36/33/4 39/34/4 35/35/4
f 40/37/4 38/38/4 39/34/4
f 32/13/7 37/16/7 34/15/7
f 37/16/7 32/13/7 31/12/7
f 37/16/7 31/12/7 38/10/7
f 38/10/7 31/12/7 40/11/7
f 40/11/7 31/12/7 39/9/7
f 39/9/7 31/12/7 36/14/7
f 34/15/8 37/16/8 32/13/8
f 31/12/8 32/13/8 37/16/8
f 38/10/8 31/12/8 37/16/8
f 40/11/8 31/12/8 38/10/8
f 39/9/8 31/12/8 40/11/8
f 36/14/8 31/12/8 39/9/8
f 43/3/1 42/2/1 41/1/1
f 42/2/1 43/3/1 44/4/1
f 42/2/1 44/4/1 45/5/1
f 42/2/1 45/5/1 46/6/1
f 42/2/1 46/6/1 47/7/1
f 42/2/1 47/7/1 48/8/1
f 41/1/2 42/2/2 43/3/2
f 44/4/2 43/3/2 42/2/2
f 45/5/2 44/4/2 42/2/2
f 46/6/2 45/5/2 42/2/2
f 47/7/2 46/6/2 42/2/2
f 48/8/2 47/7/2 42/2/2
f 51/3/1 50/2/1 49/1/1
f 50/2/1 51/3/1 52/4/1
f 50/2/1 52/4/1 53/5/1
f 50/2/1 53/5/1 54/6/1
f 50/2/1 54/6/1 55/7/1
f 50/2/1 55/7/1 56/8/1
f 49/1/2 50/2/2 51/3/2
f 52/4/2 51/3/2 50/2/2
f 53/5/2 52/4/2 50/2/2
f 54/6/2 53/5/2 50/2/2
f 55/7/2 54/6/2 50/2/2
f 56/8/2 55/7/2 50/2/2
f 59/3/1 58/2/1 57/1/1
f 58/2/1 59/3/1 60/4/1
f 58/2/1 60/4/1 61/5/1
f 58/2/1 61/5/1 62/6/1
f 58/2/1 62/6/1 63/7/1
f 58/2/1 63/7/1 64/8/1
f 57/1/2 58/2/2 59/3/2
f 60/4/2 59/3/2 58/2/2
f 61/5/2 60/4/2 58/2/2
f 62/6/2 61/5/2 58/2/2
f 63/7/2 62/6/2 58/2/2
f 64/8/2 63/7/2 58/2/2
f 67/3/1 66/2/1 65/1/1
f 66/2/1 67/3/1 68/4/1
f 66/2/1 68/4/1 69/5/1
f 66/2/1 69/5/1 70/6/1
f 66/2/1 70/6/1 71/7/1
f 66/2/1 71/7/1 72/8/1
f 65/1/2 66/2/2 67/3/2
f 68/4/2 67/3/2 66/2/2
f 69/5/2 68/4/2 66/2/2
f 70/6/2 69/5/2 66/2/2
f 71/7/2 70/6/2 66/2/2
f 72/8/2 71/7/2 66/2/2

