# Created by Kenney (www.kenney.nl)

mtllib overhang-round.mtl

g overhang-round

v 0.75 0.125 0 1 1 1
v 0.5303301 0.125 0.5303301 1 1 1
v 0.5303301 0.125 -0.5303301 1 1 1
v 0 0.125 -0.75 1 1 1
v 0 0.125 0.75 1 1 1
v -0.5303301 0.125 -0.5303301 1 1 1
v -0.5303301 0.125 0.5303301 1 1 1
v -0.75 0.125 0 1 1 1
v 0.5303301 0 -0.5303301 1 1 1
v 0.75 0 0 1 1 1
v -0.5303301 0 -0.5303301 1 1 1
v 0 0 -0.75 1 1 1
v 0.5303301 0 0.5303301 1 1 1
v 0 0 0.75 1 1 1
v -0.75 0 0 1 1 1
v -0.5303301 0 0.5303301 1 1 1

vn 0 1 0
vn 0 -1 0
vn 0.9238795 0 -0.3826834
vn -0.9238795 0 0.3826834
vn -0.3826834 0 -0.9238795
vn 0.3826834 0 0.9238795
vn 0.9238795 0 0.3826834
vn -0.9238795 0 -0.3826834
vn -0.3826834 0 0.9238795
vn 0.3826834 0 -0.9238795

vt 2.607557 0.4374131
vt 2.813304 0.9341302
vt 2.813304 -0.05930399
vt 3.310021 -0.265051
vt 3.310021 1.139877
vt 3.806738 -0.0593041
vt 3.806738 0.9341301
vt 4.012486 0.437413
vt 0.1259906 -1.998911
vt 0.01410989 -1.998911
vt 0.1259917 -1.33988
vt 0.014111 -1.33988
vt 0.01410767 -3.316973
vt 0.01410878 -2.657942
vt 0.1259883 -3.316973
vt 0.1259895 -2.657942
vt 0.1259828 -6.612128
vt 0.01410212 -6.612128
vt 0.1259839 -5.953097
vt 0.01410323 -5.953097
vt 0.01410434 -5.294066
vt 0.125985 -5.294066
vt 0.01410656 -3.976004
vt 0.1259872 -3.976004
vt 0.01410545 -4.635035
vt 0.1259861 -4.635035
vt -8.712723 0.4374144
vt -8.918469 -0.05930269
vt -8.918469 0.9341315
vt -9.415187 1.139879
vt -9.415187 -0.2650496
vt -9.911903 0.9341316
vt -9.911904 -0.05930258
vt -10.11765 0.4374145

usemtl planks

f 3/3/1 2/2/1 1/1/1
f 2/2/1 3/3/1 4/4/1
f 2/2/1 4/4/1 5/5/1
f 5/5/1 4/4/1 6/6/1
f 5/5/1 6/6/1 7/7/1
f 7/7/1 6/6/1 8/8/1
f 1/1/2 2/2/2 3/3/2
f 4/4/2 3/3/2 2/2/2
f 5/5/2 4/4/2 2/2/2
f 6/6/2 4/4/2 5/5/2
f 7/7/2 6/6/2 5/5/2
f 8/8/2 6/6/2 7/7/2
f 1/11/3 9/10/3 3/9/3
f 9/10/3 1/11/3 10/12/3
f 3/9/4 9/10/4 1/11/4
f 10/12/4 1/11/4 9/10/4
f 6/15/5 12/14/5 11/13/5
f 12/14/5 6/15/5 4/16/5
f 11/13/6 12/14/6 6/15/6
f 4/16/6 6/15/6 12/14/6
f 2/19/7 10/18/7 1/17/7
f 10/18/7 2/19/7 13/20/7
f 1/17/8 10/18/8 2/19/8
f 13/20/8 2/19/8 10/18/8
f 2/19/6 14/21/6 13/20/6
f 14/21/6 2/19/6 5/22/6
f 13/20/5 14/21/5 2/19/5
f 5/22/5 2/19/5 14/21/5
f 16/25/4 8/24/4 15/23/4
f 8/24/4 16/25/4 7/26/4
f 15/23/3 8/24/3 16/25/3
f 7/26/3 16/25/3 8/24/3
f 5/22/9 16/25/9 14/21/9
f 16/25/9 5/22/9 7/26/9
f 14/21/10 16/25/10 5/22/10
f 7/26/10 5/22/10 16/25/10
f 4/16/10 9/10/10 12/14/10
f 9/10/10 4/16/10 3/9/10
f 12/14/9 9/10/9 4/16/9
f 3/9/9 4/16/9 9/10/9
f 15/23/8 6/15/8 11/13/8
f 6/15/8 15/23/8 8/24/8
f 11/13/7 6/15/7 15/23/7
f 8/24/7 15/23/7 6/15/7
f 13/29/2 9/28/2 10/27/2
f 9/28/2 13/29/2 14/30/2
f 9/28/2 14/30/2 12/31/2
f 12/31/2 14/30/2 16/32/2
f 12/31/2 16/32/2 11/33/2
f 11/33/2 16/32/2 15/34/2
f 10/27/1 9/28/1 13/29/1
f 14/30/1 13/29/1 9/28/1
f 12/31/1 14/30/1 9/28/1
f 16/32/1 14/30/1 12/31/1
f 11/33/1 16/32/1 12/31/1
f 15/34/1 16/32/1 11/33/1

g overhang-round




usemtl planks

f 3/3/1 2/2/1 1/1/1
f 2/2/1 3/3/1 4/4/1
f 2/2/1 4/4/1 5/5/1
f 5/5/1 4/4/1 6/6/1
f 5/5/1 6/6/1 7/7/1
f 7/7/1 6/6/1 8/8/1
f 1/1/2 2/2/2 3/3/2
f 4/4/2 3/3/2 2/2/2
f 5/5/2 4/4/2 2/2/2
f 6/6/2 4/4/2 5/5/2
f 7/7/2 6/6/2 5/5/2
f 8/8/2 6/6/2 7/7/2
f 1/11/3 9/10/3 3/9/3
f 9/10/3 1/11/3 10/12/3
f 3/9/4 9/10/4 1/11/4
f 10/12/4 1/11/4 9/10/4
f 6/15/5 12/14/5 11/13/5
f 12/14/5 6/15/5 4/16/5
f 11/13/6 12/14/6 6/15/6
f 4/16/6 6/15/6 12/14/6
f 2/19/7 10/18/7 1/17/7
f 10/18/7 2/19/7 13/20/7
f 1/17/8 10/18/8 2/19/8
f 13/20/8 2/19/8 10/18/8
f 2/19/6 14/21/6 13/20/6
f 14/21/6 2/19/6 5/22/6
f 13/20/5 14/21/5 2/19/5
f 5/22/5 2/19/5 14/21/5
f 16/25/4 8/24/4 15/23/4
f 8/24/4 16/25/4 7/26/4
f 15/23/3 8/24/3 16/25/3
f 7/26/3 16/25/3 8/24/3
f 5/22/9 16/25/9 14/21/9
f 16/25/9 5/22/9 7/26/9
f 14/21/10 16/25/10 5/22/10
f 7/26/10 5/22/10 16/25/10
f 4/16/10 9/10/10 12/14/10
f 9/10/10 4/16/10 3/9/10
f 12/14/9 9/10/9 4/16/9
f 3/9/9 4/16/9 9/10/9
f 15/23/8 6/15/8 11/13/8
f 6/15/8 15/23/8 8/24/8
f 11/13/7 6/15/7 15/23/7
f 8/24/7 15/23/7 6/15/7
f 13/29/2 9/28/2 10/27/2
f 9/28/2 13/29/2 14/30/2
f 9/28/2 14/30/2 12/31/2
f 12/31/2 14/30/2 16/32/2
f 12/31/2 16/32/2 11/33/2
f 11/33/2 16/32/2 15/34/2
f 10/27/1 9/28/1 13/29/1
f 14/30/1 13/29/1 9/28/1
f 12/31/1 14/30/1 9/28/1
f 16/32/1 14/30/1 12/31/1
f 11/33/1 16/32/1 12/31/1
f 15/34/1 16/32/1 11/33/1

