# Created by Kenney (www.kenney.nl)

mtllib overhang-round-railing.mtl

g overhang-round-railing

v 0.75 0.125 2.887646E-15 1 1 1
v 0.5303301 0.125 0.5303301 1 1 1
v 0.5303301 0.125 -0.5303301 1 1 1
v -3.725287E-10 0.125 -0.75 1 1 1
v -3.725287E-10 0.125 0.75 1 1 1
v -0.5303301 0.125 -0.5303301 1 1 1
v -0.5303301 0.125 0.5303301 1 1 1
v -0.75 0.125 2.887646E-15 1 1 1
v 0.75 0 2.887646E-15 1 1 1
v 0.5303301 0 -0.5303301 1 1 1
v -3.725287E-10 0 -0.75 1 1 1
v -0.5303301 0 -0.5303301 1 1 1
v -0.75 0 2.887646E-15 1 1 1
v -0.5303301 0 0.5303301 1 1 1
v -3.725287E-10 0 0.75 1 1 1
v 0.5303301 0 0.5303301 1 1 1
v -0.4803301 0.3 -0.5510408 1 1 1
v -0.5303301 0.3 -0.5303301 1 1 1
v -0.4803301 0.275 -0.5510408 1 1 1
v -0.4803301 0.125 -0.5510408 1 1 1
v -0.5510408 0.275 -0.4803301 1 1 1
v -0.5510408 0.3 -0.4803301 1 1 1
v -0.5510408 0.125 -0.4803301 1 1 1
v 0.05 0.3 -0.7292893 1 1 1
v -3.725251E-10 0.3 -0.75 1 1 1
v 0.05 0.275 -0.7292893 1 1 1
v 0.05 0.125 -0.7292893 1 1 1
v -3.72528E-10 0.125 -0.75 1 1 1
v -0.05 0.275 -0.7292893 1 1 1
v -0.05 0.3 -0.7292893 1 1 1
v -0.05 0.125 -0.7292893 1 1 1
v 0.5510408 0.3 -0.4803301 1 1 1
v 0.5303301 0.3 -0.5303301 1 1 1
v 0.5510408 0.275 -0.4803301 1 1 1
v 0.5510408 0.125 -0.4803301 1 1 1
v 0.4803301 0.275 -0.5510408 1 1 1
v 0.4803301 0.3 -0.5510408 1 1 1
v 0.4803301 0.125 -0.5510408 1 1 1
v 0.7292893 0.3 0.05000001 1 1 1
v 0.75 0.3 1.292992E-09 1 1 1
v 0.7292893 0.275 0.05000001 1 1 1
v 0.7292893 0.125 0.05000001 1 1 1
v 0.75 0.125 1.292989E-09 1 1 1
v 0.7292893 0.275 -0.05000001 1 1 1
v 0.7292893 0.3 -0.05000001 1 1 1
v 0.7292893 0.125 -0.05000001 1 1 1
v -0.05 0.3 0.7292893 1 1 1
v -3.680627E-10 0.3 0.75 1 1 1
v -0.05 0.275 0.7292893 1 1 1
v -0.05 0.125 0.7292893 1 1 1
v -3.680598E-10 0.125 0.75 1 1 1
v 0.05 0.275 0.7292893 1 1 1
v 0.05 0.3 0.7292893 1 1 1
v 0.05 0.125 0.7292893 1 1 1
v 0.4803301 0.3 0.5510408 1 1 1
v 0.5303301 0.3 0.5303301 1 1 1
v 0.4803301 0.275 0.5510408 1 1 1
v 0.4803301 0.125 0.5510408 1 1 1
v 0.5510408 0.275 0.4803301 1 1 1
v 0.5510408 0.3 0.4803301 1 1 1
v 0.5510408 0.125 0.4803301 1 1 1
v -0.5510408 0.3 0.4803301 1 1 1
v -0.5303301 0.3 0.5303301 1 1 1
v -0.5510408 0.275 0.4803301 1 1 1
v -0.5510408 0.125 0.4803301 1 1 1
v -0.4803301 0.275 0.5510408 1 1 1
v -0.4803301 0.3 0.5510408 1 1 1
v -0.4803301 0.125 0.5510408 1 1 1
v -0.7292893 0.3 -0.05000001 1 1 1
v -0.75 0.3 1.175981E-09 1 1 1
v -0.7292893 0.275 -0.05000001 1 1 1
v -0.7292893 0.125 -0.05000001 1 1 1
v -0.75 0.125 1.175984E-09 1 1 1
v -0.7292893 0.275 0.05000001 1 1 1
v -0.7292893 0.3 0.05000001 1 1 1
v -0.7292893 0.125 0.05000001 1 1 1

vn 0 1 0
vn 0 -1 0
vn 1 0 0
vn 0.7071068 0 -0.7071068
vn 0 0 -1
vn -0.7071068 0 -0.7071068
vn -1 0 0
vn -0.7071068 0 0.7071068
vn 0 0 1
vn 0.7071068 0 0.7071068
vn -0.3826835 0 -0.9238794
vn -0.7071068 0 -0.7071066
vn -0.9238794 0 -0.3826833
vn 0.3826835 0 0.9238794
vn 0.7071068 0 0.7071066
vn 0.9238794 0 0.3826833
vn 0.3826834 0 -0.9238795
vn -0.3826834 0 -0.9238795
vn -0.3826834 0 0.9238795
vn 0.3826834 0 0.9238795
vn 0.9238794 0 -0.3826833
vn 0.7071068 0 -0.7071066
vn 0.3826835 0 -0.9238794
vn -0.9238794 0 0.3826833
vn -0.7071068 0 0.7071066
vn -0.3826835 0 0.9238794
vn 0.9238796 0 0.3826836
vn 1 0 1.192093E-07
vn 0.9238797 0 -0.3826834
vn -0.9238796 0 -0.3826836
vn -1 0 -1.192093E-07
vn -0.9238797 0 0.3826834
vn 5.94752E-12 0 1
vn -5.94752E-12 0 -1
vn 0.3826834 0 0.9238796
vn 0.7071068 0 0.7071069
vn 0.9238795 0 0.3826835
vn -0.3826834 0 -0.9238796
vn -0.7071068 0 -0.7071069
vn -0.9238795 0 -0.3826835
vn -0.9238795 0 0.3826835
vn -0.7071068 0 0.7071069
vn -0.3826834 0 0.9238796
vn 0.9238795 0 -0.3826835
vn 0.7071068 0 -0.7071069
vn 0.3826834 0 -0.9238796
vn -0.9238797 0 -0.3826834
vn -1 0 1.192093E-07
vn -0.9238796 0 0.3826836
vn 0.9238797 0 0.3826834
vn 1 0 -1.192093E-07
vn 0.9238796 0 -0.3826836

vt 2.607557 0.4374131
vt 2.813304 0.9341302
vt 2.813304 -0.05930399
vt 3.310021 -0.265051
vt 3.310021 1.139877
vt 3.806738 -0.0593041
vt 3.806738 0.9341301
vt 4.012486 0.437413
vt 0.014111 -1.33988
vt 0.1259917 -1.33988
vt 0.01410989 -1.998911
vt 0.1259906 -1.998911
vt 0.1259895 -2.657942
vt 0.01410878 -2.657942
vt 0.1259883 -3.316973
vt 0.01410767 -3.316973
vt 0.01410656 -3.976004
vt 0.1259872 -3.976004
vt 0.01410545 -4.635035
vt 0.1259861 -4.635035
vt 0.125985 -5.294066
vt 0.01410434 -5.294066
vt 0.1259839 -5.953097
vt 0.01410323 -5.953097
vt 0.01410212 -6.612128
vt 0.1259828 -6.612128
vt -8.712723 0.4374144
vt -8.918469 -0.05930269
vt -8.918469 0.9341315
vt -9.415187 1.139879
vt -9.415187 -0.2650496
vt -9.911903 0.9341316
vt -9.911904 -0.05930258
vt -10.11765 0.4374145
vt -1.990308 1.207867
vt -1.932238 1.207867
vt -1.990308 1.181042
vt -1.990308 1.020091
vt -1.932238 1.020091
vt -1.874167 1.181042
vt -1.874167 1.207867
vt -1.874167 1.020091

usemtl planks

f 3/3/1 2/2/1 1/1/1
f 2/2/1 3/3/1 4/4/1
f 2/2/1 4/4/1 5/5/1
f 5/5/1 4/4/1 6/6/1
f 5/5/1 6/6/1 7/7/1
f 7/7/1 6/6/1 8/8/1
f 1/1/2 2/2/2 3/3/2
f 4/4/2 3/3/2 2/2/2
f 5/5/2 4/4/2 2/2/2
f 6/6/2 4/4/2 5/5/2
f 7/7/2 6/6/2 5/5/2
f 8/8/2 6/6/2 7/7/2
f 10/11/4 1/10/3 9/9/3
f 1/10/3 10/11/4 3/12/4
f 10/11/4 4/13/5 3/12/4
f 4/13/5 10/11/4 11/14/5
f 11/14/5 6/15/6 4/13/5
f 6/15/6 11/14/5 12/16/6
f 13/17/7 6/15/6 12/16/6
f 6/15/6 13/17/7 8/18/7
f 14/19/8 8/18/7 13/17/7
f 8/18/7 14/19/8 7/20/8
f 14/19/8 5/21/9 7/20/8
f 5/21/9 14/19/8 15/22/9
f 15/22/9 2/23/10 5/21/9
f 2/23/10 15/22/9 16/24/10
f 9/25/3 2/23/10 16/24/10
f 2/23/10 9/25/3 1/26/3
f 9/9/7 1/10/7 10/11/8
f 3/12/8 10/11/8 1/10/7
f 3/12/8 4/13/9 10/11/8
f 11/14/9 10/11/8 4/13/9
f 4/13/9 6/15/10 11/14/9
f 12/16/10 11/14/9 6/15/10
f 12/16/10 6/15/10 13/17/3
f 8/18/3 13/17/3 6/15/10
f 13/17/3 8/18/3 14/19/4
f 7/20/4 14/19/4 8/18/3
f 7/20/4 5/21/5 14/19/4
f 15/22/5 14/19/4 5/21/5
f 5/21/5 2/23/6 15/22/5
f 16/24/6 15/22/5 2/23/6
f 16/24/6 2/23/6 9/25/7
f 1/26/7 9/25/7 2/23/6
f 16/29/2 10/28/2 9/27/2
f 10/28/2 16/29/2 15/30/2
f 10/28/2 15/30/2 11/31/2
f 11/31/2 15/30/2 14/32/2
f 11/31/2 14/32/2 12/33/2
f 12/33/2 14/32/2 13/34/2
f 9/27/1 10/28/1 16/29/1
f 15/30/1 16/29/1 10/28/1
f 11/31/1 15/30/1 10/28/1
f 14/32/1 15/30/1 11/31/1
f 12/33/1 14/32/1 11/31/1
f 13/34/1 14/32/1 12/33/1
f 19/37/11 18/36/12 17/35/11
f 20/38/11 18/36/12 19/37/11
f 18/36/12 20/38/11 6/39/12
f 6/39/12 21/40/13 18/36/12
f 18/36/12 21/40/13 22/41/13
f 21/40/13 6/39/12 23/42/13
f 17/35/14 18/36/15 19/37/14
f 19/37/14 18/36/15 20/38/14
f 6/39/15 20/38/14 18/36/15
f 18/36/15 21/40/16 6/39/15
f 23/42/16 6/39/15 21/40/16
f 22/41/16 21/40/16 18/36/15
f 26/37/17 25/36/5 24/35/17
f 27/38/17 25/36/5 26/37/17
f 25/36/5 27/38/17 28/39/5
f 28/39/5 29/40/18 25/36/5
f 25/36/5 29/40/18 30/41/18
f 29/40/18 28/39/5 31/42/18
f 24/35/19 25/36/9 26/37/19
f 26/37/19 25/36/9 27/38/19
f 28/39/9 27/38/19 25/36/9
f 25/36/9 29/40/20 28/39/9
f 31/42/20 28/39/9 29/40/20
f 30/41/20 29/40/20 25/36/9
f 34/37/21 33/36/22 32/35/21
f 35/38/21 33/36/22 34/37/21
f 33/36/22 35/38/21 3/39/22
f 3/39/22 36/40/23 33/36/22
f 33/36/22 36/40/23 37/41/23
f 36/40/23 3/39/22 38/42/23
f 32/35/24 33/36/25 34/37/24
f 34/37/24 33/36/25 35/38/24
f 3/39/25 35/38/24 33/36/25
f 33/36/25 36/40/26 3/39/25
f 38/42/26 3/39/25 36/40/26
f 37/41/26 36/40/26 33/36/25
f 41/37/27 40/36/28 39/35/27
f 42/38/27 40/36/28 41/37/27
f 40/36/28 42/38/27 43/39/28
f 43/39/28 44/40/29 40/36/28
f 40/36/28 44/40/29 45/41/29
f 44/40/29 43/39/28 46/42/29
f 39/35/30 40/36/31 41/37/30
f 41/37/30 40/36/31 42/38/30
f 43/39/31 42/38/30 40/36/31
f 40/36/31 44/40/32 43/39/31
f 46/42/32 43/39/31 44/40/32
f 45/41/32 44/40/32 40/36/31
f 49/37/19 48/36/33 47/35/19
f 50/38/19 48/36/33 49/37/19
f 48/36/33 50/38/19 51/39/33
f 51/39/33 52/40/20 48/36/33
f 48/36/33 52/40/20 53/41/20
f 52/40/20 51/39/33 54/42/20
f 47/35/17 48/36/34 49/37/17
f 49/37/17 48/36/34 50/38/17
f 51/39/34 50/38/17 48/36/34
f 48/36/34 52/40/18 51/39/34
f 54/42/18 51/39/34 52/40/18
f 53/41/18 52/40/18 48/36/34
f 57/37/35 56/36/36 55/35/35
f 58/38/35 56/36/36 57/37/35
f 56/36/36 58/38/35 2/39/36
f 2/39/36 59/40/37 56/36/36
f 56/36/36 59/40/37 60/41/37
f 59/40/37 2/39/36 61/42/37
f 55/35/38 56/36/39 57/37/38
f 57/37/38 56/36/39 58/38/38
f 2/39/39 58/38/38 56/36/39
f 56/36/39 59/40/40 2/39/39
f 61/42/40 2/39/39 59/40/40
f 60/41/40 59/40/40 56/36/39
f 64/37/41 63/36/42 62/35/41
f 65/38/41 63/36/42 64/37/41
f 63/36/42 65/38/41 7/39/42
f 7/39/42 66/40/43 63/36/42
f 63/36/42 66/40/43 67/41/43
f 66/40/43 7/39/42 68/42/43
f 62/35/44 63/36/45 64/37/44
f 64/37/44 63/36/45 65/38/44
f 7/39/45 65/38/44 63/36/45
f 63/36/45 66/40/46 7/39/45
f 68/42/46 7/39/45 66/40/46
f 67/41/46 66/40/46 63/36/45
f 71/37/47 70/36/48 69/35/47
f 72/38/47 70/36/48 71/37/47
f 70/36/48 72/38/47 73/39/48
f 73/39/48 74/40/49 70/36/48
f 70/36/48 74/40/49 75/41/49
f 74/40/49 73/39/48 76/42/49
f 69/35/50 70/36/51 71/37/50
f 71/37/50 70/36/51 72/38/50
f 73/39/51 72/38/50 70/36/51
f 70/36/51 74/40/52 73/39/51
f 76/42/52 73/39/51 74/40/52
f 75/41/52 74/40/52 70/36/51

g overhang-round-railing




usemtl planks

f 3/3/1 2/2/1 1/1/1
f 2/2/1 3/3/1 4/4/1
f 2/2/1 4/4/1 5/5/1
f 5/5/1 4/4/1 6/6/1
f 5/5/1 6/6/1 7/7/1
f 7/7/1 6/6/1 8/8/1
f 1/1/2 2/2/2 3/3/2
f 4/4/2 3/3/2 2/2/2
f 5/5/2 4/4/2 2/2/2
f 6/6/2 4/4/2 5/5/2
f 7/7/2 6/6/2 5/5/2
f 8/8/2 6/6/2 7/7/2
f 10/11/4 1/10/3 9/9/3
f 1/10/3 10/11/4 3/12/4
f 10/11/4 4/13/5 3/12/4
f 4/13/5 10/11/4 11/14/5
f 11/14/5 6/15/6 4/13/5
f 6/15/6 11/14/5 12/16/6
f 13/17/7 6/15/6 12/16/6
f 6/15/6 13/17/7 8/18/7
f 14/19/8 8/18/7 13/17/7
f 8/18/7 14/19/8 7/20/8
f 14/19/8 5/21/9 7/20/8
f 5/21/9 14/19/8 15/22/9
f 15/22/9 2/23/10 5/21/9
f 2/23/10 15/22/9 16/24/10
f 9/25/3 2/23/10 16/24/10
f 2/23/10 9/25/3 1/26/3
f 9/9/7 1/10/7 10/11/8
f 3/12/8 10/11/8 1/10/7
f 3/12/8 4/13/9 10/11/8
f 11/14/9 10/11/8 4/13/9
f 4/13/9 6/15/10 11/14/9
f 12/16/10 11/14/9 6/15/10
f 12/16/10 6/15/10 13/17/3
f 8/18/3 13/17/3 6/15/10
f 13/17/3 8/18/3 14/19/4
f 7/20/4 14/19/4 8/18/3
f 7/20/4 5/21/5 14/19/4
f 15/22/5 14/19/4 5/21/5
f 5/21/5 2/23/6 15/22/5
f 16/24/6 15/22/5 2/23/6
f 16/24/6 2/23/6 9/25/7
f 1/26/7 9/25/7 2/23/6
f 16/29/2 10/28/2 9/27/2
f 10/28/2 16/29/2 15/30/2
f 10/28/2 15/30/2 11/31/2
f 11/31/2 15/30/2 14/32/2
f 11/31/2 14/32/2 12/33/2
f 12/33/2 14/32/2 13/34/2
f 9/27/1 10/28/1 16/29/1
f 15/30/1 16/29/1 10/28/1
f 11/31/1 15/30/1 10/28/1
f 14/32/1 15/30/1 11/31/1
f 12/33/1 14/32/1 11/31/1
f 13/34/1 14/32/1 12/33/1
f 19/37/11 18/36/12 17/35/11
f 20/38/11 18/36/12 19/37/11
f 18/36/12 20/38/11 6/39/12
f 6/39/12 21/40/13 18/36/12
f 18/36/12 21/40/13 22/41/13
f 21/40/13 6/39/12 23/42/13
f 17/35/14 18/36/15 19/37/14
f 19/37/14 18/36/15 20/38/14
f 6/39/15 20/38/14 18/36/15
f 18/36/15 21/40/16 6/39/15
f 23/42/16 6/39/15 21/40/16
f 22/41/16 21/40/16 18/36/15
f 26/37/17 25/36/5 24/35/17
f 27/38/17 25/36/5 26/37/17
f 25/36/5 27/38/17 28/39/5
f 28/39/5 29/40/18 25/36/5
f 25/36/5 29/40/18 30/41/18
f 29/40/18 28/39/5 31/42/18
f 24/35/19 25/36/9 26/37/19
f 26/37/19 25/36/9 27/38/19
f 28/39/9 27/38/19 25/36/9
f 25/36/9 29/40/20 28/39/9
f 31/42/20 28/39/9 29/40/20
f 30/41/20 29/40/20 25/36/9
f 34/37/21 33/36/22 32/35/21
f 35/38/21 33/36/22 34/37/21
f 33/36/22 35/38/21 3/39/22
f 3/39/22 36/40/23 33/36/22
f 33/36/22 36/40/23 37/41/23
f 36/40/23 3/39/22 38/42/23
f 32/35/24 33/36/25 34/37/24
f 34/37/24 33/36/25 35/38/24
f 3/39/25 35/38/24 33/36/25
f 33/36/25 36/40/26 3/39/25
f 38/42/26 3/39/25 36/40/26
f 37/41/26 36/40/26 33/36/25
f 41/37/27 40/36/28 39/35/27
f 42/38/27 40/36/28 41/37/27
f 40/36/28 42/38/27 43/39/28
f 43/39/28 44/40/29 40/36/28
f 40/36/28 44/40/29 45/41/29
f 44/40/29 43/39/28 46/42/29
f 39/35/30 40/36/31 41/37/30
f 41/37/30 40/36/31 42/38/30
f 43/39/31 42/38/30 40/36/31
f 40/36/31 44/40/32 43/39/31
f 46/42/32 43/39/31 44/40/32
f 45/41/32 44/40/32 40/36/31
f 49/37/19 48/36/33 47/35/19
f 50/38/19 48/36/33 49/37/19
f 48/36/33 50/38/19 51/39/33
f 51/39/33 52/40/20 48/36/33
f 48/36/33 52/40/20 53/41/20
f 52/40/20 51/39/33 54/42/20
f 47/35/17 48/36/34 49/37/17
f 49/37/17 48/36/34 50/38/17
f 51/39/34 50/38/17 48/36/34
f 48/36/34 52/40/18 51/39/34
f 54/42/18 51/39/34 52/40/18
f 53/41/18 52/40/18 48/36/34
f 57/37/35 56/36/36 55/35/35
f 58/38/35 56/36/36 57/37/35
f 56/36/36 58/38/35 2/39/36
f 2/39/36 59/40/37 56/36/36
f 56/36/36 59/40/37 60/41/37
f 59/40/37 2/39/36 61/42/37
f 55/35/38 56/36/39 57/37/38
f 57/37/38 56/36/39 58/38/38
f 2/39/39 58/38/38 56/36/39
f 56/36/39 59/40/40 2/39/39
f 61/42/40 2/39/39 59/40/40
f 60/41/40 59/40/40 56/36/39
f 64/37/41 63/36/42 62/35/41
f 65/38/41 63/36/42 64/37/41
f 63/36/42 65/38/41 7/39/42
f 7/39/42 66/40/43 63/36/42
f 63/36/42 66/40/43 67/41/43
f 66/40/43 7/39/42 68/42/43
f 62/35/44 63/36/45 64/37/44
f 64/37/44 63/36/45 65/38/44
f 7/39/45 65/38/44 63/36/45
f 63/36/45 66/40/46 7/39/45
f 68/42/46 7/39/45 66/40/46
f 67/41/46 66/40/46 63/36/45
f 71/37/47 70/36/48 69/35/47
f 72/38/47 70/36/48 71/37/47
f 70/36/48 72/38/47 73/39/48
f 73/39/48 74/40/49 70/36/48
f 70/36/48 74/40/49 75/41/49
f 74/40/49 73/39/48 76/42/49
f 69/35/50 70/36/51 71/37/50
f 71/37/50 70/36/51 72/38/50
f 73/39/51 72/38/50 70/36/51
f 70/36/51 74/40/52 73/39/51
f 76/42/52 73/39/51 74/40/52
f 75/41/52 74/40/52 70/36/51

g Group

v -3.725308E-10 0.3 0.75 1 1 1
v 0.5303301 0.4 0.5303301 1 1 1
v -3.725308E-10 0.4 0.75 1 1 1
v 0.75 0.3 -3.609557E-15 1 1 1
v 0.75 0.4 -3.609557E-15 1 1 1
v 0.5303301 0.4 -0.5303301 1 1 1
v -3.725308E-10 0.4 -0.75 1 1 1
v -3.725308E-10 0.3 -0.75 1 1 1
v -0.5303301 0.4 -0.5303301 1 1 1
v -0.75 0.3 -3.609557E-15 1 1 1
v -0.75 0.4 -3.609557E-15 1 1 1
v -0.5303301 0.4 0.5303301 1 1 1

vn -0.7071068 0 -0.7071068
vn -0.7071068 0 0.7071068
vn 0.7071068 0 0.7071068
vn 0.7071068 0 -0.7071068

vt -0.1255996 -10.35578
vt 0.0001733402 -11.0679
vt -0.001491806 -10.35549
vt -0.1239344 -11.06819
vt -0.1222693 -11.7806
vt 0.001838486 -11.78031
vt -0.1206041 -12.49301
vt 0.003503632 -12.49272
vt 0.005168778 -13.20513
vt -0.118939 -13.20542
vt 0.006833924 -13.91754
vt -0.1172739 -13.91783
vt -0.1156087 -14.63024
vt 0.00849907 -14.62995
vt -0.1139436 -15.34265
vt 0.01016422 -15.34236
vt 0.01182936 -16.05477
vt -0.1122784 -16.05506
vt 0.001213238 -2.314751
vt 0.002878384 -3.027161
vt -0.1228945 -2.315042
vt -0.1212294 -3.027451
vt -0.1195643 -3.739861
vt 0.00454353 -3.739571
vt -0.1178991 -4.452271
vt 0.006208676 -4.451981
vt 0.007873822 -5.164391
vt -0.116234 -5.164681
vt 0.009538967 -5.876801
vt -0.1145688 -5.877091
vt -0.1129037 -6.5895
vt 0.01120411 -6.589211
vt -0.1112385 -7.30191
vt 0.01286926 -7.30162
vt 0.01453441 -8.01403
vt -0.1095734 -8.01432

usemtl planks

f 79/45/5 78/44/53 77/43/5
f 56/46/53 77/43/5 78/44/53
f 56/46/53 78/44/53 80/47/7
f 81/48/7 80/47/7 78/44/53
f 80/47/7 81/48/7 33/49/54
f 82/50/54 33/49/54 81/48/7
f 82/50/54 83/51/9 33/49/54
f 84/52/9 33/49/54 83/51/9
f 83/51/9 85/53/55 84/52/9
f 18/54/55 84/52/9 85/53/55
f 18/54/55 85/53/55 86/55/3
f 87/56/3 86/55/3 85/53/55
f 86/55/3 87/56/3 63/57/56
f 88/58/56 63/57/56 87/56/3
f 88/58/56 79/59/5 63/57/56
f 77/60/5 63/57/56 79/59/5
f 84/63/5 85/62/53 83/61/5
f 85/62/53 84/63/5 18/64/53
f 86/65/7 85/62/53 18/64/53
f 85/62/53 86/65/7 87/66/7
f 63/67/54 87/66/7 86/65/7
f 87/66/7 63/67/54 88/68/54
f 63/67/54 79/69/9 88/68/54
f 79/69/9 63/67/54 77/70/9
f 77/70/9 78/71/55 79/69/9
f 78/71/55 77/70/9 56/72/55
f 80/73/3 78/71/55 56/72/55
f 78/71/55 80/73/3 81/74/3
f 33/75/56 81/74/3 80/73/3
f 81/74/3 33/75/56 82/76/56
f 33/75/56 83/77/5 82/76/56
f 83/77/5 33/75/56 84/78/5

