# Created by Kenney (www.kenney.nl)

mtllib pulley-crate.mtl

g pulley-crate

v 0.05000004 -0.07279462 -0.1521748 1 1 1
v 0.05000004 -0.1407388 -0.07880183 1 1 1
v 0.05000003 -0.05000001 -0.1767908 1 1 1
v -0.04999997 -0.04999998 -0.3239705 1 1 1
v -0.04999997 -0.04999998 -0.1767908 1 1 1
v -0.04999996 -0.1461676 -0.2201189 1 1 1
v -0.04999996 -0.2141117 -0.1467459 1 1 1
v -0.04999998 -0.21371 0 1 1 1
v -0.05000001 -0.35 0 1 1 1
v 0.05000002 -0.35 0 1 1 1
v 0.05000003 -0.04999998 -0.3239705 1 1 1
v 0.05000002 -0.2137101 -1.490116E-08 1 1 1
v 0.05000003 0.05 -0.2 1 1 1
v 0.05000001 0.05 0 1 1 1
v 0.05000003 0.05 -0.3 1 1 1
v 0.05000001 0.05 -0.6 1 1 1
v 0.05000001 -0.05 0 1 1 1
v -0.05000001 -0.05 0 1 1 1
v -0.04999999 0.05 0 1 1 1
v 0.05000001 -0.05 -0.6 1 1 1
v -0.04999997 -0.05 -0.2 1 1 1
v -0.04999997 -0.05 -0.3 1 1 1
v -0.05000001 -0.05 -0.6 1 1 1
v -0.04999999 0.05 -0.6 1 1 1
v -1.3235E-08 -0.65 -0.575 1 1 1
v -1.3235E-08 -0.04999995 -0.575 1 1 1
v -1.3235E-08 -0.65 -0.525 1 1 1
v -3.970499E-08 -0.04999995 -0.525 1 1 1
v 0.1643003 -0.6499999 -0.5836216 1 1 1
v 0.1513593 -0.6499999 -0.5353253 1 1 1
v -0.1254774 -0.6499999 -0.6612673 1 1 1
v -0.1384184 -0.6499999 -0.612971 1 1 1
v -0.1254774 -0.9499999 -0.6612673 1 1 1
v -0.1384184 -0.9499999 -0.612971 1 1 1
v 0.1513593 -0.9499999 -0.5353253 1 1 1
v 0.1643003 -0.9499999 -0.5836216 1 1 1
v 0.1383184 -0.6499999 -0.486656 1 1 1
v 0.1383184 -0.9499999 -0.486656 1 1 1
v 0.1253775 -0.6499999 -0.4383597 1 1 1
v 0.1253775 -0.9499999 -0.4383597 1 1 1
v -0.1514593 -0.6499999 -0.5643017 1 1 1
v -0.1644002 -0.6499999 -0.5160054 1 1 1
v -0.1514593 -0.9499999 -0.5643017 1 1 1
v -0.1644002 -0.9499999 -0.5160054 1 1 1
v 0.02499998 -0.65 -0.55 1 1 1
v 0.02499998 -0.04999995 -0.55 1 1 1
v -0.02500003 -0.65 -0.55 1 1 1
v -0.02500003 -0.04999995 -0.55 1 1 1
v 0.106066 -0.9499999 -0.3662883 1 1 1
v -0.1837117 -0.9499999 -0.443934 1 1 1
v 0.106066 -0.6499999 -0.3662883 1 1 1
v -0.1837117 -0.6499999 -0.443934 1 1 1
v -0.106066 -0.9499999 -0.7337117 1 1 1
v 0.1837117 -0.9499999 -0.656066 1 1 1
v -0.106066 -0.6499999 -0.7337117 1 1 1
v 0.1837117 -0.6499999 -0.656066 1 1 1

vn 0 0.7337298 0.6794413
vn 0 -0.7337298 -0.6794413
vn -1 0 0
vn 1 0 0
vn 0 -0.7337299 -0.6794413
vn 0 0.7337299 0.6794413
vn 0 0 1
vn 0 0 -1
vn 0 1 0
vn 0 -1 0
vn -1 0 -2.646999E-07
vn 1 0 2.646999E-07
vn 6.850938E-08 1 -2.556804E-07
vn -6.850938E-08 -1 2.556804E-07
vn -0.9659258 0 -0.258819
vn 0.9659258 0 0.258819
vn 3.839092E-07 0 -1
vn -3.839092E-07 0 1
vn -0.258819 0 0.9659258
vn 0.258819 0 -0.9659258
vn -6.79843E-08 1 2.537208E-07
vn 6.79843E-08 -1 -2.537208E-07
vn 0.9659258 0 0.2588188
vn -0.9659258 0 -0.2588188

vt 1.999993 -1.783162
vt 1.999993 -1.895043
vt 1.999994 -1.745627
vt 1.88811 -1.624806
vt 1.99999 -1.745626
vt 1.88811 -1.783161
vt 1.888109 -1.895041
vt 1.99999 -2.0152
vt 1.888109 -2.118803
vt 1.888116 -2.11881
vt 1.776235 -2.11881
vt 1.888116 -1.895048
vt 1.888117 -1.783167
vt 1.888117 -1.624812
vt 1.776236 -1.624812
vt 1.999993 -2.015201
vt 1.888113 -1.745628
vt 1.888112 -2.015202
vt 1.999991 -1.624806
vt 1.999991 -2.118803
vt 1.888111 -1.745626
vt 1.888111 -1.783161
vt 1.88811 -1.895042
vt 1.88811 -2.0152
vt 1.999999 -2.167691
vt 1.888118 -2.167691
vt 2 -2.015208
vt 1.888118 -2.015208
vt 1.999992 -1.895041
vt 1.999992 -2.118803
vt 1.999992 -1.783161
vt 1.999993 -1.447519
vt 1.999998 -2.230691
vt 1.888116 -2.230691
vt 1.999998 -2.11881
vt 1.888117 -2.118809
vt 1.776236 -2.118809
vt 1.776237 -1.447524
vt 1.888117 -2.118809
vt 1.888117 -1.895048
vt 1.888118 -1.783167
vt 1.888118 -1.447524
vt 1.888112 -1.447519
vt 1.888111 -2.118803
vt 1.999992 -1.447519
vt 1.999991 -2.118803
vt 1.888111 -1.447519
vt 1.888111 -1.783161
vt 1.888111 -1.895042
vt 1.88811 -2.118803
vt 1.888111 -1.447519
vt 1.999991 -1.447519
vt 1.88811 -1.783161
vt 1.99999 -2.118803
vt 1.88811 -1.895042
vt 1.88811 -2.118803
vt 1.888119 -0.8881186
vt 2 -0.8881186
vt 1.888119 -1
vt 2 -1
vt -9.989883 0.9312445
vt -9.989882 2.157295
vt -9.887712 0.9312445
vt -9.887712 2.157295
vt -9.989883 0.7269021
vt -9.887712 0.7269021
vt -9.989883 0.1138767
vt -9.887713 0.1138767
vt -9.989878 0.1138776
vt -9.989878 0.726903
vt -9.887708 0.1138776
vt -9.887707 0.726903
vt -9.989889 0.1138757
vt -9.989889 0.7269011
vt -9.887719 0.1138756
vt -9.887718 0.7269011
vt 3.497737 0.004930351
vt 3.00859 0.004930351
vt 3.497738 0.4940741
vt 3.008591 0.4940741
vt 3.129107 0.9923036
vt 3.129107 0.5031626
vt 3.007452 0.9923037
vt 3.007451 0.5031628
vt 3.007451 0.5031628
vt 3.129737 0.9923036
vt 3.129736 0.5031626
vt 3.007448 0.5031628
vt 3.007449 0.9923037
vt 3.129733 0.5031626
vt 3.129734 0.9923036
vt 3.316745 0.9335018
vt 3.316745 0.5694659
vt 3.255604 0.9335019
vt 3.255603 0.5694661
vt 3.103922 0.9335021
vt 3.194931 0.933502
vt 3.103921 0.5694663
vt 3.194931 0.5694661
vt 3.377418 0.9335017
vt 3.467959 0.9335016
vt 3.377418 0.5694659
vt 3.467958 0.5694657
vt 3.374936 0.5031622
vt 3.374937 0.9923031
vt 3.496592 0.503162
vt 3.496593 0.992303
vt 3.292779 0.9923033
vt 3.292779 0.5031623
vt 3.210626 0.9923034
vt 3.210625 0.5031625
vt 3.211264 0.5031624
vt 3.211265 0.9923034
vt 3.293417 0.5031623
vt 3.293418 0.9923033
vt 3.293414 0.9923033
vt 3.211261 0.9923034
vt 3.293413 0.5031623
vt 3.21126 0.5031624
vt 3.496596 0.992303
vt 3.496595 0.503162
vt 3.374311 0.9923032
vt 3.37431 0.5031622

usemtl planks

f 3/3/1 2/2/1 1/1/1
f 1/1/2 2/2/2 3/3/2
f 6/6/3 5/5/3 4/4/3
f 5/5/3 6/6/3 7/7/3
f 5/5/3 7/7/3 8/8/3
f 8/8/3 7/7/3 9/9/3
f 4/4/4 5/5/4 6/6/4
f 7/7/4 6/6/4 5/5/4
f 8/8/4 7/7/4 5/5/4
f 9/9/4 7/7/4 8/8/4
f 7/12/5 10/11/5 9/10/5
f 10/11/5 7/12/5 6/13/5
f 4/14/5 10/11/5 6/13/5
f 10/11/5 4/14/5 11/15/5
f 9/10/6 10/11/6 7/12/6
f 6/13/6 7/12/6 10/11/6
f 6/13/6 10/11/6 4/14/6
f 11/15/6 4/14/6 10/11/6
f 2/2/1 3/3/1 12/16/1
f 12/16/1 3/3/1 5/17/1
f 12/16/1 5/17/1 8/18/1
f 12/16/2 3/3/2 2/2/2
f 5/17/2 3/3/2 12/16/2
f 8/18/2 5/17/2 12/16/2
f 3/21/4 10/20/4 11/19/4
f 10/20/4 3/21/4 1/22/4
f 10/20/4 1/22/4 2/23/4
f 10/20/4 2/23/4 12/24/4
f 11/19/3 10/20/3 3/21/3
f 1/22/3 3/21/3 10/20/3
f 2/23/3 1/22/3 10/20/3
f 12/24/3 2/23/3 10/20/3
f 12/27/7 9/26/7 10/25/7
f 9/26/7 12/27/7 8/28/7
f 10/25/8 9/26/8 12/27/8
f 8/28/8 12/27/8 9/26/8
f 15/31/9 14/30/9 13/29/9
f 13/29/10 14/30/10 15/31/10
f 14/30/9 15/31/9 16/32/9
f 16/32/10 15/31/10 14/30/10
f 14/35/7 18/34/7 17/33/7
f 18/34/7 14/35/7 19/36/7
f 17/33/8 18/34/8 14/35/8
f 19/36/8 14/35/8 18/34/8
f 18/39/10 20/38/10 17/37/10
f 20/38/10 18/39/10 21/40/10
f 22/41/10 20/38/10 21/40/10
f 20/38/10 22/41/10 23/42/10
f 17/37/9 20/38/9 18/39/9
f 21/40/9 18/39/9 20/38/9
f 21/40/9 20/38/9 22/41/9
f 23/42/9 22/41/9 20/38/9
f 14/30/9 16/32/9 24/43/9
f 14/30/9 24/43/9 19/44/9
f 24/43/10 16/32/10 14/30/10
f 19/44/10 24/43/10 14/30/10
f 16/47/4 17/46/4 20/45/4
f 17/46/4 16/47/4 15/48/4
f 17/46/4 15/48/4 13/49/4
f 17/46/4 13/49/4 14/50/4
f 20/45/3 17/46/3 16/47/3
f 15/48/3 16/47/3 17/46/3
f 13/49/3 15/48/3 17/46/3
f 14/50/3 13/49/3 17/46/3
f 22/53/3 24/52/3 23/51/3
f 24/52/3 22/53/3 19/54/3
f 19/54/3 22/53/3 21/55/3
f 19/54/3 21/55/3 18/56/3
f 23/51/4 24/52/4 22/53/4
f 19/54/4 22/53/4 24/52/4
f 21/55/4 22/53/4 19/54/4
f 18/56/4 21/55/4 19/54/4
f 24/59/8 20/58/8 23/57/8
f 20/58/8 24/59/8 16/60/8
f 23/57/7 20/58/7 24/59/7
f 16/60/7 24/59/7 20/58/7

usemtl details

f 27/63/11 26/62/11 25/61/11
f 26/62/11 27/63/11 28/64/11
f 25/61/12 26/62/12 27/63/12
f 28/64/12 27/63/12 26/62/12
f 31/67/13 30/66/13 29/65/13
f 30/66/13 31/67/13 32/68/13
f 29/65/14 30/66/14 31/67/14
f 32/68/14 31/67/14 30/66/14
f 34/71/15 31/70/15 33/69/15
f 31/70/15 34/71/15 32/72/15
f 33/69/16 31/70/16 34/71/16
f 32/72/16 34/71/16 31/70/16
f 34/66/10 36/67/10 35/68/10
f 36/67/10 34/66/10 33/65/10
f 35/68/9 36/67/9 34/66/9
f 33/65/9 34/66/9 36/67/9
f 30/75/16 36/74/16 29/73/16
f 36/74/16 30/75/16 35/76/16
f 29/73/15 36/74/15 30/75/15
f 35/76/15 30/75/15 36/74/15
f 39/75/16 38/74/16 37/73/16
f 38/74/16 39/75/16 40/76/16
f 37/73/15 38/74/15 39/75/15
f 40/76/15 39/75/15 38/74/15
f 41/67/13 39/66/13 37/65/13
f 39/66/13 41/67/13 42/68/13
f 37/65/14 39/66/14 41/67/14
f 42/68/14 41/67/14 39/66/14
f 44/71/15 41/70/15 43/69/15
f 41/70/15 44/71/15 42/72/15
f 43/69/16 41/70/16 44/71/16
f 42/72/16 44/71/16 41/70/16
f 44/66/10 38/67/10 40/68/10
f 38/67/10 44/66/10 43/65/10
f 40/68/9 38/67/9 44/66/9
f 43/65/9 44/66/9 38/67/9
f 47/63/17 46/62/17 45/61/17
f 46/62/17 47/63/17 48/64/17
f 45/61/18 46/62/18 47/63/18
f 48/64/18 47/63/18 46/62/18

usemtl barrel

f 51/79/19 50/78/19 49/77/19
f 50/78/19 51/79/19 52/80/19
f 49/77/20 50/78/20 51/79/20
f 52/80/20 51/79/20 50/78/20
f 55/79/20 54/78/20 53/77/20
f 54/78/20 55/79/20 56/80/20
f 53/77/19 54/78/19 55/79/19
f 56/80/19 55/79/19 54/78/19
f 51/83/16 40/82/16 39/81/16
f 40/82/16 51/83/16 49/84/16
f 39/81/15 40/82/15 51/83/15
f 49/84/15 51/83/15 40/82/15
f 36/86/10 53/85/10 54/83/10
f 53/85/10 36/86/10 33/87/10
f 54/83/9 53/85/9 36/86/9
f 33/87/9 36/86/9 53/85/9
f 33/90/15 55/89/15 53/88/15
f 55/89/15 33/90/15 31/91/15
f 53/88/16 55/89/16 33/90/16
f 31/91/16 33/90/16 55/89/16
f 30/94/21 41/93/21 37/92/21
f 41/93/21 30/94/21 32/95/21
f 37/92/22 41/93/22 30/94/22
f 32/95/22 30/94/22 41/93/22
f 55/98/9 29/97/9 56/96/9
f 29/97/9 55/98/9 31/99/9
f 56/96/10 29/97/10 55/98/10
f 31/99/10 55/98/10 29/97/10
f 42/102/9 51/101/9 39/100/9
f 51/101/9 42/102/9 52/103/9
f 39/100/10 51/101/10 42/102/10
f 52/103/10 42/102/10 51/101/10
f 50/106/15 42/105/15 44/104/15
f 42/105/15 50/106/15 52/107/15
f 44/104/16 42/105/16 50/106/16
f 52/107/16 50/106/16 42/105/16
f 37/110/23 35/109/23 30/108/23
f 35/109/23 37/110/23 38/111/23
f 30/108/24 35/109/24 37/110/24
f 38/111/24 37/110/24 35/109/24
f 43/114/24 32/113/24 34/112/24
f 32/113/24 43/114/24 41/115/24
f 34/112/23 32/113/23 43/114/23
f 41/115/23 43/114/23 32/113/23
f 49/107/10 44/104/10 40/105/10
f 44/104/10 49/107/10 50/106/10
f 40/105/9 44/104/9 49/107/9
f 50/106/9 49/107/9 44/104/9
f 43/118/10 35/117/10 38/116/10
f 35/117/10 43/118/10 34/119/10
f 38/116/9 35/117/9 43/118/9
f 34/119/9 43/118/9 35/117/9
f 29/122/16 54/121/16 56/120/16
f 54/121/16 29/122/16 36/123/16
f 56/120/15 54/121/15 29/122/15
f 36/123/15 29/122/15 54/121/15

g pulley-crate




usemtl planks

f 3/3/1 2/2/1 1/1/1
f 1/1/2 2/2/2 3/3/2
f 6/6/3 5/5/3 4/4/3
f 5/5/3 6/6/3 7/7/3
f 5/5/3 7/7/3 8/8/3
f 8/8/3 7/7/3 9/9/3
f 4/4/4 5/5/4 6/6/4
f 7/7/4 6/6/4 5/5/4
f 8/8/4 7/7/4 5/5/4
f 9/9/4 7/7/4 8/8/4
f 7/12/5 10/11/5 9/10/5
f 10/11/5 7/12/5 6/13/5
f 4/14/5 10/11/5 6/13/5
f 10/11/5 4/14/5 11/15/5
f 9/10/6 10/11/6 7/12/6
f 6/13/6 7/12/6 10/11/6
f 6/13/6 10/11/6 4/14/6
f 11/15/6 4/14/6 10/11/6
f 2/2/1 3/3/1 12/16/1
f 12/16/1 3/3/1 5/17/1
f 12/16/1 5/17/1 8/18/1
f 12/16/2 3/3/2 2/2/2
f 5/17/2 3/3/2 12/16/2
f 8/18/2 5/17/2 12/16/2
f 3/21/4 10/20/4 11/19/4
f 10/20/4 3/21/4 1/22/4
f 10/20/4 1/22/4 2/23/4
f 10/20/4 2/23/4 12/24/4
f 11/19/3 10/20/3 3/21/3
f 1/22/3 3/21/3 10/20/3
f 2/23/3 1/22/3 10/20/3
f 12/24/3 2/23/3 10/20/3
f 12/27/7 9/26/7 10/25/7
f 9/26/7 12/27/7 8/28/7
f 10/25/8 9/26/8 12/27/8
f 8/28/8 12/27/8 9/26/8
f 15/31/9 14/30/9 13/29/9
f 13/29/10 14/30/10 15/31/10
f 14/30/9 15/31/9 16/32/9
f 16/32/10 15/31/10 14/30/10
f 14/35/7 18/34/7 17/33/7
f 18/34/7 14/35/7 19/36/7
f 17/33/8 18/34/8 14/35/8
f 19/36/8 14/35/8 18/34/8
f 18/39/10 20/38/10 17/37/10
f 20/38/10 18/39/10 21/40/10
f 22/41/10 20/38/10 21/40/10
f 20/38/10 22/41/10 23/42/10
f 17/37/9 20/38/9 18/39/9
f 21/40/9 18/39/9 20/38/9
f 21/40/9 20/38/9 22/41/9
f 23/42/9 22/41/9 20/38/9
f 14/30/9 16/32/9 24/43/9
f 14/30/9 24/43/9 19/44/9
f 24/43/10 16/32/10 14/30/10
f 19/44/10 24/43/10 14/30/10
f 16/47/4 17/46/4 20/45/4
f 17/46/4 16/47/4 15/48/4
f 17/46/4 15/48/4 13/49/4
f 17/46/4 13/49/4 14/50/4
f 20/45/3 17/46/3 16/47/3
f 15/48/3 16/47/3 17/46/3
f 13/49/3 15/48/3 17/46/3
f 14/50/3 13/49/3 17/46/3
f 22/53/3 24/52/3 23/51/3
f 24/52/3 22/53/3 19/54/3
f 19/54/3 22/53/3 21/55/3
f 19/54/3 21/55/3 18/56/3
f 23/51/4 24/52/4 22/53/4
f 19/54/4 22/53/4 24/52/4
f 21/55/4 22/53/4 19/54/4
f 18/56/4 21/55/4 19/54/4
f 24/59/8 20/58/8 23/57/8
f 20/58/8 24/59/8 16/60/8
f 23/57/7 20/58/7 24/59/7
f 16/60/7 24/59/7 20/58/7

usemtl details

f 27/63/11 26/62/11 25/61/11
f 26/62/11 27/63/11 28/64/11
f 25/61/12 26/62/12 27/63/12
f 28/64/12 27/63/12 26/62/12
f 31/67/13 30/66/13 29/65/13
f 30/66/13 31/67/13 32/68/13
f 29/65/14 30/66/14 31/67/14
f 32/68/14 31/67/14 30/66/14
f 34/71/15 31/70/15 33/69/15
f 31/70/15 34/71/15 32/72/15
f 33/69/16 31/70/16 34/71/16
f 32/72/16 34/71/16 31/70/16
f 34/66/10 36/67/10 35/68/10
f 36/67/10 34/66/10 33/65/10
f 35/68/9 36/67/9 34/66/9
f 33/65/9 34/66/9 36/67/9
f 30/75/16 36/74/16 29/73/16
f 36/74/16 30/75/16 35/76/16
f 29/73/15 36/74/15 30/75/15
f 35/76/15 30/75/15 36/74/15
f 39/75/16 38/74/16 37/73/16
f 38/74/16 39/75/16 40/76/16
f 37/73/15 38/74/15 39/75/15
f 40/76/15 39/75/15 38/74/15
f 41/67/13 39/66/13 37/65/13
f 39/66/13 41/67/13 42/68/13
f 37/65/14 39/66/14 41/67/14
f 42/68/14 41/67/14 39/66/14
f 44/71/15 41/70/15 43/69/15
f 41/70/15 44/71/15 42/72/15
f 43/69/16 41/70/16 44/71/16
f 42/72/16 44/71/16 41/70/16
f 44/66/10 38/67/10 40/68/10
f 38/67/10 44/66/10 43/65/10
f 40/68/9 38/67/9 44/66/9
f 43/65/9 44/66/9 38/67/9
f 47/63/17 46/62/17 45/61/17
f 46/62/17 47/63/17 48/64/17
f 45/61/18 46/62/18 47/63/18
f 48/64/18 47/63/18 46/62/18

usemtl barrel

f 51/79/19 50/78/19 49/77/19
f 50/78/19 51/79/19 52/80/19
f 49/77/20 50/78/20 51/79/20
f 52/80/20 51/79/20 50/78/20
f 55/79/20 54/78/20 53/77/20
f 54/78/20 55/79/20 56/80/20
f 53/77/19 54/78/19 55/79/19
f 56/80/19 55/79/19 54/78/19
f 51/83/16 40/82/16 39/81/16
f 40/82/16 51/83/16 49/84/16
f 39/81/15 40/82/15 51/83/15
f 49/84/15 51/83/15 40/82/15
f 36/86/10 53/85/10 54/83/10
f 53/85/10 36/86/10 33/87/10
f 54/83/9 53/85/9 36/86/9
f 33/87/9 36/86/9 53/85/9
f 33/90/15 55/89/15 53/88/15
f 55/89/15 33/90/15 31/91/15
f 53/88/16 55/89/16 33/90/16
f 31/91/16 33/90/16 55/89/16
f 30/94/21 41/93/21 37/92/21
f 41/93/21 30/94/21 32/95/21
f 37/92/22 41/93/22 30/94/22
f 32/95/22 30/94/22 41/93/22
f 55/98/9 29/97/9 56/96/9
f 29/97/9 55/98/9 31/99/9
f 56/96/10 29/97/10 55/98/10
f 31/99/10 55/98/10 29/97/10
f 42/102/9 51/101/9 39/100/9
f 51/101/9 42/102/9 52/103/9
f 39/100/10 51/101/10 42/102/10
f 52/103/10 42/102/10 51/101/10
f 50/106/15 42/105/15 44/104/15
f 42/105/15 50/106/15 52/107/15
f 44/104/16 42/105/16 50/106/16
f 52/107/16 50/106/16 42/105/16
f 37/110/23 35/109/23 30/108/23
f 35/109/23 37/110/23 38/111/23
f 30/108/24 35/109/24 37/110/24
f 38/111/24 37/110/24 35/109/24
f 43/114/24 32/113/24 34/112/24
f 32/113/24 43/114/24 41/115/24
f 34/112/23 32/113/23 43/114/23
f 41/115/23 43/114/23 32/113/23
f 49/107/10 44/104/10 40/105/10
f 44/104/10 49/107/10 50/106/10
f 40/105/9 44/104/9 49/107/9
f 50/106/9 49/107/9 44/104/9
f 43/118/10 35/117/10 38/116/10
f 35/117/10 43/118/10 34/119/10
f 38/116/9 35/117/9 43/118/9
f 34/119/9 43/118/9 35/117/9
f 29/122/16 54/121/16 56/120/16
f 54/121/16 29/122/16 36/123/16
f 56/120/15 54/121/15 29/122/15
f 36/123/15 29/122/15 54/121/15

