# Created by Kenney (www.kenney.nl)

mtllib pulley.mtl

g pulley

v 0.05000004 -0.07279462 -0.1521748 1 1 1
v 0.05000004 -0.1407388 -0.07880183 1 1 1
v 0.05000003 -0.05000001 -0.1767908 1 1 1
v -0.04999997 -0.04999998 -0.3239705 1 1 1
v -0.04999997 -0.04999998 -0.1767908 1 1 1
v -0.04999996 -0.1461676 -0.2201189 1 1 1
v -0.04999996 -0.2141117 -0.1467459 1 1 1
v -0.04999998 -0.21371 0 1 1 1
v -0.05000001 -0.35 0 1 1 1
v 0.05000002 -0.35 0 1 1 1
v 0.05000003 -0.04999998 -0.3239705 1 1 1
v 0.05000002 -0.2137101 -1.490116E-08 1 1 1
v 0.05000003 0.05 -0.2 1 1 1
v 0.05000001 0.05 0 1 1 1
v 0.05000003 0.05 -0.3 1 1 1
v 0.05000001 0.05 -0.6 1 1 1
v 0.05000001 -0.05 0 1 1 1
v -0.05000001 -0.05 0 1 1 1
v -0.04999999 0.05 0 1 1 1
v 0.05000001 -0.05 -0.6 1 1 1
v -0.04999997 -0.05 -0.2 1 1 1
v -0.04999997 -0.05 -0.3 1 1 1
v -0.05000001 -0.05 -0.6 1 1 1
v -0.04999999 0.05 -0.6 1 1 1
v -1.3235E-08 -0.95 -0.575 1 1 1
v -1.3235E-08 -0.04999995 -0.575 1 1 1
v -1.3235E-08 -0.95 -0.525 1 1 1
v -3.970499E-08 -0.04999995 -0.525 1 1 1
v 0.02499998 -0.95 -0.55 1 1 1
v 0.02499998 -0.04999995 -0.55 1 1 1
v -0.02500003 -0.95 -0.55 1 1 1
v -0.02500003 -0.04999995 -0.55 1 1 1

vn 0 0.7337298 0.6794413
vn 0 -0.7337298 -0.6794413
vn -1 0 0
vn 1 0 0
vn 0 -0.7337299 -0.6794413
vn 0 0.7337299 0.6794413
vn 0 0 1
vn 0 0 -1
vn 0 1 0
vn 0 -1 0
vn -1 0 -2.646999E-07
vn 1 0 2.646999E-07
vn 3.839092E-07 0 -1
vn -3.839092E-07 0 1

vt 1.999993 -1.783162
vt 1.999993 -1.895043
vt 1.999994 -1.745627
vt 1.88811 -1.624806
vt 1.99999 -1.745626
vt 1.88811 -1.783161
vt 1.888109 -1.895041
vt 1.99999 -2.0152
vt 1.888109 -2.118803
vt 1.888116 -2.11881
vt 1.776235 -2.11881
vt 1.888116 -1.895048
vt 1.888117 -1.783167
vt 1.888117 -1.624812
vt 1.776236 -1.624812
vt 1.999993 -2.015201
vt 1.888113 -1.745628
vt 1.888112 -2.015202
vt 1.999991 -1.624806
vt 1.999991 -2.118803
vt 1.888111 -1.745626
vt 1.888111 -1.783161
vt 1.88811 -1.895042
vt 1.88811 -2.0152
vt 1.999999 -2.167691
vt 1.888118 -2.167691
vt 2 -2.015208
vt 1.888118 -2.015208
vt 1.999992 -1.895041
vt 1.999992 -2.118803
vt 1.999992 -1.783161
vt 1.999993 -1.447519
vt 1.999998 -2.230691
vt 1.888116 -2.230691
vt 1.999998 -2.11881
vt 1.888117 -2.118809
vt 1.776236 -2.118809
vt 1.776237 -1.447524
vt 1.888117 -2.118809
vt 1.888117 -1.895048
vt 1.888118 -1.783167
vt 1.888118 -1.447524
vt 1.888112 -1.447519
vt 1.888111 -2.118803
vt 1.999992 -1.447519
vt 1.999991 -2.118803
vt 1.888111 -1.447519
vt 1.888111 -1.783161
vt 1.888111 -1.895042
vt 1.88811 -2.118803
vt 1.888111 -1.447519
vt 1.999991 -1.447519
vt 1.88811 -1.783161
vt 1.99999 -2.118803
vt 1.88811 -1.895042
vt 1.88811 -2.118803
vt 1.888119 -0.8881186
vt 2 -0.8881186
vt 1.888119 -1
vt 2 -1
vt -9.989883 0.3182192
vt -9.989882 2.157295
vt -9.887712 0.3182192
vt -9.887712 2.157295
vt -9.989883 0.318219
vt -9.887712 0.318219

usemtl planks

f 3/3/1 2/2/1 1/1/1
f 1/1/2 2/2/2 3/3/2
f 6/6/3 5/5/3 4/4/3
f 5/5/3 6/6/3 7/7/3
f 5/5/3 7/7/3 8/8/3
f 8/8/3 7/7/3 9/9/3
f 4/4/4 5/5/4 6/6/4
f 7/7/4 6/6/4 5/5/4
f 8/8/4 7/7/4 5/5/4
f 9/9/4 7/7/4 8/8/4
f 7/12/5 10/11/5 9/10/5
f 10/11/5 7/12/5 6/13/5
f 4/14/5 10/11/5 6/13/5
f 10/11/5 4/14/5 11/15/5
f 9/10/6 10/11/6 7/12/6
f 6/13/6 7/12/6 10/11/6
f 6/13/6 10/11/6 4/14/6
f 11/15/6 4/14/6 10/11/6
f 2/2/1 3/3/1 12/16/1
f 12/16/1 3/3/1 5/17/1
f 12/16/1 5/17/1 8/18/1
f 12/16/2 3/3/2 2/2/2
f 5/17/2 3/3/2 12/16/2
f 8/18/2 5/17/2 12/16/2
f 3/21/4 10/20/4 11/19/4
f 10/20/4 3/21/4 1/22/4
f 10/20/4 1/22/4 2/23/4
f 10/20/4 2/23/4 12/24/4
f 11/19/3 10/20/3 3/21/3
f 1/22/3 3/21/3 10/20/3
f 2/23/3 1/22/3 10/20/3
f 12/24/3 2/23/3 10/20/3
f 12/27/7 9/26/7 10/25/7
f 9/26/7 12/27/7 8/28/7
f 10/25/8 9/26/8 12/27/8
f 8/28/8 12/27/8 9/26/8
f 15/31/9 14/30/9 13/29/9
f 13/29/10 14/30/10 15/31/10
f 14/30/9 15/31/9 16/32/9
f 16/32/10 15/31/10 14/30/10
f 14/35/7 18/34/7 17/33/7
f 18/34/7 14/35/7 19/36/7
f 17/33/8 18/34/8 14/35/8
f 19/36/8 14/35/8 18/34/8
f 18/39/10 20/38/10 17/37/10
f 20/38/10 18/39/10 21/40/10
f 22/41/10 20/38/10 21/40/10
f 20/38/10 22/41/10 23/42/10
f 17/37/9 20/38/9 18/39/9
f 21/40/9 18/39/9 20/38/9
f 21/40/9 20/38/9 22/41/9
f 23/42/9 22/41/9 20/38/9
f 14/30/9 16/32/9 24/43/9
f 14/30/9 24/43/9 19/44/9
f 24/43/10 16/32/10 14/30/10
f 19/44/10 24/43/10 14/30/10
f 16/47/4 17/46/4 20/45/4
f 17/46/4 16/47/4 15/48/4
f 17/46/4 15/48/4 13/49/4
f 17/46/4 13/49/4 14/50/4
f 20/45/3 17/46/3 16/47/3
f 15/48/3 16/47/3 17/46/3
f 13/49/3 15/48/3 17/46/3
f 14/50/3 13/49/3 17/46/3
f 22/53/3 24/52/3 23/51/3
f 24/52/3 22/53/3 19/54/3
f 19/54/3 22/53/3 21/55/3
f 19/54/3 21/55/3 18/56/3
f 23/51/4 24/52/4 22/53/4
f 19/54/4 22/53/4 24/52/4
f 21/55/4 22/53/4 19/54/4
f 18/56/4 21/55/4 19/54/4
f 24/59/8 20/58/8 23/57/8
f 20/58/8 24/59/8 16/60/8
f 23/57/7 20/58/7 24/59/7
f 16/60/7 24/59/7 20/58/7

usemtl details

f 27/63/11 26/62/11 25/61/11
f 26/62/11 27/63/11 28/64/11
f 25/61/12 26/62/12 27/63/12
f 28/64/12 27/63/12 26/62/12
f 31/66/13 30/62/13 29/65/13
f 30/62/13 31/66/13 32/64/13
f 29/65/14 30/62/14 31/66/14
f 32/64/14 31/66/14 30/62/14

g pulley




usemtl planks

f 3/3/1 2/2/1 1/1/1
f 1/1/2 2/2/2 3/3/2
f 6/6/3 5/5/3 4/4/3
f 5/5/3 6/6/3 7/7/3
f 5/5/3 7/7/3 8/8/3
f 8/8/3 7/7/3 9/9/3
f 4/4/4 5/5/4 6/6/4
f 7/7/4 6/6/4 5/5/4
f 8/8/4 7/7/4 5/5/4
f 9/9/4 7/7/4 8/8/4
f 7/12/5 10/11/5 9/10/5
f 10/11/5 7/12/5 6/13/5
f 4/14/5 10/11/5 6/13/5
f 10/11/5 4/14/5 11/15/5
f 9/10/6 10/11/6 7/12/6
f 6/13/6 7/12/6 10/11/6
f 6/13/6 10/11/6 4/14/6
f 11/15/6 4/14/6 10/11/6
f 2/2/1 3/3/1 12/16/1
f 12/16/1 3/3/1 5/17/1
f 12/16/1 5/17/1 8/18/1
f 12/16/2 3/3/2 2/2/2
f 5/17/2 3/3/2 12/16/2
f 8/18/2 5/17/2 12/16/2
f 3/21/4 10/20/4 11/19/4
f 10/20/4 3/21/4 1/22/4
f 10/20/4 1/22/4 2/23/4
f 10/20/4 2/23/4 12/24/4
f 11/19/3 10/20/3 3/21/3
f 1/22/3 3/21/3 10/20/3
f 2/23/3 1/22/3 10/20/3
f 12/24/3 2/23/3 10/20/3
f 12/27/7 9/26/7 10/25/7
f 9/26/7 12/27/7 8/28/7
f 10/25/8 9/26/8 12/27/8
f 8/28/8 12/27/8 9/26/8
f 15/31/9 14/30/9 13/29/9
f 13/29/10 14/30/10 15/31/10
f 14/30/9 15/31/9 16/32/9
f 16/32/10 15/31/10 14/30/10
f 14/35/7 18/34/7 17/33/7
f 18/34/7 14/35/7 19/36/7
f 17/33/8 18/34/8 14/35/8
f 19/36/8 14/35/8 18/34/8
f 18/39/10 20/38/10 17/37/10
f 20/38/10 18/39/10 21/40/10
f 22/41/10 20/38/10 21/40/10
f 20/38/10 22/41/10 23/42/10
f 17/37/9 20/38/9 18/39/9
f 21/40/9 18/39/9 20/38/9
f 21/40/9 20/38/9 22/41/9
f 23/42/9 22/41/9 20/38/9
f 14/30/9 16/32/9 24/43/9
f 14/30/9 24/43/9 19/44/9
f 24/43/10 16/32/10 14/30/10
f 19/44/10 24/43/10 14/30/10
f 16/47/4 17/46/4 20/45/4
f 17/46/4 16/47/4 15/48/4
f 17/46/4 15/48/4 13/49/4
f 17/46/4 13/49/4 14/50/4
f 20/45/3 17/46/3 16/47/3
f 15/48/3 16/47/3 17/46/3
f 13/49/3 15/48/3 17/46/3
f 14/50/3 13/49/3 17/46/3
f 22/53/3 24/52/3 23/51/3
f 24/52/3 22/53/3 19/54/3
f 19/54/3 22/53/3 21/55/3
f 19/54/3 21/55/3 18/56/3
f 23/51/4 24/52/4 22/53/4
f 19/54/4 22/53/4 24/52/4
f 21/55/4 22/53/4 19/54/4
f 18/56/4 21/55/4 19/54/4
f 24/59/8 20/58/8 23/57/8
f 20/58/8 24/59/8 16/60/8
f 23/57/7 20/58/7 24/59/7
f 16/60/7 24/59/7 20/58/7

usemtl details

f 27/63/11 26/62/11 25/61/11
f 26/62/11 27/63/11 28/64/11
f 25/61/12 26/62/12 27/63/12
f 28/64/12 27/63/12 26/62/12
f 31/66/13 30/62/13 29/65/13
f 30/62/13 31/66/13 32/64/13
f 29/65/14 30/62/14 31/66/14
f 32/64/14 31/66/14 30/62/14

