# Created by Kenney (www.kenney.nl)

mtllib roof-high-side.mtl

g roof-high-side

v 0.5 0 0.5 1 1 1
v 0.5 0 -0.5 1 1 1
v -0.5 0 0.5 1 1 1
v -0.5 0 -0.5 1 1 1
v 0.5 1 -0.5 1 1 1
v 0.5 1 0.5 1 1 1

vn 0 -1 0
vn 0 1 0
vn 0 0 -1
vn 0 0 1
vn 1 0 0
vn -1 0 0
vn -0.7071068 0.7071068 0
vn 0.7071068 -0.7071068 0

vt 0 1
vt 0 0
vt -1 1
vt -1 0
vt 0.5 2.255973E-17
vt -0.5 2.255973E-17
vt -0.5 1
vt -1.5 2.255973E-17
vt -2.5 2.255973E-17
vt -1.5 1
vt 5.551115E-17 -1.414214
vt 5.551115E-17 -1.554312E-15
vt 1 -1.414214
vt 1 -1.554312E-15

usemtl bricks

f 3/3/1 2/2/1 1/1/1
f 2/2/1 3/3/1 4/4/1
f 1/1/2 2/2/2 3/3/2
f 4/4/2 3/3/2 2/2/2

usemtl stones

f 5/7/3 2/6/3 4/5/3
f 4/5/4 2/6/4 5/7/4
f 6/10/4 3/9/4 1/8/4
f 1/8/3 3/9/3 6/10/3
f 6/10/5 2/6/5 5/7/5
f 2/6/5 6/10/5 1/8/5
f 5/7/6 2/6/6 6/10/6
f 1/8/6 6/10/6 2/6/6

usemtl roof

f 3/13/7 5/12/7 4/11/7
f 5/12/7 3/13/7 6/14/7
f 4/11/8 5/12/8 3/13/8
f 6/14/8 3/13/8 5/12/8

g roof-high-side




usemtl bricks

f 3/3/1 2/2/1 1/1/1
f 2/2/1 3/3/1 4/4/1
f 1/1/2 2/2/2 3/3/2
f 4/4/2 3/3/2 2/2/2

usemtl stones

f 5/7/3 2/6/3 4/5/3
f 4/5/4 2/6/4 5/7/4
f 6/10/4 3/9/4 1/8/4
f 1/8/3 3/9/3 6/10/3
f 6/10/5 2/6/5 5/7/5
f 2/6/5 6/10/5 1/8/5
f 5/7/6 2/6/6 6/10/6
f 1/8/6 6/10/6 2/6/6

usemtl roof

f 3/13/7 5/12/7 4/11/7
f 5/12/7 3/13/7 6/14/7
f 4/11/8 5/12/8 3/13/8
f 6/14/8 3/13/8 5/12/8

