# Created by Kenney (www.kenney.nl)

mtllib roof-side-corner.mtl

g roof-side-corner

v 0.5 0 0.5 1 1 1
v -0.5 2.255973E-17 0.5 1 1 1
v 0.5 0.5 0.5 1 1 1
v 0.5 0 -0.5 1 1 1
v -0.5 0 -0.5 1 1 1

vn 0 0 1
vn 0 0 -1
vn 1 0 0
vn -1 0 0
vn -0.4472136 0.8944272 0
vn 0.4472136 -0.8944272 0
vn 0 0.8944272 -0.4472136
vn 0 -0.8944272 0.4472136
vn 0 -1 0
vn 0 1 0

vt -11.99759 -2.255973E-17
vt -12.99759 0
vt -11.99759 0.5
vt -10.99759 -2.255973E-17
vt -6 3
vt -6 2
vt -7 2
vt -5 2
vt -5 3
vt -4 2
vt 4 4
vt 3 4
vt 4 5
vt 3 5

usemtl stones

f 3/3/1 2/2/1 1/1/1
f 1/1/2 2/2/2 3/3/2
f 1/1/3 4/4/3 3/3/3
f 3/3/4 4/4/4 1/1/4

usemtl roof

f 5/7/5 2/6/5 3/5/5
f 3/5/6 2/6/6 5/7/6
f 5/10/7 3/9/7 4/8/7
f 4/8/8 3/9/8 5/10/8

usemtl bricks

f 2/13/9 4/12/9 1/11/9
f 4/12/9 2/13/9 5/14/9
f 1/11/10 4/12/10 2/13/10
f 5/14/10 2/13/10 4/12/10

g roof-side-corner




usemtl stones

f 3/3/1 2/2/1 1/1/1
f 1/1/2 2/2/2 3/3/2
f 1/1/3 4/4/3 3/3/3
f 3/3/4 4/4/4 1/1/4

usemtl roof

f 5/7/5 2/6/5 3/5/5
f 3/5/6 2/6/6 5/7/6
f 5/10/7 3/9/7 4/8/7
f 4/8/8 3/9/8 5/10/8

usemtl bricks

f 2/13/9 4/12/9 1/11/9
f 4/12/9 2/13/9 5/14/9
f 1/11/10 4/12/10 2/13/10
f 5/14/10 2/13/10 4/12/10

