# Created by Kenney (www.kenney.nl)

mtllib stairs-corner.mtl

g stairs-corner

v 0 0.125 -0.5 1 1 1
v 0 0 -0.5 1 1 1
v 0 0.125 -0.375 1 1 1
v 0 0 -0.375 1 1 1
v -0.5 0 -0.5 1 1 1
v -0.5 0.125 -0.5 1 1 1
v -0.5 0.125 -0.375 1 1 1
v -0.5 0 -0.375 1 1 1
v -0.5 0.25 -0.375 1 1 1
v -0.5 0.125 -0.25 1 1 1
v -0.5 0.25 -0.25 1 1 1
v 0 0.25 -0.375 1 1 1
v 0 0.25 -0.25 1 1 1
v 0 0.125 -0.25 1 1 1
v 0 0.375 -0.25 1 1 1
v 0 0.375 -0.125 1 1 1
v 0 0.25 -0.125 1 1 1
v -0.5 0.375 -0.25 1 1 1
v -0.5 0.375 -0.125 1 1 1
v -0.5 0.25 -0.125 1 1 1
v -0.5 0.5 -0.125 1 1 1
v -0.5 0.375 0 1 1 1
v -0.5 0.5 0 1 1 1
v 0 0.5 -0.125 1 1 1
v 0 0.5 0 1 1 1
v 0 0.375 0 1 1 1
v 0 0.5 0.5000001 1 1 1
v 0 0.625 0.5000001 1 1 1
v 0.125 0.5 0.5000001 1 1 1
v 0.125 0.625 0.5000001 1 1 1
v -5.960464E-08 0.625 0 1 1 1
v -5.960464E-08 0.5 0 1 1 1
v 0.125 0.625 0 1 1 1
v 0.125 0.5 0 1 1 1
v 0.125 0.75 0.5000001 1 1 1
v 0.25 0.625 0.5 1 1 1
v 0.25 0.75 0.5 1 1 1
v 0.125 0.75 0 1 1 1
v 0.25 0.75 -2.980232E-08 1 1 1
v 0.25 0.625 -2.980232E-08 1 1 1
v 0.25 0.875 0.5 1 1 1
v 0.3750001 0.75 0.5 1 1 1
v 0.3750001 0.875 0.5 1 1 1
v 0.25 0.875 -2.980232E-08 1 1 1
v 0.375 0.875 -5.960464E-08 1 1 1
v 0.375 0.75 -5.960464E-08 1 1 1
v 0.3750001 1 0.5 1 1 1
v 0.5000001 0.875 0.5 1 1 1
v 0.5000001 1 0.5 1 1 1
v 0.375 1 -5.960464E-08 1 1 1
v 0.5 1 -5.960464E-08 1 1 1
v 0.5 0.875 -5.960464E-08 1 1 1
v 0 0.5 0.5 1 1 1
v -0.5 0.5 0.5 1 1 1
v 0 0.4375 0 1 1 1
v 0 0.4375 0.5 1 1 1
v -0.5 0.4375 0 1 1 1
v -0.5 0.4375 0.5 1 1 1

vn 1 0 0
vn -1 0 0
vn 0 0 -1
vn 0 0 1
vn 0 1 0
vn 0 -1 0
vn 1.192093E-07 0 1
vn -1.192093E-07 0 -1
vn -1 0 1.192093E-07
vn 1 0 -1.192093E-07

vt -0.1240209 -0.2637124
vt 0.0009790908 -0.2637124
vt -0.1240209 -0.3887124
vt 0.0009790946 -0.3887124
vt 0.0009791491 0.2362876
vt -0.1240209 0.2362876
vt -8.361312 -5.162687
vt -8.249432 -5.162687
vt -8.361313 -5.736731
vt -8.249433 -5.736731
vt 0.0009791526 0.3612877
vt -0.1240209 0.3612877
vt 0.2586218 0.3301606
vt 0.2586218 -0.1698394
vt 0.1336218 0.3301606
vt 0.1336217 -0.1698394
vt -8.233208 -5.425896
vt -8.121326 -5.425896
vt -8.233209 -5.999939
vt -8.121328 -5.999939
vt 0.6358159 -0.3081973
vt 0.6358159 0.1918027
vt 0.5108159 -0.3081973
vt 0.5108159 0.1918027
vt -8.234011 -5.72602
vt -8.12213 -5.72602
vt -8.23401 -5.151977
vt -8.122129 -5.151977
vt -8.121288 17.49391
vt -8.233169 17.49391
vt -8.121287 18.06795
vt -8.233168 18.06795
vt -8.122169 -28.64583
vt -8.23405 -28.64583
vt -8.122169 -29.21987
vt -8.234051 -29.21987
vt -8.249393 17.75712
vt -8.361274 17.75712
vt -8.249392 18.33116
vt -8.361273 18.33116
vt 0.000976868 -19.31914
vt 0.0009768096 -19.81914
vt -0.1240231 -19.31914
vt -0.1240232 -19.81914
vt 0.6358181 19.24723
vt 0.6358182 19.74723
vt 0.5108181 19.24723
vt 0.5108182 19.74723
vt 0.2586195 -19.22527
vt 0.2586195 -19.72527
vt 0.1336195 -19.22527
vt 0.1336195 -19.72527
vt -8.115747 -5.307867
vt -8.003867 -5.307867
vt -8.115748 -5.881911
vt -8.003868 -5.881911
vt 1.261016 -1.029822
vt 1.261016 -0.5298219
vt 1.136016 -1.029822
vt 1.136016 -0.5298219
vt 0.258624 19.38559
vt 0.2586241 19.88559
vt 0.133624 19.38559
vt 0.1336241 19.88559
vt -8.249471 -28.65654
vt -8.361352 -28.65654
vt -8.249472 -29.23058
vt -8.361353 -29.23058
vt -8.12209 17.76783
vt -8.233972 17.76783
vt -8.122089 18.34187
vt -8.233971 18.34187
vt -8.003829 17.61194
vt -8.115709 17.61194
vt -8.003828 18.18598
vt -8.115708 18.18598
vt 1.261018 18.52561
vt 1.261019 19.02561
vt 1.136018 18.52561
vt 1.136019 19.02561
vt -9.000128 -5.000071
vt -8.492706 -5.00007
vt -9.000128 -5.650948
vt -8.492706 -5.650947
vt -0.06152092 -0.2637124
vt -0.0615209 -0.7637125
vt -0.1240209 -0.7637125
vt -0.06152086 0.2362876
vt -0.06152092 -0.2637124
vt -0.06152084 0.7362877
vt -0.1240209 0.7362877
vt -0.06152314 -19.31914
vt -0.0615232 -19.81914
vt -8.4927 15.35415
vt -9.000121 15.35415
vt -8.4927 16.00503
vt -9.000121 16.00503

usemtl planks

f 3/3/1 2/2/1 1/1/1
f 2/2/1 3/3/1 4/4/1
f 1/1/2 2/2/2 3/3/2
f 4/4/2 3/3/2 2/2/2
f 6/6/3 2/2/3 5/5/3
f 2/2/3 6/6/3 1/1/3
f 5/5/4 2/2/4 6/6/4
f 1/1/4 6/6/4 2/2/4
f 6/9/5 3/8/5 1/7/5
f 3/8/5 6/9/5 7/10/5
f 1/7/6 3/8/6 6/9/6
f 7/10/6 6/9/6 3/8/6
f 8/11/2 6/6/2 5/5/2
f 6/6/2 8/11/2 7/12/2
f 5/5/1 6/6/1 8/11/1
f 7/12/1 8/11/1 6/6/1
f 10/11/2 9/6/2 7/5/2
f 9/6/2 10/11/2 11/12/2
f 7/5/1 9/6/1 10/11/1
f 11/12/1 10/11/1 9/6/1
f 9/15/3 3/14/3 7/13/3
f 3/14/3 9/15/3 12/16/3
f 7/13/4 3/14/4 9/15/4
f 12/16/4 9/15/4 3/14/4
f 13/3/1 3/2/1 12/1/1
f 3/2/1 13/3/1 14/4/1
f 12/1/2 3/2/2 13/3/2
f 14/4/2 13/3/2 3/2/2
f 16/3/1 13/2/1 15/1/1
f 13/2/1 16/3/1 17/4/1
f 15/1/2 13/2/2 16/3/2
f 17/4/2 16/3/2 13/2/2
f 18/19/5 16/18/5 15/17/5
f 16/18/5 18/19/5 19/20/5
f 15/17/6 16/18/6 18/19/6
f 19/20/6 18/19/6 16/18/6
f 20/11/2 18/6/2 11/5/2
f 18/6/2 20/11/2 19/12/2
f 11/5/1 18/6/1 20/11/1
f 19/12/1 20/11/1 18/6/1
f 22/11/2 21/6/2 19/5/2
f 21/6/2 22/11/2 23/12/2
f 19/5/1 21/6/1 22/11/1
f 23/12/1 22/11/1 21/6/1
f 25/3/1 16/2/1 24/1/1
f 16/2/1 25/3/1 26/4/1
f 24/1/2 16/2/2 25/3/2
f 26/4/2 25/3/2 16/2/2
f 21/6/3 16/2/3 19/5/3
f 16/2/3 21/6/3 24/1/3
f 19/5/4 16/2/4 21/6/4
f 24/1/4 21/6/4 16/2/4
f 21/9/5 25/8/5 24/7/5
f 25/8/5 21/9/5 23/10/5
f 24/7/6 25/8/6 21/9/6
f 23/10/6 21/9/6 25/8/6
f 18/23/3 13/22/3 11/21/3
f 13/22/3 18/23/3 15/24/3
f 11/21/4 13/22/4 18/23/4
f 15/24/4 18/23/4 13/22/4
f 9/27/5 13/26/5 12/25/5
f 13/26/5 9/27/5 11/28/5
f 12/25/6 13/26/6 9/27/6
f 11/28/6 9/27/6 13/26/6
f 20/31/6 13/30/6 17/29/6
f 13/30/6 20/31/6 11/32/6
f 17/29/5 13/30/5 20/31/5
f 11/32/5 20/31/5 13/30/5
f 10/35/6 3/34/6 14/33/6
f 3/34/6 10/35/6 7/36/6
f 14/33/5 3/34/5 10/35/5
f 7/36/5 10/35/5 3/34/5
f 22/39/6 16/38/6 26/37/6
f 16/38/6 22/39/6 19/40/6
f 26/37/5 16/38/5 22/39/5
f 19/40/5 22/39/5 16/38/5
f 8/39/6 2/38/6 4/37/6
f 2/38/6 8/39/6 5/40/6
f 4/37/5 2/38/5 8/39/5
f 5/40/5 8/39/5 2/38/5
f 25/43/4 22/42/4 26/41/4
f 22/42/4 25/43/4 23/44/4
f 26/41/3 22/42/3 25/43/3
f 23/44/3 25/43/3 22/42/3
f 16/47/4 20/46/4 17/45/4
f 20/46/4 16/47/4 19/48/4
f 17/45/3 20/46/3 16/47/3
f 19/48/3 16/47/3 20/46/3
f 13/51/4 10/50/4 14/49/4
f 10/50/4 13/51/4 11/52/4
f 14/49/3 10/50/3 13/51/3
f 11/52/3 13/51/3 10/50/3
f 3/43/4 8/42/4 4/41/4
f 8/42/4 3/43/4 7/44/4
f 4/41/3 8/42/3 3/43/3
f 7/44/3 3/43/3 8/42/3
f 29/11/7 28/6/7 27/5/7
f 28/6/7 29/11/7 30/12/7
f 27/5/8 28/6/8 29/11/8
f 30/12/8 29/11/8 28/6/8
f 33/3/8 32/2/8 31/1/8
f 32/2/8 33/3/8 34/4/8
f 31/1/7 32/2/7 33/3/7
f 34/4/7 33/3/7 32/2/7
f 36/11/7 35/6/7 30/5/7
f 35/6/7 36/11/7 37/12/7
f 30/5/8 35/6/8 36/11/8
f 37/12/8 36/11/8 35/6/8
f 39/3/8 33/2/8 38/1/8
f 33/2/8 39/3/8 40/4/8
f 38/1/7 33/2/7 39/3/7
f 40/4/7 39/3/7 33/2/7
f 42/11/7 41/6/7 37/5/7
f 41/6/7 42/11/7 43/12/7
f 37/5/8 41/6/8 42/11/8
f 43/12/8 42/11/8 41/6/8
f 45/3/8 39/2/8 44/1/8
f 39/2/8 45/3/8 46/4/8
f 44/1/7 39/2/7 45/3/7
f 46/4/7 45/3/7 39/2/7
f 48/11/7 47/6/7 43/5/7
f 47/6/7 48/11/7 49/12/7
f 43/5/8 47/6/8 48/11/8
f 49/12/8 48/11/8 47/6/8
f 51/3/8 45/2/8 50/1/8
f 45/2/8 51/3/8 52/4/8
f 50/1/7 45/2/7 51/3/7
f 52/4/7 51/3/7 45/2/7
f 35/55/5 39/54/5 38/53/5
f 39/54/5 35/55/5 37/56/5
f 38/53/6 39/54/6 35/55/6
f 37/56/6 35/55/6 39/54/6
f 28/15/9 32/14/9 27/13/9
f 32/14/9 28/15/9 31/16/9
f 27/13/10 32/14/10 28/15/10
f 31/16/10 28/15/10 32/14/10
f 47/25/5 51/28/5 50/27/5
f 51/28/5 47/25/5 49/26/5
f 50/27/6 51/28/6 47/25/6
f 49/26/6 47/25/6 51/28/6
f 41/6/9 39/2/9 37/5/9
f 39/2/9 41/6/9 44/1/9
f 37/5/10 39/2/10 41/6/10
f 44/1/10 41/6/10 39/2/10
f 47/16/9 45/13/9 43/14/9
f 45/13/9 47/16/9 50/15/9
f 43/14/10 45/13/10 47/16/10
f 50/15/10 47/16/10 45/13/10
f 35/59/9 33/58/9 30/57/9
f 33/58/9 35/59/9 38/60/9
f 30/57/10 33/58/10 35/59/10
f 38/60/10 35/59/10 33/58/10
f 28/27/5 33/26/5 31/25/5
f 33/26/5 28/27/5 30/28/5
f 31/25/6 33/26/6 28/27/6
f 30/28/6 28/27/6 33/26/6
f 41/7/5 45/10/5 44/9/5
f 45/10/5 41/7/5 43/8/5
f 44/9/6 45/10/6 41/7/6
f 43/8/6 41/7/6 45/10/6
f 51/63/10 48/62/10 52/61/10
f 48/62/10 51/63/10 49/64/10
f 52/61/9 48/62/9 51/63/9
f 49/64/9 51/63/9 48/62/9
f 42/67/6 39/66/6 46/65/6
f 39/66/6 42/67/6 37/68/6
f 46/65/5 39/66/5 42/67/5
f 37/68/5 42/67/5 39/66/5
f 48/71/6 45/70/6 52/69/6
f 45/70/6 48/71/6 43/72/6
f 52/69/5 45/70/5 48/71/5
f 43/72/5 48/71/5 45/70/5
f 36/75/6 33/74/6 40/73/6
f 33/74/6 36/75/6 30/76/6
f 40/73/5 33/74/5 36/75/5
f 30/76/5 36/75/5 33/74/5
f 29/35/6 32/34/6 34/33/6
f 32/34/6 29/35/6 27/36/6
f 34/33/5 32/34/5 29/35/5
f 27/36/5 29/35/5 32/34/5
f 45/43/10 42/42/10 46/41/10
f 42/42/10 45/43/10 43/44/10
f 46/41/9 42/42/9 45/43/9
f 43/44/9 45/43/9 42/42/9
f 39/79/10 36/78/10 40/77/10
f 36/78/10 39/79/10 37/80/10
f 40/77/9 36/78/9 39/79/9
f 37/80/9 39/79/9 36/78/9
f 33/51/10 29/50/10 34/49/10
f 29/50/10 33/51/10 30/52/10
f 34/49/9 29/50/9 33/51/9
f 30/52/9 33/51/9 29/50/9
f 23/83/5 53/82/5 25/81/5
f 53/82/5 23/83/5 54/84/5
f 25/81/6 53/82/6 23/83/6
f 54/84/6 23/83/6 53/82/6
f 25/1/1 56/86/1 55/85/1
f 56/86/1 25/1/1 53/87/1
f 55/85/2 56/86/2 25/1/2
f 53/87/2 25/1/2 56/86/2
f 23/6/3 55/89/3 57/88/3
f 55/89/3 23/6/3 25/1/3
f 57/88/4 55/89/4 23/6/4
f 25/1/4 23/6/4 55/89/4
f 58/90/2 23/6/2 57/88/2
f 23/6/2 58/90/2 54/91/2
f 57/88/1 23/6/1 58/90/1
f 54/91/1 58/90/1 23/6/1
f 53/43/4 58/93/4 56/92/4
f 58/93/4 53/43/4 54/44/4
f 56/92/3 58/93/3 53/43/3
f 54/44/3 53/43/3 58/93/3
f 58/96/6 55/95/6 56/94/6
f 55/95/6 58/96/6 57/97/6
f 56/94/5 55/95/5 58/96/5
f 57/97/5 58/96/5 55/95/5

g stairs-corner




usemtl planks

f 3/3/1 2/2/1 1/1/1
f 2/2/1 3/3/1 4/4/1
f 1/1/2 2/2/2 3/3/2
f 4/4/2 3/3/2 2/2/2
f 6/6/3 2/2/3 5/5/3
f 2/2/3 6/6/3 1/1/3
f 5/5/4 2/2/4 6/6/4
f 1/1/4 6/6/4 2/2/4
f 6/9/5 3/8/5 1/7/5
f 3/8/5 6/9/5 7/10/5
f 1/7/6 3/8/6 6/9/6
f 7/10/6 6/9/6 3/8/6
f 8/11/2 6/6/2 5/5/2
f 6/6/2 8/11/2 7/12/2
f 5/5/1 6/6/1 8/11/1
f 7/12/1 8/11/1 6/6/1
f 10/11/2 9/6/2 7/5/2
f 9/6/2 10/11/2 11/12/2
f 7/5/1 9/6/1 10/11/1
f 11/12/1 10/11/1 9/6/1
f 9/15/3 3/14/3 7/13/3
f 3/14/3 9/15/3 12/16/3
f 7/13/4 3/14/4 9/15/4
f 12/16/4 9/15/4 3/14/4
f 13/3/1 3/2/1 12/1/1
f 3/2/1 13/3/1 14/4/1
f 12/1/2 3/2/2 13/3/2
f 14/4/2 13/3/2 3/2/2
f 16/3/1 13/2/1 15/1/1
f 13/2/1 16/3/1 17/4/1
f 15/1/2 13/2/2 16/3/2
f 17/4/2 16/3/2 13/2/2
f 18/19/5 16/18/5 15/17/5
f 16/18/5 18/19/5 19/20/5
f 15/17/6 16/18/6 18/19/6
f 19/20/6 18/19/6 16/18/6
f 20/11/2 18/6/2 11/5/2
f 18/6/2 20/11/2 19/12/2
f 11/5/1 18/6/1 20/11/1
f 19/12/1 20/11/1 18/6/1
f 22/11/2 21/6/2 19/5/2
f 21/6/2 22/11/2 23/12/2
f 19/5/1 21/6/1 22/11/1
f 23/12/1 22/11/1 21/6/1
f 25/3/1 16/2/1 24/1/1
f 16/2/1 25/3/1 26/4/1
f 24/1/2 16/2/2 25/3/2
f 26/4/2 25/3/2 16/2/2
f 21/6/3 16/2/3 19/5/3
f 16/2/3 21/6/3 24/1/3
f 19/5/4 16/2/4 21/6/4
f 24/1/4 21/6/4 16/2/4
f 21/9/5 25/8/5 24/7/5
f 25/8/5 21/9/5 23/10/5
f 24/7/6 25/8/6 21/9/6
f 23/10/6 21/9/6 25/8/6
f 18/23/3 13/22/3 11/21/3
f 13/22/3 18/23/3 15/24/3
f 11/21/4 13/22/4 18/23/4
f 15/24/4 18/23/4 13/22/4
f 9/27/5 13/26/5 12/25/5
f 13/26/5 9/27/5 11/28/5
f 12/25/6 13/26/6 9/27/6
f 11/28/6 9/27/6 13/26/6
f 20/31/6 13/30/6 17/29/6
f 13/30/6 20/31/6 11/32/6
f 17/29/5 13/30/5 20/31/5
f 11/32/5 20/31/5 13/30/5
f 10/35/6 3/34/6 14/33/6
f 3/34/6 10/35/6 7/36/6
f 14/33/5 3/34/5 10/35/5
f 7/36/5 10/35/5 3/34/5
f 22/39/6 16/38/6 26/37/6
f 16/38/6 22/39/6 19/40/6
f 26/37/5 16/38/5 22/39/5
f 19/40/5 22/39/5 16/38/5
f 8/39/6 2/38/6 4/37/6
f 2/38/6 8/39/6 5/40/6
f 4/37/5 2/38/5 8/39/5
f 5/40/5 8/39/5 2/38/5
f 25/43/4 22/42/4 26/41/4
f 22/42/4 25/43/4 23/44/4
f 26/41/3 22/42/3 25/43/3
f 23/44/3 25/43/3 22/42/3
f 16/47/4 20/46/4 17/45/4
f 20/46/4 16/47/4 19/48/4
f 17/45/3 20/46/3 16/47/3
f 19/48/3 16/47/3 20/46/3
f 13/51/4 10/50/4 14/49/4
f 10/50/4 13/51/4 11/52/4
f 14/49/3 10/50/3 13/51/3
f 11/52/3 13/51/3 10/50/3
f 3/43/4 8/42/4 4/41/4
f 8/42/4 3/43/4 7/44/4
f 4/41/3 8/42/3 3/43/3
f 7/44/3 3/43/3 8/42/3
f 29/11/7 28/6/7 27/5/7
f 28/6/7 29/11/7 30/12/7
f 27/5/8 28/6/8 29/11/8
f 30/12/8 29/11/8 28/6/8
f 33/3/8 32/2/8 31/1/8
f 32/2/8 33/3/8 34/4/8
f 31/1/7 32/2/7 33/3/7
f 34/4/7 33/3/7 32/2/7
f 36/11/7 35/6/7 30/5/7
f 35/6/7 36/11/7 37/12/7
f 30/5/8 35/6/8 36/11/8
f 37/12/8 36/11/8 35/6/8
f 39/3/8 33/2/8 38/1/8
f 33/2/8 39/3/8 40/4/8
f 38/1/7 33/2/7 39/3/7
f 40/4/7 39/3/7 33/2/7
f 42/11/7 41/6/7 37/5/7
f 41/6/7 42/11/7 43/12/7
f 37/5/8 41/6/8 42/11/8
f 43/12/8 42/11/8 41/6/8
f 45/3/8 39/2/8 44/1/8
f 39/2/8 45/3/8 46/4/8
f 44/1/7 39/2/7 45/3/7
f 46/4/7 45/3/7 39/2/7
f 48/11/7 47/6/7 43/5/7
f 47/6/7 48/11/7 49/12/7
f 43/5/8 47/6/8 48/11/8
f 49/12/8 48/11/8 47/6/8
f 51/3/8 45/2/8 50/1/8
f 45/2/8 51/3/8 52/4/8
f 50/1/7 45/2/7 51/3/7
f 52/4/7 51/3/7 45/2/7
f 35/55/5 39/54/5 38/53/5
f 39/54/5 35/55/5 37/56/5
f 38/53/6 39/54/6 35/55/6
f 37/56/6 35/55/6 39/54/6
f 28/15/9 32/14/9 27/13/9
f 32/14/9 28/15/9 31/16/9
f 27/13/10 32/14/10 28/15/10
f 31/16/10 28/15/10 32/14/10
f 47/25/5 51/28/5 50/27/5
f 51/28/5 47/25/5 49/26/5
f 50/27/6 51/28/6 47/25/6
f 49/26/6 47/25/6 51/28/6
f 41/6/9 39/2/9 37/5/9
f 39/2/9 41/6/9 44/1/9
f 37/5/10 39/2/10 41/6/10
f 44/1/10 41/6/10 39/2/10
f 47/16/9 45/13/9 43/14/9
f 45/13/9 47/16/9 50/15/9
f 43/14/10 45/13/10 47/16/10
f 50/15/10 47/16/10 45/13/10
f 35/59/9 33/58/9 30/57/9
f 33/58/9 35/59/9 38/60/9
f 30/57/10 33/58/10 35/59/10
f 38/60/10 35/59/10 33/58/10
f 28/27/5 33/26/5 31/25/5
f 33/26/5 28/27/5 30/28/5
f 31/25/6 33/26/6 28/27/6
f 30/28/6 28/27/6 33/26/6
f 41/7/5 45/10/5 44/9/5
f 45/10/5 41/7/5 43/8/5
f 44/9/6 45/10/6 41/7/6
f 43/8/6 41/7/6 45/10/6
f 51/63/10 48/62/10 52/61/10
f 48/62/10 51/63/10 49/64/10
f 52/61/9 48/62/9 51/63/9
f 49/64/9 51/63/9 48/62/9
f 42/67/6 39/66/6 46/65/6
f 39/66/6 42/67/6 37/68/6
f 46/65/5 39/66/5 42/67/5
f 37/68/5 42/67/5 39/66/5
f 48/71/6 45/70/6 52/69/6
f 45/70/6 48/71/6 43/72/6
f 52/69/5 45/70/5 48/71/5
f 43/72/5 48/71/5 45/70/5
f 36/75/6 33/74/6 40/73/6
f 33/74/6 36/75/6 30/76/6
f 40/73/5 33/74/5 36/75/5
f 30/76/5 36/75/5 33/74/5
f 29/35/6 32/34/6 34/33/6
f 32/34/6 29/35/6 27/36/6
f 34/33/5 32/34/5 29/35/5
f 27/36/5 29/35/5 32/34/5
f 45/43/10 42/42/10 46/41/10
f 42/42/10 45/43/10 43/44/10
f 46/41/9 42/42/9 45/43/9
f 43/44/9 45/43/9 42/42/9
f 39/79/10 36/78/10 40/77/10
f 36/78/10 39/79/10 37/80/10
f 40/77/9 36/78/9 39/79/9
f 37/80/9 39/79/9 36/78/9
f 33/51/10 29/50/10 34/49/10
f 29/50/10 33/51/10 30/52/10
f 34/49/9 29/50/9 33/51/9
f 30/52/9 33/51/9 29/50/9
f 23/83/5 53/82/5 25/81/5
f 53/82/5 23/83/5 54/84/5
f 25/81/6 53/82/6 23/83/6
f 54/84/6 23/83/6 53/82/6
f 25/1/1 56/86/1 55/85/1
f 56/86/1 25/1/1 53/87/1
f 55/85/2 56/86/2 25/1/2
f 53/87/2 25/1/2 56/86/2
f 23/6/3 55/89/3 57/88/3
f 55/89/3 23/6/3 25/1/3
f 57/88/4 55/89/4 23/6/4
f 25/1/4 23/6/4 55/89/4
f 58/90/2 23/6/2 57/88/2
f 23/6/2 58/90/2 54/91/2
f 57/88/1 23/6/1 58/90/1
f 54/91/1 58/90/1 23/6/1
f 53/43/4 58/93/4 56/92/4
f 58/93/4 53/43/4 54/44/4
f 56/92/3 58/93/3 53/43/3
f 54/44/3 53/43/3 58/93/3
f 58/96/6 55/95/6 56/94/6
f 55/95/6 58/96/6 57/97/6
f 56/94/5 55/95/5 58/96/5
f 57/97/5 58/96/5 55/95/5

