# Created by Kenney (www.kenney.nl)

mtllib stairs-wood.mtl

g stairs-wood

v 0.25 0.125 -0.5 1 1 1
v 0.25 0 -0.5 1 1 1
v 0.25 0.125 -0.375 1 1 1
v 0.25 0 -0.375 1 1 1
v -0.25 0 -0.5 1 1 1
v -0.25 0.125 -0.5 1 1 1
v -0.25 0.125 -0.375 1 1 1
v -0.25 0 -0.375 1 1 1
v -0.25 0.25 -0.375 1 1 1
v -0.25 0.125 -0.25 1 1 1
v -0.25 0.25 -0.25 1 1 1
v 0.25 0.25 -0.375 1 1 1
v 0.25 0.25 -0.25 1 1 1
v 0.25 0.125 -0.25 1 1 1
v 0.25 0.375 -0.25 1 1 1
v 0.25 0.375 -0.125 1 1 1
v 0.25 0.25 -0.125 1 1 1
v -0.25 0.375 -0.25 1 1 1
v -0.25 0.375 -0.125 1 1 1
v -0.25 0.25 -0.125 1 1 1
v -0.25 0.5 -0.125 1 1 1
v -0.25 0.375 0 1 1 1
v -0.25 0.5 0 1 1 1
v 0.25 0.5 -0.125 1 1 1
v 0.25 0.5 0 1 1 1
v 0.25 0.375 0 1 1 1
v -0.25 0.625 0 1 1 1
v -0.25 0.5 0.125 1 1 1
v -0.25 0.625 0.125 1 1 1
v 0.25 0.625 0 1 1 1
v 0.25 0.625 0.125 1 1 1
v 0.25 0.5 0.125 1 1 1
v -0.25 0.75 0.125 1 1 1
v -0.25 0.625 0.25 1 1 1
v -0.25 0.75 0.25 1 1 1
v 0.25 0.75 0.125 1 1 1
v 0.25 0.75 0.25 1 1 1
v 0.25 0.625 0.25 1 1 1
v -0.25 0.875 0.25 1 1 1
v -0.25 0.75 0.375 1 1 1
v -0.25 0.875 0.375 1 1 1
v 0.25 0.875 0.25 1 1 1
v 0.25 0.875 0.375 1 1 1
v 0.25 0.75 0.375 1 1 1
v -0.25 1 0.375 1 1 1
v -0.25 0.875 0.5 1 1 1
v -0.25 1 0.5 1 1 1
v 0.25 1 0.375 1 1 1
v 0.25 1 0.5 1 1 1
v 0.25 0.875 0.5 1 1 1

vn 1 0 0
vn -1 0 0
vn 0 0 -1
vn 0 0 1
vn 0 1 0
vn 0 -1 0

vt -0.1240209 -0.2637124
vt 0.0009790908 -0.2637124
vt -0.1240209 -0.3887124
vt 0.0009790946 -0.3887124
vt 0.0009791491 0.2362876
vt -0.1240209 0.2362876
vt -8.361312 -5.162687
vt -8.249432 -5.162687
vt -8.361313 -5.736731
vt -8.249433 -5.736731
vt 0.0009791526 0.3612877
vt -0.1240209 0.3612877
vt 0.2586218 0.3301606
vt 0.2586218 -0.1698394
vt 0.1336218 0.3301606
vt 0.1336217 -0.1698394
vt -8.233208 -5.425896
vt -8.121326 -5.425896
vt -8.233209 -5.999939
vt -8.121328 -5.999939
vt -8.115747 -5.307867
vt -8.003867 -5.307867
vt -8.115748 -5.881911
vt -8.003868 -5.881911
vt -8.23401 -5.151977
vt -8.122129 -5.151977
vt -8.234011 -5.72602
vt -8.12213 -5.72602
vt 0.6358159 -0.3081973
vt 0.6358159 0.1918027
vt 0.5108159 -0.3081973
vt 0.5108159 0.1918027
vt 1.261016 -1.029822
vt 1.261016 -0.5298219
vt 1.136016 -1.029822
vt 1.136016 -0.5298219
vt 0.258624 19.38559
vt 0.2586241 19.88559
vt 0.133624 19.38559
vt 0.1336241 19.88559
vt -8.249471 -28.65654
vt -8.361352 -28.65654
vt -8.249472 -29.23058
vt -8.361353 -29.23058
vt -8.12209 17.76783
vt -8.233972 17.76783
vt -8.122089 18.34187
vt -8.233971 18.34187
vt -8.003829 17.61194
vt -8.115709 17.61194
vt -8.003828 18.18598
vt -8.115708 18.18598
vt -8.121288 17.49391
vt -8.233169 17.49391
vt -8.121287 18.06795
vt -8.233168 18.06795
vt -8.122169 -28.64583
vt -8.23405 -28.64583
vt -8.122169 -29.21987
vt -8.234051 -29.21987
vt -8.249393 17.75712
vt -8.361274 17.75712
vt -8.249392 18.33116
vt -8.361273 18.33116
vt 0.000976868 -19.31914
vt 0.0009768096 -19.81914
vt -0.1240231 -19.31914
vt -0.1240232 -19.81914
vt 1.261018 18.52561
vt 1.261019 19.02561
vt 1.136018 18.52561
vt 1.136019 19.02561
vt 0.2586195 -19.22527
vt 0.2586195 -19.72527
vt 0.1336195 -19.22527
vt 0.1336195 -19.72527
vt 0.6358181 19.24723
vt 0.6358182 19.74723
vt 0.5108181 19.24723
vt 0.5108182 19.74723

usemtl planks

f 3/3/1 2/2/1 1/1/1
f 2/2/1 3/3/1 4/4/1
f 1/1/2 2/2/2 3/3/2
f 4/4/2 3/3/2 2/2/2
f 6/6/3 2/2/3 5/5/3
f 2/2/3 6/6/3 1/1/3
f 5/5/4 2/2/4 6/6/4
f 1/1/4 6/6/4 2/2/4
f 6/9/5 3/8/5 1/7/5
f 3/8/5 6/9/5 7/10/5
f 1/7/6 3/8/6 6/9/6
f 7/10/6 6/9/6 3/8/6
f 8/11/2 6/6/2 5/5/2
f 6/6/2 8/11/2 7/12/2
f 5/5/1 6/6/1 8/11/1
f 7/12/1 8/11/1 6/6/1
f 10/11/2 9/6/2 7/5/2
f 9/6/2 10/11/2 11/12/2
f 7/5/1 9/6/1 10/11/1
f 11/12/1 10/11/1 9/6/1
f 9/15/3 3/14/3 7/13/3
f 3/14/3 9/15/3 12/16/3
f 7/13/4 3/14/4 9/15/4
f 12/16/4 9/15/4 3/14/4
f 13/3/1 3/2/1 12/1/1
f 3/2/1 13/3/1 14/4/1
f 12/1/2 3/2/2 13/3/2
f 14/4/2 13/3/2 3/2/2
f 16/3/1 13/2/1 15/1/1
f 13/2/1 16/3/1 17/4/1
f 15/1/2 13/2/2 16/3/2
f 17/4/2 16/3/2 13/2/2
f 18/19/5 16/18/5 15/17/5
f 16/18/5 18/19/5 19/20/5
f 15/17/6 16/18/6 18/19/6
f 19/20/6 18/19/6 16/18/6
f 20/11/2 18/6/2 11/5/2
f 18/6/2 20/11/2 19/12/2
f 11/5/1 18/6/1 20/11/1
f 19/12/1 20/11/1 18/6/1
f 22/11/2 21/6/2 19/5/2
f 21/6/2 22/11/2 23/12/2
f 19/5/1 21/6/1 22/11/1
f 23/12/1 22/11/1 21/6/1
f 25/3/1 16/2/1 24/1/1
f 16/2/1 25/3/1 26/4/1
f 24/1/2 16/2/2 25/3/2
f 26/4/2 25/3/2 16/2/2
f 28/11/2 27/6/2 23/5/2
f 27/6/2 28/11/2 29/12/2
f 23/5/1 27/6/1 28/11/1
f 29/12/1 28/11/1 27/6/1
f 31/3/1 25/2/1 30/1/1
f 25/2/1 31/3/1 32/4/1
f 30/1/2 25/2/2 31/3/2
f 32/4/2 31/3/2 25/2/2
f 34/11/2 33/6/2 29/5/2
f 33/6/2 34/11/2 35/12/2
f 29/5/1 33/6/1 34/11/1
f 35/12/1 34/11/1 33/6/1
f 37/3/1 31/2/1 36/1/1
f 31/2/1 37/3/1 38/4/1
f 36/1/2 31/2/2 37/3/2
f 38/4/2 37/3/2 31/2/2
f 40/11/2 39/6/2 35/5/2
f 39/6/2 40/11/2 41/12/2
f 35/5/1 39/6/1 40/11/1
f 41/12/1 40/11/1 39/6/1
f 43/3/1 37/2/1 42/1/1
f 37/2/1 43/3/1 44/4/1
f 42/1/2 37/2/2 43/3/2
f 44/4/2 43/3/2 37/2/2
f 46/11/2 45/6/2 41/5/2
f 45/6/2 46/11/2 47/12/2
f 41/5/1 45/6/1 46/11/1
f 47/12/1 46/11/1 45/6/1
f 49/3/1 43/2/1 48/1/1
f 43/2/1 49/3/1 50/4/1
f 48/1/2 43/2/2 49/3/2
f 50/4/2 49/3/2 43/2/2
f 21/6/3 16/2/3 19/5/3
f 16/2/3 21/6/3 24/1/3
f 19/5/4 16/2/4 21/6/4
f 24/1/4 21/6/4 16/2/4
f 33/23/5 37/22/5 36/21/5
f 37/22/5 33/23/5 35/24/5
f 36/21/6 37/22/6 33/23/6
f 35/24/6 33/23/6 37/22/6
f 27/15/3 25/14/3 23/13/3
f 25/14/3 27/15/3 30/16/3
f 23/13/4 25/14/4 27/15/4
f 30/16/4 27/15/4 25/14/4
f 21/9/5 25/8/5 24/7/5
f 25/8/5 21/9/5 23/10/5
f 24/7/6 25/8/6 21/9/6
f 23/10/6 21/9/6 25/8/6
f 45/27/5 49/26/5 48/25/5
f 49/26/5 45/27/5 47/28/5
f 48/25/6 49/26/6 45/27/6
f 47/28/6 45/27/6 49/26/6
f 39/6/3 37/2/3 35/5/3
f 37/2/3 39/6/3 42/1/3
f 35/5/4 37/2/4 39/6/4
f 42/1/4 39/6/4 37/2/4
f 18/31/3 13/30/3 11/29/3
f 13/30/3 18/31/3 15/32/3
f 11/29/4 13/30/4 18/31/4
f 15/32/4 18/31/4 13/30/4
f 45/16/3 43/13/3 41/14/3
f 43/13/3 45/16/3 48/15/3
f 41/14/4 43/13/4 45/16/4
f 48/15/4 45/16/4 43/13/4
f 33/35/3 31/34/3 29/33/3
f 31/34/3 33/35/3 36/36/3
f 29/33/4 31/34/4 33/35/4
f 36/36/4 33/35/4 31/34/4
f 9/25/5 13/28/5 12/27/5
f 13/28/5 9/25/5 11/26/5
f 12/27/6 13/28/6 9/25/6
f 11/26/6 9/25/6 13/28/6
f 27/25/5 31/28/5 30/27/5
f 31/28/5 27/25/5 29/26/5
f 30/27/6 31/28/6 27/25/6
f 29/26/6 27/25/6 31/28/6
f 39/7/5 43/10/5 42/9/5
f 43/10/5 39/7/5 41/8/5
f 42/9/6 43/10/6 39/7/6
f 41/8/6 39/7/6 43/10/6
f 49/39/4 46/38/4 50/37/4
f 46/38/4 49/39/4 47/40/4
f 50/37/3 46/38/3 49/39/3
f 47/40/3 49/39/3 46/38/3
f 40/43/6 37/42/6 44/41/6
f 37/42/6 40/43/6 35/44/6
f 44/41/5 37/42/5 40/43/5
f 35/44/5 40/43/5 37/42/5
f 46/47/6 43/46/6 50/45/6
f 43/46/6 46/47/6 41/48/6
f 50/45/5 43/46/5 46/47/5
f 41/48/5 46/47/5 43/46/5
f 34/51/6 31/50/6 38/49/6
f 31/50/6 34/51/6 29/52/6
f 38/49/5 31/50/5 34/51/5
f 29/52/5 34/51/5 31/50/5
f 20/55/6 13/54/6 17/53/6
f 13/54/6 20/55/6 11/56/6
f 17/53/5 13/54/5 20/55/5
f 11/56/5 20/55/5 13/54/5
f 28/59/6 25/58/6 32/57/6
f 25/58/6 28/59/6 23/60/6
f 32/57/5 25/58/5 28/59/5
f 23/60/5 28/59/5 25/58/5
f 10/59/6 3/58/6 14/57/6
f 3/58/6 10/59/6 7/60/6
f 14/57/5 3/58/5 10/59/5
f 7/60/5 10/59/5 3/58/5
f 22/63/6 16/62/6 26/61/6
f 16/62/6 22/63/6 19/64/6
f 26/61/5 16/62/5 22/63/5
f 19/64/5 22/63/5 16/62/5
f 8/63/6 2/62/6 4/61/6
f 2/62/6 8/63/6 5/64/6
f 4/61/5 2/62/5 8/63/5
f 5/64/5 8/63/5 2/62/5
f 43/67/4 40/66/4 44/65/4
f 40/66/4 43/67/4 41/68/4
f 44/65/3 40/66/3 43/67/3
f 41/68/3 43/67/3 40/66/3
f 37/71/4 34/70/4 38/69/4
f 34/70/4 37/71/4 35/72/4
f 38/69/3 34/70/3 37/71/3
f 35/72/3 37/71/3 34/70/3
f 31/75/4 28/74/4 32/73/4
f 28/74/4 31/75/4 29/76/4
f 32/73/3 28/74/3 31/75/3
f 29/76/3 31/75/3 28/74/3
f 25/67/4 22/66/4 26/65/4
f 22/66/4 25/67/4 23/68/4
f 26/65/3 22/66/3 25/67/3
f 23/68/3 25/67/3 22/66/3
f 16/79/4 20/78/4 17/77/4
f 20/78/4 16/79/4 19/80/4
f 17/77/3 20/78/3 16/79/3
f 19/80/3 16/79/3 20/78/3
f 13/75/4 10/74/4 14/73/4
f 10/74/4 13/75/4 11/76/4
f 14/73/3 10/74/3 13/75/3
f 11/76/3 13/75/3 10/74/3
f 3/67/4 8/66/4 4/65/4
f 8/66/4 3/67/4 7/68/4
f 4/65/3 8/66/3 3/67/3
f 7/68/3 3/67/3 8/66/3

g stairs-wood




usemtl planks

f 3/3/1 2/2/1 1/1/1
f 2/2/1 3/3/1 4/4/1
f 1/1/2 2/2/2 3/3/2
f 4/4/2 3/3/2 2/2/2
f 6/6/3 2/2/3 5/5/3
f 2/2/3 6/6/3 1/1/3
f 5/5/4 2/2/4 6/6/4
f 1/1/4 6/6/4 2/2/4
f 6/9/5 3/8/5 1/7/5
f 3/8/5 6/9/5 7/10/5
f 1/7/6 3/8/6 6/9/6
f 7/10/6 6/9/6 3/8/6
f 8/11/2 6/6/2 5/5/2
f 6/6/2 8/11/2 7/12/2
f 5/5/1 6/6/1 8/11/1
f 7/12/1 8/11/1 6/6/1
f 10/11/2 9/6/2 7/5/2
f 9/6/2 10/11/2 11/12/2
f 7/5/1 9/6/1 10/11/1
f 11/12/1 10/11/1 9/6/1
f 9/15/3 3/14/3 7/13/3
f 3/14/3 9/15/3 12/16/3
f 7/13/4 3/14/4 9/15/4
f 12/16/4 9/15/4 3/14/4
f 13/3/1 3/2/1 12/1/1
f 3/2/1 13/3/1 14/4/1
f 12/1/2 3/2/2 13/3/2
f 14/4/2 13/3/2 3/2/2
f 16/3/1 13/2/1 15/1/1
f 13/2/1 16/3/1 17/4/1
f 15/1/2 13/2/2 16/3/2
f 17/4/2 16/3/2 13/2/2
f 18/19/5 16/18/5 15/17/5
f 16/18/5 18/19/5 19/20/5
f 15/17/6 16/18/6 18/19/6
f 19/20/6 18/19/6 16/18/6
f 20/11/2 18/6/2 11/5/2
f 18/6/2 20/11/2 19/12/2
f 11/5/1 18/6/1 20/11/1
f 19/12/1 20/11/1 18/6/1
f 22/11/2 21/6/2 19/5/2
f 21/6/2 22/11/2 23/12/2
f 19/5/1 21/6/1 22/11/1
f 23/12/1 22/11/1 21/6/1
f 25/3/1 16/2/1 24/1/1
f 16/2/1 25/3/1 26/4/1
f 24/1/2 16/2/2 25/3/2
f 26/4/2 25/3/2 16/2/2
f 28/11/2 27/6/2 23/5/2
f 27/6/2 28/11/2 29/12/2
f 23/5/1 27/6/1 28/11/1
f 29/12/1 28/11/1 27/6/1
f 31/3/1 25/2/1 30/1/1
f 25/2/1 31/3/1 32/4/1
f 30/1/2 25/2/2 31/3/2
f 32/4/2 31/3/2 25/2/2
f 34/11/2 33/6/2 29/5/2
f 33/6/2 34/11/2 35/12/2
f 29/5/1 33/6/1 34/11/1
f 35/12/1 34/11/1 33/6/1
f 37/3/1 31/2/1 36/1/1
f 31/2/1 37/3/1 38/4/1
f 36/1/2 31/2/2 37/3/2
f 38/4/2 37/3/2 31/2/2
f 40/11/2 39/6/2 35/5/2
f 39/6/2 40/11/2 41/12/2
f 35/5/1 39/6/1 40/11/1
f 41/12/1 40/11/1 39/6/1
f 43/3/1 37/2/1 42/1/1
f 37/2/1 43/3/1 44/4/1
f 42/1/2 37/2/2 43/3/2
f 44/4/2 43/3/2 37/2/2
f 46/11/2 45/6/2 41/5/2
f 45/6/2 46/11/2 47/12/2
f 41/5/1 45/6/1 46/11/1
f 47/12/1 46/11/1 45/6/1
f 49/3/1 43/2/1 48/1/1
f 43/2/1 49/3/1 50/4/1
f 48/1/2 43/2/2 49/3/2
f 50/4/2 49/3/2 43/2/2
f 21/6/3 16/2/3 19/5/3
f 16/2/3 21/6/3 24/1/3
f 19/5/4 16/2/4 21/6/4
f 24/1/4 21/6/4 16/2/4
f 33/23/5 37/22/5 36/21/5
f 37/22/5 33/23/5 35/24/5
f 36/21/6 37/22/6 33/23/6
f 35/24/6 33/23/6 37/22/6
f 27/15/3 25/14/3 23/13/3
f 25/14/3 27/15/3 30/16/3
f 23/13/4 25/14/4 27/15/4
f 30/16/4 27/15/4 25/14/4
f 21/9/5 25/8/5 24/7/5
f 25/8/5 21/9/5 23/10/5
f 24/7/6 25/8/6 21/9/6
f 23/10/6 21/9/6 25/8/6
f 45/27/5 49/26/5 48/25/5
f 49/26/5 45/27/5 47/28/5
f 48/25/6 49/26/6 45/27/6
f 47/28/6 45/27/6 49/26/6
f 39/6/3 37/2/3 35/5/3
f 37/2/3 39/6/3 42/1/3
f 35/5/4 37/2/4 39/6/4
f 42/1/4 39/6/4 37/2/4
f 18/31/3 13/30/3 11/29/3
f 13/30/3 18/31/3 15/32/3
f 11/29/4 13/30/4 18/31/4
f 15/32/4 18/31/4 13/30/4
f 45/16/3 43/13/3 41/14/3
f 43/13/3 45/16/3 48/15/3
f 41/14/4 43/13/4 45/16/4
f 48/15/4 45/16/4 43/13/4
f 33/35/3 31/34/3 29/33/3
f 31/34/3 33/35/3 36/36/3
f 29/33/4 31/34/4 33/35/4
f 36/36/4 33/35/4 31/34/4
f 9/25/5 13/28/5 12/27/5
f 13/28/5 9/25/5 11/26/5
f 12/27/6 13/28/6 9/25/6
f 11/26/6 9/25/6 13/28/6
f 27/25/5 31/28/5 30/27/5
f 31/28/5 27/25/5 29/26/5
f 30/27/6 31/28/6 27/25/6
f 29/26/6 27/25/6 31/28/6
f 39/7/5 43/10/5 42/9/5
f 43/10/5 39/7/5 41/8/5
f 42/9/6 43/10/6 39/7/6
f 41/8/6 39/7/6 43/10/6
f 49/39/4 46/38/4 50/37/4
f 46/38/4 49/39/4 47/40/4
f 50/37/3 46/38/3 49/39/3
f 47/40/3 49/39/3 46/38/3
f 40/43/6 37/42/6 44/41/6
f 37/42/6 40/43/6 35/44/6
f 44/41/5 37/42/5 40/43/5
f 35/44/5 40/43/5 37/42/5
f 46/47/6 43/46/6 50/45/6
f 43/46/6 46/47/6 41/48/6
f 50/45/5 43/46/5 46/47/5
f 41/48/5 46/47/5 43/46/5
f 34/51/6 31/50/6 38/49/6
f 31/50/6 34/51/6 29/52/6
f 38/49/5 31/50/5 34/51/5
f 29/52/5 34/51/5 31/50/5
f 20/55/6 13/54/6 17/53/6
f 13/54/6 20/55/6 11/56/6
f 17/53/5 13/54/5 20/55/5
f 11/56/5 20/55/5 13/54/5
f 28/59/6 25/58/6 32/57/6
f 25/58/6 28/59/6 23/60/6
f 32/57/5 25/58/5 28/59/5
f 23/60/5 28/59/5 25/58/5
f 10/59/6 3/58/6 14/57/6
f 3/58/6 10/59/6 7/60/6
f 14/57/5 3/58/5 10/59/5
f 7/60/5 10/59/5 3/58/5
f 22/63/6 16/62/6 26/61/6
f 16/62/6 22/63/6 19/64/6
f 26/61/5 16/62/5 22/63/5
f 19/64/5 22/63/5 16/62/5
f 8/63/6 2/62/6 4/61/6
f 2/62/6 8/63/6 5/64/6
f 4/61/5 2/62/5 8/63/5
f 5/64/5 8/63/5 2/62/5
f 43/67/4 40/66/4 44/65/4
f 40/66/4 43/67/4 41/68/4
f 44/65/3 40/66/3 43/67/3
f 41/68/3 43/67/3 40/66/3
f 37/71/4 34/70/4 38/69/4
f 34/70/4 37/71/4 35/72/4
f 38/69/3 34/70/3 37/71/3
f 35/72/3 37/71/3 34/70/3
f 31/75/4 28/74/4 32/73/4
f 28/74/4 31/75/4 29/76/4
f 32/73/3 28/74/3 31/75/3
f 29/76/3 31/75/3 28/74/3
f 25/67/4 22/66/4 26/65/4
f 22/66/4 25/67/4 23/68/4
f 26/65/3 22/66/3 25/67/3
f 23/68/3 25/67/3 22/66/3
f 16/79/4 20/78/4 17/77/4
f 20/78/4 16/79/4 19/80/4
f 17/77/3 20/78/3 16/79/3
f 19/80/3 16/79/3 20/78/3
f 13/75/4 10/74/4 14/73/4
f 10/74/4 13/75/4 11/76/4
f 14/73/3 10/74/3 13/75/3
f 11/76/3 13/75/3 10/74/3
f 3/67/4 8/66/4 4/65/4
f 8/66/4 3/67/4 7/68/4
f 4/65/3 8/66/3 3/67/3
f 7/68/3 3/67/3 8/66/3

