# Created by Kenney (www.kenney.nl)

mtllib stairs-stone.mtl

g stairs-stone

v 0.25 0 0.5 1 1 1
v -0.25 0 0.5 1 1 1
v 0.25 0.875 0.5 1 1 1
v -0.25 0.875 0.5 1 1 1
v 0.25 1 0.5 1 1 1
v -0.25 1 0.5 1 1 1
v 0.25 0.25 -0.25 1 1 1
v 0.25 0.125 -0.25 1 1 1
v 0.25 0.25 -0.125 1 1 1
v 0.25 0 -0.375 1 1 1
v 0.25 0.125 -0.375 1 1 1
v 0.25 0.375 0 1 1 1
v 0.25 0.375 -0.125 1 1 1
v 0.25 0.5 0.125 1 1 1
v 0.25 0.5 0 1 1 1
v 0.25 0.625 0.25 1 1 1
v 0.25 0.625 0.125 1 1 1
v 0.25 0.75 0.375 1 1 1
v 0.25 0.75 0.25 1 1 1
v 0.25 0.875 0.375 1 1 1
v -0.25 0 -0.375 1 1 1
v -0.25 0.125 -0.375 1 1 1
v -0.25 0.125 -0.25 1 1 1
v -0.25 0.25 -0.25 1 1 1
v -0.25 0.25 -0.125 1 1 1
v -0.25 0.375 -0.125 1 1 1
v -0.25 0.375 0 1 1 1
v -0.25 0.5 0 1 1 1
v -0.25 0.5 0.125 1 1 1
v -0.25 0.625 0.125 1 1 1
v -0.25 0.625 0.25 1 1 1
v -0.25 0.75 0.25 1 1 1
v -0.25 0.75 0.375 1 1 1
v -0.25 0.875 0.375 1 1 1
v 0.25 0.125 -0.5 1 1 1
v 0.25 0 -0.5 1 1 1
v -0.25 0 -0.5 1 1 1
v -0.25 0.125 -0.5 1 1 1
v -0.25 0.25 -0.375 1 1 1
v 0.25 0.25 -0.375 1 1 1
v 0.25 0.375 -0.25 1 1 1
v -0.25 0.375 -0.25 1 1 1
v -0.25 0.5 -0.125 1 1 1
v 0.25 0.5 -0.125 1 1 1
v -0.25 0.625 0 1 1 1
v 0.25 0.625 0 1 1 1
v -0.25 0.75 0.125 1 1 1
v 0.25 0.75 0.125 1 1 1
v -0.25 0.875 0.25 1 1 1
v 0.25 0.875 0.25 1 1 1
v -0.25 1 0.375 1 1 1
v 0.25 1 0.375 1 1 1

vn 0 0 1
vn 0 0 -1
vn 1 0 0
vn -1 0 0
vn 0 1 0
vn 0 -1 0

vt -2 0
vt -2.5 0
vt -2 0.875
vt -2.5 0.875
vt -2 1
vt -2.5 1
vt -1.25 0.25
vt -1.25 0.125
vt -1.375 0.25
vt -2 6.474457E-30
vt -1.125 6.474457E-30
vt -1.125 0.125
vt -1.5 0.375
vt -1.375 0.375
vt -1.625 0.5
vt -1.5 0.5
vt -1.75 0.625
vt -1.625 0.625
vt -1.875 0.75
vt -1.75 0.75
vt -1.875 0.875
vt 0.125 0
vt 0.125 0.125
vt 1 0
vt 0.25 0.125
vt 0.25 0.25
vt 0.375 0.25
vt 0.375 0.375
vt 0.5 0.375
vt 0.5 0.5
vt 0.625 0.5
vt 0.625 0.625
vt 0.75 0.625
vt 0.75 0.75
vt 0.875 0.75
vt 0.875 0.875
vt 1 0.875
vt -0.1240209 -0.2637124
vt 0.0009790908 -0.2637124
vt -0.1240209 -0.3887124
vt 0.0009790946 -0.3887124
vt 0.0009791491 0.2362876
vt -0.1240209 0.2362876
vt -8.361312 -5.162687
vt -8.249432 -5.162687
vt -8.361313 -5.736731
vt -8.249433 -5.736731
vt 0.0009791526 0.3612877
vt -0.1240209 0.3612877
vt 0.2586218 0.3301606
vt 0.2586218 -0.1698394
vt 0.1336218 0.3301606
vt 0.1336217 -0.1698394
vt -8.233208 -5.425896
vt -8.121326 -5.425896
vt -8.233209 -5.999939
vt -8.121328 -5.999939
vt -8.115747 -5.307867
vt -8.003867 -5.307867
vt -8.115748 -5.881911
vt -8.003868 -5.881911
vt -8.23401 -5.151977
vt -8.122129 -5.151977
vt -8.234011 -5.72602
vt -8.12213 -5.72602
vt 0.6358159 -0.3081973
vt 0.6358159 0.1918027
vt 0.5108159 -0.3081973
vt 0.5108159 0.1918027
vt 1.261016 -1.029822
vt 1.261016 -0.5298219
vt 1.136016 -1.029822
vt 1.136016 -0.5298219
vt 0 0
vt 0 -0.875
vt -0.5 0
vt 0 -1
vt -0.5 -1
vt -0.5 -0.875

usemtl stones

f 3/3/1 2/2/1 1/1/1
f 2/2/1 3/3/1 4/4/1
f 4/4/1 3/3/1 5/5/1
f 4/4/1 5/5/1 6/6/1
f 1/1/2 2/2/2 3/3/2
f 4/4/2 3/3/2 2/2/2
f 5/5/2 3/3/2 4/4/2
f 6/6/2 5/5/2 4/4/2
f 9/9/3 8/8/3 7/7/3
f 1/10/3 8/8/3 9/9/3
f 10/11/3 8/8/3 1/10/3
f 8/8/3 10/11/3 11/12/3
f 1/10/3 9/9/3 12/13/3
f 12/13/3 9/9/3 13/14/3
f 1/10/3 12/13/3 14/15/3
f 14/15/3 12/13/3 15/16/3
f 1/10/3 14/15/3 16/17/3
f 16/17/3 14/15/3 17/18/3
f 1/10/3 16/17/3 18/19/3
f 18/19/3 16/17/3 19/20/3
f 1/10/3 18/19/3 3/3/3
f 3/3/3 18/19/3 20/21/3
f 7/7/4 8/8/4 9/9/4
f 9/9/4 8/8/4 1/10/4
f 1/10/4 8/8/4 10/11/4
f 11/12/4 10/11/4 8/8/4
f 12/13/4 9/9/4 1/10/4
f 13/14/4 9/9/4 12/13/4
f 14/15/4 12/13/4 1/10/4
f 15/16/4 12/13/4 14/15/4
f 16/17/4 14/15/4 1/10/4
f 17/18/4 14/15/4 16/17/4
f 18/19/4 16/17/4 1/10/4
f 19/20/4 16/17/4 18/19/4
f 3/3/4 18/19/4 1/10/4
f 20/21/4 18/19/4 3/3/4
f 2/24/4 22/23/4 21/22/4
f 22/23/4 2/24/4 23/25/4
f 23/25/4 2/24/4 24/26/4
f 24/26/4 2/24/4 25/27/4
f 25/27/4 2/24/4 26/28/4
f 26/28/4 2/24/4 27/29/4
f 27/29/4 2/24/4 28/30/4
f 28/30/4 2/24/4 29/31/4
f 29/31/4 2/24/4 30/32/4
f 30/32/4 2/24/4 31/33/4
f 31/33/4 2/24/4 32/34/4
f 32/34/4 2/24/4 33/35/4
f 33/35/4 2/24/4 34/36/4
f 34/36/4 2/24/4 4/37/4
f 21/22/3 22/23/3 2/24/3
f 23/25/3 2/24/3 22/23/3
f 24/26/3 2/24/3 23/25/3
f 25/27/3 2/24/3 24/26/3
f 26/28/3 2/24/3 25/27/3
f 27/29/3 2/24/3 26/28/3
f 28/30/3 2/24/3 27/29/3
f 29/31/3 2/24/3 28/30/3
f 30/32/3 2/24/3 29/31/3
f 31/33/3 2/24/3 30/32/3
f 32/34/3 2/24/3 31/33/3
f 33/35/3 2/24/3 32/34/3
f 34/36/3 2/24/3 33/35/3
f 4/37/3 2/24/3 34/36/3

usemtl planks

f 11/40/3 36/39/3 35/38/3
f 36/39/3 11/40/3 10/41/3
f 35/38/4 36/39/4 11/40/4
f 10/41/4 11/40/4 36/39/4
f 38/43/2 36/39/2 37/42/2
f 36/39/2 38/43/2 35/38/2
f 37/42/1 36/39/1 38/43/1
f 35/38/1 38/43/1 36/39/1
f 38/46/5 11/45/5 35/44/5
f 11/45/5 38/46/5 22/47/5
f 35/44/6 11/45/6 38/46/6
f 22/47/6 38/46/6 11/45/6
f 21/48/4 38/43/4 37/42/4
f 38/43/4 21/48/4 22/49/4
f 37/42/3 38/43/3 21/48/3
f 22/49/3 21/48/3 38/43/3
f 23/48/4 39/43/4 22/42/4
f 39/43/4 23/48/4 24/49/4
f 22/42/3 39/43/3 23/48/3
f 24/49/3 23/48/3 39/43/3
f 39/52/2 11/51/2 22/50/2
f 11/51/2 39/52/2 40/53/2
f 22/50/1 11/51/1 39/52/1
f 40/53/1 39/52/1 11/51/1
f 7/40/3 11/39/3 40/38/3
f 11/39/3 7/40/3 8/41/3
f 40/38/4 11/39/4 7/40/4
f 8/41/4 7/40/4 11/39/4
f 13/40/3 7/39/3 41/38/3
f 7/39/3 13/40/3 9/41/3
f 41/38/4 7/39/4 13/40/4
f 9/41/4 13/40/4 7/39/4
f 42/56/5 13/55/5 41/54/5
f 13/55/5 42/56/5 26/57/5
f 41/54/6 13/55/6 42/56/6
f 26/57/6 42/56/6 13/55/6
f 25/48/4 42/43/4 24/42/4
f 42/43/4 25/48/4 26/49/4
f 24/42/3 42/43/3 25/48/3
f 26/49/3 25/48/3 42/43/3
f 27/48/4 43/43/4 26/42/4
f 43/43/4 27/48/4 28/49/4
f 26/42/3 43/43/3 27/48/3
f 28/49/3 27/48/3 43/43/3
f 15/40/3 13/39/3 44/38/3
f 13/39/3 15/40/3 12/41/3
f 44/38/4 13/39/4 15/40/4
f 12/41/4 15/40/4 13/39/4
f 29/48/4 45/43/4 28/42/4
f 45/43/4 29/48/4 30/49/4
f 28/42/3 45/43/3 29/48/3
f 30/49/3 29/48/3 45/43/3
f 17/40/3 15/39/3 46/38/3
f 15/39/3 17/40/3 14/41/3
f 46/38/4 15/39/4 17/40/4
f 14/41/4 17/40/4 15/39/4
f 31/48/4 47/43/4 30/42/4
f 47/43/4 31/48/4 32/49/4
f 30/42/3 47/43/3 31/48/3
f 32/49/3 31/48/3 47/43/3
f 19/40/3 17/39/3 48/38/3
f 17/39/3 19/40/3 16/41/3
f 48/38/4 17/39/4 19/40/4
f 16/41/4 19/40/4 17/39/4
f 33/48/4 49/43/4 32/42/4
f 49/43/4 33/48/4 34/49/4
f 32/42/3 49/43/3 33/48/3
f 34/49/3 33/48/3 49/43/3
f 20/40/3 19/39/3 50/38/3
f 19/39/3 20/40/3 18/41/3
f 50/38/4 19/39/4 20/40/4
f 18/41/4 20/40/4 19/39/4
f 4/48/4 51/43/4 34/42/4
f 51/43/4 4/48/4 6/49/4
f 34/42/3 51/43/3 4/48/3
f 6/49/3 4/48/3 51/43/3
f 5/40/3 20/39/3 52/38/3
f 20/39/3 5/40/3 3/41/3
f 52/38/4 20/39/4 5/40/4
f 3/41/4 5/40/4 20/39/4
f 43/43/2 13/39/2 26/42/2
f 13/39/2 43/43/2 44/38/2
f 26/42/1 13/39/1 43/43/1
f 44/38/1 43/43/1 13/39/1
f 47/60/5 19/59/5 48/58/5
f 19/59/5 47/60/5 32/61/5
f 48/58/6 19/59/6 47/60/6
f 32/61/6 47/60/6 19/59/6
f 45/52/2 15/51/2 28/50/2
f 15/51/2 45/52/2 46/53/2
f 28/50/1 15/51/1 45/52/1
f 46/53/1 45/52/1 15/51/1
f 43/46/5 15/45/5 44/44/5
f 15/45/5 43/46/5 28/47/5
f 44/44/6 15/45/6 43/46/6
f 28/47/6 43/46/6 15/45/6
f 51/64/5 5/63/5 52/62/5
f 5/63/5 51/64/5 6/65/5
f 52/62/6 5/63/6 51/64/6
f 6/65/6 51/64/6 5/63/6
f 49/43/2 19/39/2 32/42/2
f 19/39/2 49/43/2 50/38/2
f 32/42/1 19/39/1 49/43/1
f 50/38/1 49/43/1 19/39/1
f 42/68/2 7/67/2 24/66/2
f 7/67/2 42/68/2 41/69/2
f 24/66/1 7/67/1 42/68/1
f 41/69/1 42/68/1 7/67/1
f 51/53/2 20/50/2 34/51/2
f 20/50/2 51/53/2 52/52/2
f 34/51/1 20/50/1 51/53/1
f 52/52/1 51/53/1 20/50/1
f 47/72/2 17/71/2 30/70/2
f 17/71/2 47/72/2 48/73/2
f 30/70/1 17/71/1 47/72/1
f 48/73/1 47/72/1 17/71/1
f 39/62/5 7/65/5 40/64/5
f 7/65/5 39/62/5 24/63/5
f 40/64/6 7/65/6 39/62/6
f 24/63/6 39/62/6 7/65/6
f 45/62/5 17/65/5 46/64/5
f 17/65/5 45/62/5 30/63/5
f 46/64/6 17/65/6 45/62/6
f 30/63/6 45/62/6 17/65/6
f 49/44/5 20/47/5 50/46/5
f 20/47/5 49/44/5 34/45/5
f 50/46/6 20/47/6 49/44/6
f 34/45/6 49/44/6 20/47/6

usemtl bricks

f 2/76/6 10/75/6 1/74/6
f 10/75/6 2/76/6 36/77/6
f 36/77/6 2/76/6 37/78/6
f 37/78/6 2/76/6 21/79/6
f 1/74/5 10/75/5 2/76/5
f 36/77/5 2/76/5 10/75/5
f 37/78/5 2/76/5 36/77/5
f 21/79/5 2/76/5 37/78/5

g stairs-stone




usemtl stones

f 3/3/1 2/2/1 1/1/1
f 2/2/1 3/3/1 4/4/1
f 4/4/1 3/3/1 5/5/1
f 4/4/1 5/5/1 6/6/1
f 1/1/2 2/2/2 3/3/2
f 4/4/2 3/3/2 2/2/2
f 5/5/2 3/3/2 4/4/2
f 6/6/2 5/5/2 4/4/2
f 9/9/3 8/8/3 7/7/3
f 1/10/3 8/8/3 9/9/3
f 10/11/3 8/8/3 1/10/3
f 8/8/3 10/11/3 11/12/3
f 1/10/3 9/9/3 12/13/3
f 12/13/3 9/9/3 13/14/3
f 1/10/3 12/13/3 14/15/3
f 14/15/3 12/13/3 15/16/3
f 1/10/3 14/15/3 16/17/3
f 16/17/3 14/15/3 17/18/3
f 1/10/3 16/17/3 18/19/3
f 18/19/3 16/17/3 19/20/3
f 1/10/3 18/19/3 3/3/3
f 3/3/3 18/19/3 20/21/3
f 7/7/4 8/8/4 9/9/4
f 9/9/4 8/8/4 1/10/4
f 1/10/4 8/8/4 10/11/4
f 11/12/4 10/11/4 8/8/4
f 12/13/4 9/9/4 1/10/4
f 13/14/4 9/9/4 12/13/4
f 14/15/4 12/13/4 1/10/4
f 15/16/4 12/13/4 14/15/4
f 16/17/4 14/15/4 1/10/4
f 17/18/4 14/15/4 16/17/4
f 18/19/4 16/17/4 1/10/4
f 19/20/4 16/17/4 18/19/4
f 3/3/4 18/19/4 1/10/4
f 20/21/4 18/19/4 3/3/4
f 2/24/4 22/23/4 21/22/4
f 22/23/4 2/24/4 23/25/4
f 23/25/4 2/24/4 24/26/4
f 24/26/4 2/24/4 25/27/4
f 25/27/4 2/24/4 26/28/4
f 26/28/4 2/24/4 27/29/4
f 27/29/4 2/24/4 28/30/4
f 28/30/4 2/24/4 29/31/4
f 29/31/4 2/24/4 30/32/4
f 30/32/4 2/24/4 31/33/4
f 31/33/4 2/24/4 32/34/4
f 32/34/4 2/24/4 33/35/4
f 33/35/4 2/24/4 34/36/4
f 34/36/4 2/24/4 4/37/4
f 21/22/3 22/23/3 2/24/3
f 23/25/3 2/24/3 22/23/3
f 24/26/3 2/24/3 23/25/3
f 25/27/3 2/24/3 24/26/3
f 26/28/3 2/24/3 25/27/3
f 27/29/3 2/24/3 26/28/3
f 28/30/3 2/24/3 27/29/3
f 29/31/3 2/24/3 28/30/3
f 30/32/3 2/24/3 29/31/3
f 31/33/3 2/24/3 30/32/3
f 32/34/3 2/24/3 31/33/3
f 33/35/3 2/24/3 32/34/3
f 34/36/3 2/24/3 33/35/3
f 4/37/3 2/24/3 34/36/3

usemtl planks

f 11/40/3 36/39/3 35/38/3
f 36/39/3 11/40/3 10/41/3
f 35/38/4 36/39/4 11/40/4
f 10/41/4 11/40/4 36/39/4
f 38/43/2 36/39/2 37/42/2
f 36/39/2 38/43/2 35/38/2
f 37/42/1 36/39/1 38/43/1
f 35/38/1 38/43/1 36/39/1
f 38/46/5 11/45/5 35/44/5
f 11/45/5 38/46/5 22/47/5
f 35/44/6 11/45/6 38/46/6
f 22/47/6 38/46/6 11/45/6
f 21/48/4 38/43/4 37/42/4
f 38/43/4 21/48/4 22/49/4
f 37/42/3 38/43/3 21/48/3
f 22/49/3 21/48/3 38/43/3
f 23/48/4 39/43/4 22/42/4
f 39/43/4 23/48/4 24/49/4
f 22/42/3 39/43/3 23/48/3
f 24/49/3 23/48/3 39/43/3
f 39/52/2 11/51/2 22/50/2
f 11/51/2 39/52/2 40/53/2
f 22/50/1 11/51/1 39/52/1
f 40/53/1 39/52/1 11/51/1
f 7/40/3 11/39/3 40/38/3
f 11/39/3 7/40/3 8/41/3
f 40/38/4 11/39/4 7/40/4
f 8/41/4 7/40/4 11/39/4
f 13/40/3 7/39/3 41/38/3
f 7/39/3 13/40/3 9/41/3
f 41/38/4 7/39/4 13/40/4
f 9/41/4 13/40/4 7/39/4
f 42/56/5 13/55/5 41/54/5
f 13/55/5 42/56/5 26/57/5
f 41/54/6 13/55/6 42/56/6
f 26/57/6 42/56/6 13/55/6
f 25/48/4 42/43/4 24/42/4
f 42/43/4 25/48/4 26/49/4
f 24/42/3 42/43/3 25/48/3
f 26/49/3 25/48/3 42/43/3
f 27/48/4 43/43/4 26/42/4
f 43/43/4 27/48/4 28/49/4
f 26/42/3 43/43/3 27/48/3
f 28/49/3 27/48/3 43/43/3
f 15/40/3 13/39/3 44/38/3
f 13/39/3 15/40/3 12/41/3
f 44/38/4 13/39/4 15/40/4
f 12/41/4 15/40/4 13/39/4
f 29/48/4 45/43/4 28/42/4
f 45/43/4 29/48/4 30/49/4
f 28/42/3 45/43/3 29/48/3
f 30/49/3 29/48/3 45/43/3
f 17/40/3 15/39/3 46/38/3
f 15/39/3 17/40/3 14/41/3
f 46/38/4 15/39/4 17/40/4
f 14/41/4 17/40/4 15/39/4
f 31/48/4 47/43/4 30/42/4
f 47/43/4 31/48/4 32/49/4
f 30/42/3 47/43/3 31/48/3
f 32/49/3 31/48/3 47/43/3
f 19/40/3 17/39/3 48/38/3
f 17/39/3 19/40/3 16/41/3
f 48/38/4 17/39/4 19/40/4
f 16/41/4 19/40/4 17/39/4
f 33/48/4 49/43/4 32/42/4
f 49/43/4 33/48/4 34/49/4
f 32/42/3 49/43/3 33/48/3
f 34/49/3 33/48/3 49/43/3
f 20/40/3 19/39/3 50/38/3
f 19/39/3 20/40/3 18/41/3
f 50/38/4 19/39/4 20/40/4
f 18/41/4 20/40/4 19/39/4
f 4/48/4 51/43/4 34/42/4
f 51/43/4 4/48/4 6/49/4
f 34/42/3 51/43/3 4/48/3
f 6/49/3 4/48/3 51/43/3
f 5/40/3 20/39/3 52/38/3
f 20/39/3 5/40/3 3/41/3
f 52/38/4 20/39/4 5/40/4
f 3/41/4 5/40/4 20/39/4
f 43/43/2 13/39/2 26/42/2
f 13/39/2 43/43/2 44/38/2
f 26/42/1 13/39/1 43/43/1
f 44/38/1 43/43/1 13/39/1
f 47/60/5 19/59/5 48/58/5
f 19/59/5 47/60/5 32/61/5
f 48/58/6 19/59/6 47/60/6
f 32/61/6 47/60/6 19/59/6
f 45/52/2 15/51/2 28/50/2
f 15/51/2 45/52/2 46/53/2
f 28/50/1 15/51/1 45/52/1
f 46/53/1 45/52/1 15/51/1
f 43/46/5 15/45/5 44/44/5
f 15/45/5 43/46/5 28/47/5
f 44/44/6 15/45/6 43/46/6
f 28/47/6 43/46/6 15/45/6
f 51/64/5 5/63/5 52/62/5
f 5/63/5 51/64/5 6/65/5
f 52/62/6 5/63/6 51/64/6
f 6/65/6 51/64/6 5/63/6
f 49/43/2 19/39/2 32/42/2
f 19/39/2 49/43/2 50/38/2
f 32/42/1 19/39/1 49/43/1
f 50/38/1 49/43/1 19/39/1
f 42/68/2 7/67/2 24/66/2
f 7/67/2 42/68/2 41/69/2
f 24/66/1 7/67/1 42/68/1
f 41/69/1 42/68/1 7/67/1
f 51/53/2 20/50/2 34/51/2
f 20/50/2 51/53/2 52/52/2
f 34/51/1 20/50/1 51/53/1
f 52/52/1 51/53/1 20/50/1
f 47/72/2 17/71/2 30/70/2
f 17/71/2 47/72/2 48/73/2
f 30/70/1 17/71/1 47/72/1
f 48/73/1 47/72/1 17/71/1
f 39/62/5 7/65/5 40/64/5
f 7/65/5 39/62/5 24/63/5
f 40/64/6 7/65/6 39/62/6
f 24/63/6 39/62/6 7/65/6
f 45/62/5 17/65/5 46/64/5
f 17/65/5 45/62/5 30/63/5
f 46/64/6 17/65/6 45/62/6
f 30/63/6 45/62/6 17/65/6
f 49/44/5 20/47/5 50/46/5
f 20/47/5 49/44/5 34/45/5
f 50/46/6 20/47/6 49/44/6
f 34/45/6 49/44/6 20/47/6

usemtl bricks

f 2/76/6 10/75/6 1/74/6
f 10/75/6 2/76/6 36/77/6
f 36/77/6 2/76/6 37/78/6
f 37/78/6 2/76/6 21/79/6
f 1/74/5 10/75/5 2/76/5
f 36/77/5 2/76/5 10/75/5
f 37/78/5 2/76/5 36/77/5
f 21/79/5 2/76/5 37/78/5

