# Created by Kenney (www.kenney.nl)

mtllib structure-wall.mtl

g structure-wall

v 0.5 1 0.4 1 1 1
v 0.5 1 0.5 1 1 1
v 0.4 1 0.4 1 1 1
v 0.4 1 0.5 1 1 1
v 0.5 0 -0.4 1 1 1
v 0.5 0 -0.5 1 1 1
v 0.4 0 -0.4 1 1 1
v 0.4 0 -0.5 1 1 1
v 0.4 0.75 -0.5 1 1 1
v 0.5 1 -0.5 1 1 1
v 0.4 1 -0.5 1 1 1
v -0.5 0 -0.5 1 1 1
v -0.4 0 -0.5 1 1 1
v -0.5 1 -0.5 1 1 1
v -0.4 0.75 -0.5 1 1 1
v -0.4 1 -0.5 1 1 1
v 0.5 1 -0.4 1 1 1
v 0.5 0.75 -0.4 1 1 1
v 0.5 0.75 0.4 1 1 1
v 0.5 0 0.4 1 1 1
v 0.5 0 0.5 1 1 1
v 0.4 0 0.5 1 1 1
v 0.4 0.75 0.5 1 1 1
v -0.4 0 0.5 1 1 1
v -0.5 0 0.5 1 1 1
v -0.4 0.75 0.5 1 1 1
v -0.5 1 0.5 1 1 1
v -0.4 1 0.5 1 1 1
v -0.5 0 0.4 1 1 1
v -0.5 0.75 0.4 1 1 1
v -0.5 1 0.4 1 1 1
v -0.5 0 -0.4 1 1 1
v -0.5 1 -0.4 1 1 1
v -0.5 0.75 -0.4 1 1 1
v 0.4 1 -0.4 1 1 1
v -0.4 1 -0.4 1 1 1
v -0.4 1 0.4 1 1 1
v 0.4 0 0.4 1 1 1
v -0.4 0 0.4 1 1 1
v -0.4 0 -0.4 1 1 1
v -0.4 0.75 0.4 1 1 1
v -0.4 0.75 -0.4 1 1 1
v 0.4 0.75 -0.4 1 1 1
v 0.4 0.75 0.4 1 1 1

vn 0 1 0
vn 0 -1 0
vn 0 0 -1
vn 0 0 1
vn 1 0 0
vn -1 0 0
vn -1 0 -2.682116E-07
vn 1 0 2.682116E-07

vt 1.888117 -2.118809
vt 1.999998 -2.11881
vt 1.888117 -2.230691
vt 1.999998 -2.230691
vt 2 -0.8881186
vt 2 -1
vt 1.888119 -0.8881186
vt 1.888119 -1
vt 1.888113 -0.9999968
vt 1.999993 -0.9999967
vt 1.888111 -1.839101
vt 1.999992 -2.118803
vt 1.888111 -2.118803
vt 1.999992 -1.839101
vt 1.999994 -0.9999967
vt 1.999992 -2.118803
vt 1.888113 -0.9999968
vt 1.888111 -2.118803
vt 1.888112 -1.839101
vt 1.888116 -2.230691
vt 0.993069 -0.888119
vt 0.993069 -1
vt 0.881188 -0.888119
vt 0.881188 -1
vt 0.8811867 -0.9999985
vt 0.9930674 -0.9999983
vt 0.8811853 -1.839103
vt 0.993066 -1.839103
vt 1.776238 -0.9999998
vt 1.888119 -1
vt 1.776237 -1.839107
vt 1.888118 -1.839107
vt 1.888117 -1.839107
vt 1.776238 -0.9999998
vt 1.776236 -1.839107
vt 2.111881 -1
vt 1.999999 -1.839107
vt 2.11188 -1.839107
vt -0.1 1
vt -0.1 0.75
vt -0.9 1
vt -0.9 0.75
vt 1 -0.1
vt 1 -0.9
vt 0.9 -0.1
vt 0.9 -0.9
vt 0.9 2.38698E-14
vt 0.9 -1
vt 0.1 2.88658E-15
vt 0.1 -0.1
vt 0.1 -0.9
vt 0.1 -1
vt -2.88658E-15 -0.9
vt -2.020606E-14 -0.1
vt -1 -0.9
vt -1 -0.1
vt -0.9 -0.9
vt -0.9 -0.1
vt -0.9 -1
vt -0.9 2.38698E-14
vt -0.1 -1
vt -0.1 -0.9
vt -0.1 -0.1
vt -0.1 2.88658E-15
vt 2.88658E-15 -0.9
vt 2.020606E-14 -0.1

usemtl planks

f 3/3/1 2/2/1 1/1/1
f 2/2/1 3/3/1 4/4/1
f 1/1/2 2/2/2 3/3/2
f 4/4/2 3/3/2 2/2/2
f 7/7/2 6/6/2 5/5/2
f 6/6/2 7/7/2 8/8/2
f 5/5/1 6/6/1 7/7/1
f 8/8/1 7/7/1 6/6/1
f 9/11/3 6/10/3 8/9/3
f 6/10/3 9/11/3 10/12/3
f 10/12/3 9/11/3 11/13/3
f 8/9/4 6/10/4 9/11/4
f 10/12/4 9/11/4 6/10/4
f 11/13/4 9/11/4 10/12/4
f 14/13/3 13/10/3 12/9/3
f 13/10/3 14/13/3 15/14/3
f 15/14/3 14/13/3 16/12/3
f 12/9/4 13/10/4 14/13/4
f 15/14/4 14/13/4 13/10/4
f 16/12/4 14/13/4 15/14/4
f 17/12/5 6/9/5 10/13/5
f 6/9/5 17/12/5 5/10/5
f 5/10/5 17/12/5 18/14/5
f 10/13/6 6/9/6 17/12/6
f 5/10/6 17/12/6 6/9/6
f 18/14/6 17/12/6 5/10/6
f 2/12/5 19/11/5 1/13/5
f 19/11/5 2/12/5 20/9/5
f 20/9/5 2/12/5 21/10/5
f 1/13/6 19/11/6 2/12/6
f 20/9/6 2/12/6 19/11/6
f 21/10/6 2/12/6 20/9/6
f 2/13/4 22/10/4 21/9/4
f 22/10/4 2/13/4 23/14/4
f 23/14/4 2/13/4 4/12/4
f 21/9/3 22/10/3 2/13/3
f 23/14/3 2/13/3 22/10/3
f 4/12/3 2/13/3 23/14/3
f 26/11/4 25/10/4 24/9/4
f 25/10/4 26/11/4 27/12/4
f 27/12/4 26/11/4 28/13/4
f 24/9/3 25/10/3 26/11/3
f 27/12/3 26/11/3 25/10/3
f 28/13/3 26/11/3 27/12/3
f 25/9/6 30/14/6 29/10/6
f 30/14/6 25/9/6 31/12/6
f 31/12/6 25/9/6 27/13/6
f 29/10/5 30/14/5 25/9/5
f 31/12/5 25/9/5 30/14/5
f 27/13/5 25/9/5 31/12/5
f 32/17/7 14/16/7 12/15/7
f 14/16/7 32/17/7 33/18/7
f 33/18/7 32/17/7 34/19/7
f 12/15/8 14/16/8 32/17/8
f 33/18/8 32/17/8 14/16/8
f 34/19/8 32/17/8 33/18/8
f 10/2/1 35/3/1 17/4/1
f 35/3/1 10/2/1 11/1/1
f 17/4/2 35/3/2 10/2/2
f 11/1/2 10/2/2 35/3/2
f 14/1/1 36/4/1 16/2/1
f 36/4/1 14/1/1 33/20/1
f 16/2/2 36/4/2 14/1/2
f 33/20/2 14/1/2 36/4/2
f 31/2/1 28/3/1 37/4/1
f 28/3/1 31/2/1 27/1/1
f 37/4/2 28/3/2 31/2/2
f 27/1/2 31/2/2 28/3/2
f 21/5/2 38/8/2 20/6/2
f 38/8/2 21/5/2 22/7/2
f 20/6/1 38/8/1 21/5/1
f 22/7/1 21/5/1 38/8/1
f 25/23/2 39/22/2 24/21/2
f 39/22/2 25/23/2 29/24/2
f 24/21/1 39/22/1 25/23/1
f 29/24/1 25/23/1 39/22/1
f 32/7/2 13/6/2 40/5/2
f 13/6/2 32/7/2 12/8/2
f 40/5/1 13/6/1 32/7/1
f 12/8/1 32/7/1 13/6/1
f 26/14/5 39/9/5 41/11/5
f 39/9/5 26/14/5 24/10/5
f 41/11/6 39/9/6 26/14/6
f 24/10/6 26/14/6 39/9/6
f 30/27/3 39/26/3 29/25/3
f 39/26/3 30/27/3 41/28/3
f 29/25/4 39/26/4 30/27/4
f 41/28/4 30/27/4 39/26/4
f 42/31/4 32/30/4 40/29/4
f 32/30/4 42/31/4 34/32/4
f 40/29/3 32/30/3 42/31/3
f 34/32/3 42/31/3 32/30/3
f 42/14/5 13/9/5 15/11/5
f 13/9/5 42/14/5 40/10/5
f 15/11/6 13/9/6 42/14/6
f 40/10/6 42/14/6 13/9/6
f 7/34/6 9/33/6 8/8/6
f 9/33/6 7/34/6 43/35/6
f 8/8/5 9/33/5 7/34/5
f 43/35/5 7/34/5 9/33/5
f 18/37/4 7/36/4 5/6/4
f 7/36/4 18/37/4 43/38/4
f 5/6/3 7/36/3 18/37/3
f 43/38/3 18/37/3 7/36/3
f 44/11/3 20/10/3 38/9/3
f 20/10/3 44/11/3 19/14/3
f 38/9/4 20/10/4 44/11/4
f 19/14/4 44/11/4 20/10/4
f 22/6/6 44/38/6 38/36/6
f 44/38/6 22/6/6 23/37/6
f 38/36/5 44/38/5 22/6/5
f 23/37/5 22/6/5 44/38/5

usemtl stones

f 1/41/5 18/40/5 17/39/5
f 18/40/5 1/41/5 19/42/5
f 17/39/6 18/40/6 1/41/6
f 19/42/6 1/41/6 18/40/6
f 4/39/4 26/42/4 23/40/4
f 26/42/4 4/39/4 28/41/4
f 23/40/3 26/42/3 4/39/3
f 28/41/3 4/39/3 26/42/3
f 30/40/6 33/41/6 34/42/6
f 33/41/6 30/40/6 31/39/6
f 34/42/5 33/41/5 30/40/5
f 31/39/5 30/40/5 33/41/5
f 16/39/3 9/42/3 15/40/3
f 9/42/3 16/39/3 11/41/3
f 15/40/4 9/42/4 16/39/4
f 11/41/4 16/39/4 9/42/4

usemtl bricks

f 37/45/1 33/44/1 31/43/1
f 33/44/1 37/45/1 36/46/1
f 28/47/1 36/46/1 37/45/1
f 28/47/1 16/48/1 36/46/1
f 4/49/1 16/48/1 28/47/1
f 3/50/1 16/48/1 4/49/1
f 35/51/1 16/48/1 3/50/1
f 16/48/1 35/51/1 11/52/1
f 3/50/1 17/53/1 35/51/1
f 17/53/1 3/50/1 1/54/1
f 31/43/2 33/44/2 37/45/2
f 36/46/2 37/45/2 33/44/2
f 37/45/2 36/46/2 28/47/2
f 36/46/2 16/48/2 28/47/2
f 28/47/2 16/48/2 4/49/2
f 4/49/2 16/48/2 3/50/2
f 3/50/2 16/48/2 35/51/2
f 11/52/2 35/51/2 16/48/2
f 35/51/2 17/53/2 3/50/2
f 1/54/2 3/50/2 17/53/2
f 42/57/2 30/56/2 34/55/2
f 30/56/2 42/57/2 41/58/2
f 15/59/2 41/58/2 42/57/2
f 15/59/2 26/60/2 41/58/2
f 9/61/2 26/60/2 15/59/2
f 43/62/2 26/60/2 9/61/2
f 44/63/2 26/60/2 43/62/2
f 26/60/2 44/63/2 23/64/2
f 18/65/2 44/63/2 43/62/2
f 44/63/2 18/65/2 19/66/2
f 34/55/1 30/56/1 42/57/1
f 41/58/1 42/57/1 30/56/1
f 42/57/1 41/58/1 15/59/1
f 41/58/1 26/60/1 15/59/1
f 15/59/1 26/60/1 9/61/1
f 9/61/1 26/60/1 43/62/1
f 43/62/1 26/60/1 44/63/1
f 23/64/1 44/63/1 26/60/1
f 43/62/1 44/63/1 18/65/1
f 19/66/1 18/65/1 44/63/1

g structure-wall




usemtl planks

f 3/3/1 2/2/1 1/1/1
f 2/2/1 3/3/1 4/4/1
f 1/1/2 2/2/2 3/3/2
f 4/4/2 3/3/2 2/2/2
f 7/7/2 6/6/2 5/5/2
f 6/6/2 7/7/2 8/8/2
f 5/5/1 6/6/1 7/7/1
f 8/8/1 7/7/1 6/6/1
f 9/11/3 6/10/3 8/9/3
f 6/10/3 9/11/3 10/12/3
f 10/12/3 9/11/3 11/13/3
f 8/9/4 6/10/4 9/11/4
f 10/12/4 9/11/4 6/10/4
f 11/13/4 9/11/4 10/12/4
f 14/13/3 13/10/3 12/9/3
f 13/10/3 14/13/3 15/14/3
f 15/14/3 14/13/3 16/12/3
f 12/9/4 13/10/4 14/13/4
f 15/14/4 14/13/4 13/10/4
f 16/12/4 14/13/4 15/14/4
f 17/12/5 6/9/5 10/13/5
f 6/9/5 17/12/5 5/10/5
f 5/10/5 17/12/5 18/14/5
f 10/13/6 6/9/6 17/12/6
f 5/10/6 17/12/6 6/9/6
f 18/14/6 17/12/6 5/10/6
f 2/12/5 19/11/5 1/13/5
f 19/11/5 2/12/5 20/9/5
f 20/9/5 2/12/5 21/10/5
f 1/13/6 19/11/6 2/12/6
f 20/9/6 2/12/6 19/11/6
f 21/10/6 2/12/6 20/9/6
f 2/13/4 22/10/4 21/9/4
f 22/10/4 2/13/4 23/14/4
f 23/14/4 2/13/4 4/12/4
f 21/9/3 22/10/3 2/13/3
f 23/14/3 2/13/3 22/10/3
f 4/12/3 2/13/3 23/14/3
f 26/11/4 25/10/4 24/9/4
f 25/10/4 26/11/4 27/12/4
f 27/12/4 26/11/4 28/13/4
f 24/9/3 25/10/3 26/11/3
f 27/12/3 26/11/3 25/10/3
f 28/13/3 26/11/3 27/12/3
f 25/9/6 30/14/6 29/10/6
f 30/14/6 25/9/6 31/12/6
f 31/12/6 25/9/6 27/13/6
f 29/10/5 30/14/5 25/9/5
f 31/12/5 25/9/5 30/14/5
f 27/13/5 25/9/5 31/12/5
f 32/17/7 14/16/7 12/15/7
f 14/16/7 32/17/7 33/18/7
f 33/18/7 32/17/7 34/19/7
f 12/15/8 14/16/8 32/17/8
f 33/18/8 32/17/8 14/16/8
f 34/19/8 32/17/8 33/18/8
f 10/2/1 35/3/1 17/4/1
f 35/3/1 10/2/1 11/1/1
f 17/4/2 35/3/2 10/2/2
f 11/1/2 10/2/2 35/3/2
f 14/1/1 36/4/1 16/2/1
f 36/4/1 14/1/1 33/20/1
f 16/2/2 36/4/2 14/1/2
f 33/20/2 14/1/2 36/4/2
f 31/2/1 28/3/1 37/4/1
f 28/3/1 31/2/1 27/1/1
f 37/4/2 28/3/2 31/2/2
f 27/1/2 31/2/2 28/3/2
f 21/5/2 38/8/2 20/6/2
f 38/8/2 21/5/2 22/7/2
f 20/6/1 38/8/1 21/5/1
f 22/7/1 21/5/1 38/8/1
f 25/23/2 39/22/2 24/21/2
f 39/22/2 25/23/2 29/24/2
f 24/21/1 39/22/1 25/23/1
f 29/24/1 25/23/1 39/22/1
f 32/7/2 13/6/2 40/5/2
f 13/6/2 32/7/2 12/8/2
f 40/5/1 13/6/1 32/7/1
f 12/8/1 32/7/1 13/6/1
f 26/14/5 39/9/5 41/11/5
f 39/9/5 26/14/5 24/10/5
f 41/11/6 39/9/6 26/14/6
f 24/10/6 26/14/6 39/9/6
f 30/27/3 39/26/3 29/25/3
f 39/26/3 30/27/3 41/28/3
f 29/25/4 39/26/4 30/27/4
f 41/28/4 30/27/4 39/26/4
f 42/31/4 32/30/4 40/29/4
f 32/30/4 42/31/4 34/32/4
f 40/29/3 32/30/3 42/31/3
f 34/32/3 42/31/3 32/30/3
f 42/14/5 13/9/5 15/11/5
f 13/9/5 42/14/5 40/10/5
f 15/11/6 13/9/6 42/14/6
f 40/10/6 42/14/6 13/9/6
f 7/34/6 9/33/6 8/8/6
f 9/33/6 7/34/6 43/35/6
f 8/8/5 9/33/5 7/34/5
f 43/35/5 7/34/5 9/33/5
f 18/37/4 7/36/4 5/6/4
f 7/36/4 18/37/4 43/38/4
f 5/6/3 7/36/3 18/37/3
f 43/38/3 18/37/3 7/36/3
f 44/11/3 20/10/3 38/9/3
f 20/10/3 44/11/3 19/14/3
f 38/9/4 20/10/4 44/11/4
f 19/14/4 44/11/4 20/10/4
f 22/6/6 44/38/6 38/36/6
f 44/38/6 22/6/6 23/37/6
f 38/36/5 44/38/5 22/6/5
f 23/37/5 22/6/5 44/38/5

usemtl stones

f 1/41/5 18/40/5 17/39/5
f 18/40/5 1/41/5 19/42/5
f 17/39/6 18/40/6 1/41/6
f 19/42/6 1/41/6 18/40/6
f 4/39/4 26/42/4 23/40/4
f 26/42/4 4/39/4 28/41/4
f 23/40/3 26/42/3 4/39/3
f 28/41/3 4/39/3 26/42/3
f 30/40/6 33/41/6 34/42/6
f 33/41/6 30/40/6 31/39/6
f 34/42/5 33/41/5 30/40/5
f 31/39/5 30/40/5 33/41/5
f 16/39/3 9/42/3 15/40/3
f 9/42/3 16/39/3 11/41/3
f 15/40/4 9/42/4 16/39/4
f 11/41/4 16/39/4 9/42/4

usemtl bricks

f 37/45/1 33/44/1 31/43/1
f 33/44/1 37/45/1 36/46/1
f 28/47/1 36/46/1 37/45/1
f 28/47/1 16/48/1 36/46/1
f 4/49/1 16/48/1 28/47/1
f 3/50/1 16/48/1 4/49/1
f 35/51/1 16/48/1 3/50/1
f 16/48/1 35/51/1 11/52/1
f 3/50/1 17/53/1 35/51/1
f 17/53/1 3/50/1 1/54/1
f 31/43/2 33/44/2 37/45/2
f 36/46/2 37/45/2 33/44/2
f 37/45/2 36/46/2 28/47/2
f 36/46/2 16/48/2 28/47/2
f 28/47/2 16/48/2 4/49/2
f 4/49/2 16/48/2 3/50/2
f 3/50/2 16/48/2 35/51/2
f 11/52/2 35/51/2 16/48/2
f 35/51/2 17/53/2 3/50/2
f 1/54/2 3/50/2 17/53/2
f 42/57/2 30/56/2 34/55/2
f 30/56/2 42/57/2 41/58/2
f 15/59/2 41/58/2 42/57/2
f 15/59/2 26/60/2 41/58/2
f 9/61/2 26/60/2 15/59/2
f 43/62/2 26/60/2 9/61/2
f 44/63/2 26/60/2 43/62/2
f 26/60/2 44/63/2 23/64/2
f 18/65/2 44/63/2 43/62/2
f 44/63/2 18/65/2 19/66/2
f 34/55/1 30/56/1 42/57/1
f 41/58/1 42/57/1 30/56/1
f 42/57/1 41/58/1 15/59/1
f 41/58/1 26/60/1 15/59/1
f 15/59/1 26/60/1 9/61/1
f 9/61/1 26/60/1 43/62/1
f 43/62/1 26/60/1 44/63/1
f 23/64/1 44/63/1 26/60/1
f 43/62/1 44/63/1 18/65/1
f 19/66/1 18/65/1 44/63/1

