# Created by Kenney (www.kenney.nl)

mtllib structure-cross.mtl

g structure-cross

v -0.5 0.2 -0.4 1 1 1
v -0.5 0.7 -0.4 1 1 1
v -0.5 0.3 -0.4 1 1 1
v -0.5 0 -0.5 1 1 1
v -0.4 0 -0.5 1 1 1
v -0.5 1 -0.5 1 1 1
v -0.4 0.2 -0.5 1 1 1
v -0.4 0.3 -0.5 1 1 1
v -0.4 0.7 -0.5 1 1 1
v -0.4 0.8 -0.5 1 1 1
v -0.4 1 -0.5 1 1 1
v -0.4 0 -0.4 1 1 1
v -0.5 0 -0.4 1 1 1
v -0.4 1 -0.4 1 1 1
v -0.5 0.8 -0.4 1 1 1
v -0.5 1 -0.4 1 1 1
v 0.5 0.2 0.4 1 1 1
v 0.5 0 0.4 1 1 1
v 0.5 0.3 0.4 1 1 1
v 0.5 0.8 0.4 1 1 1
v 0.5 0.7 0.4 1 1 1
v 0.4 0.8 0.5 1 1 1
v 0.4 0.7 0.5 1 1 1
v 0.4 1 0.5 1 1 1
v 0.5 1 0.4 1 1 1
v 0.5 1 0.5 1 1 1
v 0.5 0 0.5 1 1 1
v 0.4 0 0.4 1 1 1
v 0.4 0 0.5 1 1 1
v 0.4 1 0.4 1 1 1
v 0.4 0.2 0.5 1 1 1
v 0.4 0.3 0.5 1 1 1
v 0.5 0.8 -0.4 1 1 1
v 0.5 1 -0.4 1 1 1
v 0.5 0.7 -0.4 1 1 1
v 0.4 0 -0.5 1 1 1
v 0.5 0 -0.5 1 1 1
v 0.4 0.2 -0.5 1 1 1
v 0.5 1 -0.5 1 1 1
v 0.4 0.3 -0.5 1 1 1
v 0.4 0.7 -0.5 1 1 1
v 0.4 0.8 -0.5 1 1 1
v 0.4 1 -0.5 1 1 1
v 0.5 0 -0.4 1 1 1
v 0.4 0 -0.4 1 1 1
v 0.5 0.2 -0.4 1 1 1
v 0.4 1 -0.4 1 1 1
v 0.5 0.3 -0.4 1 1 1
v -0.5 0.2 0.4 1 1 1
v -0.5 0.3 0.4 1 1 1
v -0.5 0 0.4 1 1 1
v -0.4 0.3 0.5 1 1 1
v -0.4 0.7 0.5 1 1 1
v -0.4 0.2 0.5 1 1 1
v -0.4 0 0.4 1 1 1
v -0.4 1 0.4 1 1 1
v -0.5 0.7 0.4 1 1 1
v -0.5 0.8 0.4 1 1 1
v -0.5 1 0.4 1 1 1
v -0.5 0 0.5 1 1 1
v -0.5 1 0.5 1 1 1
v -0.4 0 0.5 1 1 1
v -0.4 0.8 0.5 1 1 1
v -0.4 1 0.5 1 1 1
v 0.4697297 0.02254816 -0.45 1 1 1
v 0.5 0.1289384 -0.45 1 1 1
v -0.5 0.8710616 -0.45 1 1 1
v -0.4697296 0.9774519 -0.45 1 1 1
v -0.45 0.02254816 -0.4697297 1 1 1
v -0.45 0.1289384 -0.5000001 1 1 1
v -0.4499999 0.8710616 0.5000001 1 1 1
v -0.4499999 0.9774519 0.4697297 1 1 1
v -0.4697297 0.02254816 0.45 1 1 1
v -0.5 0.1289384 0.45 1 1 1
v 0.5 0.8710616 0.45 1 1 1
v 0.4697296 0.9774519 0.45 1 1 1
v 0.4499999 0.02254816 0.4697297 1 1 1
v 0.4499999 0.1289384 0.5000001 1 1 1
v 0.45 0.8710616 -0.5000001 1 1 1
v 0.45 0.9774519 -0.4697297 1 1 1
v 0.4 0 -0.45 1 1 1
v 0.4 0.05 -0.45 1 1 1
v -0.4 1.685899E-08 -0.45 1 1 1
v -0.4 0.05000002 -0.45 1 1 1
v 0.4 0.9499999 -0.45 1 1 1
v 0.4 1 -0.45 1 1 1
v -0.4 0.95 -0.45 1 1 1
v -0.4 1 -0.45 1 1 1
v -0.45 -1.685899E-08 -0.4000001 1 1 1
v -0.45 0.04999998 -0.4000001 1 1 1
v -0.4499999 0 0.4000001 1 1 1
v -0.4499999 0.05 0.4000001 1 1 1
v -0.45 0.9499999 -0.4000001 1 1 1
v -0.45 1 -0.4000001 1 1 1
v -0.4499999 0.95 0.4000001 1 1 1
v -0.4499999 1 0.4000001 1 1 1
v 0.4499999 -1.685899E-08 -0.4000001 1 1 1
v 0.4499999 0.04999998 -0.4000001 1 1 1
v 0.45 0 0.4000001 1 1 1
v 0.45 0.05 0.4000001 1 1 1
v 0.4499999 0.9499999 -0.4000001 1 1 1
v 0.4499999 1 -0.4000001 1 1 1
v 0.45 0.95 0.4000001 1 1 1
v 0.45 1 0.4000001 1 1 1
v 0.4 -1.685899E-08 0.45 1 1 1
v 0.4 0.04999998 0.45 1 1 1
v -0.4 0 0.45 1 1 1
v -0.4 0.05 0.45 1 1 1
v 0.4 0.9499999 0.45 1 1 1
v 0.4 1 0.45 1 1 1
v -0.4 0.95 0.45 1 1 1
v -0.4 1 0.45 1 1 1

vn -1 0 0
vn 1 0 0
vn 0 0 -1
vn 0 0 1
vn 0 -1 0
vn 0 1 0
vn -1 0 1.192093E-07
vn 1 0 -1.192093E-07
vn -1.490266E-08 0 1
vn 1.490266E-08 0 -1
vn 1 0 1.192093E-07
vn -1 0 -1.192093E-07

vt 1.888111 -1.223758
vt 1.88811 -1.783161
vt 1.888111 -1.335639
vt 1.888113 -0.9999968
vt 1.999993 -0.9999967
vt 1.888111 -2.118803
vt 1.999993 -1.223758
vt 1.999993 -1.335638
vt 1.999992 -1.783161
vt 1.999992 -1.895041
vt 1.999992 -2.118803
vt 2 -0.8881186
vt 2 -1
vt 1.888119 -0.8881186
vt 1.888119 -1
vt 1.88811 -2.118803
vt 1.888111 -1.895042
vt 1.999991 -2.118803
vt 1.888111 -1.783161
vt 1.888112 -1.335639
vt 1.888112 -1.223758
vt 1.888112 -0.9999969
vt 1.999993 -0.9999967
vt 1.776238 -0.9999998
vt 1.888119 -1
vt 1.776236 -2.118809
vt 1.888119 -1.223762
vt 1.888118 -1.335643
vt 1.888118 -1.783167
vt 1.888117 -1.895048
vt 1.888117 -2.118809
vt 1.999992 -0.9999967
vt 1.99999 -2.118803
vt 1.888111 -0.9999969
vt 1.888109 -2.118803
vt 1.88811 -1.895042
vt 1.999998 -2.11881
vt 1.999998 -2.230691
vt 1.888117 -2.118809
vt 1.888116 -2.230691
vt 1.888112 -1.223758
vt 1.888112 -0.9999969
vt 1.888112 -1.335639
vt 1.888111 -1.895042
vt 1.888111 -1.783161
vt 1.999998 -1.895048
vt 1.999998 -1.783167
vt 1.999998 -2.11881
vt 1.88811 -2.118803
vt 1.999991 -2.118803
vt 1.999993 -0.9999967
vt 2.111881 -1
vt 2.111879 -2.11881
vt 2 -1
vt 1.999999 -1.223762
vt 1.999999 -1.335643
vt 1.888117 -2.230691
vt 1.888111 -2.118803
vt 1.999993 -1.335638
vt 1.999991 -2.118803
vt 1.999992 -1.895041
vt 1.999992 -2.118803
vt 1.999992 -1.783161
vt 1.888112 -1.223758
vt 1.888112 -1.335639
vt 1.888111 -1.783161
vt 1.888111 -1.895042
vt 2.111881 -1
vt 2 -1.223762
vt 2.111879 -2.11881
vt 2 -1.335643
vt 1.999999 -1.783167
vt 1.999999 -1.895048
vt 1.999998 -2.11881
vt 1.888119 -1
vt 1.888119 -1.223762
vt 1.776238 -0.9999998
vt 1.888119 -1.335643
vt 1.888118 -1.783167
vt 1.888118 -1.895048
vt 1.888117 -2.118809
vt 1.776236 -2.118809
vt 1.888111 -2.118803
vt 1.888113 -0.9999969
vt 1.999993 -1.223758
vt 1.999993 -1.335639
vt 1.999994 -0.9999967
vt 1.999993 -1.223758
vt 1.999993 -1.335638
vt 0.8811867 -0.9999985
vt 0.9930674 -0.9999983
vt 0.8811863 -1.22376
vt 0.9930655 -2.118804
vt 0.8811861 -1.33564
vt 0.8811854 -1.783163
vt 0.8811852 -1.895043
vt 0.8811848 -2.118804
vt 1.888113 -0.9999969
vt 1.999992 -1.895041
vt 1.999993 -1.783161
vt 1.888111 -2.118803
vt 1.999992 -2.118803
vt 1.888112 -1.223758
vt 1.888112 -1.335639
vt 1.888111 -1.783161
vt 0.993069 -0.888119
vt 0.993069 -1
vt 0.881188 -0.888119
vt 0.881188 -1
vt 1.999993 -1.031674
vt 1.888111 -1.863364
vt 1.944053 -0.9999968
vt 1.944052 -1.895041

usemtl planks

f 3/3/1 2/2/1 1/1/1
f 1/1/2 2/2/2 3/3/2
f 6/6/3 5/5/3 4/4/3
f 5/5/3 6/6/3 7/7/3
f 7/7/3 6/6/3 8/8/3
f 8/8/3 6/6/3 9/9/3
f 9/9/3 6/6/3 10/10/3
f 10/10/3 6/6/3 11/11/3
f 4/4/4 5/5/4 6/6/4
f 7/7/4 6/6/4 5/5/4
f 8/8/4 6/6/4 7/7/4
f 9/9/4 6/6/4 8/8/4
f 10/10/4 6/6/4 9/9/4
f 11/11/4 6/6/4 10/10/4
f 13/14/5 5/13/5 12/12/5
f 5/13/5 13/14/5 4/15/5
f 12/12/6 5/13/6 13/14/6
f 4/15/6 13/14/6 5/13/6
f 14/18/2 10/17/2 11/16/2
f 10/17/2 14/18/2 9/19/2
f 9/19/2 14/18/2 8/20/2
f 8/20/2 14/18/2 7/21/2
f 7/21/2 14/18/2 5/22/2
f 5/22/2 14/18/2 12/23/2
f 11/16/1 10/17/1 14/18/1
f 9/19/1 14/18/1 10/17/1
f 8/20/1 14/18/1 9/19/1
f 7/21/1 14/18/1 8/20/1
f 5/22/1 14/18/1 7/21/1
f 12/23/1 14/18/1 5/22/1
f 14/26/4 13/25/4 12/24/4
f 13/25/4 14/26/4 1/27/4
f 1/27/4 14/26/4 3/28/4
f 3/28/4 14/26/4 2/29/4
f 2/29/4 14/26/4 15/30/4
f 15/30/4 14/26/4 16/31/4
f 12/24/3 13/25/3 14/26/3
f 1/27/3 14/26/3 13/25/3
f 3/28/3 14/26/3 1/27/3
f 2/29/3 14/26/3 3/28/3
f 15/30/3 14/26/3 2/29/3
f 16/31/3 14/26/3 15/30/3
f 13/34/1 6/33/1 4/32/1
f 6/33/1 13/34/1 1/1/1
f 2/2/1 6/33/1 1/1/1
f 6/33/1 2/2/1 16/35/1
f 16/35/1 2/2/1 15/36/1
f 4/32/2 6/33/2 13/34/2
f 1/1/2 13/34/2 6/33/2
f 1/1/2 6/33/2 2/2/2
f 16/35/2 2/2/2 6/33/2
f 15/36/2 2/2/2 16/35/2
f 6/39/6 14/38/6 11/37/6
f 14/38/6 6/39/6 16/40/6
f 11/37/5 14/38/5 6/39/5
f 16/40/5 6/39/5 14/38/5
f 19/43/2 18/42/2 17/41/2
f 19/43/2 21/45/2 20/44/2
f 17/41/1 18/42/1 19/43/1
f 20/44/1 21/45/1 19/43/1
f 24/48/1 23/47/1 22/46/1
f 22/46/2 23/47/2 24/48/2
f 26/50/2 20/44/2 25/49/2
f 20/44/2 26/50/2 19/43/2
f 27/51/2 19/43/2 26/50/2
f 18/42/2 19/43/2 27/51/2
f 25/49/1 20/44/1 26/50/1
f 19/43/1 26/50/1 20/44/1
f 26/50/1 19/43/1 27/51/1
f 27/51/1 19/43/1 18/42/1
f 27/12/5 28/15/5 18/13/5
f 28/15/5 27/12/5 29/14/5
f 18/13/6 28/15/6 27/12/6
f 29/14/6 27/12/6 28/15/6
f 29/54/1 30/53/1 28/52/1
f 30/53/1 29/54/1 24/48/1
f 24/48/1 29/54/1 31/55/1
f 24/48/1 31/55/1 32/56/1
f 24/48/1 32/56/1 23/47/1
f 28/52/2 30/53/2 29/54/2
f 24/48/2 29/54/2 30/53/2
f 31/55/2 29/54/2 24/48/2
f 32/56/2 31/55/2 24/48/2
f 23/47/2 32/56/2 24/48/2
f 30/57/6 26/37/6 25/39/6
f 26/37/6 30/57/6 24/38/6
f 25/39/5 26/37/5 30/57/5
f 24/38/5 30/57/5 26/37/5
f 30/58/3 18/5/3 28/4/3
f 18/5/3 30/58/3 17/7/3
f 17/7/3 30/58/3 19/59/3
f 19/59/3 30/58/3 21/9/3
f 21/9/3 30/58/3 20/10/3
f 20/10/3 30/58/3 25/60/3
f 28/4/4 18/5/4 30/58/4
f 17/7/4 30/58/4 18/5/4
f 19/59/4 30/58/4 17/7/4
f 21/9/4 30/58/4 19/59/4
f 20/10/4 30/58/4 21/9/4
f 25/60/4 30/58/4 20/10/4
f 26/6/4 29/5/4 27/4/4
f 29/5/4 26/6/4 31/7/4
f 31/7/4 26/6/4 32/59/4
f 32/59/4 26/6/4 23/9/4
f 23/9/4 26/6/4 22/10/4
f 22/10/4 26/6/4 24/11/4
f 27/4/3 29/5/3 26/6/3
f 31/7/3 26/6/3 29/5/3
f 32/59/3 26/6/3 31/7/3
f 23/9/3 26/6/3 32/59/3
f 22/10/3 26/6/3 23/9/3
f 24/11/3 26/6/3 22/10/3
f 35/63/2 34/62/2 33/61/2
f 33/61/1 34/62/1 35/63/1
f 38/64/3 37/5/3 36/4/3
f 37/5/3 38/64/3 39/11/3
f 39/11/3 38/64/3 40/65/3
f 39/11/3 40/65/3 41/66/3
f 39/11/3 41/66/3 42/67/3
f 39/11/3 42/67/3 43/6/3
f 36/4/4 37/5/4 38/64/4
f 39/11/4 38/64/4 37/5/4
f 40/65/4 38/64/4 39/11/4
f 41/66/4 40/65/4 39/11/4
f 42/67/4 41/66/4 39/11/4
f 43/6/4 42/67/4 39/11/4
f 45/14/5 37/13/5 44/12/5
f 37/13/5 45/14/5 36/15/5
f 44/12/6 37/13/6 45/14/6
f 36/15/6 45/14/6 37/13/6
f 46/69/4 45/68/4 44/13/4
f 45/68/4 46/69/4 47/70/4
f 47/70/4 46/69/4 48/71/4
f 47/70/4 48/71/4 35/72/4
f 47/70/4 35/72/4 33/73/4
f 47/70/4 33/73/4 34/74/4
f 44/13/3 45/68/3 46/69/3
f 47/70/3 46/69/3 45/68/3
f 48/71/3 46/69/3 47/70/3
f 35/72/3 48/71/3 47/70/3
f 33/73/3 35/72/3 47/70/3
f 34/74/3 33/73/3 47/70/3
f 39/37/6 47/57/6 34/38/6
f 47/57/6 39/37/6 43/39/6
f 34/38/5 47/57/5 39/37/5
f 43/39/5 39/37/5 47/57/5
f 45/77/1 38/76/1 36/75/1
f 38/76/1 45/77/1 40/78/1
f 40/78/1 45/77/1 41/79/1
f 41/79/1 45/77/1 42/80/1
f 42/80/1 45/77/1 43/81/1
f 43/81/1 45/77/1 47/82/1
f 36/75/2 38/76/2 45/77/2
f 40/78/2 45/77/2 38/76/2
f 41/79/2 45/77/2 40/78/2
f 42/80/2 45/77/2 41/79/2
f 43/81/2 45/77/2 42/80/2
f 47/82/2 45/77/2 43/81/2
f 34/62/2 37/84/2 39/83/2
f 37/84/2 34/62/2 35/63/2
f 46/85/2 37/84/2 35/63/2
f 48/86/2 46/85/2 35/63/2
f 37/84/2 46/85/2 44/87/2
f 39/83/1 37/84/1 34/62/1
f 35/63/1 34/62/1 37/84/1
f 35/63/1 37/84/1 46/85/1
f 35/63/1 46/85/1 48/86/1
f 44/87/1 46/85/1 37/84/1
f 51/87/1 50/89/1 49/88/1
f 49/88/2 50/89/2 51/87/2
f 54/88/2 53/63/2 52/86/2
f 52/86/1 53/63/1 54/88/1
f 49/92/3 55/91/3 51/90/3
f 55/91/3 49/92/3 56/93/3
f 56/93/3 49/92/3 50/94/3
f 56/93/3 50/94/3 57/95/3
f 56/93/3 57/95/3 58/96/3
f 56/93/3 58/96/3 59/97/3
f 51/90/4 55/91/4 49/92/4
f 56/93/4 49/92/4 55/91/4
f 50/94/4 49/92/4 56/93/4
f 57/95/4 50/94/4 56/93/4
f 58/96/4 57/95/4 56/93/4
f 59/97/4 58/96/4 56/93/4
f 50/89/1 51/87/1 60/98/1
f 50/89/1 60/98/1 58/99/1
f 58/99/1 57/100/1 50/89/1
f 61/101/1 58/99/1 60/98/1
f 58/99/1 61/101/1 59/102/1
f 60/98/2 51/87/2 50/89/2
f 58/99/2 60/98/2 50/89/2
f 50/89/2 57/100/2 58/99/2
f 60/98/2 58/99/2 61/101/2
f 59/102/2 61/101/2 58/99/2
f 54/103/4 60/5/4 62/4/4
f 60/5/4 54/103/4 61/11/4
f 61/11/4 54/103/4 52/104/4
f 61/11/4 52/104/4 53/105/4
f 61/11/4 53/105/4 63/67/4
f 61/11/4 63/67/4 64/6/4
f 62/4/3 60/5/3 54/103/3
f 61/11/3 54/103/3 60/5/3
f 52/104/3 54/103/3 61/11/3
f 53/105/3 52/104/3 61/11/3
f 63/67/3 53/105/3 61/11/3
f 64/6/3 63/67/3 61/11/3
f 64/62/2 55/98/2 56/83/2
f 55/98/2 64/62/2 63/61/2
f 54/88/2 55/98/2 63/61/2
f 54/88/2 63/61/2 53/63/2
f 55/98/2 54/88/2 62/87/2
f 56/83/1 55/98/1 64/62/1
f 63/61/1 64/62/1 55/98/1
f 63/61/1 55/98/1 54/88/1
f 62/87/1 54/88/1 55/98/1
f 53/63/1 63/61/1 54/88/1
f 60/108/5 55/107/5 62/106/5
f 55/107/5 60/108/5 51/109/5
f 62/106/6 55/107/6 60/108/6
f 51/109/6 60/108/6 55/107/6
f 59/37/6 64/57/6 56/38/6
f 64/57/6 59/37/6 61/39/6
f 56/38/5 64/57/5 59/37/5
f 61/39/5 59/37/5 64/57/5
f 67/111/3 66/110/3 65/4/3
f 66/110/3 67/111/3 68/10/3
f 65/4/4 66/110/4 67/111/4
f 68/10/4 67/111/4 66/110/4
f 71/111/7 70/110/7 69/4/7
f 70/110/7 71/111/7 72/10/7
f 69/4/8 70/110/8 71/111/8
f 72/10/8 71/111/8 70/110/8
f 75/111/9 74/110/9 73/4/9
f 74/110/9 75/111/9 76/10/9
f 73/4/10 74/110/10 75/111/10
f 76/10/10 75/111/10 74/110/10
f 79/111/11 78/110/11 77/4/11
f 78/110/11 79/111/11 80/10/11
f 77/4/12 78/110/12 79/111/12
f 80/10/12 79/111/12 78/110/12
f 83/113/3 82/5/3 81/112/3
f 82/5/3 83/113/3 84/10/3
f 81/112/4 82/5/4 83/113/4
f 84/10/4 83/113/4 82/5/4
f 87/67/3 86/112/3 85/4/3
f 86/112/3 87/67/3 88/113/3
f 85/4/4 86/112/4 87/67/4
f 88/113/4 87/67/4 86/112/4
f 91/113/7 90/5/7 89/112/7
f 90/5/7 91/113/7 92/10/7
f 89/112/8 90/5/8 91/113/8
f 92/10/8 91/113/8 90/5/8
f 95/67/7 94/112/7 93/4/7
f 94/112/7 95/67/7 96/113/7
f 93/4/8 94/112/8 95/67/8
f 96/113/8 95/67/8 94/112/8
f 99/113/7 98/5/7 97/112/7
f 98/5/7 99/113/7 100/10/7
f 97/112/8 98/5/8 99/113/8
f 100/10/8 99/113/8 98/5/8
f 103/67/7 102/112/7 101/4/7
f 102/112/7 103/67/7 104/113/7
f 101/4/8 102/112/8 103/67/8
f 104/113/8 103/67/8 102/112/8
f 107/113/3 106/5/3 105/112/3
f 106/5/3 107/113/3 108/10/3
f 105/112/4 106/5/4 107/113/4
f 108/10/4 107/113/4 106/5/4
f 111/67/3 110/112/3 109/4/3
f 110/112/3 111/67/3 112/113/3
f 109/4/4 110/112/4 111/67/4
f 112/113/4 111/67/4 110/112/4

g structure-cross




usemtl planks

f 3/3/1 2/2/1 1/1/1
f 1/1/2 2/2/2 3/3/2
f 6/6/3 5/5/3 4/4/3
f 5/5/3 6/6/3 7/7/3
f 7/7/3 6/6/3 8/8/3
f 8/8/3 6/6/3 9/9/3
f 9/9/3 6/6/3 10/10/3
f 10/10/3 6/6/3 11/11/3
f 4/4/4 5/5/4 6/6/4
f 7/7/4 6/6/4 5/5/4
f 8/8/4 6/6/4 7/7/4
f 9/9/4 6/6/4 8/8/4
f 10/10/4 6/6/4 9/9/4
f 11/11/4 6/6/4 10/10/4
f 13/14/5 5/13/5 12/12/5
f 5/13/5 13/14/5 4/15/5
f 12/12/6 5/13/6 13/14/6
f 4/15/6 13/14/6 5/13/6
f 14/18/2 10/17/2 11/16/2
f 10/17/2 14/18/2 9/19/2
f 9/19/2 14/18/2 8/20/2
f 8/20/2 14/18/2 7/21/2
f 7/21/2 14/18/2 5/22/2
f 5/22/2 14/18/2 12/23/2
f 11/16/1 10/17/1 14/18/1
f 9/19/1 14/18/1 10/17/1
f 8/20/1 14/18/1 9/19/1
f 7/21/1 14/18/1 8/20/1
f 5/22/1 14/18/1 7/21/1
f 12/23/1 14/18/1 5/22/1
f 14/26/4 13/25/4 12/24/4
f 13/25/4 14/26/4 1/27/4
f 1/27/4 14/26/4 3/28/4
f 3/28/4 14/26/4 2/29/4
f 2/29/4 14/26/4 15/30/4
f 15/30/4 14/26/4 16/31/4
f 12/24/3 13/25/3 14/26/3
f 1/27/3 14/26/3 13/25/3
f 3/28/3 14/26/3 1/27/3
f 2/29/3 14/26/3 3/28/3
f 15/30/3 14/26/3 2/29/3
f 16/31/3 14/26/3 15/30/3
f 13/34/1 6/33/1 4/32/1
f 6/33/1 13/34/1 1/1/1
f 2/2/1 6/33/1 1/1/1
f 6/33/1 2/2/1 16/35/1
f 16/35/1 2/2/1 15/36/1
f 4/32/2 6/33/2 13/34/2
f 1/1/2 13/34/2 6/33/2
f 1/1/2 6/33/2 2/2/2
f 16/35/2 2/2/2 6/33/2
f 15/36/2 2/2/2 16/35/2
f 6/39/6 14/38/6 11/37/6
f 14/38/6 6/39/6 16/40/6
f 11/37/5 14/38/5 6/39/5
f 16/40/5 6/39/5 14/38/5
f 19/43/2 18/42/2 17/41/2
f 19/43/2 21/45/2 20/44/2
f 17/41/1 18/42/1 19/43/1
f 20/44/1 21/45/1 19/43/1
f 24/48/1 23/47/1 22/46/1
f 22/46/2 23/47/2 24/48/2
f 26/50/2 20/44/2 25/49/2
f 20/44/2 26/50/2 19/43/2
f 27/51/2 19/43/2 26/50/2
f 18/42/2 19/43/2 27/51/2
f 25/49/1 20/44/1 26/50/1
f 19/43/1 26/50/1 20/44/1
f 26/50/1 19/43/1 27/51/1
f 27/51/1 19/43/1 18/42/1
f 27/12/5 28/15/5 18/13/5
f 28/15/5 27/12/5 29/14/5
f 18/13/6 28/15/6 27/12/6
f 29/14/6 27/12/6 28/15/6
f 29/54/1 30/53/1 28/52/1
f 30/53/1 29/54/1 24/48/1
f 24/48/1 29/54/1 31/55/1
f 24/48/1 31/55/1 32/56/1
f 24/48/1 32/56/1 23/47/1
f 28/52/2 30/53/2 29/54/2
f 24/48/2 29/54/2 30/53/2
f 31/55/2 29/54/2 24/48/2
f 32/56/2 31/55/2 24/48/2
f 23/47/2 32/56/2 24/48/2
f 30/57/6 26/37/6 25/39/6
f 26/37/6 30/57/6 24/38/6
f 25/39/5 26/37/5 30/57/5
f 24/38/5 30/57/5 26/37/5
f 30/58/3 18/5/3 28/4/3
f 18/5/3 30/58/3 17/7/3
f 17/7/3 30/58/3 19/59/3
f 19/59/3 30/58/3 21/9/3
f 21/9/3 30/58/3 20/10/3
f 20/10/3 30/58/3 25/60/3
f 28/4/4 18/5/4 30/58/4
f 17/7/4 30/58/4 18/5/4
f 19/59/4 30/58/4 17/7/4
f 21/9/4 30/58/4 19/59/4
f 20/10/4 30/58/4 21/9/4
f 25/60/4 30/58/4 20/10/4
f 26/6/4 29/5/4 27/4/4
f 29/5/4 26/6/4 31/7/4
f 31/7/4 26/6/4 32/59/4
f 32/59/4 26/6/4 23/9/4
f 23/9/4 26/6/4 22/10/4
f 22/10/4 26/6/4 24/11/4
f 27/4/3 29/5/3 26/6/3
f 31/7/3 26/6/3 29/5/3
f 32/59/3 26/6/3 31/7/3
f 23/9/3 26/6/3 32/59/3
f 22/10/3 26/6/3 23/9/3
f 24/11/3 26/6/3 22/10/3
f 35/63/2 34/62/2 33/61/2
f 33/61/1 34/62/1 35/63/1
f 38/64/3 37/5/3 36/4/3
f 37/5/3 38/64/3 39/11/3
f 39/11/3 38/64/3 40/65/3
f 39/11/3 40/65/3 41/66/3
f 39/11/3 41/66/3 42/67/3
f 39/11/3 42/67/3 43/6/3
f 36/4/4 37/5/4 38/64/4
f 39/11/4 38/64/4 37/5/4
f 40/65/4 38/64/4 39/11/4
f 41/66/4 40/65/4 39/11/4
f 42/67/4 41/66/4 39/11/4
f 43/6/4 42/67/4 39/11/4
f 45/14/5 37/13/5 44/12/5
f 37/13/5 45/14/5 36/15/5
f 44/12/6 37/13/6 45/14/6
f 36/15/6 45/14/6 37/13/6
f 46/69/4 45/68/4 44/13/4
f 45/68/4 46/69/4 47/70/4
f 47/70/4 46/69/4 48/71/4
f 47/70/4 48/71/4 35/72/4
f 47/70/4 35/72/4 33/73/4
f 47/70/4 33/73/4 34/74/4
f 44/13/3 45/68/3 46/69/3
f 47/70/3 46/69/3 45/68/3
f 48/71/3 46/69/3 47/70/3
f 35/72/3 48/71/3 47/70/3
f 33/73/3 35/72/3 47/70/3
f 34/74/3 33/73/3 47/70/3
f 39/37/6 47/57/6 34/38/6
f 47/57/6 39/37/6 43/39/6
f 34/38/5 47/57/5 39/37/5
f 43/39/5 39/37/5 47/57/5
f 45/77/1 38/76/1 36/75/1
f 38/76/1 45/77/1 40/78/1
f 40/78/1 45/77/1 41/79/1
f 41/79/1 45/77/1 42/80/1
f 42/80/1 45/77/1 43/81/1
f 43/81/1 45/77/1 47/82/1
f 36/75/2 38/76/2 45/77/2
f 40/78/2 45/77/2 38/76/2
f 41/79/2 45/77/2 40/78/2
f 42/80/2 45/77/2 41/79/2
f 43/81/2 45/77/2 42/80/2
f 47/82/2 45/77/2 43/81/2
f 34/62/2 37/84/2 39/83/2
f 37/84/2 34/62/2 35/63/2
f 46/85/2 37/84/2 35/63/2
f 48/86/2 46/85/2 35/63/2
f 37/84/2 46/85/2 44/87/2
f 39/83/1 37/84/1 34/62/1
f 35/63/1 34/62/1 37/84/1
f 35/63/1 37/84/1 46/85/1
f 35/63/1 46/85/1 48/86/1
f 44/87/1 46/85/1 37/84/1
f 51/87/1 50/89/1 49/88/1
f 49/88/2 50/89/2 51/87/2
f 54/88/2 53/63/2 52/86/2
f 52/86/1 53/63/1 54/88/1
f 49/92/3 55/91/3 51/90/3
f 55/91/3 49/92/3 56/93/3
f 56/93/3 49/92/3 50/94/3
f 56/93/3 50/94/3 57/95/3
f 56/93/3 57/95/3 58/96/3
f 56/93/3 58/96/3 59/97/3
f 51/90/4 55/91/4 49/92/4
f 56/93/4 49/92/4 55/91/4
f 50/94/4 49/92/4 56/93/4
f 57/95/4 50/94/4 56/93/4
f 58/96/4 57/95/4 56/93/4
f 59/97/4 58/96/4 56/93/4
f 50/89/1 51/87/1 60/98/1
f 50/89/1 60/98/1 58/99/1
f 58/99/1 57/100/1 50/89/1
f 61/101/1 58/99/1 60/98/1
f 58/99/1 61/101/1 59/102/1
f 60/98/2 51/87/2 50/89/2
f 58/99/2 60/98/2 50/89/2
f 50/89/2 57/100/2 58/99/2
f 60/98/2 58/99/2 61/101/2
f 59/102/2 61/101/2 58/99/2
f 54/103/4 60/5/4 62/4/4
f 60/5/4 54/103/4 61/11/4
f 61/11/4 54/103/4 52/104/4
f 61/11/4 52/104/4 53/105/4
f 61/11/4 53/105/4 63/67/4
f 61/11/4 63/67/4 64/6/4
f 62/4/3 60/5/3 54/103/3
f 61/11/3 54/103/3 60/5/3
f 52/104/3 54/103/3 61/11/3
f 53/105/3 52/104/3 61/11/3
f 63/67/3 53/105/3 61/11/3
f 64/6/3 63/67/3 61/11/3
f 64/62/2 55/98/2 56/83/2
f 55/98/2 64/62/2 63/61/2
f 54/88/2 55/98/2 63/61/2
f 54/88/2 63/61/2 53/63/2
f 55/98/2 54/88/2 62/87/2
f 56/83/1 55/98/1 64/62/1
f 63/61/1 64/62/1 55/98/1
f 63/61/1 55/98/1 54/88/1
f 62/87/1 54/88/1 55/98/1
f 53/63/1 63/61/1 54/88/1
f 60/108/5 55/107/5 62/106/5
f 55/107/5 60/108/5 51/109/5
f 62/106/6 55/107/6 60/108/6
f 51/109/6 60/108/6 55/107/6
f 59/37/6 64/57/6 56/38/6
f 64/57/6 59/37/6 61/39/6
f 56/38/5 64/57/5 59/37/5
f 61/39/5 59/37/5 64/57/5
f 67/111/3 66/110/3 65/4/3
f 66/110/3 67/111/3 68/10/3
f 65/4/4 66/110/4 67/111/4
f 68/10/4 67/111/4 66/110/4
f 71/111/7 70/110/7 69/4/7
f 70/110/7 71/111/7 72/10/7
f 69/4/8 70/110/8 71/111/8
f 72/10/8 71/111/8 70/110/8
f 75/111/9 74/110/9 73/4/9
f 74/110/9 75/111/9 76/10/9
f 73/4/10 74/110/10 75/111/10
f 76/10/10 75/111/10 74/110/10
f 79/111/11 78/110/11 77/4/11
f 78/110/11 79/111/11 80/10/11
f 77/4/12 78/110/12 79/111/12
f 80/10/12 79/111/12 78/110/12
f 83/113/3 82/5/3 81/112/3
f 82/5/3 83/113/3 84/10/3
f 81/112/4 82/5/4 83/113/4
f 84/10/4 83/113/4 82/5/4
f 87/67/3 86/112/3 85/4/3
f 86/112/3 87/67/3 88/113/3
f 85/4/4 86/112/4 87/67/4
f 88/113/4 87/67/4 86/112/4
f 91/113/7 90/5/7 89/112/7
f 90/5/7 91/113/7 92/10/7
f 89/112/8 90/5/8 91/113/8
f 92/10/8 91/113/8 90/5/8
f 95/67/7 94/112/7 93/4/7
f 94/112/7 95/67/7 96/113/7
f 93/4/8 94/112/8 95/67/8
f 96/113/8 95/67/8 94/112/8
f 99/113/7 98/5/7 97/112/7
f 98/5/7 99/113/7 100/10/7
f 97/112/8 98/5/8 99/113/8
f 100/10/8 99/113/8 98/5/8
f 103/67/7 102/112/7 101/4/7
f 102/112/7 103/67/7 104/113/7
f 101/4/8 102/112/8 103/67/8
f 104/113/8 103/67/8 102/112/8
f 107/113/3 106/5/3 105/112/3
f 106/5/3 107/113/3 108/10/3
f 105/112/4 106/5/4 107/113/4
f 108/10/4 107/113/4 106/5/4
f 111/67/3 110/112/3 109/4/3
f 110/112/3 111/67/3 112/113/3
f 109/4/4 110/112/4 111/67/4
f 112/113/4 111/67/4 110/112/4

