# Created by Kenney (www.kenney.nl)

mtllib structure-pole.mtl

g structure-pole

v 0.05 1 -0.05 1 1 1
v 0.05 0 -0.05 1 1 1
v 0.05 1 0.05 1 1 1
v 0.05 0 0.05 1 1 1
v -0.05 1 0.05 1 1 1
v -0.05 1 -0.05 1 1 1
v -0.05 0 -0.05 1 1 1
v -0.05 0 0.05 1 1 1

vn 1 0 0
vn -1 0 0
vn 0 1 0
vn 0 -1 0
vn 0 0 1
vn 0 0 -1

vt 1.888111 -2.118803
vt 1.888113 -0.9999968
vt 1.999992 -2.118803
vt 1.999993 -0.9999967
vt 1.999998 -2.230691
vt 1.888117 -2.230691
vt 1.999998 -2.11881
vt 1.888117 -2.118809
vt 1.888119 -1
vt 1.776238 -0.9999998
vt 1.776236 -2.118809
vt 2 -1
vt 2.111881 -1
vt 2.111879 -2.11881
vt 2 -0.8881186
vt 1.888119 -0.8881186

usemtl planks

f 3/3/1 2/2/1 1/1/1
f 2/2/1 3/3/1 4/4/1
f 1/1/2 2/2/2 3/3/2
f 4/4/2 3/3/2 2/2/2
f 1/7/3 5/6/3 3/5/3
f 5/6/3 1/7/3 6/8/3
f 3/5/4 5/6/4 1/7/4
f 6/8/4 1/7/4 5/6/4
f 8/10/2 6/8/2 7/9/2
f 6/8/2 8/10/2 5/11/2
f 7/9/1 6/8/1 8/10/1
f 5/11/1 8/10/1 6/8/1
f 3/7/5 8/13/5 4/12/5
f 8/13/5 3/7/5 5/14/5
f 4/12/6 8/13/6 3/7/6
f 5/14/6 3/7/6 8/13/6
f 8/16/4 2/12/4 4/15/4
f 2/12/4 8/16/4 7/9/4
f 4/15/3 2/12/3 8/16/3
f 7/9/3 8/16/3 2/12/3
f 6/1/6 2/4/6 7/2/6
f 2/4/6 6/1/6 1/3/6
f 7/2/5 2/4/5 6/1/5
f 1/3/5 6/1/5 2/4/5

g structure-pole




usemtl planks

f 3/3/1 2/2/1 1/1/1
f 2/2/1 3/3/1 4/4/1
f 1/1/2 2/2/2 3/3/2
f 4/4/2 3/3/2 2/2/2
f 1/7/3 5/6/3 3/5/3
f 5/6/3 1/7/3 6/8/3
f 3/5/4 5/6/4 1/7/4
f 6/8/4 1/7/4 5/6/4
f 8/10/2 6/8/2 7/9/2
f 6/8/2 8/10/2 5/11/2
f 7/9/1 6/8/1 8/10/1
f 5/11/1 8/10/1 6/8/1
f 3/7/5 8/13/5 4/12/5
f 8/13/5 3/7/5 5/14/5
f 4/12/6 8/13/6 3/7/6
f 5/14/6 3/7/6 8/13/6
f 8/16/4 2/12/4 4/15/4
f 2/12/4 8/16/4 7/9/4
f 4/15/3 2/12/3 8/16/3
f 7/9/3 8/16/3 2/12/3
f 6/1/6 2/4/6 7/2/6
f 2/4/6 6/1/6 1/3/6
f 7/2/5 2/4/5 6/1/5
f 1/3/5 6/1/5 2/4/5

