# Created by Kenney (www.kenney.nl)

mtllib tower-paint-base.mtl

g tower-paint-base

v 0.5 1 0 1 1 1
v 0.3535534 1 0.3535534 1 1 1
v 0.3535534 1 -0.3535534 1 1 1
v 0 1 -0.5 1 1 1
v 0 1 0.5 1 1 1
v -0.3535534 1 -0.3535534 1 1 1
v -0.3535534 1 0.3535534 1 1 1
v -0.5 1 0 1 1 1
v 0.55 0 0 1 1 1
v 0.3889087 0 -0.3889087 1 1 1
v 0.3889087 0 0.3889087 1 1 1
v 0 0 0.55 1 1 1
v 0 0 -0.55 1 1 1
v -0.3889087 0 0.3889087 1 1 1
v -0.3889087 0 -0.3889087 1 1 1
v -0.55 0 0 1 1 1
v 0.3535534 0.4 -0.3535534 1 1 1
v 0 0.4 -0.5 1 1 1
v 0.3889087 0.15 -0.3889087 1 1 1
v 0 0.15 -0.55 1 1 1
v 0.5 0.4 0 1 1 1
v 0.55 0.15 0 1 1 1
v 0.3535534 0.4 0.3535534 1 1 1
v 0.3889087 0.15 0.3889087 1 1 1
v 0 0.4 0.5 1 1 1
v 0 0.15 0.55 1 1 1
v -0.3535534 0.4 0.3535534 1 1 1
v -0.3889087 0.15 0.3889087 1 1 1
v -0.5 0.4 0 1 1 1
v -0.3535534 0.4 -0.3535534 1 1 1
v -0.55 0.15 0 1 1 1
v -0.3889087 0.15 -0.3889087 1 1 1

vn 0 1 0
vn 0 -1 0
vn 0.3826834 0 -0.9238795
vn 0.381012 0.09336083 -0.9198443
vn 0.3811649 0.08899537 -0.9202136
vn -0.381012 -0.09336083 0.9198443
vn -0.3826834 0 0.9238795
vn -0.3811649 -0.08899537 0.9202136
vn 0.9238795 0 -0.3826834
vn 0.9198443 0.09336083 -0.381012
vn 0.9202136 0.08899537 -0.3811649
vn -0.9238795 0 0.3826834
vn -0.9198443 -0.09336083 0.381012
vn -0.9202136 -0.08899537 0.3811649
vn 0.9238795 0 0.3826834
vn 0.9198443 0.09336083 0.381012
vn 0.9202136 0.08899537 0.3811649
vn -0.9238795 0 -0.3826834
vn -0.9198443 -0.09336083 -0.381012
vn -0.9202136 -0.08899537 -0.3811649
vn 0.3826834 0 0.9238795
vn 0.381012 0.09336083 0.9198443
vn 0.3811649 0.08899537 0.9202136
vn -0.381012 -0.09336083 -0.9198443
vn -0.3826834 0 -0.9238795
vn -0.3811649 -0.08899537 -0.9202136
vn -0.381012 0.09336083 0.9198443
vn -0.3811649 0.08899537 0.9202136
vn 0.381012 -0.09336083 -0.9198443
vn 0.3811649 -0.08899537 -0.9202136
vn -0.9198443 0.09336083 -0.381012
vn -0.9202136 0.08899537 -0.3811649
vn 0.9198443 -0.09336083 0.381012
vn 0.9202136 -0.08899537 0.3811649
vn -0.381012 0.09336083 -0.9198443
vn -0.3811649 0.08899537 -0.9202136
vn 0.381012 -0.09336083 0.9198443
vn 0.3811649 -0.08899537 0.9202136
vn -0.9198443 0.09336083 0.381012
vn -0.9202136 0.08899537 0.3811649
vn 0.9198443 -0.09336083 -0.381012
vn 0.9202136 -0.08899537 -0.3811649

vt 1.3 -0.5
vt 1.446447 -0.1464466
vt 1.446447 -0.8535534
vt 1.8 -1
vt 1.8 0
vt 2.153553 -0.8535534
vt 2.153553 -0.1464466
vt 2.3 -0.5
vt -1.3 -0.5
vt -1.446447 -0.8535534
vt -1.446447 -0.1464466
vt -1.8 0
vt -1.8 -1
vt -2.153553 -0.1464466
vt -2.153553 -0.8535534
vt -2.3 -0.5
vt 8.533651 1
vt 8.926351 1
vt 8.533651 0.4
vt 8.926351 0.4
vt 8.514016 0.1391143
vt 8.945985 0.1391143
vt 8.140952 1
vt 8.140952 0.4
vt 8.121317 0.1391143
vt 8.553287 0.1391143
vt 7.748253 1
vt 7.748253 0.4
vt 8.160587 0.1391143
vt 7.728618 0.1391143
vt 7.355554 1
vt 7.355554 0.4
vt 7.335919 0.1391143
vt 7.767888 0.1391143
vt 6.962855 1
vt 6.962855 0.4
vt 6.94322 0.1391143
vt 7.375189 0.1391143
vt 6.570156 1
vt 6.570156 0.4
vt 6.177457 1
vt 6.177457 0.4
vt 6.589791 0.1391143
vt 6.157822 0.1391143
vt 5.784758 1
vt 5.784758 0.4
vt 5.765122 0.1391143
vt 6.197092 0.1391143
vt 6.98249 0.1391143
vt 6.550521 0.1391143
vt 12.43363 0.15
vt 12.43363 9.315381E-18
vt 11.99036 0.15
vt 11.99036 9.315381E-18
vt 13.32018 -1.873545E-30
vt 12.87691 -2.267975E-30
vt 13.32018 0.15
vt 12.87691 0.15
vt 10.21726 -7.888609E-31
vt 9.773983 -9.860761E-31
vt 10.21726 0.15
vt 9.773983 0.15
vt 11.99036 -8.381647E-31
vt 11.54708 -5.916457E-31
vt 11.54708 0.15
vt 12.87691 -2.067805E-18
vt 12.43363 -2.067805E-18
vt 10.66053 -7.888609E-31
vt 10.66053 0.15
vt 11.10381 -7.888609E-31
vt 11.10381 0.15
vt 11.54708 -9.860761E-31
vt 11.10381 -6.902533E-31
vt 10.21726 1.972152E-30
vt 10.66053 5.916457E-31

usemtl bricks

f 3/3/1 2/2/1 1/1/1
f 2/2/1 3/3/1 4/4/1
f 2/2/1 4/4/1 5/5/1
f 5/5/1 4/4/1 6/6/1
f 5/5/1 6/6/1 7/7/1
f 7/7/1 6/6/1 8/8/1
f 1/1/2 2/2/2 3/3/2
f 4/4/2 3/3/2 2/2/2
f 5/5/2 4/4/2 2/2/2
f 6/6/2 4/4/2 5/5/2
f 7/7/2 6/6/2 5/5/2
f 8/8/2 6/6/2 7/7/2
f 11/11/2 10/10/2 9/9/2
f 10/10/2 11/11/2 12/12/2
f 10/10/2 12/12/2 13/13/2
f 13/13/2 12/12/2 14/14/2
f 13/13/2 14/14/2 15/15/2
f 15/15/2 14/14/2 16/16/2
f 9/9/1 10/10/1 11/11/1
f 12/12/1 11/11/1 10/10/1
f 13/13/1 12/12/1 10/10/1
f 14/14/1 12/12/1 13/13/1
f 15/15/1 14/14/1 13/13/1
f 16/16/1 14/14/1 15/15/1

usemtl stonesPainted

f 17/19/4 4/18/3 3/17/3
f 4/18/3 17/19/4 18/20/4
f 19/21/5 18/20/4 17/19/4
f 18/20/4 19/21/5 20/22/5
f 3/17/7 4/18/7 17/19/6
f 18/20/6 17/19/6 4/18/7
f 17/19/6 18/20/6 19/21/8
f 20/22/8 19/21/8 18/20/6
f 1/23/9 17/19/10 3/17/9
f 17/19/10 1/23/9 21/24/10
f 22/25/11 17/19/10 21/24/10
f 17/19/10 22/25/11 19/26/11
f 3/17/12 17/19/13 1/23/12
f 21/24/13 1/23/12 17/19/13
f 21/24/13 17/19/13 22/25/14
f 19/26/14 22/25/14 17/19/13
f 2/27/15 21/24/16 1/23/15
f 21/24/16 2/27/15 23/28/16
f 23/28/16 22/29/17 21/24/16
f 22/29/17 23/28/16 24/30/17
f 1/23/18 21/24/19 2/27/18
f 23/28/19 2/27/18 21/24/19
f 21/24/19 22/29/20 23/28/19
f 24/30/20 23/28/19 22/29/20
f 25/32/22 2/27/21 5/31/21
f 2/27/21 25/32/22 23/28/22
f 26/33/23 23/28/22 25/32/22
f 23/28/22 26/33/23 24/34/23
f 5/31/25 2/27/25 25/32/24
f 23/28/24 25/32/24 2/27/25
f 25/32/24 23/28/24 26/33/26
f 24/34/26 26/33/26 23/28/24
f 27/36/27 5/31/7 7/35/7
f 5/31/7 27/36/27 25/32/27
f 28/37/28 25/32/27 27/36/27
f 25/32/27 28/37/28 26/38/28
f 7/35/3 5/31/3 27/36/29
f 25/32/29 27/36/29 5/31/3
f 27/36/29 25/32/29 28/37/30
f 26/38/30 28/37/30 25/32/29
f 6/41/18 29/40/31 8/39/18
f 29/40/31 6/41/18 30/42/31
f 30/42/31 31/43/32 29/40/31
f 31/43/32 30/42/31 32/44/32
f 8/39/15 29/40/33 6/41/15
f 30/42/33 6/41/15 29/40/33
f 29/40/33 31/43/34 30/42/33
f 32/44/34 30/42/33 31/43/34
f 18/46/35 6/41/25 4/45/25
f 6/41/25 18/46/35 30/42/35
f 20/47/36 30/42/35 18/46/35
f 30/42/35 20/47/36 32/48/36
f 4/45/21 6/41/21 18/46/37
f 30/42/37 18/46/37 6/41/21
f 18/46/37 30/42/37 20/47/38
f 32/48/38 20/47/38 30/42/37
f 8/39/12 27/36/39 7/35/12
f 27/36/39 8/39/12 29/40/39
f 29/40/39 28/49/40 27/36/39
f 28/49/40 29/40/39 31/50/40
f 7/35/9 27/36/41 8/39/9
f 29/40/41 8/39/9 27/36/41
f 27/36/41 28/49/42 29/40/41
f 31/50/42 29/40/41 28/49/42
f 24/53/17 9/52/15 22/51/17
f 9/52/15 24/53/17 11/54/15
f 22/51/20 9/52/18 24/53/20
f 11/54/18 24/53/20 9/52/18
f 20/57/5 10/56/3 13/55/3
f 10/56/3 20/57/5 19/58/5
f 13/55/7 10/56/7 20/57/8
f 19/58/8 20/57/8 10/56/7
f 32/61/36 13/60/25 15/59/25
f 13/60/25 32/61/36 20/62/36
f 15/59/21 13/60/21 32/61/38
f 20/62/38 32/61/38 13/60/21
f 24/53/23 12/64/21 11/63/21
f 12/64/21 24/53/23 26/65/23
f 11/63/25 12/64/25 24/53/26
f 26/65/26 24/53/26 12/64/25
f 22/51/11 10/66/9 19/58/11
f 10/66/9 22/51/11 9/67/9
f 19/58/14 10/66/12 22/51/14
f 9/67/12 22/51/14 10/66/12
f 14/70/12 31/69/40 16/68/12
f 31/69/40 14/70/12 28/71/40
f 16/68/9 31/69/42 14/70/9
f 28/71/42 14/70/9 31/69/42
f 26/65/28 14/73/7 12/72/7
f 14/73/7 26/65/28 28/71/28
f 12/72/3 14/73/3 26/65/30
f 28/71/30 26/65/30 14/73/3
f 16/75/18 32/61/32 15/74/18
f 32/61/32 16/75/18 31/69/32
f 15/74/15 32/61/34 16/75/15
f 31/69/34 16/75/15 32/61/34

g tower-paint-base




usemtl bricks

f 3/3/1 2/2/1 1/1/1
f 2/2/1 3/3/1 4/4/1
f 2/2/1 4/4/1 5/5/1
f 5/5/1 4/4/1 6/6/1
f 5/5/1 6/6/1 7/7/1
f 7/7/1 6/6/1 8/8/1
f 1/1/2 2/2/2 3/3/2
f 4/4/2 3/3/2 2/2/2
f 5/5/2 4/4/2 2/2/2
f 6/6/2 4/4/2 5/5/2
f 7/7/2 6/6/2 5/5/2
f 8/8/2 6/6/2 7/7/2
f 11/11/2 10/10/2 9/9/2
f 10/10/2 11/11/2 12/12/2
f 10/10/2 12/12/2 13/13/2
f 13/13/2 12/12/2 14/14/2
f 13/13/2 14/14/2 15/15/2
f 15/15/2 14/14/2 16/16/2
f 9/9/1 10/10/1 11/11/1
f 12/12/1 11/11/1 10/10/1
f 13/13/1 12/12/1 10/10/1
f 14/14/1 12/12/1 13/13/1
f 15/15/1 14/14/1 13/13/1
f 16/16/1 14/14/1 15/15/1

usemtl stonesPainted

f 17/19/4 4/18/3 3/17/3
f 4/18/3 17/19/4 18/20/4
f 19/21/5 18/20/4 17/19/4
f 18/20/4 19/21/5 20/22/5
f 3/17/7 4/18/7 17/19/6
f 18/20/6 17/19/6 4/18/7
f 17/19/6 18/20/6 19/21/8
f 20/22/8 19/21/8 18/20/6
f 1/23/9 17/19/10 3/17/9
f 17/19/10 1/23/9 21/24/10
f 22/25/11 17/19/10 21/24/10
f 17/19/10 22/25/11 19/26/11
f 3/17/12 17/19/13 1/23/12
f 21/24/13 1/23/12 17/19/13
f 21/24/13 17/19/13 22/25/14
f 19/26/14 22/25/14 17/19/13
f 2/27/15 21/24/16 1/23/15
f 21/24/16 2/27/15 23/28/16
f 23/28/16 22/29/17 21/24/16
f 22/29/17 23/28/16 24/30/17
f 1/23/18 21/24/19 2/27/18
f 23/28/19 2/27/18 21/24/19
f 21/24/19 22/29/20 23/28/19
f 24/30/20 23/28/19 22/29/20
f 25/32/22 2/27/21 5/31/21
f 2/27/21 25/32/22 23/28/22
f 26/33/23 23/28/22 25/32/22
f 23/28/22 26/33/23 24/34/23
f 5/31/25 2/27/25 25/32/24
f 23/28/24 25/32/24 2/27/25
f 25/32/24 23/28/24 26/33/26
f 24/34/26 26/33/26 23/28/24
f 27/36/27 5/31/7 7/35/7
f 5/31/7 27/36/27 25/32/27
f 28/37/28 25/32/27 27/36/27
f 25/32/27 28/37/28 26/38/28
f 7/35/3 5/31/3 27/36/29
f 25/32/29 27/36/29 5/31/3
f 27/36/29 25/32/29 28/37/30
f 26/38/30 28/37/30 25/32/29
f 6/41/18 29/40/31 8/39/18
f 29/40/31 6/41/18 30/42/31
f 30/42/31 31/43/32 29/40/31
f 31/43/32 30/42/31 32/44/32
f 8/39/15 29/40/33 6/41/15
f 30/42/33 6/41/15 29/40/33
f 29/40/33 31/43/34 30/42/33
f 32/44/34 30/42/33 31/43/34
f 18/46/35 6/41/25 4/45/25
f 6/41/25 18/46/35 30/42/35
f 20/47/36 30/42/35 18/46/35
f 30/42/35 20/47/36 32/48/36
f 4/45/21 6/41/21 18/46/37
f 30/42/37 18/46/37 6/41/21
f 18/46/37 30/42/37 20/47/38
f 32/48/38 20/47/38 30/42/37
f 8/39/12 27/36/39 7/35/12
f 27/36/39 8/39/12 29/40/39
f 29/40/39 28/49/40 27/36/39
f 28/49/40 29/40/39 31/50/40
f 7/35/9 27/36/41 8/39/9
f 29/40/41 8/39/9 27/36/41
f 27/36/41 28/49/42 29/40/41
f 31/50/42 29/40/41 28/49/42
f 24/53/17 9/52/15 22/51/17
f 9/52/15 24/53/17 11/54/15
f 22/51/20 9/52/18 24/53/20
f 11/54/18 24/53/20 9/52/18
f 20/57/5 10/56/3 13/55/3
f 10/56/3 20/57/5 19/58/5
f 13/55/7 10/56/7 20/57/8
f 19/58/8 20/57/8 10/56/7
f 32/61/36 13/60/25 15/59/25
f 13/60/25 32/61/36 20/62/36
f 15/59/21 13/60/21 32/61/38
f 20/62/38 32/61/38 13/60/21
f 24/53/23 12/64/21 11/63/21
f 12/64/21 24/53/23 26/65/23
f 11/63/25 12/64/25 24/53/26
f 26/65/26 24/53/26 12/64/25
f 22/51/11 10/66/9 19/58/11
f 10/66/9 22/51/11 9/67/9
f 19/58/14 10/66/12 22/51/14
f 9/67/12 22/51/14 10/66/12
f 14/70/12 31/69/40 16/68/12
f 31/69/40 14/70/12 28/71/40
f 16/68/9 31/69/42 14/70/9
f 28/71/42 14/70/9 31/69/42
f 26/65/28 14/73/7 12/72/7
f 14/73/7 26/65/28 28/71/28
f 12/72/3 14/73/3 26/65/30
f 28/71/30 26/65/30 14/73/3
f 16/75/18 32/61/32 15/74/18
f 32/61/32 16/75/18 31/69/32
f 15/74/15 32/61/34 16/75/15
f 31/69/34 16/75/15 32/61/34

