# Created by Kenney (www.kenney.nl)

mtllib tower-paint.mtl

g tower-paint

v 0.5 0 0 1 1 1
v 0.3535534 0 -0.3535534 1 1 1
v 0.3535534 0 0.3535534 1 1 1
v -1.082867E-15 0 0.5 1 1 1
v -1.082867E-15 0 -0.5 1 1 1
v -0.3535534 0 0.3535534 1 1 1
v -0.3535534 0 -0.3535534 1 1 1
v -0.5 0 0 1 1 1
v 0.5 1 0 1 1 1
v 0.3535534 1 0.3535534 1 1 1
v 0.3535534 1 -0.3535534 1 1 1
v -1.082867E-15 1 -0.5 1 1 1
v -1.082867E-15 1 0.5 1 1 1
v -0.3535534 1 -0.3535534 1 1 1
v -0.3535534 1 0.3535534 1 1 1
v -0.5 1 0 1 1 1

vn 0 -1 0
vn 0 1 0
vn 0.3826834 0 -0.9238795
vn -0.3826834 0 0.9238795
vn 0.9238795 0 -0.3826834
vn -0.9238795 0 0.3826834
vn 0.9238795 0 0.3826834
vn -0.9238795 0 -0.3826834
vn 0.3826834 0 0.9238795
vn -0.3826834 0 -0.9238795

vt -1.3 -0.5
vt -1.446447 -0.8535534
vt -1.446447 -0.1464466
vt -1.8 0
vt -1.8 -1
vt -2.153553 -0.1464466
vt -2.153553 -0.8535534
vt -2.3 -0.5
vt 1.3 -0.5
vt 1.446447 -0.1464466
vt 1.446447 -0.8535534
vt 1.8 -1
vt 1.8 0
vt 2.153553 -0.8535534
vt 2.153553 -0.1464466
vt 2.3 -0.5
vt 2.356194 0
vt 1.963495 0
vt 2.356194 1
vt 1.963495 1
vt 1.570796 1
vt 1.570796 0
vt 1.178097 1
vt 1.178097 0
vt 0.7853982 0
vt 0.7853982 1
vt 0.3926991 0
vt 0.3926991 1
vt 2.748893 0
vt 2.748893 1
vt 3.141593 0
vt 3.141593 1
vt -8.326673E-17 0
vt -8.326673E-17 1

usemtl bricks

f 3/3/1 2/2/1 1/1/1
f 2/2/1 3/3/1 4/4/1
f 2/2/1 4/4/1 5/5/1
f 5/5/1 4/4/1 6/6/1
f 5/5/1 6/6/1 7/7/1
f 7/7/1 6/6/1 8/8/1
f 1/1/2 2/2/2 3/3/2
f 4/4/2 3/3/2 2/2/2
f 5/5/2 4/4/2 2/2/2
f 6/6/2 4/4/2 5/5/2
f 7/7/2 6/6/2 5/5/2
f 8/8/2 6/6/2 7/7/2
f 11/11/2 10/10/2 9/9/2
f 10/10/2 11/11/2 12/12/2
f 10/10/2 12/12/2 13/13/2
f 13/13/2 12/12/2 14/14/2
f 13/13/2 14/14/2 15/15/2
f 15/15/2 14/14/2 16/16/2
f 9/9/1 10/10/1 11/11/1
f 12/12/1 11/11/1 10/10/1
f 13/13/1 12/12/1 10/10/1
f 14/14/1 12/12/1 13/13/1
f 15/15/1 14/14/1 13/13/1
f 16/16/1 14/14/1 15/15/1

usemtl stonesPainted

f 12/19/3 2/18/3 5/17/3
f 2/18/3 12/19/3 11/20/3
f 5/17/4 2/18/4 12/19/4
f 11/20/4 12/19/4 2/18/4
f 9/21/5 2/18/5 11/20/5
f 2/18/5 9/21/5 1/22/5
f 11/20/6 2/18/6 9/21/6
f 1/22/6 9/21/6 2/18/6
f 10/23/7 1/22/7 9/21/7
f 1/22/7 10/23/7 3/24/7
f 9/21/8 1/22/8 10/23/8
f 3/24/8 10/23/8 1/22/8
f 10/23/9 4/25/9 3/24/9
f 4/25/9 10/23/9 13/26/9
f 3/24/10 4/25/10 10/23/10
f 13/26/10 10/23/10 4/25/10
f 13/26/4 6/27/4 4/25/4
f 6/27/4 13/26/4 15/28/4
f 4/25/3 6/27/3 13/26/3
f 15/28/3 13/26/3 6/27/3
f 8/31/8 14/30/8 7/29/8
f 14/30/8 8/31/8 16/32/8
f 7/29/7 14/30/7 8/31/7
f 16/32/7 8/31/7 14/30/7
f 14/30/10 5/17/10 7/29/10
f 5/17/10 14/30/10 12/19/10
f 7/29/9 5/17/9 14/30/9
f 12/19/9 14/30/9 5/17/9
f 6/27/6 16/34/6 8/33/6
f 16/34/6 6/27/6 15/28/6
f 8/33/5 16/34/5 6/27/5
f 15/28/5 6/27/5 16/34/5

g tower-paint




usemtl bricks

f 3/3/1 2/2/1 1/1/1
f 2/2/1 3/3/1 4/4/1
f 2/2/1 4/4/1 5/5/1
f 5/5/1 4/4/1 6/6/1
f 5/5/1 6/6/1 7/7/1
f 7/7/1 6/6/1 8/8/1
f 1/1/2 2/2/2 3/3/2
f 4/4/2 3/3/2 2/2/2
f 5/5/2 4/4/2 2/2/2
f 6/6/2 4/4/2 5/5/2
f 7/7/2 6/6/2 5/5/2
f 8/8/2 6/6/2 7/7/2
f 11/11/2 10/10/2 9/9/2
f 10/10/2 11/11/2 12/12/2
f 10/10/2 12/12/2 13/13/2
f 13/13/2 12/12/2 14/14/2
f 13/13/2 14/14/2 15/15/2
f 15/15/2 14/14/2 16/16/2
f 9/9/1 10/10/1 11/11/1
f 12/12/1 11/11/1 10/10/1
f 13/13/1 12/12/1 10/10/1
f 14/14/1 12/12/1 13/13/1
f 15/15/1 14/14/1 13/13/1
f 16/16/1 14/14/1 15/15/1

usemtl stonesPainted

f 12/19/3 2/18/3 5/17/3
f 2/18/3 12/19/3 11/20/3
f 5/17/4 2/18/4 12/19/4
f 11/20/4 12/19/4 2/18/4
f 9/21/5 2/18/5 11/20/5
f 2/18/5 9/21/5 1/22/5
f 11/20/6 2/18/6 9/21/6
f 1/22/6 9/21/6 2/18/6
f 10/23/7 1/22/7 9/21/7
f 1/22/7 10/23/7 3/24/7
f 9/21/8 1/22/8 10/23/8
f 3/24/8 10/23/8 1/22/8
f 10/23/9 4/25/9 3/24/9
f 4/25/9 10/23/9 13/26/9
f 3/24/10 4/25/10 10/23/10
f 13/26/10 10/23/10 4/25/10
f 13/26/4 6/27/4 4/25/4
f 6/27/4 13/26/4 15/28/4
f 4/25/3 6/27/3 13/26/3
f 15/28/3 13/26/3 6/27/3
f 8/31/8 14/30/8 7/29/8
f 14/30/8 8/31/8 16/32/8
f 7/29/7 14/30/7 8/31/7
f 16/32/7 8/31/7 14/30/7
f 14/30/10 5/17/10 7/29/10
f 5/17/10 14/30/10 12/19/10
f 7/29/9 5/17/9 14/30/9
f 12/19/9 14/30/9 5/17/9
f 6/27/6 16/34/6 8/33/6
f 16/34/6 6/27/6 15/28/6
f 8/33/5 16/34/5 6/27/5
f 15/28/5 6/27/5 16/34/5

