# Created by Kenney (www.kenney.nl)

mtllib wall-fortified-window.mtl

g wall-fortified-window

v 0.5 1 0.4 1 1 1
v 0.5 1 0.5 1 1 1
v 0.4 1 0.4 1 1 1
v 0.4 1 0.5 1 1 1
v 0.4 0 -0.5 1 1 1
v 0.5 0 -0.5 1 1 1
v 0.4 1 -0.5 1 1 1
v 0.5 1 -0.5 1 1 1
v -0.5 0 -0.5 1 1 1
v -0.4 0 -0.5 1 1 1
v -0.5 1 -0.5 1 1 1
v -0.4 1 -0.5 1 1 1
v 0.5 1 -0.4 1 1 1
v 0.5 0 -0.4 1 1 1
v 0.5 0 0.4 1 1 1
v 0.5 0 0.5 1 1 1
v 0.4 0 0.5 1 1 1
v -0.4 0 0.5 1 1 1
v -0.5 0 0.5 1 1 1
v -0.4 1 0.5 1 1 1
v -0.5 1 0.5 1 1 1
v -0.5 0 0.4 1 1 1
v -0.5 1 0.4 1 1 1
v -0.5 0 -0.4 1 1 1
v -0.5 1 -0.4 1 1 1
v 0.4 1 -0.4 1 1 1
v -0.4 1 -0.4 1 1 1
v -0.4 1 0.4 1 1 1
v -0.2 0.3353912 -0.5 1 1 1
v -0.2 0.6646088 -0.5 1 1 1
v 0.2 0.6646088 -0.5 1 1 1
v 0.2 0.3353912 -0.5 1 1 1
v -0.2 0.3353912 -0.45 1 1 1
v 0.2 0.3353912 -0.45 1 1 1
v -0.2 0.6646088 -0.45 1 1 1
v 0.2 0.6646088 -0.45 1 1 1

vn 0 1 0
vn 0 -1 0
vn 0 0 -1
vn 0 0 1
vn 1 0 0
vn -1 0 0
vn -1 0 -2.682116E-07
vn 1 0 2.682116E-07

vt 1.888117 -2.118809
vt 1.999998 -2.11881
vt 1.888117 -2.230691
vt 1.999998 -2.230691
vt 1.888113 -0.9999968
vt 1.999993 -0.9999967
vt 1.888111 -2.118803
vt 1.999992 -2.118803
vt 1.999994 -0.9999967
vt 1.999992 -2.118803
vt 1.888113 -0.9999968
vt 1.888111 -2.118803
vt 1.888116 -2.230691
vt -0.1 1
vt -0.1 0
vt -0.9 1
vt -0.9 0
vt -0.3 0.3353912
vt -0.3 0.6646088
vt -0.7 0.6646088
vt -0.7 0.3353912
vt 1.953993E-14 -0.1
vt 1.44329E-15 -0.9
vt 0 0
vt 0 -1
vt -0.1 2.88658E-15
vt -0.1 -1
vt -0.9 2.309264E-14
vt -0.9 -1
vt -1 0
vt -1 -1
vt -1 -0.1
vt -1 -0.9
vt 1 -0.1
vt 1 -0.9
vt 0.9 -0.1
vt 0.9 -0.9
vt 0.9 2.309264E-14
vt 0.9 -1
vt 0.1 2.88658E-15
vt 0.1 -0.1
vt 0.1 -0.9
vt 0.1 -1
vt -1.44329E-15 -0.9
vt -1.953993E-14 -0.1
vt -3.023511 0.6649238
vt -3.412139 0.6649238
vt -3.023511 0.9847822
vt -3.412139 0.9847822
vt -3.352236 0.2272345
vt -3.352236 0.4693356
vt -3.389005 0.2272345
vt -3.389004 0.4693356
vt -3.046798 1.179796
vt -3.090757 1.179796
vt -3.046798 1.531467
vt -3.090757 1.531467

usemtl planks

f 3/3/1 2/2/1 1/1/1
f 2/2/1 3/3/1 4/4/1
f 1/1/2 2/2/2 3/3/2
f 4/4/2 3/3/2 2/2/2
f 7/7/3 6/6/3 5/5/3
f 6/6/3 7/7/3 8/8/3
f 5/5/4 6/6/4 7/7/4
f 8/8/4 7/7/4 6/6/4
f 11/7/3 10/6/3 9/5/3
f 10/6/3 11/7/3 12/8/3
f 9/5/4 10/6/4 11/7/4
f 12/8/4 11/7/4 10/6/4
f 13/8/5 6/5/5 8/7/5
f 6/5/5 13/8/5 14/6/5
f 8/7/6 6/5/6 13/8/6
f 14/6/6 13/8/6 6/5/6
f 2/8/5 15/5/5 1/7/5
f 15/5/5 2/8/5 16/6/5
f 1/7/6 15/5/6 2/8/6
f 16/6/6 2/8/6 15/5/6
f 2/7/4 17/6/4 16/5/4
f 17/6/4 2/7/4 4/8/4
f 16/5/3 17/6/3 2/7/3
f 4/8/3 2/7/3 17/6/3
f 20/7/4 19/6/4 18/5/4
f 19/6/4 20/7/4 21/8/4
f 18/5/3 19/6/3 20/7/3
f 21/8/3 20/7/3 19/6/3
f 19/5/6 23/8/6 22/6/6
f 23/8/6 19/5/6 21/7/6
f 22/6/5 23/8/5 19/5/5
f 21/7/5 19/5/5 23/8/5
f 24/11/7 11/10/7 9/9/7
f 11/10/7 24/11/7 25/12/7
f 9/9/8 11/10/8 24/11/8
f 25/12/8 24/11/8 11/10/8
f 8/2/1 26/3/1 13/4/1
f 26/3/1 8/2/1 7/1/1
f 13/4/2 26/3/2 8/2/2
f 7/1/2 8/2/2 26/3/2
f 11/1/1 27/4/1 12/2/1
f 27/4/1 11/1/1 25/13/1
f 12/2/2 27/4/2 11/1/2
f 25/13/2 11/1/2 27/4/2
f 23/2/1 20/3/1 28/4/1
f 20/3/1 23/2/1 21/1/1
f 28/4/2 20/3/2 23/2/2
f 21/1/2 23/2/2 20/3/2

usemtl stones

f 1/16/5 14/15/5 13/14/5
f 14/15/5 1/16/5 15/17/5
f 13/14/6 14/15/6 1/16/6
f 15/17/6 1/16/6 14/15/6
f 4/14/4 18/17/4 17/15/4
f 18/17/4 4/14/4 20/16/4
f 17/15/3 18/17/3 4/14/3
f 20/16/3 4/14/3 18/17/3
f 22/15/6 25/16/6 24/17/6
f 25/16/6 22/15/6 23/14/6
f 24/17/5 25/16/5 22/15/5
f 23/14/5 22/15/5 25/16/5
f 30/19/4 12/14/4 29/18/4
f 31/20/4 12/14/4 30/19/4
f 12/14/4 10/15/4 29/18/4
f 12/14/4 31/20/4 7/16/4
f 5/17/4 29/18/4 10/15/4
f 31/20/4 32/21/4 7/16/4
f 29/18/4 5/17/4 32/21/4
f 7/16/4 32/21/4 5/17/4
f 29/18/3 12/14/3 30/19/3
f 30/19/3 12/14/3 31/20/3
f 29/18/3 10/15/3 12/14/3
f 7/16/3 31/20/3 12/14/3
f 10/15/3 29/18/3 5/17/3
f 7/16/3 32/21/3 31/20/3
f 5/17/3 32/21/3 7/16/3
f 32/21/3 5/17/3 29/18/3

usemtl bricks

f 16/24/2 14/23/2 15/22/2
f 14/23/2 16/24/2 6/25/2
f 6/25/2 16/24/2 17/26/2
f 6/25/2 17/26/2 5/27/2
f 5/27/2 17/26/2 18/28/2
f 5/27/2 18/28/2 10/29/2
f 10/29/2 18/28/2 19/30/2
f 10/29/2 19/30/2 9/31/2
f 9/31/2 19/30/2 22/32/2
f 9/31/2 22/32/2 24/33/2
f 15/22/1 14/23/1 16/24/1
f 6/25/1 16/24/1 14/23/1
f 17/26/1 16/24/1 6/25/1
f 5/27/1 17/26/1 6/25/1
f 18/28/1 17/26/1 5/27/1
f 10/29/1 18/28/1 5/27/1
f 19/30/1 18/28/1 10/29/1
f 9/31/1 19/30/1 10/29/1
f 22/32/1 19/30/1 9/31/1
f 24/33/1 22/32/1 9/31/1
f 28/36/1 25/35/1 23/34/1
f 25/35/1 28/36/1 27/37/1
f 20/38/1 27/37/1 28/36/1
f 20/38/1 12/39/1 27/37/1
f 4/40/1 12/39/1 20/38/1
f 3/41/1 12/39/1 4/40/1
f 26/42/1 12/39/1 3/41/1
f 12/39/1 26/42/1 7/43/1
f 3/41/1 13/44/1 26/42/1
f 13/44/1 3/41/1 1/45/1
f 23/34/2 25/35/2 28/36/2
f 27/37/2 28/36/2 25/35/2
f 28/36/2 27/37/2 20/38/2
f 27/37/2 12/39/2 20/38/2
f 20/38/2 12/39/2 4/40/2
f 4/40/2 12/39/2 3/41/2
f 3/41/2 12/39/2 26/42/2
f 7/43/2 26/42/2 12/39/2
f 26/42/2 13/44/2 3/41/2
f 1/45/2 3/41/2 13/44/2

usemtl details

f 35/48/3 34/47/3 33/46/3
f 34/47/3 35/48/3 36/49/3
f 33/46/4 34/47/4 35/48/4
f 36/49/4 35/48/4 34/47/4
f 34/52/6 31/51/6 32/50/6
f 31/51/6 34/52/6 36/53/6
f 32/50/5 31/51/5 34/52/5
f 36/53/5 34/52/5 31/51/5
f 35/56/2 31/55/2 36/54/2
f 31/55/2 35/56/2 30/57/2
f 36/54/1 31/55/1 35/56/1
f 30/57/1 35/56/1 31/55/1
f 29/57/1 34/54/1 32/55/1
f 34/54/1 29/57/1 33/56/1
f 32/55/2 34/54/2 29/57/2
f 33/56/2 29/57/2 34/54/2
f 35/53/5 29/50/5 30/51/5
f 29/50/5 35/53/5 33/52/5
f 30/51/6 29/50/6 35/53/6
f 33/52/6 35/53/6 29/50/6

g wall-fortified-window




usemtl planks

f 3/3/1 2/2/1 1/1/1
f 2/2/1 3/3/1 4/4/1
f 1/1/2 2/2/2 3/3/2
f 4/4/2 3/3/2 2/2/2
f 7/7/3 6/6/3 5/5/3
f 6/6/3 7/7/3 8/8/3
f 5/5/4 6/6/4 7/7/4
f 8/8/4 7/7/4 6/6/4
f 11/7/3 10/6/3 9/5/3
f 10/6/3 11/7/3 12/8/3
f 9/5/4 10/6/4 11/7/4
f 12/8/4 11/7/4 10/6/4
f 13/8/5 6/5/5 8/7/5
f 6/5/5 13/8/5 14/6/5
f 8/7/6 6/5/6 13/8/6
f 14/6/6 13/8/6 6/5/6
f 2/8/5 15/5/5 1/7/5
f 15/5/5 2/8/5 16/6/5
f 1/7/6 15/5/6 2/8/6
f 16/6/6 2/8/6 15/5/6
f 2/7/4 17/6/4 16/5/4
f 17/6/4 2/7/4 4/8/4
f 16/5/3 17/6/3 2/7/3
f 4/8/3 2/7/3 17/6/3
f 20/7/4 19/6/4 18/5/4
f 19/6/4 20/7/4 21/8/4
f 18/5/3 19/6/3 20/7/3
f 21/8/3 20/7/3 19/6/3
f 19/5/6 23/8/6 22/6/6
f 23/8/6 19/5/6 21/7/6
f 22/6/5 23/8/5 19/5/5
f 21/7/5 19/5/5 23/8/5
f 24/11/7 11/10/7 9/9/7
f 11/10/7 24/11/7 25/12/7
f 9/9/8 11/10/8 24/11/8
f 25/12/8 24/11/8 11/10/8
f 8/2/1 26/3/1 13/4/1
f 26/3/1 8/2/1 7/1/1
f 13/4/2 26/3/2 8/2/2
f 7/1/2 8/2/2 26/3/2
f 11/1/1 27/4/1 12/2/1
f 27/4/1 11/1/1 25/13/1
f 12/2/2 27/4/2 11/1/2
f 25/13/2 11/1/2 27/4/2
f 23/2/1 20/3/1 28/4/1
f 20/3/1 23/2/1 21/1/1
f 28/4/2 20/3/2 23/2/2
f 21/1/2 23/2/2 20/3/2

usemtl stones

f 1/16/5 14/15/5 13/14/5
f 14/15/5 1/16/5 15/17/5
f 13/14/6 14/15/6 1/16/6
f 15/17/6 1/16/6 14/15/6
f 4/14/4 18/17/4 17/15/4
f 18/17/4 4/14/4 20/16/4
f 17/15/3 18/17/3 4/14/3
f 20/16/3 4/14/3 18/17/3
f 22/15/6 25/16/6 24/17/6
f 25/16/6 22/15/6 23/14/6
f 24/17/5 25/16/5 22/15/5
f 23/14/5 22/15/5 25/16/5
f 30/19/4 12/14/4 29/18/4
f 31/20/4 12/14/4 30/19/4
f 12/14/4 10/15/4 29/18/4
f 12/14/4 31/20/4 7/16/4
f 5/17/4 29/18/4 10/15/4
f 31/20/4 32/21/4 7/16/4
f 29/18/4 5/17/4 32/21/4
f 7/16/4 32/21/4 5/17/4
f 29/18/3 12/14/3 30/19/3
f 30/19/3 12/14/3 31/20/3
f 29/18/3 10/15/3 12/14/3
f 7/16/3 31/20/3 12/14/3
f 10/15/3 29/18/3 5/17/3
f 7/16/3 32/21/3 31/20/3
f 5/17/3 32/21/3 7/16/3
f 32/21/3 5/17/3 29/18/3

usemtl bricks

f 16/24/2 14/23/2 15/22/2
f 14/23/2 16/24/2 6/25/2
f 6/25/2 16/24/2 17/26/2
f 6/25/2 17/26/2 5/27/2
f 5/27/2 17/26/2 18/28/2
f 5/27/2 18/28/2 10/29/2
f 10/29/2 18/28/2 19/30/2
f 10/29/2 19/30/2 9/31/2
f 9/31/2 19/30/2 22/32/2
f 9/31/2 22/32/2 24/33/2
f 15/22/1 14/23/1 16/24/1
f 6/25/1 16/24/1 14/23/1
f 17/26/1 16/24/1 6/25/1
f 5/27/1 17/26/1 6/25/1
f 18/28/1 17/26/1 5/27/1
f 10/29/1 18/28/1 5/27/1
f 19/30/1 18/28/1 10/29/1
f 9/31/1 19/30/1 10/29/1
f 22/32/1 19/30/1 9/31/1
f 24/33/1 22/32/1 9/31/1
f 28/36/1 25/35/1 23/34/1
f 25/35/1 28/36/1 27/37/1
f 20/38/1 27/37/1 28/36/1
f 20/38/1 12/39/1 27/37/1
f 4/40/1 12/39/1 20/38/1
f 3/41/1 12/39/1 4/40/1
f 26/42/1 12/39/1 3/41/1
f 12/39/1 26/42/1 7/43/1
f 3/41/1 13/44/1 26/42/1
f 13/44/1 3/41/1 1/45/1
f 23/34/2 25/35/2 28/36/2
f 27/37/2 28/36/2 25/35/2
f 28/36/2 27/37/2 20/38/2
f 27/37/2 12/39/2 20/38/2
f 20/38/2 12/39/2 4/40/2
f 4/40/2 12/39/2 3/41/2
f 3/41/2 12/39/2 26/42/2
f 7/43/2 26/42/2 12/39/2
f 26/42/2 13/44/2 3/41/2
f 1/45/2 3/41/2 13/44/2

usemtl details

f 35/48/3 34/47/3 33/46/3
f 34/47/3 35/48/3 36/49/3
f 33/46/4 34/47/4 35/48/4
f 36/49/4 35/48/4 34/47/4
f 34/52/6 31/51/6 32/50/6
f 31/51/6 34/52/6 36/53/6
f 32/50/5 31/51/5 34/52/5
f 36/53/5 34/52/5 31/51/5
f 35/56/2 31/55/2 36/54/2
f 31/55/2 35/56/2 30/57/2
f 36/54/1 31/55/1 35/56/1
f 30/57/1 35/56/1 31/55/1
f 29/57/1 34/54/1 32/55/1
f 34/54/1 29/57/1 33/56/1
f 32/55/2 34/54/2 29/57/2
f 33/56/2 29/57/2 34/54/2
f 35/53/5 29/50/5 30/51/5
f 29/50/5 35/53/5 33/52/5
f 30/51/6 29/50/6 35/53/6
f 33/52/6 35/53/6 29/50/6

