# Created by Kenney (www.kenney.nl)

mtllib wall-pane-paint-window.mtl

g wall-pane-paint-window

v -0.5 0 0 1 1 1
v -0.4 0 0 1 1 1
v -0.5 1 0 1 1 1
v -0.2 0.3353912 0 1 1 1
v 0.4 0 0 1 1 1
v 0.5 0 0 1 1 1
v -0.2 0.6646088 0 1 1 1
v 0.2 0.3353912 0 1 1 1
v 0.2 0.6646088 0 1 1 1
v 0.5 1 0 1 1 1
v 0.2 0.3353912 0.05 1 1 1
v 0.2 0.6646088 0.05 1 1 1
v -0.2 0.3353912 0.05 1 1 1
v -0.2 0.6646088 0.05 1 1 1

vn 0 0 -1
vn 0 0 1
vn -1 0 0
vn 1 0 0
vn 0 1 0
vn 0 -1 0

vt 0.5 0
vt 0.4 0
vt 0.5 1
vt 0.2 0.3353912
vt -0.4 0
vt -0.5 0
vt 0.2 0.6646088
vt -0.2 0.3353912
vt -0.2 0.6646088
vt -0.5 1
vt -3.352236 0.2272345
vt -3.352236 0.4693356
vt -3.389005 0.2272345
vt -3.389004 0.4693356
vt -3.023511 0.6649238
vt -3.412139 0.6649238
vt -3.023511 0.9847822
vt -3.412139 0.9847822
vt -3.090757 1.179796
vt -3.046798 1.179796
vt -3.090757 1.531467
vt -3.046798 1.531467

usemtl stonesPainted

f 3/3/1 2/2/1 1/1/1
f 2/2/1 3/3/1 4/4/1
f 2/2/1 4/4/1 5/5/1
f 5/5/1 4/4/1 6/6/1
f 4/4/1 3/3/1 7/7/1
f 8/8/1 6/6/1 4/4/1
f 7/7/1 3/3/1 9/9/1
f 6/6/1 8/8/1 10/10/1
f 10/10/1 8/8/1 9/9/1
f 10/10/1 9/9/1 3/3/1
f 1/1/2 2/2/2 3/3/2
f 4/4/2 3/3/2 2/2/2
f 5/5/2 4/4/2 2/2/2
f 6/6/2 4/4/2 5/5/2
f 7/7/2 3/3/2 4/4/2
f 4/4/2 6/6/2 8/8/2
f 9/9/2 3/3/2 7/7/2
f 10/10/2 8/8/2 6/6/2
f 3/3/2 9/9/2 10/10/2
f 9/9/2 8/8/2 10/10/2

usemtl details

f 11/13/3 9/12/3 8/11/3
f 9/12/3 11/13/3 12/14/3
f 8/11/4 9/12/4 11/13/4
f 12/14/4 11/13/4 9/12/4
f 14/17/1 11/16/1 13/15/1
f 11/16/1 14/17/1 12/18/1
f 13/15/2 11/16/2 14/17/2
f 12/18/2 14/17/2 11/16/2
f 4/21/5 11/20/5 8/19/5
f 11/20/5 4/21/5 13/22/5
f 8/19/6 11/20/6 4/21/6
f 13/22/6 4/21/6 11/20/6
f 14/22/6 9/19/6 12/20/6
f 9/19/6 14/22/6 7/21/6
f 12/20/5 9/19/5 14/22/5
f 7/21/5 14/22/5 9/19/5
f 14/14/4 4/11/4 7/12/4
f 4/11/4 14/14/4 13/13/4
f 7/12/3 4/11/3 14/14/3
f 13/13/3 14/14/3 4/11/3

g wall-pane-paint-window




usemtl stonesPainted

f 3/3/1 2/2/1 1/1/1
f 2/2/1 3/3/1 4/4/1
f 2/2/1 4/4/1 5/5/1
f 5/5/1 4/4/1 6/6/1
f 4/4/1 3/3/1 7/7/1
f 8/8/1 6/6/1 4/4/1
f 7/7/1 3/3/1 9/9/1
f 6/6/1 8/8/1 10/10/1
f 10/10/1 8/8/1 9/9/1
f 10/10/1 9/9/1 3/3/1
f 1/1/2 2/2/2 3/3/2
f 4/4/2 3/3/2 2/2/2
f 5/5/2 4/4/2 2/2/2
f 6/6/2 4/4/2 5/5/2
f 7/7/2 3/3/2 4/4/2
f 4/4/2 6/6/2 8/8/2
f 9/9/2 3/3/2 7/7/2
f 10/10/2 8/8/2 6/6/2
f 3/3/2 9/9/2 10/10/2
f 9/9/2 8/8/2 10/10/2

usemtl details

f 11/13/3 9/12/3 8/11/3
f 9/12/3 11/13/3 12/14/3
f 8/11/4 9/12/4 11/13/4
f 12/14/4 11/13/4 9/12/4
f 14/17/1 11/16/1 13/15/1
f 11/16/1 14/17/1 12/18/1
f 13/15/2 11/16/2 14/17/2
f 12/18/2 14/17/2 11/16/2
f 4/21/5 11/20/5 8/19/5
f 11/20/5 4/21/5 13/22/5
f 8/19/6 11/20/6 4/21/6
f 13/22/6 4/21/6 11/20/6
f 14/22/6 9/19/6 12/20/6
f 9/19/6 14/22/6 7/21/6
f 12/20/5 9/19/5 14/22/5
f 7/21/5 14/22/5 9/19/5
f 14/14/4 4/11/4 7/12/4
f 4/11/4 14/14/4 13/13/4
f 7/12/3 4/11/3 14/14/3
f 13/13/3 14/14/3 4/11/3

