# Created by Kenney (www.kenney.nl)

mtllib wall-paint-door.mtl

g wall-paint-door

v 0.5 0 0.5 1 1 1
v -0.5 0 0.5 1 1 1
v 0.5 1 0.5 1 1 1
v -0.5 1 0.5 1 1 1
v 0.5 1 -0.5 1 1 1
v 0.5 0 -0.5 1 1 1
v -0.5 0 -0.5 1 1 1
v -0.5 1 -0.5 1 1 1
v -0.2 0 -0.5 1 1 1
v -0.2 0.6 -0.5 1 1 1
v 0.2 0.6 -0.5 1 1 1
v 0.2 0 -0.5 1 1 1
v 0.2 0 -0.45 1 1 1
v -0.2 0 -0.45 1 1 1
v 0.2 0.6 -0.45 1 1 1
v -0.2 0.6 -0.45 1 1 1

vn 0 0 1
vn 0 0 -1
vn 1 0 0
vn -1 0 0
vn 0 1 0
vn 0 -1 0

vt 0.5 0
vt -0.5 0
vt 0.5 1
vt -0.5 1
vt 0.2 0
vt 0.2 0.6
vt -0.2 0.6
vt -0.2 0
vt 0 -1
vt 0 0
vt 1 -1
vt 1 0
vt -1 0
vt -0.3 -0.95
vt -0.3 -1
vt -0.7 -0.95
vt -0.7 -1
vt -1 -1
vt -3.388222 0.5029347
vt -3.351007 0.5029347
vt -3.388222 0.205215
vt -3.351007 0.205215
vt -3.408203 0.04825442
vt -3.019575 0.04825442
vt -3.408203 0.6311969
vt -3.019575 0.6311969
vt -3.089507 0.04026208
vt -3.089507 0.6402596
vt -3.039508 0.04026208
vt -3.039507 0.6402596

usemtl stonesPainted

f 3/3/1 2/2/1 1/1/1
f 2/2/1 3/3/1 4/4/1
f 1/1/2 2/2/2 3/3/2
f 4/4/2 3/3/2 2/2/2
f 3/4/3 6/1/3 5/3/3
f 6/1/3 3/4/3 1/2/3
f 5/3/4 6/1/4 3/4/4
f 1/2/4 3/4/4 6/1/4
f 2/1/4 8/4/4 7/2/4
f 8/4/4 2/1/4 4/3/4
f 7/2/3 8/4/3 2/1/3
f 4/3/3 2/1/3 8/4/3
f 8/3/2 9/5/2 7/1/2
f 9/5/2 8/3/2 10/6/2
f 10/6/2 8/3/2 11/7/2
f 5/4/2 11/7/2 8/3/2
f 6/2/2 11/7/2 5/4/2
f 11/7/2 6/2/2 12/8/2
f 7/1/1 9/5/1 8/3/1
f 10/6/1 8/3/1 9/5/1
f 11/7/1 8/3/1 10/6/1
f 8/3/1 11/7/1 5/4/1
f 5/4/1 11/7/1 6/2/1
f 12/8/1 6/2/1 11/7/1

usemtl bricks

f 8/11/5 3/10/5 5/9/5
f 3/10/5 8/11/5 4/12/5
f 5/9/6 3/10/6 8/11/6
f 4/12/6 8/11/6 3/10/6
f 2/13/6 6/9/6 1/10/6
f 6/9/6 2/13/6 13/14/6
f 12/15/6 6/9/6 13/14/6
f 13/14/6 2/13/6 14/16/6
f 14/16/6 2/13/6 9/17/6
f 9/17/6 2/13/6 7/18/6
f 1/10/5 6/9/5 2/13/5
f 13/14/5 2/13/5 6/9/5
f 13/14/5 6/9/5 12/15/5
f 14/16/5 2/13/5 13/14/5
f 9/17/5 2/13/5 14/16/5
f 7/18/5 2/13/5 9/17/5

usemtl details

f 16/21/6 11/20/6 15/19/6
f 11/20/6 16/21/6 10/22/6
f 15/19/5 11/20/5 16/21/5
f 10/22/5 16/21/5 11/20/5
f 16/25/2 13/24/2 14/23/2
f 13/24/2 16/25/2 15/26/2
f 14/23/1 13/24/1 16/25/1
f 15/26/1 16/25/1 13/24/1
f 13/29/4 11/28/4 12/27/4
f 11/28/4 13/29/4 15/30/4
f 12/27/3 11/28/3 13/29/3
f 15/30/3 13/29/3 11/28/3
f 16/30/3 9/27/3 10/28/3
f 9/27/3 16/30/3 14/29/3
f 10/28/4 9/27/4 16/30/4
f 14/29/4 16/30/4 9/27/4

g wall-paint-door




usemtl stonesPainted

f 3/3/1 2/2/1 1/1/1
f 2/2/1 3/3/1 4/4/1
f 1/1/2 2/2/2 3/3/2
f 4/4/2 3/3/2 2/2/2
f 3/4/3 6/1/3 5/3/3
f 6/1/3 3/4/3 1/2/3
f 5/3/4 6/1/4 3/4/4
f 1/2/4 3/4/4 6/1/4
f 2/1/4 8/4/4 7/2/4
f 8/4/4 2/1/4 4/3/4
f 7/2/3 8/4/3 2/1/3
f 4/3/3 2/1/3 8/4/3
f 8/3/2 9/5/2 7/1/2
f 9/5/2 8/3/2 10/6/2
f 10/6/2 8/3/2 11/7/2
f 5/4/2 11/7/2 8/3/2
f 6/2/2 11/7/2 5/4/2
f 11/7/2 6/2/2 12/8/2
f 7/1/1 9/5/1 8/3/1
f 10/6/1 8/3/1 9/5/1
f 11/7/1 8/3/1 10/6/1
f 8/3/1 11/7/1 5/4/1
f 5/4/1 11/7/1 6/2/1
f 12/8/1 6/2/1 11/7/1

usemtl bricks

f 8/11/5 3/10/5 5/9/5
f 3/10/5 8/11/5 4/12/5
f 5/9/6 3/10/6 8/11/6
f 4/12/6 8/11/6 3/10/6
f 2/13/6 6/9/6 1/10/6
f 6/9/6 2/13/6 13/14/6
f 12/15/6 6/9/6 13/14/6
f 13/14/6 2/13/6 14/16/6
f 14/16/6 2/13/6 9/17/6
f 9/17/6 2/13/6 7/18/6
f 1/10/5 6/9/5 2/13/5
f 13/14/5 2/13/5 6/9/5
f 13/14/5 6/9/5 12/15/5
f 14/16/5 2/13/5 13/14/5
f 9/17/5 2/13/5 14/16/5
f 7/18/5 2/13/5 9/17/5

usemtl details

f 16/21/6 11/20/6 15/19/6
f 11/20/6 16/21/6 10/22/6
f 15/19/5 11/20/5 16/21/5
f 10/22/5 16/21/5 11/20/5
f 16/25/2 13/24/2 14/23/2
f 13/24/2 16/25/2 15/26/2
f 14/23/1 13/24/1 16/25/1
f 15/26/1 16/25/1 13/24/1
f 13/29/4 11/28/4 12/27/4
f 11/28/4 13/29/4 15/30/4
f 12/27/3 11/28/3 13/29/3
f 15/30/3 13/29/3 11/28/3
f 16/30/3 9/27/3 10/28/3
f 9/27/3 16/30/3 14/29/3
f 10/28/4 9/27/4 16/30/4
f 14/29/4 16/30/4 9/27/4

