# Created by Kenney (www.kenney.nl)

mtllib wall-pane-paint.mtl

g wall-pane-paint

v -0.5 0 0 1 1 1
v -0.4 0 0 1 1 1
v -0.5 1 0 1 1 1
v 0.4 0 0 1 1 1
v 0.5 0 0 1 1 1
v 0.5 1 0 1 1 1

vn 0 0 -1
vn 0 0 1

vt 0.5 0
vt 0.4 0
vt 0.5 1
vt -0.4 0
vt -0.5 0
vt -0.5 1

usemtl stonesPainted

f 3/3/1 2/2/1 1/1/1
f 2/2/1 3/3/1 4/4/1
f 4/4/1 3/3/1 5/5/1
f 5/5/1 3/3/1 6/6/1
f 1/1/2 2/2/2 3/3/2
f 4/4/2 3/3/2 2/2/2
f 5/5/2 3/3/2 4/4/2
f 6/6/2 3/3/2 5/5/2

g wall-pane-paint




usemtl stonesPainted

f 3/3/1 2/2/1 1/1/1
f 2/2/1 3/3/1 4/4/1
f 4/4/1 3/3/1 5/5/1
f 5/5/1 3/3/1 6/6/1
f 1/1/2 2/2/2 3/3/2
f 4/4/2 3/3/2 2/2/2
f 5/5/2 3/3/2 4/4/2
f 6/6/2 3/3/2 5/5/2

