# Created by Kenney (www.kenney.nl)

mtllib wall-fortified-gate-half.mtl

g wall-fortified-gate-half

v 0.5 1 0.4 1 1 1
v 0.5 1 0.5 1 1 1
v 0.4 1 0.4 1 1 1
v 0.4 1 0.5 1 1 1
v 0.4 0 -0.5 1 1 1
v 0.5 0 -0.5 1 1 1
v 0.4 1 -0.5 1 1 1
v 0.5 1 -0.5 1 1 1
v -0.5 0.75 -0.5 1 1 1
v -0.4 0.75 -0.5 1 1 1
v -0.5 1 -0.5 1 1 1
v -0.4 1 -0.5 1 1 1
v 0.5 1 -0.4 1 1 1
v 0.5 0 -0.4 1 1 1
v 0.5 0 0.4 1 1 1
v 0.5 0 0.5 1 1 1
v 0.4 0 0.5 1 1 1
v -0.4 0.75 0.5 1 1 1
v -0.5 0.75 0.5 1 1 1
v -0.4 1 0.5 1 1 1
v -0.5 1 0.5 1 1 1
v -0.5 0.75 0.4 1 1 1
v -0.5 1 0.4 1 1 1
v -0.5 0.75 -0.4 1 1 1
v -0.5 1 -0.4 1 1 1
v 0.4 1 -0.4 1 1 1
v -0.4 1 -0.4 1 1 1
v -0.4 1 0.4 1 1 1
v -0.4 0.75 -0.4 1 1 1
v -0.4 0.75 0.4 1 1 1
v 0 0.75 -0.5 1 1 1
v 0.125 0.7165064 -0.5 1 1 1
v 0.2165064 0.625 -0.5 1 1 1
v 0.25 0.5 -0.5 1 1 1
v 0.25 0 -0.5 1 1 1
v 0.25 0 0.5 1 1 1
v 0.25 0.5 0.5 1 1 1
v 0.2165064 0.625 0.5 1 1 1
v 0.125 0.7165064 0.5 1 1 1
v 0 0.75 0.5 1 1 1

vn 0 1 0
vn 0 -1 0
vn 0 0 -1
vn 0 0 1
vn 1 0 0
vn -1 0 0
vn -0.9914449 -0.1305262 0
vn 0.9914449 0.1305262 0
vn -0.258819 -0.9659258 0
vn -0.1305262 -0.9914449 0
vn 0.1305262 0.9914449 0
vn 0.258819 0.9659258 0
vn -0.7071068 -0.7071068 0
vn 0.7071068 0.7071068 0
vn -0.9659258 -0.258819 0
vn 0.9659258 0.258819 0

vt 1.888117 -2.118809
vt 1.999998 -2.11881
vt 1.888117 -2.230691
vt 1.999998 -2.230691
vt 1.888113 -0.9999968
vt 1.999993 -0.9999967
vt 1.888111 -2.118803
vt 1.999992 -2.118803
vt 1.888111 -1.839101
vt 1.999992 -1.839101
vt 1.999991 -2.118803
vt 1.888111 -2.118803
vt 1.999992 -1.839101
vt 1.999992 -2.118803
vt 1.888112 -1.839101
vt 1.888111 -2.118803
vt 1.888116 -2.230691
vt 1.888118 -1.727226
vt 1.999999 -1.727226
vt 1.888118 -1.839107
vt 1.999999 -1.839107
vt 1.888117 -1.727226
vt 1.999999 -1.727226
vt 1.888117 -1.839107
vt 1.999999 -1.839107
vt -0.1 0.75
vt -0.5 0.75
vt -0.1 1
vt -0.9 1
vt -0.625 0.7165064
vt -0.7165064 0.625
vt -0.75 0.5
vt -0.9 0
vt -0.75 0
vt -0.1 0
vt -0.1 -3.121131E-14
vt -0.25 -3.121131E-14
vt -0.25 0.5
vt -0.2834936 0.625
vt -0.375 0.7165064
vt -0.9 0.75
vt -0.9 0.7500001
vt -0.9 1
vt -0.09999999 0.7500001
vt -0.09999999 1
vt -3.5 0
vt -3.5 0.5
vt -2.5 0
vt -2.5 0.5
vt 1.987299E-14 -0.1
vt 2.109424E-15 -0.9
vt 0 0
vt 0 -1
vt -0.1 2.88658E-15
vt -0.1 -1
vt -0.25 2.88658E-15
vt -0.25 -1
vt 1 -0.1
vt 1 -0.9
vt 0.9 -0.1
vt 0.9 -0.9
vt 0.9 2.309264E-14
vt 0.9 -1
vt 0.1 2.88658E-15
vt 0.1 -0.1
vt 0.1 -0.9
vt 0.1 -1
vt -2.109424E-15 -0.9
vt -1.987299E-14 -0.1
vt 0.2308822 6.847833
vt 1.242397 6.847833
vt 0.2308822 6.716933
vt 1.242397 6.716933
vt 0.2308822 6.312327
vt 1.242397 6.312327
vt 0.3320337 6.312327
vt 1.141246 6.312327
vt 0.3320337 6.211175
vt 1.141246 6.211175
vt 1.242397 6.978732
vt 0.2308822 6.978732
vt 1.242397 7.109632
vt 0.2308822 7.109632

usemtl planks

f 3/3/1 2/2/1 1/1/1
f 2/2/1 3/3/1 4/4/1
f 1/1/2 2/2/2 3/3/2
f 4/4/2 3/3/2 2/2/2
f 7/7/3 6/6/3 5/5/3
f 6/6/3 7/7/3 8/8/3
f 5/5/4 6/6/4 7/7/4
f 8/8/4 7/7/4 6/6/4
f 11/7/3 10/10/3 9/9/3
f 10/10/3 11/7/3 12/8/3
f 9/9/4 10/10/4 11/7/4
f 12/8/4 11/7/4 10/10/4
f 13/8/5 6/5/5 8/7/5
f 6/5/5 13/8/5 14/6/5
f 8/7/6 6/5/6 13/8/6
f 14/6/6 13/8/6 6/5/6
f 2/8/5 15/5/5 1/7/5
f 15/5/5 2/8/5 16/6/5
f 1/7/6 15/5/6 2/8/6
f 16/6/6 2/8/6 15/5/6
f 2/7/4 17/6/4 16/5/4
f 17/6/4 2/7/4 4/8/4
f 16/5/3 17/6/3 2/7/3
f 4/8/3 2/7/3 17/6/3
f 20/7/4 19/10/4 18/9/4
f 19/10/4 20/7/4 21/8/4
f 18/9/3 19/10/3 20/7/3
f 21/8/3 20/7/3 19/10/3
f 19/9/6 23/11/6 22/10/6
f 23/11/6 19/9/6 21/12/6
f 22/10/5 23/11/5 19/9/5
f 21/12/5 19/9/5 23/11/5
f 24/15/6 11/14/6 9/13/6
f 11/14/6 24/15/6 25/16/6
f 9/13/5 11/14/5 24/15/5
f 25/16/5 24/15/5 11/14/5
f 8/2/1 26/3/1 13/4/1
f 26/3/1 8/2/1 7/1/1
f 13/4/2 26/3/2 8/2/2
f 7/1/2 8/2/2 26/3/2
f 11/1/1 27/4/1 12/2/1
f 27/4/1 11/1/1 25/17/1
f 12/2/2 27/4/2 11/1/2
f 25/17/2 11/1/2 27/4/2
f 23/2/1 20/3/1 28/4/1
f 20/3/1 23/2/1 21/1/1
f 28/4/2 20/3/2 23/2/2
f 21/1/2 23/2/2 20/3/2
f 24/20/2 10/19/2 29/18/2
f 10/19/2 24/20/2 9/21/2
f 29/18/1 10/19/1 24/20/1
f 9/21/1 24/20/1 10/19/1
f 19/24/2 30/23/2 18/22/2
f 30/23/2 19/24/2 22/25/2
f 18/22/1 30/23/1 19/24/1
f 22/25/1 19/24/1 30/23/1

usemtl stones

f 12/28/3 31/27/3 10/26/3
f 7/29/3 31/27/3 12/28/3
f 7/29/3 32/30/3 31/27/3
f 7/29/3 33/31/3 32/30/3
f 7/29/3 34/32/3 33/31/3
f 5/33/3 34/32/3 7/29/3
f 34/32/3 5/33/3 35/34/3
f 10/26/4 31/27/4 12/28/4
f 12/28/4 31/27/4 7/29/4
f 31/27/4 32/30/4 7/29/4
f 32/30/4 33/31/4 7/29/4
f 33/31/4 34/32/4 7/29/4
f 7/29/4 34/32/4 5/33/4
f 35/34/4 5/33/4 34/32/4
f 1/29/5 14/35/5 13/28/5
f 14/35/5 1/29/5 15/33/5
f 13/28/6 14/35/6 1/29/6
f 15/33/6 1/29/6 14/35/6
f 4/28/4 36/37/4 17/36/4
f 36/37/4 4/28/4 37/38/4
f 37/38/4 4/28/4 38/39/4
f 38/39/4 4/28/4 39/40/4
f 39/40/4 4/28/4 40/27/4
f 40/27/4 4/28/4 18/41/4
f 18/41/4 4/28/4 20/29/4
f 17/36/3 36/37/3 4/28/3
f 37/38/3 4/28/3 36/37/3
f 38/39/3 4/28/3 37/38/3
f 39/40/3 4/28/3 38/39/3
f 40/27/3 4/28/3 39/40/3
f 18/41/3 4/28/3 40/27/3
f 20/29/3 4/28/3 18/41/3
f 22/44/6 25/43/6 24/42/6
f 25/43/6 22/44/6 23/45/6
f 24/42/5 25/43/5 22/44/5
f 23/45/5 22/44/5 25/43/5
f 36/48/6 34/47/7 35/46/6
f 34/47/7 36/48/6 37/49/7
f 35/46/5 34/47/8 36/48/5
f 37/49/8 36/48/5 34/47/8

usemtl bricks

f 16/52/2 14/51/2 15/50/2
f 14/51/2 16/52/2 6/53/2
f 6/53/2 16/52/2 17/54/2
f 6/53/2 17/54/2 5/55/2
f 5/55/2 17/54/2 36/56/2
f 5/55/2 36/56/2 35/57/2
f 15/50/1 14/51/1 16/52/1
f 6/53/1 16/52/1 14/51/1
f 17/54/1 16/52/1 6/53/1
f 5/55/1 17/54/1 6/53/1
f 36/56/1 17/54/1 5/55/1
f 35/57/1 36/56/1 5/55/1
f 28/60/1 25/59/1 23/58/1
f 25/59/1 28/60/1 27/61/1
f 20/62/1 27/61/1 28/60/1
f 20/62/1 12/63/1 27/61/1
f 4/64/1 12/63/1 20/62/1
f 3/65/1 12/63/1 4/64/1
f 26/66/1 12/63/1 3/65/1
f 12/63/1 26/66/1 7/67/1
f 3/65/1 13/68/1 26/66/1
f 13/68/1 3/65/1 1/69/1
f 23/58/2 25/59/2 28/60/2
f 27/61/2 28/60/2 25/59/2
f 28/60/2 27/61/2 20/62/2
f 27/61/2 12/63/2 20/62/2
f 20/62/2 12/63/2 4/64/2
f 4/64/2 12/63/2 3/65/2
f 3/65/2 12/63/2 26/66/2
f 7/67/2 26/66/2 12/63/2
f 26/66/2 13/68/2 3/65/2
f 1/69/2 3/65/2 13/68/2
f 40/72/10 32/71/9 39/70/9
f 32/71/9 40/72/10 31/73/10
f 18/74/2 31/73/10 40/72/10
f 31/73/10 18/74/2 10/75/2
f 10/75/2 18/74/2 30/76/2
f 10/75/2 30/76/2 29/77/2
f 22/78/2 29/77/2 30/76/2
f 29/77/2 22/78/2 24/79/2
f 39/70/12 32/71/12 40/72/11
f 31/73/11 40/72/11 32/71/12
f 40/72/11 31/73/11 18/74/1
f 10/75/1 18/74/1 31/73/11
f 30/76/1 18/74/1 10/75/1
f 29/77/1 30/76/1 10/75/1
f 30/76/1 29/77/1 22/78/1
f 24/79/1 22/78/1 29/77/1
f 38/81/13 32/71/13 33/80/13
f 32/71/13 38/81/13 39/70/13
f 33/80/14 32/71/14 38/81/14
f 39/70/14 38/81/14 32/71/14
f 37/83/7 33/80/15 34/82/7
f 33/80/15 37/83/7 38/81/15
f 34/82/8 33/80/16 37/83/8
f 38/81/16 37/83/8 33/80/16

g wall-fortified-gate-half




usemtl planks

f 3/3/1 2/2/1 1/1/1
f 2/2/1 3/3/1 4/4/1
f 1/1/2 2/2/2 3/3/2
f 4/4/2 3/3/2 2/2/2
f 7/7/3 6/6/3 5/5/3
f 6/6/3 7/7/3 8/8/3
f 5/5/4 6/6/4 7/7/4
f 8/8/4 7/7/4 6/6/4
f 11/7/3 10/10/3 9/9/3
f 10/10/3 11/7/3 12/8/3
f 9/9/4 10/10/4 11/7/4
f 12/8/4 11/7/4 10/10/4
f 13/8/5 6/5/5 8/7/5
f 6/5/5 13/8/5 14/6/5
f 8/7/6 6/5/6 13/8/6
f 14/6/6 13/8/6 6/5/6
f 2/8/5 15/5/5 1/7/5
f 15/5/5 2/8/5 16/6/5
f 1/7/6 15/5/6 2/8/6
f 16/6/6 2/8/6 15/5/6
f 2/7/4 17/6/4 16/5/4
f 17/6/4 2/7/4 4/8/4
f 16/5/3 17/6/3 2/7/3
f 4/8/3 2/7/3 17/6/3
f 20/7/4 19/10/4 18/9/4
f 19/10/4 20/7/4 21/8/4
f 18/9/3 19/10/3 20/7/3
f 21/8/3 20/7/3 19/10/3
f 19/9/6 23/11/6 22/10/6
f 23/11/6 19/9/6 21/12/6
f 22/10/5 23/11/5 19/9/5
f 21/12/5 19/9/5 23/11/5
f 24/15/6 11/14/6 9/13/6
f 11/14/6 24/15/6 25/16/6
f 9/13/5 11/14/5 24/15/5
f 25/16/5 24/15/5 11/14/5
f 8/2/1 26/3/1 13/4/1
f 26/3/1 8/2/1 7/1/1
f 13/4/2 26/3/2 8/2/2
f 7/1/2 8/2/2 26/3/2
f 11/1/1 27/4/1 12/2/1
f 27/4/1 11/1/1 25/17/1
f 12/2/2 27/4/2 11/1/2
f 25/17/2 11/1/2 27/4/2
f 23/2/1 20/3/1 28/4/1
f 20/3/1 23/2/1 21/1/1
f 28/4/2 20/3/2 23/2/2
f 21/1/2 23/2/2 20/3/2
f 24/20/2 10/19/2 29/18/2
f 10/19/2 24/20/2 9/21/2
f 29/18/1 10/19/1 24/20/1
f 9/21/1 24/20/1 10/19/1
f 19/24/2 30/23/2 18/22/2
f 30/23/2 19/24/2 22/25/2
f 18/22/1 30/23/1 19/24/1
f 22/25/1 19/24/1 30/23/1

usemtl stones

f 12/28/3 31/27/3 10/26/3
f 7/29/3 31/27/3 12/28/3
f 7/29/3 32/30/3 31/27/3
f 7/29/3 33/31/3 32/30/3
f 7/29/3 34/32/3 33/31/3
f 5/33/3 34/32/3 7/29/3
f 34/32/3 5/33/3 35/34/3
f 10/26/4 31/27/4 12/28/4
f 12/28/4 31/27/4 7/29/4
f 31/27/4 32/30/4 7/29/4
f 32/30/4 33/31/4 7/29/4
f 33/31/4 34/32/4 7/29/4
f 7/29/4 34/32/4 5/33/4
f 35/34/4 5/33/4 34/32/4
f 1/29/5 14/35/5 13/28/5
f 14/35/5 1/29/5 15/33/5
f 13/28/6 14/35/6 1/29/6
f 15/33/6 1/29/6 14/35/6
f 4/28/4 36/37/4 17/36/4
f 36/37/4 4/28/4 37/38/4
f 37/38/4 4/28/4 38/39/4
f 38/39/4 4/28/4 39/40/4
f 39/40/4 4/28/4 40/27/4
f 40/27/4 4/28/4 18/41/4
f 18/41/4 4/28/4 20/29/4
f 17/36/3 36/37/3 4/28/3
f 37/38/3 4/28/3 36/37/3
f 38/39/3 4/28/3 37/38/3
f 39/40/3 4/28/3 38/39/3
f 40/27/3 4/28/3 39/40/3
f 18/41/3 4/28/3 40/27/3
f 20/29/3 4/28/3 18/41/3
f 22/44/6 25/43/6 24/42/6
f 25/43/6 22/44/6 23/45/6
f 24/42/5 25/43/5 22/44/5
f 23/45/5 22/44/5 25/43/5
f 36/48/6 34/47/7 35/46/6
f 34/47/7 36/48/6 37/49/7
f 35/46/5 34/47/8 36/48/5
f 37/49/8 36/48/5 34/47/8

usemtl bricks

f 16/52/2 14/51/2 15/50/2
f 14/51/2 16/52/2 6/53/2
f 6/53/2 16/52/2 17/54/2
f 6/53/2 17/54/2 5/55/2
f 5/55/2 17/54/2 36/56/2
f 5/55/2 36/56/2 35/57/2
f 15/50/1 14/51/1 16/52/1
f 6/53/1 16/52/1 14/51/1
f 17/54/1 16/52/1 6/53/1
f 5/55/1 17/54/1 6/53/1
f 36/56/1 17/54/1 5/55/1
f 35/57/1 36/56/1 5/55/1
f 28/60/1 25/59/1 23/58/1
f 25/59/1 28/60/1 27/61/1
f 20/62/1 27/61/1 28/60/1
f 20/62/1 12/63/1 27/61/1
f 4/64/1 12/63/1 20/62/1
f 3/65/1 12/63/1 4/64/1
f 26/66/1 12/63/1 3/65/1
f 12/63/1 26/66/1 7/67/1
f 3/65/1 13/68/1 26/66/1
f 13/68/1 3/65/1 1/69/1
f 23/58/2 25/59/2 28/60/2
f 27/61/2 28/60/2 25/59/2
f 28/60/2 27/61/2 20/62/2
f 27/61/2 12/63/2 20/62/2
f 20/62/2 12/63/2 4/64/2
f 4/64/2 12/63/2 3/65/2
f 3/65/2 12/63/2 26/66/2
f 7/67/2 26/66/2 12/63/2
f 26/66/2 13/68/2 3/65/2
f 1/69/2 3/65/2 13/68/2
f 40/72/10 32/71/9 39/70/9
f 32/71/9 40/72/10 31/73/10
f 18/74/2 31/73/10 40/72/10
f 31/73/10 18/74/2 10/75/2
f 10/75/2 18/74/2 30/76/2
f 10/75/2 30/76/2 29/77/2
f 22/78/2 29/77/2 30/76/2
f 29/77/2 22/78/2 24/79/2
f 39/70/12 32/71/12 40/72/11
f 31/73/11 40/72/11 32/71/12
f 40/72/11 31/73/11 18/74/1
f 10/75/1 18/74/1 31/73/11
f 30/76/1 18/74/1 10/75/1
f 29/77/1 30/76/1 10/75/1
f 30/76/1 29/77/1 22/78/1
f 24/79/1 22/78/1 29/77/1
f 38/81/13 32/71/13 33/80/13
f 32/71/13 38/81/13 39/70/13
f 33/80/14 32/71/14 38/81/14
f 39/70/14 38/81/14 32/71/14
f 37/83/7 33/80/15 34/82/7
f 33/80/15 37/83/7 38/81/15
f 34/82/8 33/80/16 37/83/8
f 38/81/16 37/83/8 33/80/16

