# Created by Kenney (www.kenney.nl)

mtllib wall-pane-door.mtl

g wall-pane-door

v -0.5 6.485923E-17 0 1 1 1
v -0.2 6.485923E-17 0 1 1 1
v -0.5 1 0 1 1 1
v -0.2 0.6 0 1 1 1
v 0.2 0.6 0 1 1 1
v 0.5 1 0 1 1 1
v 0.5 6.485923E-17 0 1 1 1
v 0.2 6.485923E-17 0 1 1 1
v -0.2 6.485923E-17 0.05 1 1 1
v 0.2 6.485923E-17 0.05 1 1 1
v -0.2 0.6 0.05 1 1 1
v 0.2 0.6 0.05 1 1 1

vn 0 0 -1
vn 0 0 1
vn 1 0 0
vn -1 0 0
vn 0 -1 0
vn 0 1 0

vt 0 1.232595E-32
vt -0.3 1.232595E-32
vt 0 1
vt -0.3 0.6
vt -0.7 0.6
vt -1 1
vt -1 1.232595E-32
vt -0.7 1.232595E-32
vt -3.408203 0.04825442
vt -3.019575 0.04825442
vt -3.408203 0.6311969
vt -3.019575 0.6311969
vt -3.089507 0.6402596
vt -3.089507 0.04026208
vt -3.039507 0.6402596
vt -3.039508 0.04026208
vt -3.388222 0.5029347
vt -3.351007 0.5029347
vt -3.388222 0.205215
vt -3.351007 0.205215

usemtl stones

f 3/3/1 2/2/1 1/1/1
f 2/2/1 3/3/1 4/4/1
f 4/4/1 3/3/1 5/5/1
f 6/6/1 5/5/1 3/3/1
f 7/7/1 5/5/1 6/6/1
f 5/5/1 7/7/1 8/8/1
f 1/1/2 2/2/2 3/3/2
f 4/4/2 3/3/2 2/2/2
f 5/5/2 3/3/2 4/4/2
f 3/3/2 5/5/2 6/6/2
f 6/6/2 5/5/2 7/7/2
f 8/8/2 7/7/2 5/5/2

usemtl details

f 11/11/1 10/10/1 9/9/1
f 10/10/1 11/11/1 12/12/1
f 9/9/2 10/10/2 11/11/2
f 12/12/2 11/11/2 10/10/2
f 11/15/3 2/14/3 4/13/3
f 2/14/3 11/15/3 9/16/3
f 4/13/4 2/14/4 11/15/4
f 9/16/4 11/15/4 2/14/4
f 11/19/5 5/18/5 12/17/5
f 5/18/5 11/19/5 4/20/5
f 12/17/6 5/18/6 11/19/6
f 4/20/6 11/19/6 5/18/6
f 10/16/4 5/13/4 8/14/4
f 5/13/4 10/16/4 12/15/4
f 8/14/3 5/13/3 10/16/3
f 12/15/3 10/16/3 5/13/3

g wall-pane-door




usemtl stones

f 3/3/1 2/2/1 1/1/1
f 2/2/1 3/3/1 4/4/1
f 4/4/1 3/3/1 5/5/1
f 6/6/1 5/5/1 3/3/1
f 7/7/1 5/5/1 6/6/1
f 5/5/1 7/7/1 8/8/1
f 1/1/2 2/2/2 3/3/2
f 4/4/2 3/3/2 2/2/2
f 5/5/2 3/3/2 4/4/2
f 3/3/2 5/5/2 6/6/2
f 6/6/2 5/5/2 7/7/2
f 8/8/2 7/7/2 5/5/2

usemtl details

f 11/11/1 10/10/1 9/9/1
f 10/10/1 11/11/1 12/12/1
f 9/9/2 10/10/2 11/11/2
f 12/12/2 11/11/2 10/10/2
f 11/15/3 2/14/3 4/13/3
f 2/14/3 11/15/3 9/16/3
f 4/13/4 2/14/4 11/15/4
f 9/16/4 11/15/4 2/14/4
f 11/19/5 5/18/5 12/17/5
f 5/18/5 11/19/5 4/20/5
f 12/17/6 5/18/6 11/19/6
f 4/20/6 11/19/6 5/18/6
f 10/16/4 5/13/4 8/14/4
f 5/13/4 10/16/4 12/15/4
f 8/14/3 5/13/3 10/16/3
f 12/15/3 10/16/3 5/13/3

