# Created by Kenney (www.kenney.nl)

mtllib wall-fortified-paint-half.mtl

g wall-fortified-paint-half

v 0.5 1 0.4 1 1 1
v 0.5 1 0.5 1 1 1
v 0.4 1 0.4 1 1 1
v 0.4 1 0.5 1 1 1
v 0.4 0 -0.5 1 1 1
v 0.5 0 -0.5 1 1 1
v 0.4 1 -0.5 1 1 1
v 0.5 1 -0.5 1 1 1
v 0.5 1 -0.4 1 1 1
v 0.5 0 -0.4 1 1 1
v 0.5 0 0.4 1 1 1
v 0.5 0 0.5 1 1 1
v 0.4 0 0.5 1 1 1
v 0.4 1 -0.4 1 1 1
v 0 0 -0.5 1 1 1
v 0 1 -0.5 1 1 1
v 0 0 0.5 1 1 1
v 0 1 0.5 1 1 1

vn 0 1 0
vn 0 -1 0
vn 0 0 -1
vn 0 0 1
vn 1 0 0
vn -1 0 0

vt 1.888117 -2.118809
vt 1.999998 -2.11881
vt 1.888117 -2.230691
vt 1.999998 -2.230691
vt 1.888113 -0.9999968
vt 1.999993 -0.9999967
vt 1.888111 -2.118803
vt 1.999992 -2.118803
vt -0.5 0
vt -0.9 0
vt -0.5 1
vt -0.9 1
vt -0.1 1
vt -0.1 0
vt 0.5 0
vt 0.5 1
vt 1.953993E-14 -0.1
vt 1.44329E-15 -0.9
vt 0 0
vt 0 -1
vt -0.1 2.942091E-15
vt -0.1 -1
vt -0.5 1.371125E-14
vt -0.5 -1
vt 0.1 -1
vt 0.1 -0.9
vt 0.5 -1
vt 0.1 -0.1
vt -1.44329E-15 -0.9
vt -1.953993E-14 -0.1
vt 0.1 2.942091E-15
vt 0.5 1.371125E-14

usemtl planks

f 3/3/1 2/2/1 1/1/1
f 2/2/1 3/3/1 4/4/1
f 1/1/2 2/2/2 3/3/2
f 4/4/2 3/3/2 2/2/2
f 7/7/3 6/6/3 5/5/3
f 6/6/3 7/7/3 8/8/3
f 5/5/4 6/6/4 7/7/4
f 8/8/4 7/7/4 6/6/4
f 9/8/5 6/5/5 8/7/5
f 6/5/5 9/8/5 10/6/5
f 8/7/6 6/5/6 9/8/6
f 10/6/6 9/8/6 6/5/6
f 2/8/5 11/5/5 1/7/5
f 11/5/5 2/8/5 12/6/5
f 1/7/6 11/5/6 2/8/6
f 12/6/6 2/8/6 11/5/6
f 2/7/4 13/6/4 12/5/4
f 13/6/4 2/7/4 4/8/4
f 12/5/3 13/6/3 2/7/3
f 4/8/3 2/7/3 13/6/3
f 8/2/1 14/3/1 9/4/1
f 14/3/1 8/2/1 7/1/1
f 9/4/2 14/3/2 8/2/2
f 7/1/2 8/2/2 14/3/2

usemtl stonesPainted

f 16/11/3 5/10/3 15/9/3
f 5/10/3 16/11/3 7/12/3
f 15/9/4 5/10/4 16/11/4
f 7/12/4 16/11/4 5/10/4
f 1/12/5 10/14/5 9/13/5
f 10/14/5 1/12/5 11/10/5
f 9/13/6 10/14/6 1/12/6
f 11/10/6 1/12/6 10/14/6
f 4/13/4 17/9/4 13/14/4
f 17/9/4 4/13/4 18/11/4
f 13/14/3 17/9/3 4/13/3
f 18/11/3 4/13/3 17/9/3
f 17/15/6 16/11/6 15/9/6
f 16/11/6 17/15/6 18/16/6
f 15/9/5 16/11/5 17/15/5
f 18/16/5 17/15/5 16/11/5

usemtl bricks

f 12/19/2 10/18/2 11/17/2
f 10/18/2 12/19/2 6/20/2
f 6/20/2 12/19/2 13/21/2
f 6/20/2 13/21/2 5/22/2
f 5/22/2 13/21/2 17/23/2
f 5/22/2 17/23/2 15/24/2
f 11/17/1 10/18/1 12/19/1
f 6/20/1 12/19/1 10/18/1
f 13/21/1 12/19/1 6/20/1
f 5/22/1 13/21/1 6/20/1
f 17/23/1 13/21/1 5/22/1
f 15/24/1 17/23/1 5/22/1
f 16/27/1 14/26/1 7/25/1
f 14/26/1 16/27/1 3/28/1
f 3/28/1 9/29/1 14/26/1
f 9/29/1 3/28/1 1/30/1
f 3/28/1 16/27/1 4/31/1
f 4/31/1 16/27/1 18/32/1
f 7/25/2 14/26/2 16/27/2
f 3/28/2 16/27/2 14/26/2
f 14/26/2 9/29/2 3/28/2
f 1/30/2 3/28/2 9/29/2
f 4/31/2 16/27/2 3/28/2
f 18/32/2 16/27/2 4/31/2

g wall-fortified-paint-half




usemtl planks

f 3/3/1 2/2/1 1/1/1
f 2/2/1 3/3/1 4/4/1
f 1/1/2 2/2/2 3/3/2
f 4/4/2 3/3/2 2/2/2
f 7/7/3 6/6/3 5/5/3
f 6/6/3 7/7/3 8/8/3
f 5/5/4 6/6/4 7/7/4
f 8/8/4 7/7/4 6/6/4
f 9/8/5 6/5/5 8/7/5
f 6/5/5 9/8/5 10/6/5
f 8/7/6 6/5/6 9/8/6
f 10/6/6 9/8/6 6/5/6
f 2/8/5 11/5/5 1/7/5
f 11/5/5 2/8/5 12/6/5
f 1/7/6 11/5/6 2/8/6
f 12/6/6 2/8/6 11/5/6
f 2/7/4 13/6/4 12/5/4
f 13/6/4 2/7/4 4/8/4
f 12/5/3 13/6/3 2/7/3
f 4/8/3 2/7/3 13/6/3
f 8/2/1 14/3/1 9/4/1
f 14/3/1 8/2/1 7/1/1
f 9/4/2 14/3/2 8/2/2
f 7/1/2 8/2/2 14/3/2

usemtl stonesPainted

f 16/11/3 5/10/3 15/9/3
f 5/10/3 16/11/3 7/12/3
f 15/9/4 5/10/4 16/11/4
f 7/12/4 16/11/4 5/10/4
f 1/12/5 10/14/5 9/13/5
f 10/14/5 1/12/5 11/10/5
f 9/13/6 10/14/6 1/12/6
f 11/10/6 1/12/6 10/14/6
f 4/13/4 17/9/4 13/14/4
f 17/9/4 4/13/4 18/11/4
f 13/14/3 17/9/3 4/13/3
f 18/11/3 4/13/3 17/9/3
f 17/15/6 16/11/6 15/9/6
f 16/11/6 17/15/6 18/16/6
f 15/9/5 16/11/5 17/15/5
f 18/16/5 17/15/5 16/11/5

usemtl bricks

f 12/19/2 10/18/2 11/17/2
f 10/18/2 12/19/2 6/20/2
f 6/20/2 12/19/2 13/21/2
f 6/20/2 13/21/2 5/22/2
f 5/22/2 13/21/2 17/23/2
f 5/22/2 17/23/2 15/24/2
f 11/17/1 10/18/1 12/19/1
f 6/20/1 12/19/1 10/18/1
f 13/21/1 12/19/1 6/20/1
f 5/22/1 13/21/1 6/20/1
f 17/23/1 13/21/1 5/22/1
f 15/24/1 17/23/1 5/22/1
f 16/27/1 14/26/1 7/25/1
f 14/26/1 16/27/1 3/28/1
f 3/28/1 9/29/1 14/26/1
f 9/29/1 3/28/1 1/30/1
f 3/28/1 16/27/1 4/31/1
f 4/31/1 16/27/1 18/32/1
f 7/25/2 14/26/2 16/27/2
f 3/28/2 16/27/2 14/26/2
f 14/26/2 9/29/2 3/28/2
f 1/30/2 3/28/2 9/29/2
f 4/31/2 16/27/2 3/28/2
f 18/32/2 16/27/2 4/31/2

