# Created by Kenney (www.kenney.nl)

mtllib wall-paint-window.mtl

g wall-paint-window

v 0.5 0 0.5 1 1 1
v -0.5 0 0.5 1 1 1
v 0.5 1 0.5 1 1 1
v -0.5 1 0.5 1 1 1
v 0.5 1 -0.5 1 1 1
v 0.5 0 -0.5 1 1 1
v -0.5 0 -0.5 1 1 1
v -0.5 1 -0.5 1 1 1
v -0.4 0 -0.5 1 1 1
v -0.2 0.3353912 -0.5 1 1 1
v 0.4 0 -0.5 1 1 1
v -0.2 0.6646088 -0.5 1 1 1
v 0.2 0.3353912 -0.5 1 1 1
v 0.2 0.6646088 -0.5 1 1 1
v 0.2 0.3353912 -0.45 1 1 1
v 0.2 0.6646088 -0.45 1 1 1
v -0.2 0.3353912 -0.45 1 1 1
v -0.2 0.6646088 -0.45 1 1 1

vn 0 0 1
vn 0 0 -1
vn 1 0 0
vn -1 0 0
vn 0 1 0
vn 0 -1 0

vt 0.5 0
vt -0.5 0
vt 0.5 1
vt -0.5 1
vt 0.4 0
vt 0.2 0.3353912
vt -0.4 0
vt 0.2 0.6646088
vt -0.2 0.3353912
vt -0.2 0.6646088
vt 0 -1
vt 0 0
vt 1 -1
vt 1 0
vt -1 0
vt -0.1 -1
vt -0.9 -1
vt -1 -1
vt -3.352236 0.2272345
vt -3.352236 0.4693356
vt -3.389005 0.2272345
vt -3.389004 0.4693356
vt -3.023511 0.6649238
vt -3.412139 0.6649238
vt -3.023511 0.9847822
vt -3.412139 0.9847822
vt -3.090757 1.179796
vt -3.046798 1.179796
vt -3.090757 1.531467
vt -3.046798 1.531467

usemtl stonesPainted

f 3/3/1 2/2/1 1/1/1
f 2/2/1 3/3/1 4/4/1
f 1/1/2 2/2/2 3/3/2
f 4/4/2 3/3/2 2/2/2
f 3/4/3 6/1/3 5/3/3
f 6/1/3 3/4/3 1/2/3
f 5/3/4 6/1/4 3/4/4
f 1/2/4 3/4/4 6/1/4
f 2/1/4 8/4/4 7/2/4
f 8/4/4 2/1/4 4/3/4
f 7/2/3 8/4/3 2/1/3
f 4/3/3 2/1/3 8/4/3
f 8/3/2 9/5/2 7/1/2
f 9/5/2 8/3/2 10/6/2
f 9/5/2 10/6/2 11/7/2
f 11/7/2 10/6/2 6/2/2
f 10/6/2 8/3/2 12/8/2
f 13/9/2 6/2/2 10/6/2
f 12/8/2 8/3/2 14/10/2
f 6/2/2 13/9/2 5/4/2
f 5/4/2 13/9/2 14/10/2
f 5/4/2 14/10/2 8/3/2
f 7/1/1 9/5/1 8/3/1
f 10/6/1 8/3/1 9/5/1
f 11/7/1 10/6/1 9/5/1
f 6/2/1 10/6/1 11/7/1
f 12/8/1 8/3/1 10/6/1
f 10/6/1 6/2/1 13/9/1
f 14/10/1 8/3/1 12/8/1
f 5/4/1 13/9/1 6/2/1
f 8/3/1 14/10/1 5/4/1
f 14/10/1 13/9/1 5/4/1

usemtl bricks

f 8/13/5 3/12/5 5/11/5
f 3/12/5 8/13/5 4/14/5
f 5/11/6 3/12/6 8/13/6
f 4/14/6 8/13/6 3/12/6
f 2/15/6 6/11/6 1/12/6
f 6/11/6 2/15/6 11/16/6
f 11/16/6 2/15/6 9/17/6
f 9/17/6 2/15/6 7/18/6
f 1/12/5 6/11/5 2/15/5
f 11/16/5 2/15/5 6/11/5
f 9/17/5 2/15/5 11/16/5
f 7/18/5 2/15/5 9/17/5

usemtl details

f 15/21/4 14/20/4 13/19/4
f 14/20/4 15/21/4 16/22/4
f 13/19/3 14/20/3 15/21/3
f 16/22/3 15/21/3 14/20/3
f 18/25/2 15/24/2 17/23/2
f 15/24/2 18/25/2 16/26/2
f 17/23/1 15/24/1 18/25/1
f 16/26/1 18/25/1 15/24/1
f 10/29/5 15/28/5 13/27/5
f 15/28/5 10/29/5 17/30/5
f 13/27/6 15/28/6 10/29/6
f 17/30/6 10/29/6 15/28/6
f 18/30/6 14/27/6 16/28/6
f 14/27/6 18/30/6 12/29/6
f 16/28/5 14/27/5 18/30/5
f 12/29/5 18/30/5 14/27/5
f 18/22/3 10/19/3 12/20/3
f 10/19/3 18/22/3 17/21/3
f 12/20/4 10/19/4 18/22/4
f 17/21/4 18/22/4 10/19/4

g wall-paint-window




usemtl stonesPainted

f 3/3/1 2/2/1 1/1/1
f 2/2/1 3/3/1 4/4/1
f 1/1/2 2/2/2 3/3/2
f 4/4/2 3/3/2 2/2/2
f 3/4/3 6/1/3 5/3/3
f 6/1/3 3/4/3 1/2/3
f 5/3/4 6/1/4 3/4/4
f 1/2/4 3/4/4 6/1/4
f 2/1/4 8/4/4 7/2/4
f 8/4/4 2/1/4 4/3/4
f 7/2/3 8/4/3 2/1/3
f 4/3/3 2/1/3 8/4/3
f 8/3/2 9/5/2 7/1/2
f 9/5/2 8/3/2 10/6/2
f 9/5/2 10/6/2 11/7/2
f 11/7/2 10/6/2 6/2/2
f 10/6/2 8/3/2 12/8/2
f 13/9/2 6/2/2 10/6/2
f 12/8/2 8/3/2 14/10/2
f 6/2/2 13/9/2 5/4/2
f 5/4/2 13/9/2 14/10/2
f 5/4/2 14/10/2 8/3/2
f 7/1/1 9/5/1 8/3/1
f 10/6/1 8/3/1 9/5/1
f 11/7/1 10/6/1 9/5/1
f 6/2/1 10/6/1 11/7/1
f 12/8/1 8/3/1 10/6/1
f 10/6/1 6/2/1 13/9/1
f 14/10/1 8/3/1 12/8/1
f 5/4/1 13/9/1 6/2/1
f 8/3/1 14/10/1 5/4/1
f 14/10/1 13/9/1 5/4/1

usemtl bricks

f 8/13/5 3/12/5 5/11/5
f 3/12/5 8/13/5 4/14/5
f 5/11/6 3/12/6 8/13/6
f 4/14/6 8/13/6 3/12/6
f 2/15/6 6/11/6 1/12/6
f 6/11/6 2/15/6 11/16/6
f 11/16/6 2/15/6 9/17/6
f 9/17/6 2/15/6 7/18/6
f 1/12/5 6/11/5 2/15/5
f 11/16/5 2/15/5 6/11/5
f 9/17/5 2/15/5 11/16/5
f 7/18/5 2/15/5 9/17/5

usemtl details

f 15/21/4 14/20/4 13/19/4
f 14/20/4 15/21/4 16/22/4
f 13/19/3 14/20/3 15/21/3
f 16/22/3 15/21/3 14/20/3
f 18/25/2 15/24/2 17/23/2
f 15/24/2 18/25/2 16/26/2
f 17/23/1 15/24/1 18/25/1
f 16/26/1 18/25/1 15/24/1
f 10/29/5 15/28/5 13/27/5
f 15/28/5 10/29/5 17/30/5
f 13/27/6 15/28/6 10/29/6
f 17/30/6 10/29/6 15/28/6
f 18/30/6 14/27/6 16/28/6
f 14/27/6 18/30/6 12/29/6
f 16/28/5 14/27/5 18/30/5
f 12/29/5 18/30/5 14/27/5
f 18/22/3 10/19/3 12/20/3
f 10/19/3 18/22/3 17/21/3
f 12/20/4 10/19/4 18/22/4
f 17/21/4 18/22/4 10/19/4

