# Created by Kenney (www.kenney.nl)

mtllib wall-pane-painted-wood-door.mtl

g wall-pane-painted-wood-door

v -0.4 0 0 1 1 1
v -0.2 0 0 1 1 1
v -0.4 1 0 1 1 1
v -0.2 0.6 0 1 1 1
v 0.2 0.6 0 1 1 1
v 0.4 1 0 1 1 1
v 0.4 0 0 1 1 1
v 0.2 0 0 1 1 1
v 0.5 0 0 1 1 1
v 0.5 1 0 1 1 1
v -0.5 0 0 1 1 1
v -0.5 1 0 1 1 1
v 0.2 0 0.05 1 1 1
v 0.2 0.6 0.05 1 1 1
v -0.2 0.6 0.05 1 1 1
v -0.2 0 0.05 1 1 1

vn 0 0 -1
vn 0 0 1
vn -1 0 0
vn 1 0 0
vn 0 -1 0
vn 0 1 0

vt -0.1 0
vt -0.3 0
vt -0.1 1
vt -0.3 0.6
vt -0.7 0.6
vt -0.9 1
vt -0.9 0
vt -0.7 0
vt 1.888113 -0.9999968
vt 1.999993 -0.9999967
vt 1.888111 -2.118803
vt 1.999992 -2.118803
vt -3.089507 0.04026208
vt -3.089507 0.6402596
vt -3.039508 0.04026208
vt -3.039507 0.6402596
vt -3.408203 0.04825442
vt -3.019575 0.04825442
vt -3.408203 0.6311969
vt -3.019575 0.6311969
vt -3.388222 0.5029347
vt -3.351007 0.5029347
vt -3.388222 0.205215
vt -3.351007 0.205215

usemtl stonesPainted

f 3/3/1 2/2/1 1/1/1
f 2/2/1 3/3/1 4/4/1
f 4/4/1 3/3/1 5/5/1
f 6/6/1 5/5/1 3/3/1
f 7/7/1 5/5/1 6/6/1
f 5/5/1 7/7/1 8/8/1
f 1/1/2 2/2/2 3/3/2
f 4/4/2 3/3/2 2/2/2
f 5/5/2 3/3/2 4/4/2
f 3/3/2 5/5/2 6/6/2
f 6/6/2 5/5/2 7/7/2
f 8/8/2 7/7/2 5/5/2

usemtl planks

f 6/11/1 9/10/1 7/9/1
f 9/10/1 6/11/1 10/12/1
f 7/9/2 9/10/2 6/11/2
f 10/12/2 6/11/2 9/10/2
f 12/11/1 1/10/1 11/9/1
f 1/10/1 12/11/1 3/12/1
f 11/9/2 1/10/2 12/11/2
f 3/12/2 12/11/2 1/10/2

usemtl details

f 13/15/3 5/14/3 8/13/3
f 5/14/3 13/15/3 14/16/3
f 8/13/4 5/14/4 13/15/4
f 14/16/4 13/15/4 5/14/4
f 15/16/4 2/13/4 4/14/4
f 2/13/4 15/16/4 16/15/4
f 4/14/3 2/13/3 15/16/3
f 16/15/3 15/16/3 2/13/3
f 15/19/1 13/18/1 16/17/1
f 13/18/1 15/19/1 14/20/1
f 16/17/2 13/18/2 15/19/2
f 14/20/2 15/19/2 13/18/2
f 15/23/5 5/22/5 14/21/5
f 5/22/5 15/23/5 4/24/5
f 14/21/6 5/22/6 15/23/6
f 4/24/6 15/23/6 5/22/6

g wall-pane-painted-wood-door




usemtl stonesPainted

f 3/3/1 2/2/1 1/1/1
f 2/2/1 3/3/1 4/4/1
f 4/4/1 3/3/1 5/5/1
f 6/6/1 5/5/1 3/3/1
f 7/7/1 5/5/1 6/6/1
f 5/5/1 7/7/1 8/8/1
f 1/1/2 2/2/2 3/3/2
f 4/4/2 3/3/2 2/2/2
f 5/5/2 3/3/2 4/4/2
f 3/3/2 5/5/2 6/6/2
f 6/6/2 5/5/2 7/7/2
f 8/8/2 7/7/2 5/5/2

usemtl planks

f 6/11/1 9/10/1 7/9/1
f 9/10/1 6/11/1 10/12/1
f 7/9/2 9/10/2 6/11/2
f 10/12/2 6/11/2 9/10/2
f 12/11/1 1/10/1 11/9/1
f 1/10/1 12/11/1 3/12/1
f 11/9/2 1/10/2 12/11/2
f 3/12/2 12/11/2 1/10/2

usemtl details

f 13/15/3 5/14/3 8/13/3
f 5/14/3 13/15/3 14/16/3
f 8/13/4 5/14/4 13/15/4
f 14/16/4 13/15/4 5/14/4
f 15/16/4 2/13/4 4/14/4
f 2/13/4 15/16/4 16/15/4
f 4/14/3 2/13/3 15/16/3
f 16/15/3 15/16/3 2/13/3
f 15/19/1 13/18/1 16/17/1
f 13/18/1 15/19/1 14/20/1
f 16/17/2 13/18/2 15/19/2
f 14/20/2 15/19/2 13/18/2
f 15/23/5 5/22/5 14/21/5
f 5/22/5 15/23/5 4/24/5
f 14/21/6 5/22/6 15/23/6
f 4/24/6 15/23/6 5/22/6

