# Created by Kenney (www.kenney.nl)

mtllib wall-pane-wood-window.mtl

g wall-pane-wood-window

v -0.2 0.3353912 0 1 1 1
v -0.4 1 0 1 1 1
v -0.2 0.6646088 0 1 1 1
v 0.2 0.6646088 0 1 1 1
v -0.4 0 0 1 1 1
v 0.4 1 0 1 1 1
v 0.4 0 0 1 1 1
v 0.2 0.3353912 0 1 1 1
v 0.5 0 0 1 1 1
v 0.5 1 0 1 1 1
v -0.5 0 0 1 1 1
v -0.5 1 0 1 1 1
v -0.2 0.3353912 0.05 1 1 1
v 0.2 0.3353912 0.05 1 1 1
v -0.2 0.6646088 0.05 1 1 1
v 0.2 0.6646088 0.05 1 1 1

vn 0 0 1
vn 0 0 -1
vn -1 0 0
vn 1 0 0
vn 0 -1 0
vn 0 1 0

vt -0.3 0.3353912
vt -0.1 1
vt -0.3 0.6646088
vt -0.7 0.6646088
vt -0.1 0
vt -0.9 1
vt -0.9 0
vt -0.7 0.3353912
vt 1.888113 -0.9999968
vt 1.999993 -0.9999967
vt 1.888111 -2.118803
vt 1.999992 -2.118803
vt -3.023511 0.6649238
vt -3.412139 0.6649238
vt -3.023511 0.9847822
vt -3.412139 0.9847822
vt -3.352236 0.2272345
vt -3.352236 0.4693356
vt -3.389005 0.2272345
vt -3.389004 0.4693356
vt -3.046798 1.179796
vt -3.090757 1.179796
vt -3.046798 1.531467
vt -3.090757 1.531467

usemtl stones

f 3/3/1 2/2/1 1/1/1
f 4/4/1 2/2/1 3/3/1
f 2/2/1 5/5/1 1/1/1
f 2/2/1 4/4/1 6/6/1
f 7/7/1 1/1/1 5/5/1
f 4/4/1 8/8/1 6/6/1
f 1/1/1 7/7/1 8/8/1
f 6/6/1 8/8/1 7/7/1
f 1/1/2 2/2/2 3/3/2
f 3/3/2 2/2/2 4/4/2
f 1/1/2 5/5/2 2/2/2
f 6/6/2 4/4/2 2/2/2
f 5/5/2 1/1/2 7/7/2
f 6/6/2 8/8/2 4/4/2
f 7/7/2 8/8/2 6/6/2
f 8/8/2 7/7/2 1/1/2

usemtl planks

f 6/11/2 9/10/2 7/9/2
f 9/10/2 6/11/2 10/12/2
f 7/9/1 9/10/1 6/11/1
f 10/12/1 6/11/1 9/10/1
f 12/11/2 5/10/2 11/9/2
f 5/10/2 12/11/2 2/12/2
f 11/9/1 5/10/1 12/11/1
f 2/12/1 12/11/1 5/10/1

usemtl details

f 15/15/2 14/14/2 13/13/2
f 14/14/2 15/15/2 16/16/2
f 13/13/1 14/14/1 15/15/1
f 16/16/1 15/15/1 14/14/1
f 14/19/3 4/18/3 8/17/3
f 4/18/3 14/19/3 16/20/3
f 8/17/4 4/18/4 14/19/4
f 16/20/4 14/19/4 4/18/4
f 15/23/5 4/22/5 16/21/5
f 4/22/5 15/23/5 3/24/5
f 16/21/6 4/22/6 15/23/6
f 3/24/6 15/23/6 4/22/6
f 1/24/6 14/21/6 8/22/6
f 14/21/6 1/24/6 13/23/6
f 8/22/5 14/21/5 1/24/5
f 13/23/5 1/24/5 14/21/5
f 15/20/4 1/17/4 3/18/4
f 1/17/4 15/20/4 13/19/4
f 3/18/3 1/17/3 15/20/3
f 13/19/3 15/20/3 1/17/3

g wall-pane-wood-window




usemtl stones

f 3/3/1 2/2/1 1/1/1
f 4/4/1 2/2/1 3/3/1
f 2/2/1 5/5/1 1/1/1
f 2/2/1 4/4/1 6/6/1
f 7/7/1 1/1/1 5/5/1
f 4/4/1 8/8/1 6/6/1
f 1/1/1 7/7/1 8/8/1
f 6/6/1 8/8/1 7/7/1
f 1/1/2 2/2/2 3/3/2
f 3/3/2 2/2/2 4/4/2
f 1/1/2 5/5/2 2/2/2
f 6/6/2 4/4/2 2/2/2
f 5/5/2 1/1/2 7/7/2
f 6/6/2 8/8/2 4/4/2
f 7/7/2 8/8/2 6/6/2
f 8/8/2 7/7/2 1/1/2

usemtl planks

f 6/11/2 9/10/2 7/9/2
f 9/10/2 6/11/2 10/12/2
f 7/9/1 9/10/1 6/11/1
f 10/12/1 6/11/1 9/10/1
f 12/11/2 5/10/2 11/9/2
f 5/10/2 12/11/2 2/12/2
f 11/9/1 5/10/1 12/11/1
f 2/12/1 12/11/1 5/10/1

usemtl details

f 15/15/2 14/14/2 13/13/2
f 14/14/2 15/15/2 16/16/2
f 13/13/1 14/14/1 15/15/1
f 16/16/1 15/15/1 14/14/1
f 14/19/3 4/18/3 8/17/3
f 4/18/3 14/19/3 16/20/3
f 8/17/4 4/18/4 14/19/4
f 16/20/4 14/19/4 4/18/4
f 15/23/5 4/22/5 16/21/5
f 4/22/5 15/23/5 3/24/5
f 16/21/6 4/22/6 15/23/6
f 3/24/6 15/23/6 4/22/6
f 1/24/6 14/21/6 8/22/6
f 14/21/6 1/24/6 13/23/6
f 8/22/5 14/21/5 1/24/5
f 13/23/5 1/24/5 14/21/5
f 15/20/4 1/17/4 3/18/4
f 1/17/4 15/20/4 13/19/4
f 3/18/3 1/17/3 15/20/3
f 13/19/3 15/20/3 1/17/3

